<?xml version="1.0" encoding="UTF-8" standalone="no"?>
<!DOCTYPE svg PUBLIC "-//W3C//DTD SVG 1.1//EN"
 "http://www.w3.org/Graphics/SVG/1.1/DTD/svg11.dtd">
<!-- Generated by graphviz version 12.1.2 (20240928.0832)
 -->
<!-- Title: public.topic_relationships Pages: 1 -->
<svg width="376pt" height="228pt"
 viewBox="0.00 0.00 375.54 228.40" xmlns="http://www.w3.org/2000/svg" xmlns:xlink="http://www.w3.org/1999/xlink">
<g id="graph0" class="graph" transform="scale(1 1) rotate(0) translate(4 224.4)">
<title>public.topic_relationships</title>
<polygon fill="white" stroke="none" points="-4,4 -4,-224.4 371.54,-224.4 371.54,4 -4,4"/>
<!-- public.topic_relationships -->
<g id="node1" class="node">
<title>public.topic_relationships</title>
<polygon fill="#efefef" stroke="none" points="46.2,-138.6 46.2,-174.2 321.34,-174.2 321.34,-138.6 46.2,-138.6"/>
<polygon fill="none" stroke="black" points="46.2,-138.6 46.2,-174.2 321.34,-174.2 321.34,-138.6 46.2,-138.6"/>
<text text-anchor="start" x="53.2" y="-152" font-family="Arial Bold" font-size="18.00">public.topic_relationships</text>
<text text-anchor="start" x="239.67" y="-152" font-family="Arial" font-size="14.00">    </text>
<text text-anchor="start" x="270.79" y="-152" font-family="Arial" font-size="14.00" fill="#666666">[VIEW]</text>
<polygon fill="none" stroke="black" points="46.2,-107.8 46.2,-138.6 321.34,-138.6 321.34,-107.8 46.2,-107.8"/>
<text text-anchor="start" x="53.2" y="-120" font-family="Arial" font-size="14.00">topic1 </text>
<text text-anchor="start" x="94.45" y="-120" font-family="Arial" font-size="14.00" fill="#666666">[text]</text>
<polygon fill="none" stroke="black" points="46.2,-77 46.2,-107.8 321.34,-107.8 321.34,-77 46.2,-77"/>
<text text-anchor="start" x="53.2" y="-89.2" font-family="Arial" font-size="14.00">topic2 </text>
<text text-anchor="start" x="94.45" y="-89.2" font-family="Arial" font-size="14.00" fill="#666666">[text]</text>
<polygon fill="none" stroke="black" points="46.2,-46.2 46.2,-77 321.34,-77 321.34,-46.2 46.2,-46.2"/>
<text text-anchor="start" x="53.2" y="-58.4" font-family="Arial" font-size="14.00">shared_nodes </text>
<text text-anchor="start" x="145.83" y="-58.4" font-family="Arial" font-size="14.00" fill="#666666">[bigint]</text>
<polygon fill="none" stroke="black" stroke-width="3" points="44.7,-44.7 44.7,-175.7 322.84,-175.7 322.84,-44.7 44.7,-44.7"/>
</g>
</g>
</svg>
