<?xml version="1.0" encoding="UTF-8" standalone="no"?>
<!DOCTYPE svg PUBLIC "-//W3C//DTD SVG 1.1//EN"
 "http://www.w3.org/Graphics/SVG/1.1/DTD/svg11.dtd">
<!-- Generated by graphviz version 12.1.2 (20240928.0832)
 -->
<!-- Title: public.nodes_tags Pages: 1 -->
<svg width="968pt" height="787pt"
 viewBox="0.00 0.00 968.37 786.80" xmlns="http://www.w3.org/2000/svg" xmlns:xlink="http://www.w3.org/1999/xlink">
<g id="graph0" class="graph" transform="scale(1 1) rotate(0) translate(4 782.8)">
<title>public.nodes_tags</title>
<polygon fill="white" stroke="none" points="-4,4 -4,-782.8 964.37,-782.8 964.37,4 -4,4"/>
<!-- public.nodes_tags -->
<g id="node1" class="node">
<title>public.nodes_tags</title>
<polygon fill="#efefef" stroke="none" points="354.55,-697 354.55,-732.6 622.52,-732.6 622.52,-697 354.55,-697"/>
<polygon fill="none" stroke="black" points="354.55,-697 354.55,-732.6 622.52,-732.6 622.52,-697 354.55,-697"/>
<text text-anchor="start" x="361.55" y="-710.4" font-family="Arial Bold" font-size="18.00">public.nodes_tags</text>
<text text-anchor="start" x="491.03" y="-710.4" font-family="Arial" font-size="14.00">    </text>
<text text-anchor="start" x="522.14" y="-710.4" font-family="Arial" font-size="14.00" fill="#666666">[BASE TABLE]</text>
<polygon fill="none" stroke="black" points="354.55,-666.2 354.55,-697 622.52,-697 622.52,-666.2 354.55,-666.2"/>
<text text-anchor="start" x="361.55" y="-678.4" font-family="Arial" font-size="14.00">id </text>
<text text-anchor="start" x="376.33" y="-678.4" font-family="Arial" font-size="14.00" fill="#666666">[bigint]</text>
<polygon fill="none" stroke="black" points="354.55,-635.4 354.55,-666.2 622.52,-666.2 622.52,-635.4 354.55,-635.4"/>
<text text-anchor="start" x="361.55" y="-647.6" font-family="Arial" font-size="14.00">node_id </text>
<text text-anchor="start" x="415.26" y="-647.6" font-family="Arial" font-size="14.00" fill="#666666">[bigint]</text>
<polygon fill="none" stroke="black" points="354.55,-604.6 354.55,-635.4 622.52,-635.4 622.52,-604.6 354.55,-604.6"/>
<text text-anchor="start" x="361.55" y="-616.8" font-family="Arial" font-size="14.00">tag_id </text>
<text text-anchor="start" x="403.58" y="-616.8" font-family="Arial" font-size="14.00" fill="#666666">[bigint]</text>
<polygon fill="none" stroke="black" points="354.55,-573.8 354.55,-604.6 622.52,-604.6 622.52,-573.8 354.55,-573.8"/>
<text text-anchor="start" x="361.55" y="-586" font-family="Arial" font-size="14.00">created_at </text>
<text text-anchor="start" x="431.59" y="-586" font-family="Arial" font-size="14.00" fill="#666666">[timestamp with time zone]</text>
<polygon fill="none" stroke="black" stroke-width="3" points="353.05,-572.3 353.05,-734.1 624.02,-734.1 624.02,-572.3 353.05,-572.3"/>
</g>
<!-- public.nodes -->
<g id="node2" class="node">
<title>public.nodes</title>
<polygon fill="#efefef" stroke="none" points="170.37,-412.8 170.37,-448.4 442.7,-448.4 442.7,-412.8 170.37,-412.8"/>
<polygon fill="none" stroke="black" points="170.37,-412.8 170.37,-448.4 442.7,-448.4 442.7,-412.8 170.37,-412.8"/>
<text text-anchor="start" x="198.54" y="-426.2" font-family="Arial Bold" font-size="18.00">public.nodes</text>
<text text-anchor="start" x="290.03" y="-426.2" font-family="Arial" font-size="14.00">    </text>
<text text-anchor="start" x="321.15" y="-426.2" font-family="Arial" font-size="14.00" fill="#666666">[BASE TABLE]</text>
<polygon fill="none" stroke="black" points="170.37,-382 170.37,-412.8 442.7,-412.8 442.7,-382 170.37,-382"/>
<text text-anchor="start" x="177.37" y="-394.2" font-family="Arial" font-size="14.00">id </text>
<text text-anchor="start" x="192.15" y="-394.2" font-family="Arial" font-size="14.00" fill="#666666">[bigint]</text>
<polygon fill="none" stroke="black" points="170.37,-351.2 170.37,-382 442.7,-382 442.7,-351.2 170.37,-351.2"/>
<text text-anchor="start" x="177.37" y="-363.4" font-family="Arial" font-size="14.00">content </text>
<text text-anchor="start" x="227.18" y="-363.4" font-family="Arial" font-size="14.00" fill="#666666">[text]</text>
<polygon fill="none" stroke="black" points="170.37,-320.4 170.37,-351.2 442.7,-351.2 442.7,-320.4 170.37,-320.4"/>
<text text-anchor="start" x="177.37" y="-332.6" font-family="Arial" font-size="14.00">source </text>
<text text-anchor="start" x="223.28" y="-332.6" font-family="Arial" font-size="14.00" fill="#666666">[text]</text>
<polygon fill="none" stroke="black" points="170.37,-289.6 170.37,-320.4 442.7,-320.4 442.7,-289.6 170.37,-289.6"/>
<text text-anchor="start" x="177.37" y="-301.8" font-family="Arial" font-size="14.00">access_count </text>
<text text-anchor="start" x="266.86" y="-301.8" font-family="Arial" font-size="14.00" fill="#666666">[integer]</text>
<polygon fill="none" stroke="black" points="170.37,-258.8 170.37,-289.6 442.7,-289.6 442.7,-258.8 170.37,-258.8"/>
<text text-anchor="start" x="177.37" y="-271" font-family="Arial" font-size="14.00">created_at </text>
<text text-anchor="start" x="247.41" y="-271" font-family="Arial" font-size="14.00" fill="#666666">[timestamp with time zone]</text>
<polygon fill="none" stroke="black" points="170.37,-228 170.37,-258.8 442.7,-258.8 442.7,-228 170.37,-228"/>
<text text-anchor="start" x="177.37" y="-240.2" font-family="Arial" font-size="14.00">updated_at </text>
<text text-anchor="start" x="251.32" y="-240.2" font-family="Arial" font-size="14.00" fill="#666666">[timestamp with time zone]</text>
<polygon fill="none" stroke="black" points="170.37,-197.2 170.37,-228 442.7,-228 442.7,-197.2 170.37,-197.2"/>
<text text-anchor="start" x="177.37" y="-209.4" font-family="Arial" font-size="14.00">last_accessed </text>
<text text-anchor="start" x="269.97" y="-209.4" font-family="Arial" font-size="14.00" fill="#666666">[timestamp with time zone]</text>
<polygon fill="none" stroke="black" points="170.37,-166.4 170.37,-197.2 442.7,-197.2 442.7,-166.4 170.37,-166.4"/>
<text text-anchor="start" x="177.37" y="-178.6" font-family="Arial" font-size="14.00">token_count </text>
<text text-anchor="start" x="257.54" y="-178.6" font-family="Arial" font-size="14.00" fill="#666666">[integer]</text>
<polygon fill="none" stroke="black" points="170.37,-135.6 170.37,-166.4 442.7,-166.4 442.7,-135.6 170.37,-135.6"/>
<text text-anchor="start" x="177.37" y="-147.8" font-family="Arial" font-size="14.00">in_working_memory </text>
<text text-anchor="start" x="306.52" y="-147.8" font-family="Arial" font-size="14.00" fill="#666666">[boolean]</text>
<polygon fill="none" stroke="black" points="170.37,-104.8 170.37,-135.6 442.7,-135.6 442.7,-104.8 170.37,-104.8"/>
<text text-anchor="start" x="177.37" y="-117" font-family="Arial" font-size="14.00">robot_id </text>
<text text-anchor="start" x="231.85" y="-117" font-family="Arial" font-size="14.00" fill="#666666">[bigint]</text>
<polygon fill="none" stroke="black" points="170.37,-74 170.37,-104.8 442.7,-104.8 442.7,-74 170.37,-74"/>
<text text-anchor="start" x="177.37" y="-86.2" font-family="Arial" font-size="14.00">embedding </text>
<text text-anchor="start" x="250.53" y="-86.2" font-family="Arial" font-size="14.00" fill="#666666">[vector(2000)]</text>
<polygon fill="none" stroke="black" points="170.37,-43.2 170.37,-74 442.7,-74 442.7,-43.2 170.37,-43.2"/>
<text text-anchor="start" x="177.37" y="-55.4" font-family="Arial" font-size="14.00">embedding_dimension </text>
<text text-anchor="start" x="322.13" y="-55.4" font-family="Arial" font-size="14.00" fill="#666666">[integer]</text>
</g>
<!-- public.nodes_tags&#45;&gt;public.nodes -->
<g id="edge1" class="edge">
<title>public.nodes_tags:node_id&#45;&gt;public.nodes:id</title>
<path fill="none" stroke="black" d="M343.41,-649.74C302.24,-640.31 325.93,-569.83 354.55,-527.6 378.29,-492.57 418.91,-526.6 442.7,-491.6 466.23,-456.97 485.56,-397.4 443.7,-397.4"/>
<polygon fill="black" stroke="black" points="343.27,-649.73 352.75,-655.24 348.57,-650.28 352.88,-650.73 352.88,-650.73 352.88,-650.73 348.57,-650.28 353.68,-646.29 343.27,-649.73"/>
<text text-anchor="start" x="7" y="-660.8" font-family="Arial" font-size="10.00">FOREIGN KEY (node_id) REFERENCES nodes(id) ON DELETE CASCADE</text>
</g>
<!-- public.tags -->
<g id="node3" class="node">
<title>public.tags</title>
<polygon fill="#efefef" stroke="none" points="546.65,-274.2 546.65,-309.8 796.42,-309.8 796.42,-274.2 546.65,-274.2"/>
<polygon fill="none" stroke="black" points="546.65,-274.2 546.65,-309.8 796.42,-309.8 796.42,-274.2 546.65,-274.2"/>
<text text-anchor="start" x="570.04" y="-287.6" font-family="Arial Bold" font-size="18.00">public.tags</text>
<text text-anchor="start" x="648.53" y="-287.6" font-family="Arial" font-size="14.00">    </text>
<text text-anchor="start" x="679.65" y="-287.6" font-family="Arial" font-size="14.00" fill="#666666">[BASE TABLE]</text>
<polygon fill="none" stroke="black" points="546.65,-243.4 546.65,-274.2 796.42,-274.2 796.42,-243.4 546.65,-243.4"/>
<text text-anchor="start" x="553.65" y="-255.6" font-family="Arial" font-size="14.00">id </text>
<text text-anchor="start" x="568.43" y="-255.6" font-family="Arial" font-size="14.00" fill="#666666">[bigint]</text>
<polygon fill="none" stroke="black" points="546.65,-212.6 546.65,-243.4 796.42,-243.4 796.42,-212.6 546.65,-212.6"/>
<text text-anchor="start" x="553.65" y="-224.8" font-family="Arial" font-size="14.00">name </text>
<text text-anchor="start" x="592.56" y="-224.8" font-family="Arial" font-size="14.00" fill="#666666">[text]</text>
<polygon fill="none" stroke="black" points="546.65,-181.8 546.65,-212.6 796.42,-212.6 796.42,-181.8 546.65,-181.8"/>
<text text-anchor="start" x="553.65" y="-194" font-family="Arial" font-size="14.00">created_at </text>
<text text-anchor="start" x="623.69" y="-194" font-family="Arial" font-size="14.00" fill="#666666">[timestamp with time zone]</text>
</g>
<!-- public.nodes_tags&#45;&gt;public.tags -->
<g id="edge2" class="edge">
<title>public.nodes_tags:tag_id&#45;&gt;public.tags:id</title>
<path fill="none" stroke="black" d="M633.73,-619.46C769.77,-603.96 385.11,-258.8 545.65,-258.8"/>
<polygon fill="black" stroke="black" points="633.84,-619.46 623.61,-615.49 628.51,-619.74 624.18,-619.96 624.18,-619.96 624.18,-619.96 628.51,-619.74 624.09,-624.48 633.84,-619.46"/>
<text text-anchor="start" x="630.52" y="-630" font-family="Arial" font-size="10.00">FOREIGN KEY (tag_id) REFERENCES tags(id) ON DELETE CASCADE</text>
</g>
</g>
</svg>
