<?xml version="1.0" encoding="UTF-8" standalone="no"?>
<!DOCTYPE svg PUBLIC "-//W3C//DTD SVG 1.1//EN"
 "http://www.w3.org/Graphics/SVG/1.1/DTD/svg11.dtd">
<!-- Generated by graphviz version 12.1.2 (20240928.0832)
 -->
<!-- Title: public.robot_activity Pages: 1 -->
<svg width="399pt" height="259pt"
 viewBox="0.00 0.00 399.21 259.20" xmlns="http://www.w3.org/2000/svg" xmlns:xlink="http://www.w3.org/1999/xlink">
<g id="graph0" class="graph" transform="scale(1 1) rotate(0) translate(4 255.2)">
<title>public.robot_activity</title>
<polygon fill="white" stroke="none" points="-4,4 -4,-255.2 395.21,-255.2 395.21,4 -4,4"/>
<!-- public.robot_activity -->
<g id="node1" class="node">
<title>public.robot_activity</title>
<polygon fill="#efefef" stroke="none" points="46.2,-169.4 46.2,-205 345.01,-205 345.01,-169.4 46.2,-169.4"/>
<polygon fill="none" stroke="black" points="46.2,-169.4 46.2,-205 345.01,-205 345.01,-169.4 46.2,-169.4"/>
<text text-anchor="start" x="83.03" y="-182.8" font-family="Arial Bold" font-size="18.00">public.robot_activity</text>
<text text-anchor="start" x="233.5" y="-182.8" font-family="Arial" font-size="14.00">    </text>
<text text-anchor="start" x="264.62" y="-182.8" font-family="Arial" font-size="14.00" fill="#666666">[VIEW]</text>
<polygon fill="none" stroke="black" points="46.2,-138.6 46.2,-169.4 345.01,-169.4 345.01,-138.6 46.2,-138.6"/>
<text text-anchor="start" x="53.2" y="-150.8" font-family="Arial" font-size="14.00">id </text>
<text text-anchor="start" x="67.99" y="-150.8" font-family="Arial" font-size="14.00" fill="#666666">[text]</text>
<polygon fill="none" stroke="black" points="46.2,-107.8 46.2,-138.6 345.01,-138.6 345.01,-107.8 46.2,-107.8"/>
<text text-anchor="start" x="53.2" y="-120" font-family="Arial" font-size="14.00">name </text>
<text text-anchor="start" x="92.11" y="-120" font-family="Arial" font-size="14.00" fill="#666666">[text]</text>
<polygon fill="none" stroke="black" points="46.2,-77 46.2,-107.8 345.01,-107.8 345.01,-77 46.2,-77"/>
<text text-anchor="start" x="53.2" y="-89.2" font-family="Arial" font-size="14.00">total_nodes </text>
<text text-anchor="start" x="129.48" y="-89.2" font-family="Arial" font-size="14.00" fill="#666666">[bigint]</text>
<polygon fill="none" stroke="black" points="46.2,-46.2 46.2,-77 345.01,-77 345.01,-46.2 46.2,-46.2"/>
<text text-anchor="start" x="53.2" y="-58.4" font-family="Arial" font-size="14.00">last_node_created </text>
<text text-anchor="start" x="172.29" y="-58.4" font-family="Arial" font-size="14.00" fill="#666666">[timestamp with time zone]</text>
<polygon fill="none" stroke="black" stroke-width="3" points="44.7,-44.7 44.7,-206.5 346.51,-206.5 346.51,-44.7 44.7,-44.7"/>
</g>
</g>
</svg>
