<?xml version="1.0" encoding="UTF-8" standalone="no"?>
<!DOCTYPE svg PUBLIC "-//W3C//DTD SVG 1.1//EN"
 "http://www.w3.org/Graphics/SVG/1.1/DTD/svg11.dtd">
<!-- Generated by graphviz version 12.1.2 (20240928.0832)
 -->
<!-- Title: public.working_memories Pages: 1 -->
<svg width="2229pt" height="1432pt"
 viewBox="0.00 0.00 2229.07 1432.00" xmlns="http://www.w3.org/2000/svg" xmlns:xlink="http://www.w3.org/1999/xlink">
<g id="graph0" class="graph" transform="scale(1 1) rotate(0) translate(4 1428)">
<title>public.working_memories</title>
<polygon fill="white" stroke="none" points="-4,4 -4,-1428 2225.07,-1428 2225.07,4 -4,4"/>
<!-- public.working_memories -->
<g id="node1" class="node">
<title>public.working_memories</title>
<polygon fill="#efefef" stroke="none" points="1354.18,-1288.6 1354.18,-1334.6 1865.43,-1334.6 1865.43,-1288.6 1354.18,-1288.6"/>
<polygon fill="none" stroke="black" points="1354.18,-1288.6 1354.18,-1334.6 1865.43,-1334.6 1865.43,-1288.6 1354.18,-1288.6"/>
<text text-anchor="start" x="1452.83" y="-1312.4" font-family="Arial Bold" font-size="18.00">public.working_memories</text>
<text text-anchor="start" x="1642.29" y="-1312.4" font-family="Arial" font-size="14.00">    </text>
<text text-anchor="start" x="1673.41" y="-1312.4" font-family="Arial" font-size="14.00" fill="#666666">[BASE TABLE]</text>
<text text-anchor="start" x="1441.35" y="-1298" font-family="Arial" font-size="14.00" fill="#333333">Per&#45;robot working memory state (optional persistence)</text>
<polygon fill="none" stroke="black" points="1354.18,-1257.8 1354.18,-1288.6 1865.43,-1288.6 1865.43,-1257.8 1354.18,-1257.8"/>
<text text-anchor="start" x="1361.18" y="-1270" font-family="Arial" font-size="14.00">added_at </text>
<text text-anchor="start" x="1423.46" y="-1270" font-family="Arial" font-size="14.00" fill="#666666">[timestamp with time zone]</text>
<text text-anchor="start" x="1589.19" y="-1270" font-family="Arial" font-size="14.00"> When node was added to working memory</text>
<polygon fill="none" stroke="black" points="1354.18,-1227 1354.18,-1257.8 1865.43,-1257.8 1865.43,-1227 1354.18,-1227"/>
<text text-anchor="start" x="1361.18" y="-1239.2" font-family="Arial" font-size="14.00">id </text>
<text text-anchor="start" x="1375.97" y="-1239.2" font-family="Arial" font-size="14.00" fill="#666666">[bigint]</text>
<polygon fill="none" stroke="black" points="1354.18,-1196.2 1354.18,-1227 1865.43,-1227 1865.43,-1196.2 1354.18,-1196.2"/>
<text text-anchor="start" x="1361.18" y="-1208.4" font-family="Arial" font-size="14.00">node_id </text>
<text text-anchor="start" x="1414.9" y="-1208.4" font-family="Arial" font-size="14.00" fill="#666666">[bigint]</text>
<text text-anchor="start" x="1456.14" y="-1208.4" font-family="Arial" font-size="14.00"> Node currently in working memory</text>
<polygon fill="none" stroke="black" points="1354.18,-1165.4 1354.18,-1196.2 1865.43,-1196.2 1865.43,-1165.4 1354.18,-1165.4"/>
<text text-anchor="start" x="1361.18" y="-1177.6" font-family="Arial" font-size="14.00">robot_id </text>
<text text-anchor="start" x="1415.66" y="-1177.6" font-family="Arial" font-size="14.00" fill="#666666">[bigint]</text>
<text text-anchor="start" x="1456.91" y="-1177.6" font-family="Arial" font-size="14.00"> Robot whose working memory this belongs to</text>
<polygon fill="none" stroke="black" points="1354.18,-1134.6 1354.18,-1165.4 1865.43,-1165.4 1865.43,-1134.6 1354.18,-1134.6"/>
<text text-anchor="start" x="1361.18" y="-1146.8" font-family="Arial" font-size="14.00">token_count </text>
<text text-anchor="start" x="1441.35" y="-1146.8" font-family="Arial" font-size="14.00" fill="#666666">[integer]</text>
<text text-anchor="start" x="1491.94" y="-1146.8" font-family="Arial" font-size="14.00"> Cached token count for budget tracking</text>
<polygon fill="none" stroke="black" stroke-width="3" points="1352.68,-1133.1 1352.68,-1336.1 1866.93,-1336.1 1866.93,-1133.1 1352.68,-1133.1"/>
</g>
<!-- public.nodes -->
<g id="node2" class="node">
<title>public.nodes</title>
<polygon fill="#efefef" stroke="none" points="596.79,-920 596.79,-966 1252.83,-966 1252.83,-920 596.79,-920"/>
<polygon fill="none" stroke="black" points="596.79,-920 596.79,-966 1252.83,-966 1252.83,-920 596.79,-920"/>
<text text-anchor="start" x="816.82" y="-943.8" font-family="Arial Bold" font-size="18.00">public.nodes</text>
<text text-anchor="start" x="908.3" y="-943.8" font-family="Arial" font-size="14.00">    </text>
<text text-anchor="start" x="939.42" y="-943.8" font-family="Arial" font-size="14.00" fill="#666666">[BASE TABLE]</text>
<text text-anchor="start" x="733.38" y="-929.4" font-family="Arial" font-size="14.00" fill="#333333">Core memory storage for conversation messages and context</text>
<polygon fill="none" stroke="black" points="596.79,-889.2 596.79,-920 1252.83,-920 1252.83,-889.2 596.79,-889.2"/>
<text text-anchor="start" x="603.79" y="-901.4" font-family="Arial" font-size="14.00">access_count </text>
<text text-anchor="start" x="693.28" y="-901.4" font-family="Arial" font-size="14.00" fill="#666666">[integer]</text>
<text text-anchor="start" x="743.87" y="-901.4" font-family="Arial" font-size="14.00"> Number of times this node has been accessed/retrieved</text>
<polygon fill="none" stroke="black" points="596.79,-858.4 596.79,-889.2 1252.83,-889.2 1252.83,-858.4 596.79,-858.4"/>
<text text-anchor="start" x="603.79" y="-870.6" font-family="Arial" font-size="14.00">chunk_position </text>
<text text-anchor="start" x="701.08" y="-870.6" font-family="Arial" font-size="14.00" fill="#666666">[integer]</text>
<text text-anchor="start" x="751.66" y="-870.6" font-family="Arial" font-size="14.00"> Position within source file (0&#45;indexed)</text>
<polygon fill="none" stroke="black" points="596.79,-827.6 596.79,-858.4 1252.83,-858.4 1252.83,-827.6 596.79,-827.6"/>
<text text-anchor="start" x="603.79" y="-839.8" font-family="Arial" font-size="14.00">content </text>
<text text-anchor="start" x="653.6" y="-839.8" font-family="Arial" font-size="14.00" fill="#666666">[text]</text>
<text text-anchor="start" x="683.95" y="-839.8" font-family="Arial" font-size="14.00"> The conversation message/utterance content</text>
<polygon fill="none" stroke="black" points="596.79,-796.8 596.79,-827.6 1252.83,-827.6 1252.83,-796.8 596.79,-796.8"/>
<text text-anchor="start" x="603.79" y="-809" font-family="Arial" font-size="14.00">content_hash </text>
<text text-anchor="start" x="691.74" y="-809" font-family="Arial" font-size="14.00" fill="#666666">[varchar(64)]</text>
<text text-anchor="start" x="771.1" y="-809" font-family="Arial" font-size="14.00"> SHA&#45;256 hash of content for deduplication</text>
<polygon fill="none" stroke="black" points="596.79,-766 596.79,-796.8 1252.83,-796.8 1252.83,-766 596.79,-766"/>
<text text-anchor="start" x="603.79" y="-778.2" font-family="Arial" font-size="14.00">created_at </text>
<text text-anchor="start" x="673.83" y="-778.2" font-family="Arial" font-size="14.00" fill="#666666">[timestamp with time zone]</text>
<text text-anchor="start" x="839.56" y="-778.2" font-family="Arial" font-size="14.00"> When this memory was created</text>
<polygon fill="none" stroke="black" points="596.79,-735.2 596.79,-766 1252.83,-766 1252.83,-735.2 596.79,-735.2"/>
<text text-anchor="start" x="603.79" y="-747.4" font-family="Arial" font-size="14.00">deleted_at </text>
<text text-anchor="start" x="673.07" y="-747.4" font-family="Arial" font-size="14.00" fill="#666666">[timestamp with time zone]</text>
<text text-anchor="start" x="838.79" y="-747.4" font-family="Arial" font-size="14.00"> Soft delete timestamp &#45; node is considered deleted when set</text>
<polygon fill="none" stroke="black" points="596.79,-704.4 596.79,-735.2 1252.83,-735.2 1252.83,-704.4 596.79,-704.4"/>
<text text-anchor="start" x="603.79" y="-716.6" font-family="Arial" font-size="14.00">embedding </text>
<text text-anchor="start" x="676.95" y="-716.6" font-family="Arial" font-size="14.00" fill="#666666">[vector(2000)]</text>
<text text-anchor="start" x="763.32" y="-716.6" font-family="Arial" font-size="14.00"> Vector embedding (max 2000 dimensions) for semantic search</text>
<polygon fill="none" stroke="black" points="596.79,-673.6 596.79,-704.4 1252.83,-704.4 1252.83,-673.6 596.79,-673.6"/>
<text text-anchor="start" x="603.79" y="-685.8" font-family="Arial" font-size="14.00">embedding_dimension </text>
<text text-anchor="start" x="748.55" y="-685.8" font-family="Arial" font-size="14.00" fill="#666666">[integer]</text>
<text text-anchor="start" x="799.14" y="-685.8" font-family="Arial" font-size="14.00"> Actual number of dimensions used in the embedding vector (max 2000)</text>
<polygon fill="none" stroke="black" points="596.79,-642.8 596.79,-673.6 1252.83,-673.6 1252.83,-642.8 596.79,-642.8"/>
<text text-anchor="start" x="603.79" y="-655" font-family="Arial" font-size="14.00">id </text>
<text text-anchor="start" x="618.57" y="-655" font-family="Arial" font-size="14.00" fill="#666666">[bigint]</text>
<polygon fill="none" stroke="black" points="596.79,-612 596.79,-642.8 1252.83,-642.8 1252.83,-612 596.79,-612"/>
<text text-anchor="start" x="603.79" y="-624.2" font-family="Arial" font-size="14.00">last_accessed </text>
<text text-anchor="start" x="696.39" y="-624.2" font-family="Arial" font-size="14.00" fill="#666666">[timestamp with time zone]</text>
<text text-anchor="start" x="862.12" y="-624.2" font-family="Arial" font-size="14.00"> When this memory was last accessed</text>
<polygon fill="none" stroke="black" points="596.79,-581.2 596.79,-612 1252.83,-612 1252.83,-581.2 596.79,-581.2"/>
<text text-anchor="start" x="603.79" y="-593.4" font-family="Arial" font-size="14.00">metadata </text>
<text text-anchor="start" x="666.05" y="-593.4" font-family="Arial" font-size="14.00" fill="#666666">[jsonb]</text>
<text text-anchor="start" x="707.3" y="-593.4" font-family="Arial" font-size="14.00"> Flexible metadata storage (memory_type, importance, source, etc.)</text>
<polygon fill="none" stroke="black" points="596.79,-550.4 596.79,-581.2 1252.83,-581.2 1252.83,-550.4 596.79,-550.4"/>
<text text-anchor="start" x="603.79" y="-562.6" font-family="Arial" font-size="14.00">source_id </text>
<text text-anchor="start" x="668.38" y="-562.6" font-family="Arial" font-size="14.00" fill="#666666">[bigint]</text>
<text text-anchor="start" x="709.63" y="-562.6" font-family="Arial" font-size="14.00"> Reference to source file (for file&#45;loaded nodes)</text>
<polygon fill="none" stroke="black" points="596.79,-519.6 596.79,-550.4 1252.83,-550.4 1252.83,-519.6 596.79,-519.6"/>
<text text-anchor="start" x="603.79" y="-531.8" font-family="Arial" font-size="14.00">token_count </text>
<text text-anchor="start" x="683.96" y="-531.8" font-family="Arial" font-size="14.00" fill="#666666">[integer]</text>
<text text-anchor="start" x="734.54" y="-531.8" font-family="Arial" font-size="14.00"> Number of tokens in the content (for context budget management)</text>
<polygon fill="none" stroke="black" points="596.79,-488.8 596.79,-519.6 1252.83,-519.6 1252.83,-488.8 596.79,-488.8"/>
<text text-anchor="start" x="603.79" y="-501" font-family="Arial" font-size="14.00">updated_at </text>
<text text-anchor="start" x="677.74" y="-501" font-family="Arial" font-size="14.00" fill="#666666">[timestamp with time zone]</text>
<text text-anchor="start" x="843.47" y="-501" font-family="Arial" font-size="14.00"> When this memory was last modified</text>
</g>
<!-- public.working_memories&#45;&gt;public.nodes -->
<g id="edge1" class="edge">
<title>public.working_memories:node_id&#45;&gt;public.nodes:id</title>
<path fill="none" stroke="black" d="M1343.05,-1211.1C1265.54,-1202.91 1322.44,-1096.41 1305.81,-1009.2 1291.03,-931.75 1332.68,-658.2 1253.83,-658.2"/>
<polygon fill="black" stroke="black" points="1342.86,-1211.09 1352.62,-1216.08 1348.19,-1211.35 1352.51,-1211.57 1352.51,-1211.57 1352.51,-1211.57 1348.19,-1211.35 1353.07,-1207.09 1342.86,-1211.09"/>
<text text-anchor="start" x="1095.02" y="-1195.6" font-family="Arial" font-size="10.00">FOREIGN KEY (node_id) REFERENCES nodes(id) ON DELETE CASCADE</text>
</g>
<!-- public.robots -->
<g id="node6" class="node">
<title>public.robots</title>
<polygon fill="#efefef" stroke="none" points="1357.7,-766 1357.7,-812 1861.91,-812 1861.91,-766 1357.7,-766"/>
<polygon fill="none" stroke="black" points="1357.7,-766 1357.7,-812 1861.91,-812 1861.91,-766 1357.7,-766"/>
<text text-anchor="start" x="1500.32" y="-789.8" font-family="Arial Bold" font-size="18.00">public.robots</text>
<text text-anchor="start" x="1594.81" y="-789.8" font-family="Arial" font-size="14.00">    </text>
<text text-anchor="start" x="1625.92" y="-789.8" font-family="Arial" font-size="14.00" fill="#666666">[BASE TABLE]</text>
<text text-anchor="start" x="1458.87" y="-775.4" font-family="Arial" font-size="14.00" fill="#333333">Registry of all LLM robots using the HTM system</text>
<polygon fill="none" stroke="black" points="1357.7,-735.2 1357.7,-766 1861.91,-766 1861.91,-735.2 1357.7,-735.2"/>
<text text-anchor="start" x="1364.7" y="-747.4" font-family="Arial" font-size="14.00">created_at </text>
<text text-anchor="start" x="1434.75" y="-747.4" font-family="Arial" font-size="14.00" fill="#666666">[timestamp with time zone]</text>
<text text-anchor="start" x="1600.47" y="-747.4" font-family="Arial" font-size="14.00"> When the robot was first registered</text>
<polygon fill="none" stroke="black" points="1357.7,-704.4 1357.7,-735.2 1861.91,-735.2 1861.91,-704.4 1357.7,-704.4"/>
<text text-anchor="start" x="1364.7" y="-716.6" font-family="Arial" font-size="14.00">id </text>
<text text-anchor="start" x="1379.49" y="-716.6" font-family="Arial" font-size="14.00" fill="#666666">[bigint]</text>
<polygon fill="none" stroke="black" points="1357.7,-673.6 1357.7,-704.4 1861.91,-704.4 1861.91,-673.6 1357.7,-673.6"/>
<text text-anchor="start" x="1364.7" y="-685.8" font-family="Arial" font-size="14.00">last_active </text>
<text text-anchor="start" x="1434.73" y="-685.8" font-family="Arial" font-size="14.00" fill="#666666">[timestamp with time zone]</text>
<text text-anchor="start" x="1600.46" y="-685.8" font-family="Arial" font-size="14.00"> Last time the robot accessed the system</text>
<polygon fill="none" stroke="black" points="1357.7,-642.8 1357.7,-673.6 1861.91,-673.6 1861.91,-642.8 1357.7,-642.8"/>
<text text-anchor="start" x="1364.7" y="-655" font-family="Arial" font-size="14.00">name </text>
<text text-anchor="start" x="1403.61" y="-655" font-family="Arial" font-size="14.00" fill="#666666">[text]</text>
<text text-anchor="start" x="1433.95" y="-655" font-family="Arial" font-size="14.00"> Human&#45;readable name for the robot</text>
</g>
<!-- public.working_memories&#45;&gt;public.robots -->
<g id="edge5" class="edge">
<title>public.working_memories:robot_id&#45;&gt;public.robots:id</title>
<path fill="none" stroke="black" d="M1876.57,-1179.22C1968.52,-1149.82 1961.86,-719.8 1862.91,-719.8"/>
<polygon fill="black" stroke="black" points="1876.64,-1179.21 1866.07,-1176.3 1871.37,-1180.03 1867.09,-1180.7 1867.09,-1180.7 1867.09,-1180.7 1871.37,-1180.03 1867.46,-1185.19 1876.64,-1179.21"/>
<text text-anchor="start" x="1873.43" y="-1190.8" font-family="Arial" font-size="10.00">FOREIGN KEY (robot_id) REFERENCES robots(id) ON DELETE CASCADE</text>
</g>
<!-- public.file_sources -->
<g id="node5" class="node">
<title>public.file_sources</title>
<polygon fill="#efefef" stroke="none" points="678.93,-320.4 678.93,-366.4 1170.68,-366.4 1170.68,-320.4 678.93,-320.4"/>
<polygon fill="none" stroke="black" points="678.93,-320.4 678.93,-366.4 1170.68,-366.4 1170.68,-320.4 678.93,-320.4"/>
<text text-anchor="start" x="794.33" y="-344.2" font-family="Arial Bold" font-size="18.00">public.file_sources</text>
<text text-anchor="start" x="930.79" y="-344.2" font-family="Arial" font-size="14.00">    </text>
<text text-anchor="start" x="961.91" y="-344.2" font-family="Arial" font-size="14.00" fill="#666666">[BASE TABLE]</text>
<text text-anchor="start" x="791.34" y="-329.8" font-family="Arial" font-size="14.00" fill="#333333">Source file metadata for loaded documents</text>
<polygon fill="none" stroke="black" points="678.93,-289.6 678.93,-320.4 1170.68,-320.4 1170.68,-289.6 678.93,-289.6"/>
<text text-anchor="start" x="685.93" y="-301.8" font-family="Arial" font-size="14.00">created_at </text>
<text text-anchor="start" x="755.98" y="-301.8" font-family="Arial" font-size="14.00" fill="#666666">[timestamp with time zone]</text>
<polygon fill="none" stroke="black" points="678.93,-258.8 678.93,-289.6 1170.68,-289.6 1170.68,-258.8 678.93,-258.8"/>
<text text-anchor="start" x="685.93" y="-271" font-family="Arial" font-size="14.00">file_hash </text>
<text text-anchor="start" x="745.87" y="-271" font-family="Arial" font-size="14.00" fill="#666666">[varchar(64)]</text>
<text text-anchor="start" x="825.22" y="-271" font-family="Arial" font-size="14.00"> SHA&#45;256 hash of file content</text>
<polygon fill="none" stroke="black" points="678.93,-228 678.93,-258.8 1170.68,-258.8 1170.68,-228 678.93,-228"/>
<text text-anchor="start" x="685.93" y="-240.2" font-family="Arial" font-size="14.00">file_path </text>
<text text-anchor="start" x="742.75" y="-240.2" font-family="Arial" font-size="14.00" fill="#666666">[text]</text>
<text text-anchor="start" x="773.1" y="-240.2" font-family="Arial" font-size="14.00"> Absolute path to source file</text>
<polygon fill="none" stroke="black" points="678.93,-197.2 678.93,-228 1170.68,-228 1170.68,-197.2 678.93,-197.2"/>
<text text-anchor="start" x="685.93" y="-209.4" font-family="Arial" font-size="14.00">file_size </text>
<text text-anchor="start" x="740.4" y="-209.4" font-family="Arial" font-size="14.00" fill="#666666">[integer]</text>
<text text-anchor="start" x="790.99" y="-209.4" font-family="Arial" font-size="14.00"> File size in bytes</text>
<polygon fill="none" stroke="black" points="678.93,-166.4 678.93,-197.2 1170.68,-197.2 1170.68,-166.4 678.93,-166.4"/>
<text text-anchor="start" x="685.93" y="-178.6" font-family="Arial" font-size="14.00">frontmatter </text>
<text text-anchor="start" x="757.51" y="-178.6" font-family="Arial" font-size="14.00" fill="#666666">[jsonb]</text>
<text text-anchor="start" x="798.76" y="-178.6" font-family="Arial" font-size="14.00"> Parsed YAML frontmatter</text>
<polygon fill="none" stroke="black" points="678.93,-135.6 678.93,-166.4 1170.68,-166.4 1170.68,-135.6 678.93,-135.6"/>
<text text-anchor="start" x="685.93" y="-147.8" font-family="Arial" font-size="14.00">id </text>
<text text-anchor="start" x="700.72" y="-147.8" font-family="Arial" font-size="14.00" fill="#666666">[bigint]</text>
<polygon fill="none" stroke="black" points="678.93,-104.8 678.93,-135.6 1170.68,-135.6 1170.68,-104.8 678.93,-104.8"/>
<text text-anchor="start" x="685.93" y="-117" font-family="Arial" font-size="14.00">last_synced_at </text>
<text text-anchor="start" x="783.22" y="-117" font-family="Arial" font-size="14.00" fill="#666666">[timestamp with time zone]</text>
<text text-anchor="start" x="948.94" y="-117" font-family="Arial" font-size="14.00"> When file was last synced to HTM</text>
<polygon fill="none" stroke="black" points="678.93,-74 678.93,-104.8 1170.68,-104.8 1170.68,-74 678.93,-74"/>
<text text-anchor="start" x="685.93" y="-86.2" font-family="Arial" font-size="14.00">mtime </text>
<text text-anchor="start" x="727.93" y="-86.2" font-family="Arial" font-size="14.00" fill="#666666">[timestamp with time zone]</text>
<text text-anchor="start" x="893.66" y="-86.2" font-family="Arial" font-size="14.00"> File modification time</text>
<polygon fill="none" stroke="black" points="678.93,-43.2 678.93,-74 1170.68,-74 1170.68,-43.2 678.93,-43.2"/>
<text text-anchor="start" x="685.93" y="-55.4" font-family="Arial" font-size="14.00">updated_at </text>
<text text-anchor="start" x="759.89" y="-55.4" font-family="Arial" font-size="14.00" fill="#666666">[timestamp with time zone]</text>
</g>
<!-- public.nodes&#45;&gt;public.file_sources -->
<g id="edge4" class="edge">
<title>public.nodes:source_id&#45;&gt;public.file_sources:id</title>
<path fill="none" stroke="black" d="M1264.04,-563.95C1341.36,-534.03 1261.97,-151 1171.68,-151"/>
<polygon fill="black" stroke="black" points="1263.99,-563.96 1253.35,-561.31 1258.75,-564.91 1254.48,-565.68 1254.48,-565.68 1254.48,-565.68 1258.75,-564.91 1254.96,-570.17 1263.99,-563.96"/>
<text text-anchor="start" x="1260.83" y="-575.8" font-family="Arial" font-size="10.00">FOREIGN KEY (source_id) REFERENCES file_sources(id) ON DELETE SET NULL</text>
</g>
<!-- public.node_tags -->
<g id="node3" class="node">
<title>public.node_tags</title>
<polygon fill="#efefef" stroke="none" points="43.2,-1273.2 43.2,-1319.2 512.41,-1319.2 512.41,-1273.2 43.2,-1273.2"/>
<polygon fill="none" stroke="black" points="43.2,-1273.2 43.2,-1319.2 512.41,-1319.2 512.41,-1273.2 43.2,-1273.2"/>
<text text-anchor="start" x="154.32" y="-1297" font-family="Arial Bold" font-size="18.00">public.node_tags</text>
<text text-anchor="start" x="276.8" y="-1297" font-family="Arial" font-size="14.00">    </text>
<text text-anchor="start" x="307.92" y="-1297" font-family="Arial" font-size="14.00" fill="#666666">[BASE TABLE]</text>
<text text-anchor="start" x="116.72" y="-1282.6" font-family="Arial" font-size="14.00" fill="#333333">Join table connecting nodes to tags (many&#45;to&#45;many)</text>
<polygon fill="none" stroke="black" points="43.2,-1242.4 43.2,-1273.2 512.41,-1273.2 512.41,-1242.4 43.2,-1242.4"/>
<text text-anchor="start" x="50.2" y="-1254.6" font-family="Arial" font-size="14.00">created_at </text>
<text text-anchor="start" x="120.25" y="-1254.6" font-family="Arial" font-size="14.00" fill="#666666">[timestamp with time zone]</text>
<text text-anchor="start" x="285.97" y="-1254.6" font-family="Arial" font-size="14.00"> When this association was created</text>
<polygon fill="none" stroke="black" points="43.2,-1211.6 43.2,-1242.4 512.41,-1242.4 512.41,-1211.6 43.2,-1211.6"/>
<text text-anchor="start" x="50.2" y="-1223.8" font-family="Arial" font-size="14.00">id </text>
<text text-anchor="start" x="64.99" y="-1223.8" font-family="Arial" font-size="14.00" fill="#666666">[bigint]</text>
<polygon fill="none" stroke="black" points="43.2,-1180.8 43.2,-1211.6 512.41,-1211.6 512.41,-1180.8 43.2,-1180.8"/>
<text text-anchor="start" x="50.2" y="-1193" font-family="Arial" font-size="14.00">node_id </text>
<text text-anchor="start" x="103.92" y="-1193" font-family="Arial" font-size="14.00" fill="#666666">[bigint]</text>
<text text-anchor="start" x="145.16" y="-1193" font-family="Arial" font-size="14.00"> ID of the node being tagged</text>
<polygon fill="none" stroke="black" points="43.2,-1150 43.2,-1180.8 512.41,-1180.8 512.41,-1150 43.2,-1150"/>
<text text-anchor="start" x="50.2" y="-1162.2" font-family="Arial" font-size="14.00">tag_id </text>
<text text-anchor="start" x="92.23" y="-1162.2" font-family="Arial" font-size="14.00" fill="#666666">[bigint]</text>
<text text-anchor="start" x="133.48" y="-1162.2" font-family="Arial" font-size="14.00"> ID of the tag being applied</text>
</g>
<!-- public.node_tags&#45;&gt;public.nodes -->
<g id="edge2" class="edge">
<title>public.node_tags:node_id&#45;&gt;public.nodes:id</title>
<path fill="none" stroke="black" d="M523.64,-1194.75C624.96,-1164.12 478.5,-658.2 595.79,-658.2"/>
<polygon fill="black" stroke="black" points="523.64,-1194.75 513.11,-1191.7 518.36,-1195.5 514.07,-1196.11 514.07,-1196.11 514.07,-1196.11 518.36,-1195.5 514.37,-1200.61 523.64,-1194.75"/>
<text text-anchor="start" x="343.64" y="-1180.2" font-family="Arial" font-size="10.00">FOREIGN KEY (node_id) REFERENCES nodes(id) ON DELETE CASCADE</text>
</g>
<!-- public.robot_nodes -->
<g id="node4" class="node">
<title>public.robot_nodes</title>
<polygon fill="#efefef" stroke="none" points="617.06,-1334.8 617.06,-1380.8 1246.55,-1380.8 1246.55,-1334.8 617.06,-1334.8"/>
<polygon fill="none" stroke="black" points="617.06,-1334.8 617.06,-1380.8 1246.55,-1380.8 1246.55,-1334.8 617.06,-1334.8"/>
<text text-anchor="start" x="800.32" y="-1358.6" font-family="Arial Bold" font-size="18.00">public.robot_nodes</text>
<text text-anchor="start" x="938.8" y="-1358.6" font-family="Arial" font-size="14.00">    </text>
<text text-anchor="start" x="969.92" y="-1358.6" font-family="Arial" font-size="14.00" fill="#666666">[BASE TABLE]</text>
<text text-anchor="start" x="764.5" y="-1344.2" font-family="Arial" font-size="14.00" fill="#333333">Join table connecting robots to nodes (many&#45;to&#45;many)</text>
<polygon fill="none" stroke="black" points="617.06,-1304 617.06,-1334.8 1246.55,-1334.8 1246.55,-1304 617.06,-1304"/>
<text text-anchor="start" x="624.06" y="-1316.2" font-family="Arial" font-size="14.00">created_at </text>
<text text-anchor="start" x="694.11" y="-1316.2" font-family="Arial" font-size="14.00" fill="#666666">[timestamp with time zone]</text>
<polygon fill="none" stroke="black" points="617.06,-1273.2 617.06,-1304 1246.55,-1304 1246.55,-1273.2 617.06,-1273.2"/>
<text text-anchor="start" x="624.06" y="-1285.4" font-family="Arial" font-size="14.00">first_remembered_at </text>
<text text-anchor="start" x="757.12" y="-1285.4" font-family="Arial" font-size="14.00" fill="#666666">[timestamp with time zone]</text>
<text text-anchor="start" x="922.84" y="-1285.4" font-family="Arial" font-size="14.00"> When this robot first remembered this content</text>
<polygon fill="none" stroke="black" points="617.06,-1242.4 617.06,-1273.2 1246.55,-1273.2 1246.55,-1242.4 617.06,-1242.4"/>
<text text-anchor="start" x="624.06" y="-1254.6" font-family="Arial" font-size="14.00">id </text>
<text text-anchor="start" x="638.85" y="-1254.6" font-family="Arial" font-size="14.00" fill="#666666">[bigint]</text>
<polygon fill="none" stroke="black" points="617.06,-1211.6 617.06,-1242.4 1246.55,-1242.4 1246.55,-1211.6 617.06,-1211.6"/>
<text text-anchor="start" x="624.06" y="-1223.8" font-family="Arial" font-size="14.00">last_remembered_at </text>
<text text-anchor="start" x="756.35" y="-1223.8" font-family="Arial" font-size="14.00" fill="#666666">[timestamp with time zone]</text>
<text text-anchor="start" x="922.08" y="-1223.8" font-family="Arial" font-size="14.00"> When this robot last tried to remember this content</text>
<polygon fill="none" stroke="black" points="617.06,-1180.8 617.06,-1211.6 1246.55,-1211.6 1246.55,-1180.8 617.06,-1180.8"/>
<text text-anchor="start" x="624.06" y="-1193" font-family="Arial" font-size="14.00">node_id </text>
<text text-anchor="start" x="677.78" y="-1193" font-family="Arial" font-size="14.00" fill="#666666">[bigint]</text>
<text text-anchor="start" x="719.03" y="-1193" font-family="Arial" font-size="14.00"> ID of the node being remembered</text>
<polygon fill="none" stroke="black" points="617.06,-1150 617.06,-1180.8 1246.55,-1180.8 1246.55,-1150 617.06,-1150"/>
<text text-anchor="start" x="624.06" y="-1162.2" font-family="Arial" font-size="14.00">remember_count </text>
<text text-anchor="start" x="733.78" y="-1162.2" font-family="Arial" font-size="14.00" fill="#666666">[integer]</text>
<text text-anchor="start" x="784.37" y="-1162.2" font-family="Arial" font-size="14.00"> Number of times this robot has tried to remember this content</text>
<polygon fill="none" stroke="black" points="617.06,-1119.2 617.06,-1150 1246.55,-1150 1246.55,-1119.2 617.06,-1119.2"/>
<text text-anchor="start" x="624.06" y="-1131.4" font-family="Arial" font-size="14.00">robot_id </text>
<text text-anchor="start" x="678.54" y="-1131.4" font-family="Arial" font-size="14.00" fill="#666666">[bigint]</text>
<text text-anchor="start" x="719.79" y="-1131.4" font-family="Arial" font-size="14.00"> ID of the robot that remembered this node</text>
<polygon fill="none" stroke="black" points="617.06,-1088.4 617.06,-1119.2 1246.55,-1119.2 1246.55,-1088.4 617.06,-1088.4"/>
<text text-anchor="start" x="624.06" y="-1100.6" font-family="Arial" font-size="14.00">updated_at </text>
<text text-anchor="start" x="698.02" y="-1100.6" font-family="Arial" font-size="14.00" fill="#666666">[timestamp with time zone]</text>
</g>
<!-- public.robot_nodes&#45;&gt;public.nodes -->
<g id="edge3" class="edge">
<title>public.robot_nodes:node_id&#45;&gt;public.nodes:id</title>
<path fill="none" stroke="black" d="M605.84,-1195.31C551.41,-1185.16 573.34,-1091.17 617.06,-1045.2 714.59,-942.67 1155.49,-1111.91 1252.83,-1009.2 1306.48,-952.58 1331.83,-658.2 1253.83,-658.2"/>
<polygon fill="black" stroke="black" points="605.77,-1195.3 615.34,-1200.65 611.08,-1195.76 615.4,-1196.14 615.4,-1196.14 615.4,-1196.14 611.08,-1195.76 616.12,-1191.69 605.77,-1195.3"/>
<text text-anchor="start" x="269.52" y="-1206.2" font-family="Arial" font-size="10.00">FOREIGN KEY (node_id) REFERENCES nodes(id) ON DELETE CASCADE</text>
</g>
<!-- public.robot_nodes&#45;&gt;public.robots -->
<g id="edge6" class="edge">
<title>public.robot_nodes:robot_id&#45;&gt;public.robots:id</title>
<path fill="none" stroke="black" d="M1257.79,-1133.88C1306.27,-1126.53 1287.64,-1064.14 1304.81,-1009.2 1324.29,-946.84 1291.36,-719.8 1356.7,-719.8"/>
<polygon fill="black" stroke="black" points="1257.86,-1133.88 1247.57,-1130.09 1252.54,-1134.25 1248.22,-1134.55 1248.22,-1134.55 1248.22,-1134.55 1252.54,-1134.25 1248.2,-1139.07 1257.86,-1133.88"/>
<text text-anchor="start" x="1077.23" y="-1118.6" font-family="Arial" font-size="10.00">FOREIGN KEY (robot_id) REFERENCES robots(id) ON DELETE CASCADE</text>
</g>
</g>
</svg>
