<svg viewBox="0 0 700 400" xmlns="http://www.w3.org/2000/svg" style="background: transparent;">
  <!-- Title -->
  <text x="350" y="30" text-anchor="middle" fill="#FFFFFF" font-size="18" font-weight="bold">Proposed Three-Tier Architecture (Rejected)</text>

  <!-- HTM Instance outer box -->
  <rect x="50" y="70" width="300" height="280" fill="rgba(33, 150, 243, 0.2)" stroke="#2196F3" stroke-width="3" rx="8"/>
  <text x="200" y="100" text-anchor="middle" fill="#FFFFFF" font-size="15" font-weight="bold">HTM Instance</text>

  <!-- Double arrow down -->
  <path d="M 180 120 L 180 160" stroke="#FFC107" stroke-width="3" fill="none" marker-end="url(#arrow2)"/>
  <path d="M 220 120 L 220 160" stroke="#FFC107" stroke-width="3" fill="none" marker-end="url(#arrow2)"/>

  <!-- Redis (Working) -->
  <rect x="90" y="160" width="180" height="100" fill="rgba(244, 67, 54, 0.3)" stroke="#F44336" stroke-width="3" rx="8" stroke-dasharray="5,5"/>
  <text x="180" y="190" text-anchor="middle" fill="#FFFFFF" font-size="14" font-weight="bold">Redis</text>
  <text x="180" y="215" text-anchor="middle" fill="#B0B0B0" font-size="12">(Working)</text>
  <text x="180" y="240" text-anchor="middle" fill="#4CAF50" font-size="11" font-style="italic">persistent</text>

  <!-- PostgreSQL -->
  <rect x="450" y="160" width="200" height="100" fill="rgba(156, 39, 176, 0.3)" stroke="#9C27B0" stroke-width="3" rx="8"/>
  <text x="550" y="190" text-anchor="middle" fill="#FFFFFF" font-size="14" font-weight="bold">PostgreSQL</text>
  <text x="550" y="215" text-anchor="middle" fill="#B0B0B0" font-size="12">(Long-Term)</text>
  <text x="550" y="240" text-anchor="middle" fill="#4CAF50" font-size="11" font-style="italic">persistent</text>

  <!-- Arrow from Redis to PostgreSQL -->
  <path d="M 270 210 L 450 210" stroke="#2196F3" stroke-width="3" fill="none" marker-end="url(#arrow1)"/>
  <text x="360" y="200" text-anchor="middle" fill="#2196F3" font-size="11">syncs to</text>

  <!-- Rejection stamp -->
  <rect x="220" y="60" width="160" height="40" fill="rgba(244, 67, 54, 0.2)" stroke="#F44336" stroke-width="3" rx="5" transform="rotate(-15 300 80)"/>
  <text x="300" y="85" text-anchor="middle" fill="#F44336" font-size="18" font-weight="bold" transform="rotate(-15 300 85)">REJECTED</text>

  <!-- Notes -->
  <rect x="50" y="280" width="300" height="60" fill="rgba(244, 67, 54, 0.1)" stroke="#F44336" stroke-width="2" rx="5" stroke-dasharray="5,5"/>
  <text x="60" y="300" fill="#B0B0B0" font-size="11">• <tspan fill="#F44336" font-weight="bold">Redis layer</tspan>: Adds complexity</text>
  <text x="60" y="318" fill="#B0B0B0" font-size="11">• Requires infrastructure management</text>
  <text x="60" y="336" fill="#B0B0B0" font-size="11">• In-memory hash sufficient for working memory</text>

  <!-- Markers -->
  <defs>
    <marker id="arrow1" markerWidth="10" markerHeight="10" refX="9" refY="3" orient="auto">
      <polygon points="0 0, 10 3, 0 6" fill="#2196F3"/>
    </marker>
    <marker id="arrow2" markerWidth="10" markerHeight="10" refX="9" refY="3" orient="auto">
      <polygon points="0 0, 10 3, 0 6" fill="#FFC107"/>
    </marker>
  </defs>
</svg>
