<svg viewBox="0 0 700 400" xmlns="http://www.w3.org/2000/svg" style="background: transparent;">
  <!-- Title -->
  <text x="350" y="30" text-anchor="middle" fill="#FFFFFF" font-size="18" font-weight="bold">HTM Exception Hierarchy</text>

  <!-- HTM::EmbeddingError (root) -->
  <rect x="200" y="70" width="300" height="60" fill="rgba(244, 67, 54, 0.3)" stroke="#F44336" stroke-width="3" rx="8"/>
  <text x="350" y="105" text-anchor="middle" fill="#FFFFFF" font-size="16" font-weight="bold">HTM::EmbeddingError</text>

  <!-- Branch lines -->
  <path d="M 350 130 L 350 170" stroke="#F44336" stroke-width="2" fill="none"/>
  <path d="M 350 170 L 120 170 L 120 200" stroke="#F44336" stroke-width="2" fill="none" marker-end="url(#arrow1)"/>
  <path d="M 350 170 L 270 170 L 270 200" stroke="#F44336" stroke-width="2" fill="none" marker-end="url(#arrow1)"/>
  <path d="M 350 170 L 430 170 L 430 200" stroke="#F44336" stroke-width="2" fill="none" marker-end="url(#arrow1)"/>
  <path d="M 350 170 L 580 170 L 580 200" stroke="#F44336" stroke-width="2" fill="none" marker-end="url(#arrow1)"/>

  <!-- Provider connection failed -->
  <rect x="20" y="200" width="200" height="50" fill="rgba(255, 152, 0, 0.3)" stroke="#FF9800" stroke-width="2" rx="6"/>
  <text x="120" y="230" text-anchor="middle" fill="#FFFFFF" font-size="12">"Provider connection failed"</text>

  <!-- OpenAI API error -->
  <rect x="240" y="200" width="200" height="50" fill="rgba(255, 152, 0, 0.3)" stroke="#FF9800" stroke-width="2" rx="6"/>
  <text x="340" y="230" text-anchor="middle" fill="#FFFFFF" font-size="12">"OpenAI API error: ..."</text>

  <!-- Invalid model -->
  <rect x="460" y="200" width="160" height="50" fill="rgba(255, 152, 0, 0.3)" stroke="#FF9800" stroke-width="2" rx="6"/>
  <text x="540" y="230" text-anchor="middle" fill="#FFFFFF" font-size="12">"Invalid model: ..."</text>

  <!-- Empty text provided -->
  <rect x="460" y="200" width="190" height="50" fill="rgba(255, 152, 0, 0.3)" stroke="#FF9800" stroke-width="2" rx="6"/>
  <text x="555" y="230" text-anchor="middle" fill="#FFFFFF" font-size="12">"Empty text provided"</text>

  <!-- Legend -->
  <rect x="50" y="290" width="600" height="90" fill="rgba(244, 67, 54, 0.1)" stroke="#F44336" stroke-width="2" rx="5" stroke-dasharray="5,5"/>
  <text x="350" y="315" text-anchor="middle" fill="#F44336" font-size="13" font-weight="bold">Exception Types</text>
  <text x="70" y="340" fill="#B0B0B0" font-size="10">• <tspan fill="#F44336" font-weight="bold">HTM::EmbeddingError</tspan>: Base class for all embedding-related errors</text>
  <text x="70" y="360" fill="#B0B0B0" font-size="10">• All errors include descriptive messages indicating the specific failure</text>
  <text x="70" y="378" fill="#B0B0B0" font-size="10">• Errors can occur from: Connection failures, API errors, invalid input, or configuration issues</text>

  <!-- Markers -->
  <defs>
    <marker id="arrow1" markerWidth="10" markerHeight="10" refX="9" refY="3" orient="auto">
      <polygon points="0 0, 10 3, 0 6" fill="#F44336"/>
    </marker>
  </defs>
</svg>
