<svg viewBox="0 0 800 600" xmlns="http://www.w3.org/2000/svg" style="background: transparent;">
  <!-- Title -->
  <text x="400" y="30" text-anchor="middle" fill="#FFFFFF" font-size="18" font-weight="bold">ADR Dependency Tree</text>

  <!-- ADR-001 (Root) -->
  <rect x="300" y="70" width="200" height="50" fill="rgba(76, 175, 80, 0.3)" stroke="#4CAF50" stroke-width="3" rx="8"/>
  <text x="400" y="100" text-anchor="middle" fill="#FFFFFF" font-size="14" font-weight="bold">ADR-001 (Storage)</text>

  <!-- Branch lines from ADR-001 -->
  <path d="M 400 120 L 400 150" stroke="#4CAF50" stroke-width="2" fill="none"/>
  <path d="M 400 150 L 150 150 L 150 180" stroke="#4CAF50" stroke-width="2" fill="none" marker-end="url(#arrow1)"/>
  <path d="M 400 150 L 400 180" stroke="#4CAF50" stroke-width="2" fill="none" marker-end="url(#arrow1)"/>
  <path d="M 400 150 L 650 150 L 650 180" stroke="#4CAF50" stroke-width="2" fill="none" marker-end="url(#arrow1)"/>

  <!-- ADR-002 (Two-Tier Memory) -->
  <rect x="50" y="180" width="200" height="50" fill="rgba(33, 150, 243, 0.3)" stroke="#2196F3" stroke-width="3" rx="8"/>
  <text x="150" y="210" text-anchor="middle" fill="#FFFFFF" font-size="13" font-weight="bold">ADR-002 (Two-Tier Memory)</text>

  <!-- ADR-003 (Embeddings) -->
  <rect x="300" y="180" width="200" height="50" fill="rgba(255, 152, 0, 0.3)" stroke="#FF9800" stroke-width="3" rx="8"/>
  <text x="400" y="210" text-anchor="middle" fill="#FFFFFF" font-size="13" font-weight="bold">ADR-003 (Embeddings)</text>

  <!-- ADR-004 (Hive Mind) -->
  <rect x="550" y="180" width="200" height="50" fill="rgba(156, 39, 176, 0.3)" stroke="#9C27B0" stroke-width="3" rx="8"/>
  <text x="650" y="210" text-anchor="middle" fill="#FFFFFF" font-size="13" font-weight="bold">ADR-004 (Hive Mind)</text>

  <!-- Branch lines from ADR-002 -->
  <path d="M 150 230 L 150 270" stroke="#2196F3" stroke-width="2" fill="none"/>
  <path d="M 150 270 L 40 270 L 40 300" stroke="#2196F3" stroke-width="2" fill="none" marker-end="url(#arrow2)"/>
  <path d="M 150 270 L 150 300" stroke="#2196F3" stroke-width="2" fill="none" marker-end="url(#arrow2)"/>
  <path d="M 150 270 L 260 270 L 260 300" stroke="#2196F3" stroke-width="2" fill="none" marker-end="url(#arrow2)"/>

  <!-- ADR-007 (Eviction Strategy) -->
  <rect x="10" y="300" width="180" height="50" fill="rgba(33, 150, 243, 0.3)" stroke="#2196F3" stroke-width="2" rx="6"/>
  <text x="100" y="328" text-anchor="middle" fill="#FFFFFF" font-size="12">ADR-007 (Eviction Strategy)</text>

  <!-- ADR-009 (Never-Forget) -->
  <rect x="70" y="370" width="160" height="50" fill="rgba(33, 150, 243, 0.3)" stroke="#2196F3" stroke-width="2" rx="6"/>
  <text x="150" y="398" text-anchor="middle" fill="#FFFFFF" font-size="12">ADR-009 (Never-Forget)</text>

  <!-- ADR-010 (Redis WM - Rejected) -->
  <rect x="210" y="300" width="200" height="50" fill="rgba(244, 67, 54, 0.3)" stroke="#F44336" stroke-width="2" rx="6" stroke-dasharray="5,5"/>
  <text x="310" y="320" text-anchor="middle" fill="#FFFFFF" font-size="11">ADR-010 (Redis WM)</text>
  <text x="310" y="338" text-anchor="middle" fill="#F44336" font-size="10" font-weight="bold">Rejected Alternative</text>

  <!-- Branch line from ADR-003 -->
  <path d="M 400 230 L 400 290" stroke="#FF9800" stroke-width="2" fill="none" marker-end="url(#arrow3)"/>

  <!-- ADR-005 (RAG Retrieval) -->
  <rect x="310" y="290" width="180" height="50" fill="rgba(255, 152, 0, 0.3)" stroke="#FF9800" stroke-width="2" rx="6"/>
  <text x="400" y="318" text-anchor="middle" fill="#FFFFFF" font-size="12">ADR-005 (RAG Retrieval)</text>

  <!-- Branch line from ADR-004 -->
  <path d="M 650 230 L 650 290" stroke="#9C27B0" stroke-width="2" fill="none" marker-end="url(#arrow4)"/>

  <!-- ADR-008 (Robot ID) -->
  <rect x="560" y="290" width="180" height="50" fill="rgba(156, 39, 176, 0.3)" stroke="#9C27B0" stroke-width="2" rx="6"/>
  <text x="650" y="318" text-anchor="middle" fill="#FFFFFF" font-size="12">ADR-008 (Robot ID)</text>

  <!-- ADR-006 (Context Assembly) -->
  <rect x="310" y="480" width="180" height="50" fill="rgba(255, 193, 7, 0.3)" stroke="#FFC107" stroke-width="3" rx="8"/>
  <text x="400" y="508" text-anchor="middle" fill="#FFFFFF" font-size="13" font-weight="bold">ADR-006 (Context Assembly)</text>

  <!-- Branch line from ADR-001 to ADR-006 -->
  <path d="M 400 120 L 480 120 L 480 470 L 400 470 L 400 480" stroke="#FFC107" stroke-width="2" fill="none" marker-end="url(#arrow5)"/>

  <!-- Legend -->
  <rect x="30" y="480" width="220" height="100" fill="rgba(33, 150, 243, 0.1)" stroke="#2196F3" stroke-width="2" rx="5" stroke-dasharray="5,5"/>
  <text x="140" y="500" text-anchor="middle" fill="#2196F3" font-size="12" font-weight="bold">Legend</text>
  <text x="40" y="520" fill="#B0B0B0" font-size="10">• <tspan fill="#4CAF50" font-weight="bold">Green</tspan>: Foundation</text>
  <text x="40" y="538" fill="#B0B0B0" font-size="10">• <tspan fill="#2196F3" font-weight="bold">Blue</tspan>: Memory architecture</text>
  <text x="40" y="556" fill="#B0B0B0" font-size="10">• <tspan fill="#FF9800" font-weight="bold">Orange</tspan>: Search/retrieval</text>
  <text x="40" y="574" fill="#B0B0B0" font-size="10">• <tspan fill="#9C27B0" font-weight="bold">Purple</tspan>: Multi-robot features</text>

  <!-- Markers -->
  <defs>
    <marker id="arrow1" markerWidth="10" markerHeight="10" refX="9" refY="3" orient="auto">
      <polygon points="0 0, 10 3, 0 6" fill="#4CAF50"/>
    </marker>
    <marker id="arrow2" markerWidth="10" markerHeight="10" refX="9" refY="3" orient="auto">
      <polygon points="0 0, 10 3, 0 6" fill="#2196F3"/>
    </marker>
    <marker id="arrow3" markerWidth="10" markerHeight="10" refX="9" refY="3" orient="auto">
      <polygon points="0 0, 10 3, 0 6" fill="#FF9800"/>
    </marker>
    <marker id="arrow4" markerWidth="10" markerHeight="10" refX="9" refY="3" orient="auto">
      <polygon points="0 0, 10 3, 0 6" fill="#9C27B0"/>
    </marker>
    <marker id="arrow5" markerWidth="10" markerHeight="10" refX="9" refY="3" orient="auto">
      <polygon points="0 0, 10 3, 0 6" fill="#FFC107"/>
    </marker>
  </defs>
</svg>
