<?xml version="1.0" encoding="UTF-8" standalone="no"?>
<!DOCTYPE svg PUBLIC "-//W3C//DTD SVG 1.1//EN"
 "http://www.w3.org/Graphics/SVG/1.1/DTD/svg11.dtd">
<!-- Generated by graphviz version 12.1.2 (20240928.0832)
 -->
<!-- Title: public.node_tags Pages: 1 -->
<svg width="2086pt" height="1401pt"
 viewBox="0.00 0.00 2086.46 1401.20" xmlns="http://www.w3.org/2000/svg" xmlns:xlink="http://www.w3.org/1999/xlink">
<g id="graph0" class="graph" transform="scale(1 1) rotate(0) translate(4 1397.2)">
<title>public.node_tags</title>
<polygon fill="white" stroke="none" points="-4,4 -4,-1397.2 2082.46,-1397.2 2082.46,4 -4,4"/>
<!-- public.node_tags -->
<g id="node1" class="node">
<title>public.node_tags</title>
<polygon fill="#efefef" stroke="none" points="1464.34,-1242.4 1464.34,-1288.4 1933.55,-1288.4 1933.55,-1242.4 1464.34,-1242.4"/>
<polygon fill="none" stroke="black" points="1464.34,-1242.4 1464.34,-1288.4 1933.55,-1288.4 1933.55,-1242.4 1464.34,-1242.4"/>
<text text-anchor="start" x="1575.46" y="-1266.2" font-family="Arial Bold" font-size="18.00">public.node_tags</text>
<text text-anchor="start" x="1697.94" y="-1266.2" font-family="Arial" font-size="14.00">    </text>
<text text-anchor="start" x="1729.05" y="-1266.2" font-family="Arial" font-size="14.00" fill="#666666">[BASE TABLE]</text>
<text text-anchor="start" x="1537.86" y="-1251.8" font-family="Arial" font-size="14.00" fill="#333333">Join table connecting nodes to tags (many&#45;to&#45;many)</text>
<polygon fill="none" stroke="black" points="1464.34,-1211.6 1464.34,-1242.4 1933.55,-1242.4 1933.55,-1211.6 1464.34,-1211.6"/>
<text text-anchor="start" x="1471.34" y="-1223.8" font-family="Arial" font-size="14.00">created_at </text>
<text text-anchor="start" x="1541.39" y="-1223.8" font-family="Arial" font-size="14.00" fill="#666666">[timestamp with time zone]</text>
<text text-anchor="start" x="1707.11" y="-1223.8" font-family="Arial" font-size="14.00"> When this association was created</text>
<polygon fill="none" stroke="black" points="1464.34,-1180.8 1464.34,-1211.6 1933.55,-1211.6 1933.55,-1180.8 1464.34,-1180.8"/>
<text text-anchor="start" x="1471.34" y="-1193" font-family="Arial" font-size="14.00">id </text>
<text text-anchor="start" x="1486.12" y="-1193" font-family="Arial" font-size="14.00" fill="#666666">[bigint]</text>
<polygon fill="none" stroke="black" points="1464.34,-1150 1464.34,-1180.8 1933.55,-1180.8 1933.55,-1150 1464.34,-1150"/>
<text text-anchor="start" x="1471.34" y="-1162.2" font-family="Arial" font-size="14.00">node_id </text>
<text text-anchor="start" x="1525.05" y="-1162.2" font-family="Arial" font-size="14.00" fill="#666666">[bigint]</text>
<text text-anchor="start" x="1566.3" y="-1162.2" font-family="Arial" font-size="14.00"> ID of the node being tagged</text>
<polygon fill="none" stroke="black" points="1464.34,-1119.2 1464.34,-1150 1933.55,-1150 1933.55,-1119.2 1464.34,-1119.2"/>
<text text-anchor="start" x="1471.34" y="-1131.4" font-family="Arial" font-size="14.00">tag_id </text>
<text text-anchor="start" x="1513.37" y="-1131.4" font-family="Arial" font-size="14.00" fill="#666666">[bigint]</text>
<text text-anchor="start" x="1554.62" y="-1131.4" font-family="Arial" font-size="14.00"> ID of the tag being applied</text>
<polygon fill="none" stroke="black" stroke-width="3" points="1462.84,-1117.7 1462.84,-1289.9 1935.05,-1289.9 1935.05,-1117.7 1462.84,-1117.7"/>
</g>
<!-- public.nodes -->
<g id="node2" class="node">
<title>public.nodes</title>
<polygon fill="#efefef" stroke="none" points="669.92,-889.2 669.92,-935.2 1325.96,-935.2 1325.96,-889.2 669.92,-889.2"/>
<polygon fill="none" stroke="black" points="669.92,-889.2 669.92,-935.2 1325.96,-935.2 1325.96,-889.2 669.92,-889.2"/>
<text text-anchor="start" x="889.96" y="-913" font-family="Arial Bold" font-size="18.00">public.nodes</text>
<text text-anchor="start" x="981.44" y="-913" font-family="Arial" font-size="14.00">    </text>
<text text-anchor="start" x="1012.56" y="-913" font-family="Arial" font-size="14.00" fill="#666666">[BASE TABLE]</text>
<text text-anchor="start" x="806.52" y="-898.6" font-family="Arial" font-size="14.00" fill="#333333">Core memory storage for conversation messages and context</text>
<polygon fill="none" stroke="black" points="669.92,-858.4 669.92,-889.2 1325.96,-889.2 1325.96,-858.4 669.92,-858.4"/>
<text text-anchor="start" x="676.92" y="-870.6" font-family="Arial" font-size="14.00">access_count </text>
<text text-anchor="start" x="766.42" y="-870.6" font-family="Arial" font-size="14.00" fill="#666666">[integer]</text>
<text text-anchor="start" x="817.01" y="-870.6" font-family="Arial" font-size="14.00"> Number of times this node has been accessed/retrieved</text>
<polygon fill="none" stroke="black" points="669.92,-827.6 669.92,-858.4 1325.96,-858.4 1325.96,-827.6 669.92,-827.6"/>
<text text-anchor="start" x="676.92" y="-839.8" font-family="Arial" font-size="14.00">chunk_position </text>
<text text-anchor="start" x="774.21" y="-839.8" font-family="Arial" font-size="14.00" fill="#666666">[integer]</text>
<text text-anchor="start" x="824.8" y="-839.8" font-family="Arial" font-size="14.00"> Position within source file (0&#45;indexed)</text>
<polygon fill="none" stroke="black" points="669.92,-796.8 669.92,-827.6 1325.96,-827.6 1325.96,-796.8 669.92,-796.8"/>
<text text-anchor="start" x="676.92" y="-809" font-family="Arial" font-size="14.00">content </text>
<text text-anchor="start" x="726.74" y="-809" font-family="Arial" font-size="14.00" fill="#666666">[text]</text>
<text text-anchor="start" x="757.08" y="-809" font-family="Arial" font-size="14.00"> The conversation message/utterance content</text>
<polygon fill="none" stroke="black" points="669.92,-766 669.92,-796.8 1325.96,-796.8 1325.96,-766 669.92,-766"/>
<text text-anchor="start" x="676.92" y="-778.2" font-family="Arial" font-size="14.00">content_hash </text>
<text text-anchor="start" x="764.88" y="-778.2" font-family="Arial" font-size="14.00" fill="#666666">[varchar(64)]</text>
<text text-anchor="start" x="844.24" y="-778.2" font-family="Arial" font-size="14.00"> SHA&#45;256 hash of content for deduplication</text>
<polygon fill="none" stroke="black" points="669.92,-735.2 669.92,-766 1325.96,-766 1325.96,-735.2 669.92,-735.2"/>
<text text-anchor="start" x="676.92" y="-747.4" font-family="Arial" font-size="14.00">created_at </text>
<text text-anchor="start" x="746.97" y="-747.4" font-family="Arial" font-size="14.00" fill="#666666">[timestamp with time zone]</text>
<text text-anchor="start" x="912.7" y="-747.4" font-family="Arial" font-size="14.00"> When this memory was created</text>
<polygon fill="none" stroke="black" points="669.92,-704.4 669.92,-735.2 1325.96,-735.2 1325.96,-704.4 669.92,-704.4"/>
<text text-anchor="start" x="676.92" y="-716.6" font-family="Arial" font-size="14.00">deleted_at </text>
<text text-anchor="start" x="746.21" y="-716.6" font-family="Arial" font-size="14.00" fill="#666666">[timestamp with time zone]</text>
<text text-anchor="start" x="911.93" y="-716.6" font-family="Arial" font-size="14.00"> Soft delete timestamp &#45; node is considered deleted when set</text>
<polygon fill="none" stroke="black" points="669.92,-673.6 669.92,-704.4 1325.96,-704.4 1325.96,-673.6 669.92,-673.6"/>
<text text-anchor="start" x="676.92" y="-685.8" font-family="Arial" font-size="14.00">embedding </text>
<text text-anchor="start" x="750.09" y="-685.8" font-family="Arial" font-size="14.00" fill="#666666">[vector(2000)]</text>
<text text-anchor="start" x="836.46" y="-685.8" font-family="Arial" font-size="14.00"> Vector embedding (max 2000 dimensions) for semantic search</text>
<polygon fill="none" stroke="black" points="669.92,-642.8 669.92,-673.6 1325.96,-673.6 1325.96,-642.8 669.92,-642.8"/>
<text text-anchor="start" x="676.92" y="-655" font-family="Arial" font-size="14.00">embedding_dimension </text>
<text text-anchor="start" x="821.69" y="-655" font-family="Arial" font-size="14.00" fill="#666666">[integer]</text>
<text text-anchor="start" x="872.28" y="-655" font-family="Arial" font-size="14.00"> Actual number of dimensions used in the embedding vector (max 2000)</text>
<polygon fill="none" stroke="black" points="669.92,-612 669.92,-642.8 1325.96,-642.8 1325.96,-612 669.92,-612"/>
<text text-anchor="start" x="676.92" y="-624.2" font-family="Arial" font-size="14.00">id </text>
<text text-anchor="start" x="691.71" y="-624.2" font-family="Arial" font-size="14.00" fill="#666666">[bigint]</text>
<polygon fill="none" stroke="black" points="669.92,-581.2 669.92,-612 1325.96,-612 1325.96,-581.2 669.92,-581.2"/>
<text text-anchor="start" x="676.92" y="-593.4" font-family="Arial" font-size="14.00">last_accessed </text>
<text text-anchor="start" x="769.53" y="-593.4" font-family="Arial" font-size="14.00" fill="#666666">[timestamp with time zone]</text>
<text text-anchor="start" x="935.25" y="-593.4" font-family="Arial" font-size="14.00"> When this memory was last accessed</text>
<polygon fill="none" stroke="black" points="669.92,-550.4 669.92,-581.2 1325.96,-581.2 1325.96,-550.4 669.92,-550.4"/>
<text text-anchor="start" x="676.92" y="-562.6" font-family="Arial" font-size="14.00">source_id </text>
<text text-anchor="start" x="741.52" y="-562.6" font-family="Arial" font-size="14.00" fill="#666666">[bigint]</text>
<text text-anchor="start" x="782.77" y="-562.6" font-family="Arial" font-size="14.00"> Reference to source file (for file&#45;loaded nodes)</text>
<polygon fill="none" stroke="black" points="669.92,-519.6 669.92,-550.4 1325.96,-550.4 1325.96,-519.6 669.92,-519.6"/>
<text text-anchor="start" x="676.92" y="-531.8" font-family="Arial" font-size="14.00">token_count </text>
<text text-anchor="start" x="757.1" y="-531.8" font-family="Arial" font-size="14.00" fill="#666666">[integer]</text>
<text text-anchor="start" x="807.68" y="-531.8" font-family="Arial" font-size="14.00"> Number of tokens in the content (for context budget management)</text>
<polygon fill="none" stroke="black" points="669.92,-488.8 669.92,-519.6 1325.96,-519.6 1325.96,-488.8 669.92,-488.8"/>
<text text-anchor="start" x="676.92" y="-501" font-family="Arial" font-size="14.00">updated_at </text>
<text text-anchor="start" x="750.88" y="-501" font-family="Arial" font-size="14.00" fill="#666666">[timestamp with time zone]</text>
<text text-anchor="start" x="916.61" y="-501" font-family="Arial" font-size="14.00"> When this memory was last modified</text>
</g>
<!-- public.node_tags&#45;&gt;public.nodes -->
<g id="edge1" class="edge">
<title>public.node_tags:node_id&#45;&gt;public.nodes:id</title>
<path fill="none" stroke="black" d="M1453.18,-1164.95C1374.37,-1157.66 1402.74,-1062.62 1377.94,-978.4 1355.68,-902.79 1405.78,-627.4 1326.96,-627.4"/>
<polygon fill="black" stroke="black" points="1453.01,-1164.94 1462.81,-1169.88 1458.34,-1165.18 1462.67,-1165.37 1462.67,-1165.37 1462.67,-1165.37 1458.34,-1165.18 1463.2,-1160.89 1453.01,-1164.94"/>
<text text-anchor="start" x="1205.18" y="-1149.4" font-family="Arial" font-size="10.00">FOREIGN KEY (node_id) REFERENCES nodes(id) ON DELETE CASCADE</text>
</g>
<!-- public.tags -->
<g id="node6" class="node">
<title>public.tags</title>
<polygon fill="#efefef" stroke="none" points="1430.63,-735.2 1430.63,-781.2 2035.26,-781.2 2035.26,-735.2 1430.63,-735.2"/>
<polygon fill="none" stroke="black" points="1430.63,-735.2 1430.63,-781.2 2035.26,-781.2 2035.26,-735.2 1430.63,-735.2"/>
<text text-anchor="start" x="1631.46" y="-759" font-family="Arial Bold" font-size="18.00">public.tags</text>
<text text-anchor="start" x="1709.94" y="-759" font-family="Arial" font-size="14.00">    </text>
<text text-anchor="start" x="1741.06" y="-759" font-family="Arial" font-size="14.00" fill="#666666">[BASE TABLE]</text>
<text text-anchor="start" x="1620.49" y="-744.6" font-family="Arial" font-size="14.00" fill="#333333">Unique tag names for categorization</text>
<polygon fill="none" stroke="black" points="1430.63,-704.4 1430.63,-735.2 2035.26,-735.2 2035.26,-704.4 1430.63,-704.4"/>
<text text-anchor="start" x="1437.63" y="-716.6" font-family="Arial" font-size="14.00">created_at </text>
<text text-anchor="start" x="1507.68" y="-716.6" font-family="Arial" font-size="14.00" fill="#666666">[timestamp with time zone]</text>
<text text-anchor="start" x="1673.4" y="-716.6" font-family="Arial" font-size="14.00"> When this tag was created</text>
<polygon fill="none" stroke="black" points="1430.63,-673.6 1430.63,-704.4 2035.26,-704.4 2035.26,-673.6 1430.63,-673.6"/>
<text text-anchor="start" x="1437.63" y="-685.8" font-family="Arial" font-size="14.00">id </text>
<text text-anchor="start" x="1452.42" y="-685.8" font-family="Arial" font-size="14.00" fill="#666666">[bigint]</text>
<polygon fill="none" stroke="black" points="1430.63,-642.8 1430.63,-673.6 2035.26,-673.6 2035.26,-642.8 1430.63,-642.8"/>
<text text-anchor="start" x="1437.63" y="-655" font-family="Arial" font-size="14.00">name </text>
<text text-anchor="start" x="1476.54" y="-655" font-family="Arial" font-size="14.00" fill="#666666">[text]</text>
<text text-anchor="start" x="1506.89" y="-655" font-family="Arial" font-size="14.00"> Hierarchical tag in format: root:level1:level2 (e.g., database:postgresql:timescaledb)</text>
</g>
<!-- public.node_tags&#45;&gt;public.tags -->
<g id="edge5" class="edge">
<title>public.node_tags:tag_id&#45;&gt;public.tags:id</title>
<path fill="none" stroke="black" d="M1698.71,-1108.09C1691.04,-943.14 1493.93,-985.81 1430.63,-824.4 1408.66,-768.37 1369.45,-689 1429.63,-689"/>
<polygon fill="black" stroke="black" points="1698.71,-1107.87 1694.44,-1117.97 1698.83,-1113.2 1698.93,-1117.53 1698.93,-1117.53 1698.93,-1117.53 1698.83,-1113.2 1703.43,-1117.76 1698.71,-1107.87"/>
<text text-anchor="start" x="1705.94" y="-1128.2" font-family="Arial" font-size="10.00">FOREIGN KEY (tag_id) REFERENCES tags(id) ON DELETE CASCADE</text>
</g>
<!-- public.file_sources -->
<g id="node5" class="node">
<title>public.file_sources</title>
<polygon fill="#efefef" stroke="none" points="752.07,-320.4 752.07,-366.4 1243.82,-366.4 1243.82,-320.4 752.07,-320.4"/>
<polygon fill="none" stroke="black" points="752.07,-320.4 752.07,-366.4 1243.82,-366.4 1243.82,-320.4 752.07,-320.4"/>
<text text-anchor="start" x="867.47" y="-344.2" font-family="Arial Bold" font-size="18.00">public.file_sources</text>
<text text-anchor="start" x="1003.93" y="-344.2" font-family="Arial" font-size="14.00">    </text>
<text text-anchor="start" x="1035.05" y="-344.2" font-family="Arial" font-size="14.00" fill="#666666">[BASE TABLE]</text>
<text text-anchor="start" x="864.48" y="-329.8" font-family="Arial" font-size="14.00" fill="#333333">Source file metadata for loaded documents</text>
<polygon fill="none" stroke="black" points="752.07,-289.6 752.07,-320.4 1243.82,-320.4 1243.82,-289.6 752.07,-289.6"/>
<text text-anchor="start" x="759.07" y="-301.8" font-family="Arial" font-size="14.00">created_at </text>
<text text-anchor="start" x="829.12" y="-301.8" font-family="Arial" font-size="14.00" fill="#666666">[timestamp with time zone]</text>
<polygon fill="none" stroke="black" points="752.07,-258.8 752.07,-289.6 1243.82,-289.6 1243.82,-258.8 752.07,-258.8"/>
<text text-anchor="start" x="759.07" y="-271" font-family="Arial" font-size="14.00">file_hash </text>
<text text-anchor="start" x="819" y="-271" font-family="Arial" font-size="14.00" fill="#666666">[varchar(64)]</text>
<text text-anchor="start" x="898.36" y="-271" font-family="Arial" font-size="14.00"> SHA&#45;256 hash of file content</text>
<polygon fill="none" stroke="black" points="752.07,-228 752.07,-258.8 1243.82,-258.8 1243.82,-228 752.07,-228"/>
<text text-anchor="start" x="759.07" y="-240.2" font-family="Arial" font-size="14.00">file_path </text>
<text text-anchor="start" x="815.89" y="-240.2" font-family="Arial" font-size="14.00" fill="#666666">[text]</text>
<text text-anchor="start" x="846.24" y="-240.2" font-family="Arial" font-size="14.00"> Absolute path to source file</text>
<polygon fill="none" stroke="black" points="752.07,-197.2 752.07,-228 1243.82,-228 1243.82,-197.2 752.07,-197.2"/>
<text text-anchor="start" x="759.07" y="-209.4" font-family="Arial" font-size="14.00">file_size </text>
<text text-anchor="start" x="813.54" y="-209.4" font-family="Arial" font-size="14.00" fill="#666666">[integer]</text>
<text text-anchor="start" x="864.13" y="-209.4" font-family="Arial" font-size="14.00"> File size in bytes</text>
<polygon fill="none" stroke="black" points="752.07,-166.4 752.07,-197.2 1243.82,-197.2 1243.82,-166.4 752.07,-166.4"/>
<text text-anchor="start" x="759.07" y="-178.6" font-family="Arial" font-size="14.00">frontmatter </text>
<text text-anchor="start" x="830.65" y="-178.6" font-family="Arial" font-size="14.00" fill="#666666">[jsonb]</text>
<text text-anchor="start" x="871.9" y="-178.6" font-family="Arial" font-size="14.00"> Parsed YAML frontmatter</text>
<polygon fill="none" stroke="black" points="752.07,-135.6 752.07,-166.4 1243.82,-166.4 1243.82,-135.6 752.07,-135.6"/>
<text text-anchor="start" x="759.07" y="-147.8" font-family="Arial" font-size="14.00">id </text>
<text text-anchor="start" x="773.86" y="-147.8" font-family="Arial" font-size="14.00" fill="#666666">[bigint]</text>
<polygon fill="none" stroke="black" points="752.07,-104.8 752.07,-135.6 1243.82,-135.6 1243.82,-104.8 752.07,-104.8"/>
<text text-anchor="start" x="759.07" y="-117" font-family="Arial" font-size="14.00">last_synced_at </text>
<text text-anchor="start" x="856.35" y="-117" font-family="Arial" font-size="14.00" fill="#666666">[timestamp with time zone]</text>
<text text-anchor="start" x="1022.08" y="-117" font-family="Arial" font-size="14.00"> When file was last synced to HTM</text>
<polygon fill="none" stroke="black" points="752.07,-74 752.07,-104.8 1243.82,-104.8 1243.82,-74 752.07,-74"/>
<text text-anchor="start" x="759.07" y="-86.2" font-family="Arial" font-size="14.00">mtime </text>
<text text-anchor="start" x="801.07" y="-86.2" font-family="Arial" font-size="14.00" fill="#666666">[timestamp with time zone]</text>
<text text-anchor="start" x="966.8" y="-86.2" font-family="Arial" font-size="14.00"> File modification time</text>
<polygon fill="none" stroke="black" points="752.07,-43.2 752.07,-74 1243.82,-74 1243.82,-43.2 752.07,-43.2"/>
<text text-anchor="start" x="759.07" y="-55.4" font-family="Arial" font-size="14.00">updated_at </text>
<text text-anchor="start" x="833.03" y="-55.4" font-family="Arial" font-size="14.00" fill="#666666">[timestamp with time zone]</text>
</g>
<!-- public.nodes&#45;&gt;public.file_sources -->
<g id="edge4" class="edge">
<title>public.nodes:source_id&#45;&gt;public.file_sources:id</title>
<path fill="none" stroke="black" d="M1337.18,-563.95C1414.49,-534.03 1335.11,-151 1244.82,-151"/>
<polygon fill="black" stroke="black" points="1337.13,-563.96 1326.49,-561.31 1331.88,-564.91 1327.62,-565.68 1327.62,-565.68 1327.62,-565.68 1331.88,-564.91 1328.09,-570.17 1337.13,-563.96"/>
<text text-anchor="start" x="1333.96" y="-575.8" font-family="Arial" font-size="10.00">FOREIGN KEY (source_id) REFERENCES file_sources(id) ON DELETE SET NULL</text>
</g>
<!-- public.robot_nodes -->
<g id="node3" class="node">
<title>public.robot_nodes</title>
<polygon fill="#efefef" stroke="none" points="43.2,-1304 43.2,-1350 672.69,-1350 672.69,-1304 43.2,-1304"/>
<polygon fill="none" stroke="black" points="43.2,-1304 43.2,-1350 672.69,-1350 672.69,-1304 43.2,-1304"/>
<text text-anchor="start" x="226.46" y="-1327.8" font-family="Arial Bold" font-size="18.00">public.robot_nodes</text>
<text text-anchor="start" x="364.94" y="-1327.8" font-family="Arial" font-size="14.00">    </text>
<text text-anchor="start" x="396.06" y="-1327.8" font-family="Arial" font-size="14.00" fill="#666666">[BASE TABLE]</text>
<text text-anchor="start" x="190.63" y="-1313.4" font-family="Arial" font-size="14.00" fill="#333333">Join table connecting robots to nodes (many&#45;to&#45;many)</text>
<polygon fill="none" stroke="black" points="43.2,-1273.2 43.2,-1304 672.69,-1304 672.69,-1273.2 43.2,-1273.2"/>
<text text-anchor="start" x="50.2" y="-1285.4" font-family="Arial" font-size="14.00">created_at </text>
<text text-anchor="start" x="120.25" y="-1285.4" font-family="Arial" font-size="14.00" fill="#666666">[timestamp with time zone]</text>
<polygon fill="none" stroke="black" points="43.2,-1242.4 43.2,-1273.2 672.69,-1273.2 672.69,-1242.4 43.2,-1242.4"/>
<text text-anchor="start" x="50.2" y="-1254.6" font-family="Arial" font-size="14.00">first_remembered_at </text>
<text text-anchor="start" x="183.25" y="-1254.6" font-family="Arial" font-size="14.00" fill="#666666">[timestamp with time zone]</text>
<text text-anchor="start" x="348.98" y="-1254.6" font-family="Arial" font-size="14.00"> When this robot first remembered this content</text>
<polygon fill="none" stroke="black" points="43.2,-1211.6 43.2,-1242.4 672.69,-1242.4 672.69,-1211.6 43.2,-1211.6"/>
<text text-anchor="start" x="50.2" y="-1223.8" font-family="Arial" font-size="14.00">id </text>
<text text-anchor="start" x="64.99" y="-1223.8" font-family="Arial" font-size="14.00" fill="#666666">[bigint]</text>
<polygon fill="none" stroke="black" points="43.2,-1180.8 43.2,-1211.6 672.69,-1211.6 672.69,-1180.8 43.2,-1180.8"/>
<text text-anchor="start" x="50.2" y="-1193" font-family="Arial" font-size="14.00">last_remembered_at </text>
<text text-anchor="start" x="182.49" y="-1193" font-family="Arial" font-size="14.00" fill="#666666">[timestamp with time zone]</text>
<text text-anchor="start" x="348.21" y="-1193" font-family="Arial" font-size="14.00"> When this robot last tried to remember this content</text>
<polygon fill="none" stroke="black" points="43.2,-1150 43.2,-1180.8 672.69,-1180.8 672.69,-1150 43.2,-1150"/>
<text text-anchor="start" x="50.2" y="-1162.2" font-family="Arial" font-size="14.00">node_id </text>
<text text-anchor="start" x="103.92" y="-1162.2" font-family="Arial" font-size="14.00" fill="#666666">[bigint]</text>
<text text-anchor="start" x="145.16" y="-1162.2" font-family="Arial" font-size="14.00"> ID of the node being remembered</text>
<polygon fill="none" stroke="black" points="43.2,-1119.2 43.2,-1150 672.69,-1150 672.69,-1119.2 43.2,-1119.2"/>
<text text-anchor="start" x="50.2" y="-1131.4" font-family="Arial" font-size="14.00">remember_count </text>
<text text-anchor="start" x="159.92" y="-1131.4" font-family="Arial" font-size="14.00" fill="#666666">[integer]</text>
<text text-anchor="start" x="210.5" y="-1131.4" font-family="Arial" font-size="14.00"> Number of times this robot has tried to remember this content</text>
<polygon fill="none" stroke="black" points="43.2,-1088.4 43.2,-1119.2 672.69,-1119.2 672.69,-1088.4 43.2,-1088.4"/>
<text text-anchor="start" x="50.2" y="-1100.6" font-family="Arial" font-size="14.00">robot_id </text>
<text text-anchor="start" x="104.68" y="-1100.6" font-family="Arial" font-size="14.00" fill="#666666">[bigint]</text>
<text text-anchor="start" x="145.93" y="-1100.6" font-family="Arial" font-size="14.00"> ID of the robot that remembered this node</text>
<polygon fill="none" stroke="black" points="43.2,-1057.6 43.2,-1088.4 672.69,-1088.4 672.69,-1057.6 43.2,-1057.6"/>
<text text-anchor="start" x="50.2" y="-1069.8" font-family="Arial" font-size="14.00">updated_at </text>
<text text-anchor="start" x="124.16" y="-1069.8" font-family="Arial" font-size="14.00" fill="#666666">[timestamp with time zone]</text>
</g>
<!-- public.robot_nodes&#45;&gt;public.nodes -->
<g id="edge2" class="edge">
<title>public.robot_nodes:node_id&#45;&gt;public.nodes:id</title>
<path fill="none" stroke="black" d="M683.85,-1164.61C733.6,-1155.94 675.32,-1077.66 672.69,-1014.4 665.53,-842.54 496.92,-627.4 668.92,-627.4"/>
<polygon fill="black" stroke="black" points="683.99,-1164.6 673.67,-1160.89 678.67,-1165.01 674.35,-1165.35 674.35,-1165.35 674.35,-1165.35 678.67,-1165.01 674.37,-1169.86 683.99,-1164.6"/>
<text text-anchor="start" x="680.69" y="-1175.4" font-family="Arial" font-size="10.00">FOREIGN KEY (node_id) REFERENCES nodes(id) ON DELETE CASCADE</text>
</g>
<!-- public.working_memories -->
<g id="node4" class="node">
<title>public.working_memories</title>
<polygon fill="#efefef" stroke="none" points="777.32,-1257.8 777.32,-1303.8 1288.57,-1303.8 1288.57,-1257.8 777.32,-1257.8"/>
<polygon fill="none" stroke="black" points="777.32,-1257.8 777.32,-1303.8 1288.57,-1303.8 1288.57,-1257.8 777.32,-1257.8"/>
<text text-anchor="start" x="875.97" y="-1281.6" font-family="Arial Bold" font-size="18.00">public.working_memories</text>
<text text-anchor="start" x="1065.43" y="-1281.6" font-family="Arial" font-size="14.00">    </text>
<text text-anchor="start" x="1096.55" y="-1281.6" font-family="Arial" font-size="14.00" fill="#666666">[BASE TABLE]</text>
<text text-anchor="start" x="864.49" y="-1267.2" font-family="Arial" font-size="14.00" fill="#333333">Per&#45;robot working memory state (optional persistence)</text>
<polygon fill="none" stroke="black" points="777.32,-1227 777.32,-1257.8 1288.57,-1257.8 1288.57,-1227 777.32,-1227"/>
<text text-anchor="start" x="784.32" y="-1239.2" font-family="Arial" font-size="14.00">added_at </text>
<text text-anchor="start" x="846.6" y="-1239.2" font-family="Arial" font-size="14.00" fill="#666666">[timestamp with time zone]</text>
<text text-anchor="start" x="1012.32" y="-1239.2" font-family="Arial" font-size="14.00"> When node was added to working memory</text>
<polygon fill="none" stroke="black" points="777.32,-1196.2 777.32,-1227 1288.57,-1227 1288.57,-1196.2 777.32,-1196.2"/>
<text text-anchor="start" x="784.32" y="-1208.4" font-family="Arial" font-size="14.00">id </text>
<text text-anchor="start" x="799.1" y="-1208.4" font-family="Arial" font-size="14.00" fill="#666666">[bigint]</text>
<polygon fill="none" stroke="black" points="777.32,-1165.4 777.32,-1196.2 1288.57,-1196.2 1288.57,-1165.4 777.32,-1165.4"/>
<text text-anchor="start" x="784.32" y="-1177.6" font-family="Arial" font-size="14.00">node_id </text>
<text text-anchor="start" x="838.03" y="-1177.6" font-family="Arial" font-size="14.00" fill="#666666">[bigint]</text>
<text text-anchor="start" x="879.28" y="-1177.6" font-family="Arial" font-size="14.00"> Node currently in working memory</text>
<polygon fill="none" stroke="black" points="777.32,-1134.6 777.32,-1165.4 1288.57,-1165.4 1288.57,-1134.6 777.32,-1134.6"/>
<text text-anchor="start" x="784.32" y="-1146.8" font-family="Arial" font-size="14.00">robot_id </text>
<text text-anchor="start" x="838.8" y="-1146.8" font-family="Arial" font-size="14.00" fill="#666666">[bigint]</text>
<text text-anchor="start" x="880.05" y="-1146.8" font-family="Arial" font-size="14.00"> Robot whose working memory this belongs to</text>
<polygon fill="none" stroke="black" points="777.32,-1103.8 777.32,-1134.6 1288.57,-1134.6 1288.57,-1103.8 777.32,-1103.8"/>
<text text-anchor="start" x="784.32" y="-1116" font-family="Arial" font-size="14.00">token_count </text>
<text text-anchor="start" x="864.49" y="-1116" font-family="Arial" font-size="14.00" fill="#666666">[integer]</text>
<text text-anchor="start" x="915.08" y="-1116" font-family="Arial" font-size="14.00"> Cached token count for budget tracking</text>
</g>
<!-- public.working_memories&#45;&gt;public.nodes -->
<g id="edge3" class="edge">
<title>public.working_memories:node_id&#45;&gt;public.nodes:id</title>
<path fill="none" stroke="black" d="M766.11,-1179.66C725.7,-1169.76 744.75,-1098.1 777.32,-1060.6 939.01,-874.45 1164.78,-1164.99 1325.96,-978.4 1376.95,-919.37 1404.96,-627.4 1326.96,-627.4"/>
<polygon fill="black" stroke="black" points="766.05,-1179.65 775.48,-1185.23 771.35,-1180.24 775.65,-1180.73 775.65,-1180.73 775.65,-1180.73 771.35,-1180.24 776.49,-1176.29 766.05,-1179.65"/>
<text text-anchor="start" x="783.32" y="-1190.8" font-family="Arial" font-size="10.00">FOREIGN KEY (node_id) REFERENCES nodes(id) ON DELETE CASCADE</text>
</g>
</g>
</svg>
