<?xml version="1.0" encoding="UTF-8" standalone="no"?>
<!DOCTYPE svg PUBLIC "-//W3C//DTD SVG 1.1//EN"
 "http://www.w3.org/Graphics/SVG/1.1/DTD/svg11.dtd">
<!-- Generated by graphviz version 12.1.2 (20240928.0832)
 -->
<!-- Title: public.robot_nodes Pages: 1 -->
<svg width="1721pt" height="1469pt"
 viewBox="0.00 0.00 1720.60 1468.80" xmlns="http://www.w3.org/2000/svg" xmlns:xlink="http://www.w3.org/1999/xlink">
<g id="graph0" class="graph" transform="scale(1 1) rotate(0) translate(4 1464.8)">
<title>public.robot_nodes</title>
<polygon fill="white" stroke="none" points="-4,4 -4,-1464.8 1716.6,-1464.8 1716.6,4 -4,4"/>
<!-- public.robot_nodes -->
<g id="node1" class="node">
<title>public.robot_nodes</title>
<polygon fill="#efefef" stroke="none" points="727.48,-1368.6 727.48,-1414.6 1356.96,-1414.6 1356.96,-1368.6 727.48,-1368.6"/>
<polygon fill="none" stroke="black" points="727.48,-1368.6 727.48,-1414.6 1356.96,-1414.6 1356.96,-1368.6 727.48,-1368.6"/>
<text text-anchor="start" x="910.73" y="-1392.4" font-family="Arial Bold" font-size="18.00">public.robot_nodes</text>
<text text-anchor="start" x="1049.21" y="-1392.4" font-family="Arial" font-size="14.00">    </text>
<text text-anchor="start" x="1080.33" y="-1392.4" font-family="Arial" font-size="14.00" fill="#666666">[BASE TABLE]</text>
<text text-anchor="start" x="874.91" y="-1378" font-family="Arial" font-size="14.00" fill="#333333">Join table connecting robots to nodes (many&#45;to&#45;many)</text>
<polygon fill="none" stroke="black" points="727.48,-1337.8 727.48,-1368.6 1356.96,-1368.6 1356.96,-1337.8 727.48,-1337.8"/>
<text text-anchor="start" x="734.48" y="-1350" font-family="Arial" font-size="14.00">created_at </text>
<text text-anchor="start" x="804.52" y="-1350" font-family="Arial" font-size="14.00" fill="#666666">[timestamp with time zone]</text>
<polygon fill="none" stroke="black" points="727.48,-1307 727.48,-1337.8 1356.96,-1337.8 1356.96,-1307 727.48,-1307"/>
<text text-anchor="start" x="734.48" y="-1319.2" font-family="Arial" font-size="14.00">first_remembered_at </text>
<text text-anchor="start" x="867.53" y="-1319.2" font-family="Arial" font-size="14.00" fill="#666666">[timestamp with time zone]</text>
<text text-anchor="start" x="1033.25" y="-1319.2" font-family="Arial" font-size="14.00"> When this robot first remembered this content</text>
<polygon fill="none" stroke="black" points="727.48,-1276.2 727.48,-1307 1356.96,-1307 1356.96,-1276.2 727.48,-1276.2"/>
<text text-anchor="start" x="734.48" y="-1288.4" font-family="Arial" font-size="14.00">id </text>
<text text-anchor="start" x="749.26" y="-1288.4" font-family="Arial" font-size="14.00" fill="#666666">[bigint]</text>
<polygon fill="none" stroke="black" points="727.48,-1245.4 727.48,-1276.2 1356.96,-1276.2 1356.96,-1245.4 727.48,-1245.4"/>
<text text-anchor="start" x="734.48" y="-1257.6" font-family="Arial" font-size="14.00">last_remembered_at </text>
<text text-anchor="start" x="866.76" y="-1257.6" font-family="Arial" font-size="14.00" fill="#666666">[timestamp with time zone]</text>
<text text-anchor="start" x="1032.49" y="-1257.6" font-family="Arial" font-size="14.00"> When this robot last tried to remember this content</text>
<polygon fill="none" stroke="black" points="727.48,-1214.6 727.48,-1245.4 1356.96,-1245.4 1356.96,-1214.6 727.48,-1214.6"/>
<text text-anchor="start" x="734.48" y="-1226.8" font-family="Arial" font-size="14.00">node_id </text>
<text text-anchor="start" x="788.19" y="-1226.8" font-family="Arial" font-size="14.00" fill="#666666">[bigint]</text>
<text text-anchor="start" x="829.44" y="-1226.8" font-family="Arial" font-size="14.00"> ID of the node being remembered</text>
<polygon fill="none" stroke="black" points="727.48,-1183.8 727.48,-1214.6 1356.96,-1214.6 1356.96,-1183.8 727.48,-1183.8"/>
<text text-anchor="start" x="734.48" y="-1196" font-family="Arial" font-size="14.00">remember_count </text>
<text text-anchor="start" x="844.19" y="-1196" font-family="Arial" font-size="14.00" fill="#666666">[integer]</text>
<text text-anchor="start" x="894.78" y="-1196" font-family="Arial" font-size="14.00"> Number of times this robot has tried to remember this content</text>
<polygon fill="none" stroke="black" points="727.48,-1153 727.48,-1183.8 1356.96,-1183.8 1356.96,-1153 727.48,-1153"/>
<text text-anchor="start" x="734.48" y="-1165.2" font-family="Arial" font-size="14.00">robot_id </text>
<text text-anchor="start" x="788.96" y="-1165.2" font-family="Arial" font-size="14.00" fill="#666666">[bigint]</text>
<text text-anchor="start" x="830.21" y="-1165.2" font-family="Arial" font-size="14.00"> ID of the robot that remembered this node</text>
<polygon fill="none" stroke="black" points="727.48,-1122.2 727.48,-1153 1356.96,-1153 1356.96,-1122.2 727.48,-1122.2"/>
<text text-anchor="start" x="734.48" y="-1134.4" font-family="Arial" font-size="14.00">updated_at </text>
<text text-anchor="start" x="808.43" y="-1134.4" font-family="Arial" font-size="14.00" fill="#666666">[timestamp with time zone]</text>
<polygon fill="none" stroke="black" points="727.48,-1091.4 727.48,-1122.2 1356.96,-1122.2 1356.96,-1091.4 727.48,-1091.4"/>
<text text-anchor="start" x="734.48" y="-1103.6" font-family="Arial" font-size="14.00">working_memory </text>
<text text-anchor="start" x="844.95" y="-1103.6" font-family="Arial" font-size="14.00" fill="#666666">[boolean]</text>
<text text-anchor="start" x="902.56" y="-1103.6" font-family="Arial" font-size="14.00"> True if this node is currently in the robot working memory</text>
<polygon fill="none" stroke="black" stroke-width="3" points="725.98,-1089.9 725.98,-1416.1 1358.46,-1416.1 1358.46,-1089.9 725.98,-1089.9"/>
</g>
<!-- public.nodes -->
<g id="node2" class="node">
<title>public.nodes</title>
<polygon fill="#efefef" stroke="none" points="43.2,-920 43.2,-966 699.24,-966 699.24,-920 43.2,-920"/>
<polygon fill="none" stroke="black" points="43.2,-920 43.2,-966 699.24,-966 699.24,-920 43.2,-920"/>
<text text-anchor="start" x="263.23" y="-943.8" font-family="Arial Bold" font-size="18.00">public.nodes</text>
<text text-anchor="start" x="354.72" y="-943.8" font-family="Arial" font-size="14.00">    </text>
<text text-anchor="start" x="385.83" y="-943.8" font-family="Arial" font-size="14.00" fill="#666666">[BASE TABLE]</text>
<text text-anchor="start" x="179.8" y="-929.4" font-family="Arial" font-size="14.00" fill="#333333">Core memory storage for conversation messages and context</text>
<polygon fill="none" stroke="black" points="43.2,-889.2 43.2,-920 699.24,-920 699.24,-889.2 43.2,-889.2"/>
<text text-anchor="start" x="50.2" y="-901.4" font-family="Arial" font-size="14.00">access_count </text>
<text text-anchor="start" x="139.7" y="-901.4" font-family="Arial" font-size="14.00" fill="#666666">[integer]</text>
<text text-anchor="start" x="190.28" y="-901.4" font-family="Arial" font-size="14.00"> Number of times this node has been accessed/retrieved</text>
<polygon fill="none" stroke="black" points="43.2,-858.4 43.2,-889.2 699.24,-889.2 699.24,-858.4 43.2,-858.4"/>
<text text-anchor="start" x="50.2" y="-870.6" font-family="Arial" font-size="14.00">chunk_position </text>
<text text-anchor="start" x="147.49" y="-870.6" font-family="Arial" font-size="14.00" fill="#666666">[integer]</text>
<text text-anchor="start" x="198.07" y="-870.6" font-family="Arial" font-size="14.00"> Position within source file (0&#45;indexed)</text>
<polygon fill="none" stroke="black" points="43.2,-827.6 43.2,-858.4 699.24,-858.4 699.24,-827.6 43.2,-827.6"/>
<text text-anchor="start" x="50.2" y="-839.8" font-family="Arial" font-size="14.00">content </text>
<text text-anchor="start" x="100.01" y="-839.8" font-family="Arial" font-size="14.00" fill="#666666">[text]</text>
<text text-anchor="start" x="130.36" y="-839.8" font-family="Arial" font-size="14.00"> The conversation message/utterance content</text>
<polygon fill="none" stroke="black" points="43.2,-796.8 43.2,-827.6 699.24,-827.6 699.24,-796.8 43.2,-796.8"/>
<text text-anchor="start" x="50.2" y="-809" font-family="Arial" font-size="14.00">content_hash </text>
<text text-anchor="start" x="138.16" y="-809" font-family="Arial" font-size="14.00" fill="#666666">[varchar(64)]</text>
<text text-anchor="start" x="217.52" y="-809" font-family="Arial" font-size="14.00"> SHA&#45;256 hash of content for deduplication</text>
<polygon fill="none" stroke="black" points="43.2,-766 43.2,-796.8 699.24,-796.8 699.24,-766 43.2,-766"/>
<text text-anchor="start" x="50.2" y="-778.2" font-family="Arial" font-size="14.00">created_at </text>
<text text-anchor="start" x="120.25" y="-778.2" font-family="Arial" font-size="14.00" fill="#666666">[timestamp with time zone]</text>
<text text-anchor="start" x="285.97" y="-778.2" font-family="Arial" font-size="14.00"> When this memory was created</text>
<polygon fill="none" stroke="black" points="43.2,-735.2 43.2,-766 699.24,-766 699.24,-735.2 43.2,-735.2"/>
<text text-anchor="start" x="50.2" y="-747.4" font-family="Arial" font-size="14.00">deleted_at </text>
<text text-anchor="start" x="119.48" y="-747.4" font-family="Arial" font-size="14.00" fill="#666666">[timestamp with time zone]</text>
<text text-anchor="start" x="285.21" y="-747.4" font-family="Arial" font-size="14.00"> Soft delete timestamp &#45; node is considered deleted when set</text>
<polygon fill="none" stroke="black" points="43.2,-704.4 43.2,-735.2 699.24,-735.2 699.24,-704.4 43.2,-704.4"/>
<text text-anchor="start" x="50.2" y="-716.6" font-family="Arial" font-size="14.00">embedding </text>
<text text-anchor="start" x="123.37" y="-716.6" font-family="Arial" font-size="14.00" fill="#666666">[vector(2000)]</text>
<text text-anchor="start" x="209.74" y="-716.6" font-family="Arial" font-size="14.00"> Vector embedding (max 2000 dimensions) for semantic search</text>
<polygon fill="none" stroke="black" points="43.2,-673.6 43.2,-704.4 699.24,-704.4 699.24,-673.6 43.2,-673.6"/>
<text text-anchor="start" x="50.2" y="-685.8" font-family="Arial" font-size="14.00">embedding_dimension </text>
<text text-anchor="start" x="194.96" y="-685.8" font-family="Arial" font-size="14.00" fill="#666666">[integer]</text>
<text text-anchor="start" x="245.55" y="-685.8" font-family="Arial" font-size="14.00"> Actual number of dimensions used in the embedding vector (max 2000)</text>
<polygon fill="none" stroke="black" points="43.2,-642.8 43.2,-673.6 699.24,-673.6 699.24,-642.8 43.2,-642.8"/>
<text text-anchor="start" x="50.2" y="-655" font-family="Arial" font-size="14.00">id </text>
<text text-anchor="start" x="64.99" y="-655" font-family="Arial" font-size="14.00" fill="#666666">[bigint]</text>
<polygon fill="none" stroke="black" points="43.2,-612 43.2,-642.8 699.24,-642.8 699.24,-612 43.2,-612"/>
<text text-anchor="start" x="50.2" y="-624.2" font-family="Arial" font-size="14.00">last_accessed </text>
<text text-anchor="start" x="142.81" y="-624.2" font-family="Arial" font-size="14.00" fill="#666666">[timestamp with time zone]</text>
<text text-anchor="start" x="308.53" y="-624.2" font-family="Arial" font-size="14.00"> When this memory was last accessed</text>
<polygon fill="none" stroke="black" points="43.2,-581.2 43.2,-612 699.24,-612 699.24,-581.2 43.2,-581.2"/>
<text text-anchor="start" x="50.2" y="-593.4" font-family="Arial" font-size="14.00">metadata </text>
<text text-anchor="start" x="112.46" y="-593.4" font-family="Arial" font-size="14.00" fill="#666666">[jsonb]</text>
<text text-anchor="start" x="153.71" y="-593.4" font-family="Arial" font-size="14.00"> Flexible metadata storage (memory_type, importance, source, etc.)</text>
<polygon fill="none" stroke="black" points="43.2,-550.4 43.2,-581.2 699.24,-581.2 699.24,-550.4 43.2,-550.4"/>
<text text-anchor="start" x="50.2" y="-562.6" font-family="Arial" font-size="14.00">source_id </text>
<text text-anchor="start" x="114.79" y="-562.6" font-family="Arial" font-size="14.00" fill="#666666">[bigint]</text>
<text text-anchor="start" x="156.04" y="-562.6" font-family="Arial" font-size="14.00"> Reference to source file (for file&#45;loaded nodes)</text>
<polygon fill="none" stroke="black" points="43.2,-519.6 43.2,-550.4 699.24,-550.4 699.24,-519.6 43.2,-519.6"/>
<text text-anchor="start" x="50.2" y="-531.8" font-family="Arial" font-size="14.00">token_count </text>
<text text-anchor="start" x="130.37" y="-531.8" font-family="Arial" font-size="14.00" fill="#666666">[integer]</text>
<text text-anchor="start" x="180.96" y="-531.8" font-family="Arial" font-size="14.00"> Number of tokens in the content (for context budget management)</text>
<polygon fill="none" stroke="black" points="43.2,-488.8 43.2,-519.6 699.24,-519.6 699.24,-488.8 43.2,-488.8"/>
<text text-anchor="start" x="50.2" y="-501" font-family="Arial" font-size="14.00">updated_at </text>
<text text-anchor="start" x="124.16" y="-501" font-family="Arial" font-size="14.00" fill="#666666">[timestamp with time zone]</text>
<text text-anchor="start" x="289.88" y="-501" font-family="Arial" font-size="14.00"> When this memory was last modified</text>
</g>
<!-- public.robot_nodes&#45;&gt;public.nodes -->
<g id="edge1" class="edge">
<title>public.robot_nodes:node_id&#45;&gt;public.nodes:id</title>
<path fill="none" stroke="black" d="M716.19,-1228.56C612.34,-1196.99 823.71,-658.2 700.24,-658.2"/>
<polygon fill="black" stroke="black" points="716.24,-1228.56 725.52,-1234.41 721.52,-1229.3 725.81,-1229.91 725.81,-1229.91 725.81,-1229.91 721.52,-1229.3 726.77,-1225.5 716.24,-1228.56"/>
<text text-anchor="start" x="468.32" y="-1214" font-family="Arial" font-size="10.00">FOREIGN KEY (node_id) REFERENCES nodes(id) ON DELETE CASCADE</text>
</g>
<!-- public.robots -->
<g id="node5" class="node">
<title>public.robots</title>
<polygon fill="#efefef" stroke="none" points="804.11,-766 804.11,-812 1308.33,-812 1308.33,-766 804.11,-766"/>
<polygon fill="none" stroke="black" points="804.11,-766 804.11,-812 1308.33,-812 1308.33,-766 804.11,-766"/>
<text text-anchor="start" x="946.73" y="-789.8" font-family="Arial Bold" font-size="18.00">public.robots</text>
<text text-anchor="start" x="1041.22" y="-789.8" font-family="Arial" font-size="14.00">    </text>
<text text-anchor="start" x="1072.34" y="-789.8" font-family="Arial" font-size="14.00" fill="#666666">[BASE TABLE]</text>
<text text-anchor="start" x="905.28" y="-775.4" font-family="Arial" font-size="14.00" fill="#333333">Registry of all LLM robots using the HTM system</text>
<polygon fill="none" stroke="black" points="804.11,-735.2 804.11,-766 1308.33,-766 1308.33,-735.2 804.11,-735.2"/>
<text text-anchor="start" x="811.11" y="-747.4" font-family="Arial" font-size="14.00">created_at </text>
<text text-anchor="start" x="881.16" y="-747.4" font-family="Arial" font-size="14.00" fill="#666666">[timestamp with time zone]</text>
<text text-anchor="start" x="1046.88" y="-747.4" font-family="Arial" font-size="14.00"> When the robot was first registered</text>
<polygon fill="none" stroke="black" points="804.11,-704.4 804.11,-735.2 1308.33,-735.2 1308.33,-704.4 804.11,-704.4"/>
<text text-anchor="start" x="811.11" y="-716.6" font-family="Arial" font-size="14.00">id </text>
<text text-anchor="start" x="825.9" y="-716.6" font-family="Arial" font-size="14.00" fill="#666666">[bigint]</text>
<polygon fill="none" stroke="black" points="804.11,-673.6 804.11,-704.4 1308.33,-704.4 1308.33,-673.6 804.11,-673.6"/>
<text text-anchor="start" x="811.11" y="-685.8" font-family="Arial" font-size="14.00">last_active </text>
<text text-anchor="start" x="881.15" y="-685.8" font-family="Arial" font-size="14.00" fill="#666666">[timestamp with time zone]</text>
<text text-anchor="start" x="1046.87" y="-685.8" font-family="Arial" font-size="14.00"> Last time the robot accessed the system</text>
<polygon fill="none" stroke="black" points="804.11,-642.8 804.11,-673.6 1308.33,-673.6 1308.33,-642.8 804.11,-642.8"/>
<text text-anchor="start" x="811.11" y="-655" font-family="Arial" font-size="14.00">name </text>
<text text-anchor="start" x="850.02" y="-655" font-family="Arial" font-size="14.00" fill="#666666">[text]</text>
<text text-anchor="start" x="880.37" y="-655" font-family="Arial" font-size="14.00"> Human&#45;readable name for the robot</text>
</g>
<!-- public.robot_nodes&#45;&gt;public.robots -->
<g id="edge4" class="edge">
<title>public.robot_nodes:robot_id&#45;&gt;public.robots:id</title>
<path fill="none" stroke="black" d="M1368.11,-1167.33C1409.43,-1157.79 1386.77,-1086.6 1356.96,-1045.2 1205.17,-834.34 955.83,-1066.12 804.11,-855.2 768.97,-806.35 742.93,-719.8 803.11,-719.8"/>
<polygon fill="black" stroke="black" points="1368.24,-1167.32 1357.82,-1163.89 1362.94,-1167.88 1358.63,-1168.33 1358.63,-1168.33 1358.63,-1168.33 1362.94,-1167.88 1358.77,-1172.84 1368.24,-1167.32"/>
<text text-anchor="start" x="1364.96" y="-1178.4" font-family="Arial" font-size="10.00">FOREIGN KEY (robot_id) REFERENCES robots(id) ON DELETE CASCADE</text>
</g>
<!-- public.file_sources -->
<g id="node4" class="node">
<title>public.file_sources</title>
<polygon fill="#efefef" stroke="none" points="125.35,-320.4 125.35,-366.4 617.09,-366.4 617.09,-320.4 125.35,-320.4"/>
<polygon fill="none" stroke="black" points="125.35,-320.4 125.35,-366.4 617.09,-366.4 617.09,-320.4 125.35,-320.4"/>
<text text-anchor="start" x="240.74" y="-344.2" font-family="Arial Bold" font-size="18.00">public.file_sources</text>
<text text-anchor="start" x="377.2" y="-344.2" font-family="Arial" font-size="14.00">    </text>
<text text-anchor="start" x="408.32" y="-344.2" font-family="Arial" font-size="14.00" fill="#666666">[BASE TABLE]</text>
<text text-anchor="start" x="237.75" y="-329.8" font-family="Arial" font-size="14.00" fill="#333333">Source file metadata for loaded documents</text>
<polygon fill="none" stroke="black" points="125.35,-289.6 125.35,-320.4 617.09,-320.4 617.09,-289.6 125.35,-289.6"/>
<text text-anchor="start" x="132.35" y="-301.8" font-family="Arial" font-size="14.00">created_at </text>
<text text-anchor="start" x="202.4" y="-301.8" font-family="Arial" font-size="14.00" fill="#666666">[timestamp with time zone]</text>
<polygon fill="none" stroke="black" points="125.35,-258.8 125.35,-289.6 617.09,-289.6 617.09,-258.8 125.35,-258.8"/>
<text text-anchor="start" x="132.35" y="-271" font-family="Arial" font-size="14.00">file_hash </text>
<text text-anchor="start" x="192.28" y="-271" font-family="Arial" font-size="14.00" fill="#666666">[varchar(64)]</text>
<text text-anchor="start" x="271.64" y="-271" font-family="Arial" font-size="14.00"> SHA&#45;256 hash of file content</text>
<polygon fill="none" stroke="black" points="125.35,-228 125.35,-258.8 617.09,-258.8 617.09,-228 125.35,-228"/>
<text text-anchor="start" x="132.35" y="-240.2" font-family="Arial" font-size="14.00">file_path </text>
<text text-anchor="start" x="189.17" y="-240.2" font-family="Arial" font-size="14.00" fill="#666666">[text]</text>
<text text-anchor="start" x="219.51" y="-240.2" font-family="Arial" font-size="14.00"> Absolute path to source file</text>
<polygon fill="none" stroke="black" points="125.35,-197.2 125.35,-228 617.09,-228 617.09,-197.2 125.35,-197.2"/>
<text text-anchor="start" x="132.35" y="-209.4" font-family="Arial" font-size="14.00">file_size </text>
<text text-anchor="start" x="186.82" y="-209.4" font-family="Arial" font-size="14.00" fill="#666666">[integer]</text>
<text text-anchor="start" x="237.4" y="-209.4" font-family="Arial" font-size="14.00"> File size in bytes</text>
<polygon fill="none" stroke="black" points="125.35,-166.4 125.35,-197.2 617.09,-197.2 617.09,-166.4 125.35,-166.4"/>
<text text-anchor="start" x="132.35" y="-178.6" font-family="Arial" font-size="14.00">frontmatter </text>
<text text-anchor="start" x="203.93" y="-178.6" font-family="Arial" font-size="14.00" fill="#666666">[jsonb]</text>
<text text-anchor="start" x="245.17" y="-178.6" font-family="Arial" font-size="14.00"> Parsed YAML frontmatter</text>
<polygon fill="none" stroke="black" points="125.35,-135.6 125.35,-166.4 617.09,-166.4 617.09,-135.6 125.35,-135.6"/>
<text text-anchor="start" x="132.35" y="-147.8" font-family="Arial" font-size="14.00">id </text>
<text text-anchor="start" x="147.13" y="-147.8" font-family="Arial" font-size="14.00" fill="#666666">[bigint]</text>
<polygon fill="none" stroke="black" points="125.35,-104.8 125.35,-135.6 617.09,-135.6 617.09,-104.8 125.35,-104.8"/>
<text text-anchor="start" x="132.35" y="-117" font-family="Arial" font-size="14.00">last_synced_at </text>
<text text-anchor="start" x="229.63" y="-117" font-family="Arial" font-size="14.00" fill="#666666">[timestamp with time zone]</text>
<text text-anchor="start" x="395.35" y="-117" font-family="Arial" font-size="14.00"> When file was last synced to HTM</text>
<polygon fill="none" stroke="black" points="125.35,-74 125.35,-104.8 617.09,-104.8 617.09,-74 125.35,-74"/>
<text text-anchor="start" x="132.35" y="-86.2" font-family="Arial" font-size="14.00">mtime </text>
<text text-anchor="start" x="174.35" y="-86.2" font-family="Arial" font-size="14.00" fill="#666666">[timestamp with time zone]</text>
<text text-anchor="start" x="340.07" y="-86.2" font-family="Arial" font-size="14.00"> File modification time</text>
<polygon fill="none" stroke="black" points="125.35,-43.2 125.35,-74 617.09,-74 617.09,-43.2 125.35,-43.2"/>
<text text-anchor="start" x="132.35" y="-55.4" font-family="Arial" font-size="14.00">updated_at </text>
<text text-anchor="start" x="206.31" y="-55.4" font-family="Arial" font-size="14.00" fill="#666666">[timestamp with time zone]</text>
</g>
<!-- public.nodes&#45;&gt;public.file_sources -->
<g id="edge3" class="edge">
<title>public.nodes:source_id&#45;&gt;public.file_sources:id</title>
<path fill="none" stroke="black" d="M710.45,-563.95C787.77,-534.03 708.39,-151 618.09,-151"/>
<polygon fill="black" stroke="black" points="710.41,-563.96 699.77,-561.31 705.16,-564.91 700.9,-565.68 700.9,-565.68 700.9,-565.68 705.16,-564.91 701.37,-570.17 710.41,-563.96"/>
<text text-anchor="start" x="707.24" y="-575.8" font-family="Arial" font-size="10.00">FOREIGN KEY (source_id) REFERENCES file_sources(id) ON DELETE SET NULL</text>
</g>
<!-- public.node_tags -->
<g id="node3" class="node">
<title>public.node_tags</title>
<polygon fill="#efefef" stroke="none" points="136.61,-1291.6 136.61,-1337.6 605.83,-1337.6 605.83,-1291.6 136.61,-1291.6"/>
<polygon fill="none" stroke="black" points="136.61,-1291.6 136.61,-1337.6 605.83,-1337.6 605.83,-1291.6 136.61,-1291.6"/>
<text text-anchor="start" x="247.74" y="-1315.4" font-family="Arial Bold" font-size="18.00">public.node_tags</text>
<text text-anchor="start" x="370.21" y="-1315.4" font-family="Arial" font-size="14.00">    </text>
<text text-anchor="start" x="401.33" y="-1315.4" font-family="Arial" font-size="14.00" fill="#666666">[BASE TABLE]</text>
<text text-anchor="start" x="210.13" y="-1301" font-family="Arial" font-size="14.00" fill="#333333">Join table connecting nodes to tags (many&#45;to&#45;many)</text>
<polygon fill="none" stroke="black" points="136.61,-1260.8 136.61,-1291.6 605.83,-1291.6 605.83,-1260.8 136.61,-1260.8"/>
<text text-anchor="start" x="143.61" y="-1273" font-family="Arial" font-size="14.00">created_at </text>
<text text-anchor="start" x="213.66" y="-1273" font-family="Arial" font-size="14.00" fill="#666666">[timestamp with time zone]</text>
<text text-anchor="start" x="379.38" y="-1273" font-family="Arial" font-size="14.00"> When this association was created</text>
<polygon fill="none" stroke="black" points="136.61,-1230 136.61,-1260.8 605.83,-1260.8 605.83,-1230 136.61,-1230"/>
<text text-anchor="start" x="143.61" y="-1242.2" font-family="Arial" font-size="14.00">id </text>
<text text-anchor="start" x="158.4" y="-1242.2" font-family="Arial" font-size="14.00" fill="#666666">[bigint]</text>
<polygon fill="none" stroke="black" points="136.61,-1199.2 136.61,-1230 605.83,-1230 605.83,-1199.2 136.61,-1199.2"/>
<text text-anchor="start" x="143.61" y="-1211.4" font-family="Arial" font-size="14.00">node_id </text>
<text text-anchor="start" x="197.33" y="-1211.4" font-family="Arial" font-size="14.00" fill="#666666">[bigint]</text>
<text text-anchor="start" x="238.58" y="-1211.4" font-family="Arial" font-size="14.00"> ID of the node being tagged</text>
<polygon fill="none" stroke="black" points="136.61,-1168.4 136.61,-1199.2 605.83,-1199.2 605.83,-1168.4 136.61,-1168.4"/>
<text text-anchor="start" x="143.61" y="-1180.6" font-family="Arial" font-size="14.00">tag_id </text>
<text text-anchor="start" x="185.65" y="-1180.6" font-family="Arial" font-size="14.00" fill="#666666">[bigint]</text>
<text text-anchor="start" x="226.9" y="-1180.6" font-family="Arial" font-size="14.00"> ID of the tag being applied</text>
</g>
<!-- public.node_tags&#45;&gt;public.nodes -->
<g id="edge2" class="edge">
<title>public.node_tags:node_id&#45;&gt;public.nodes:id</title>
<path fill="none" stroke="black" d="M616.9,-1214.01C682.83,-1205.78 634.85,-1112.62 672.22,-1045.2 681.92,-1027.7 692.88,-1028.17 699.24,-1009.2 724.02,-935.24 778.24,-658.2 700.24,-658.2"/>
<polygon fill="black" stroke="black" points="617.14,-1214 606.9,-1210.09 611.82,-1214.31 607.49,-1214.56 607.49,-1214.56 607.49,-1214.56 611.82,-1214.31 607.42,-1219.07 617.14,-1214"/>
<text text-anchor="start" x="260.28" y="-1224.6" font-family="Arial" font-size="10.00">FOREIGN KEY (node_id) REFERENCES nodes(id) ON DELETE CASCADE</text>
</g>
</g>
</svg>
