<?xml version="1.0" encoding="UTF-8" standalone="no"?>
<!DOCTYPE svg PUBLIC "-//W3C//DTD SVG 1.1//EN"
 "http://www.w3.org/Graphics/SVG/1.1/DTD/svg11.dtd">
<!-- Generated by graphviz version 12.1.2 (20240928.0832)
 -->
<!-- Title: public.nodes Pages: 1 -->
<svg width="1205pt" height="848pt"
 viewBox="0.00 0.00 1204.77 848.40" xmlns="http://www.w3.org/2000/svg" xmlns:xlink="http://www.w3.org/1999/xlink">
<g id="graph0" class="graph" transform="scale(1 1) rotate(0) translate(4 844.4)">
<title>public.nodes</title>
<polygon fill="white" stroke="none" points="-4,4 -4,-844.4 1200.77,-844.4 1200.77,4 -4,4"/>
<!-- public.nodes -->
<g id="node1" class="node">
<title>public.nodes</title>
<polygon fill="#efefef" stroke="none" points="454.42,-354.2 454.42,-389.8 726.75,-389.8 726.75,-354.2 454.42,-354.2"/>
<polygon fill="none" stroke="black" points="454.42,-354.2 454.42,-389.8 726.75,-389.8 726.75,-354.2 454.42,-354.2"/>
<text text-anchor="start" x="482.6" y="-367.6" font-family="Arial Bold" font-size="18.00">public.nodes</text>
<text text-anchor="start" x="574.09" y="-367.6" font-family="Arial" font-size="14.00">    </text>
<text text-anchor="start" x="605.2" y="-367.6" font-family="Arial" font-size="14.00" fill="#666666">[BASE TABLE]</text>
<polygon fill="none" stroke="black" points="454.42,-323.4 454.42,-354.2 726.75,-354.2 726.75,-323.4 454.42,-323.4"/>
<text text-anchor="start" x="461.42" y="-335.6" font-family="Arial" font-size="14.00">id </text>
<text text-anchor="start" x="476.21" y="-335.6" font-family="Arial" font-size="14.00" fill="#666666">[bigint]</text>
<polygon fill="none" stroke="black" points="454.42,-292.6 454.42,-323.4 726.75,-323.4 726.75,-292.6 454.42,-292.6"/>
<text text-anchor="start" x="461.42" y="-304.8" font-family="Arial" font-size="14.00">content </text>
<text text-anchor="start" x="511.24" y="-304.8" font-family="Arial" font-size="14.00" fill="#666666">[text]</text>
<polygon fill="none" stroke="black" points="454.42,-261.8 454.42,-292.6 726.75,-292.6 726.75,-261.8 454.42,-261.8"/>
<text text-anchor="start" x="461.42" y="-274" font-family="Arial" font-size="14.00">access_count </text>
<text text-anchor="start" x="550.92" y="-274" font-family="Arial" font-size="14.00" fill="#666666">[integer]</text>
<polygon fill="none" stroke="black" points="454.42,-231 454.42,-261.8 726.75,-261.8 726.75,-231 454.42,-231"/>
<text text-anchor="start" x="461.42" y="-243.2" font-family="Arial" font-size="14.00">created_at </text>
<text text-anchor="start" x="531.47" y="-243.2" font-family="Arial" font-size="14.00" fill="#666666">[timestamp with time zone]</text>
<polygon fill="none" stroke="black" points="454.42,-200.2 454.42,-231 726.75,-231 726.75,-200.2 454.42,-200.2"/>
<text text-anchor="start" x="461.42" y="-212.4" font-family="Arial" font-size="14.00">updated_at </text>
<text text-anchor="start" x="535.38" y="-212.4" font-family="Arial" font-size="14.00" fill="#666666">[timestamp with time zone]</text>
<polygon fill="none" stroke="black" points="454.42,-169.4 454.42,-200.2 726.75,-200.2 726.75,-169.4 454.42,-169.4"/>
<text text-anchor="start" x="461.42" y="-181.6" font-family="Arial" font-size="14.00">last_accessed </text>
<text text-anchor="start" x="554.03" y="-181.6" font-family="Arial" font-size="14.00" fill="#666666">[timestamp with time zone]</text>
<polygon fill="none" stroke="black" points="454.42,-138.6 454.42,-169.4 726.75,-169.4 726.75,-138.6 454.42,-138.6"/>
<text text-anchor="start" x="461.42" y="-150.8" font-family="Arial" font-size="14.00">token_count </text>
<text text-anchor="start" x="541.6" y="-150.8" font-family="Arial" font-size="14.00" fill="#666666">[integer]</text>
<polygon fill="none" stroke="black" points="454.42,-107.8 454.42,-138.6 726.75,-138.6 726.75,-107.8 454.42,-107.8"/>
<text text-anchor="start" x="461.42" y="-120" font-family="Arial" font-size="14.00">embedding </text>
<text text-anchor="start" x="534.59" y="-120" font-family="Arial" font-size="14.00" fill="#666666">[vector(2000)]</text>
<polygon fill="none" stroke="black" points="454.42,-77 454.42,-107.8 726.75,-107.8 726.75,-77 454.42,-77"/>
<text text-anchor="start" x="461.42" y="-89.2" font-family="Arial" font-size="14.00">embedding_dimension </text>
<text text-anchor="start" x="606.19" y="-89.2" font-family="Arial" font-size="14.00" fill="#666666">[integer]</text>
<polygon fill="none" stroke="black" points="454.42,-46.2 454.42,-77 726.75,-77 726.75,-46.2 454.42,-46.2"/>
<text text-anchor="start" x="461.42" y="-58.4" font-family="Arial" font-size="14.00">content_hash </text>
<text text-anchor="start" x="549.38" y="-58.4" font-family="Arial" font-size="14.00" fill="#666666">[varchar(64)]</text>
<polygon fill="none" stroke="black" stroke-width="3" points="452.92,-44.7 452.92,-391.3 728.25,-391.3 728.25,-44.7 452.92,-44.7"/>
</g>
<!-- public.robot_nodes -->
<g id="node2" class="node">
<title>public.robot_nodes</title>
<polygon fill="#efefef" stroke="none" points="43.2,-761.6 43.2,-797.2 355.98,-797.2 355.98,-761.6 43.2,-761.6"/>
<polygon fill="none" stroke="black" points="43.2,-761.6 43.2,-797.2 355.98,-797.2 355.98,-761.6 43.2,-761.6"/>
<text text-anchor="start" x="68.1" y="-775" font-family="Arial Bold" font-size="18.00">public.robot_nodes</text>
<text text-anchor="start" x="206.58" y="-775" font-family="Arial" font-size="14.00">    </text>
<text text-anchor="start" x="237.7" y="-775" font-family="Arial" font-size="14.00" fill="#666666">[BASE TABLE]</text>
<polygon fill="none" stroke="black" points="43.2,-730.8 43.2,-761.6 355.98,-761.6 355.98,-730.8 43.2,-730.8"/>
<text text-anchor="start" x="50.2" y="-743" font-family="Arial" font-size="14.00">id </text>
<text text-anchor="start" x="64.99" y="-743" font-family="Arial" font-size="14.00" fill="#666666">[bigint]</text>
<polygon fill="none" stroke="black" points="43.2,-700 43.2,-730.8 355.98,-730.8 355.98,-700 43.2,-700"/>
<text text-anchor="start" x="50.2" y="-712.2" font-family="Arial" font-size="14.00">robot_id </text>
<text text-anchor="start" x="104.68" y="-712.2" font-family="Arial" font-size="14.00" fill="#666666">[bigint]</text>
<polygon fill="none" stroke="black" points="43.2,-669.2 43.2,-700 355.98,-700 355.98,-669.2 43.2,-669.2"/>
<text text-anchor="start" x="50.2" y="-681.4" font-family="Arial" font-size="14.00">node_id </text>
<text text-anchor="start" x="103.92" y="-681.4" font-family="Arial" font-size="14.00" fill="#666666">[bigint]</text>
<polygon fill="none" stroke="black" points="43.2,-638.4 43.2,-669.2 355.98,-669.2 355.98,-638.4 43.2,-638.4"/>
<text text-anchor="start" x="50.2" y="-650.6" font-family="Arial" font-size="14.00">first_remembered_at </text>
<text text-anchor="start" x="183.25" y="-650.6" font-family="Arial" font-size="14.00" fill="#666666">[timestamp with time zone]</text>
<polygon fill="none" stroke="black" points="43.2,-607.6 43.2,-638.4 355.98,-638.4 355.98,-607.6 43.2,-607.6"/>
<text text-anchor="start" x="50.2" y="-619.8" font-family="Arial" font-size="14.00">last_remembered_at </text>
<text text-anchor="start" x="182.49" y="-619.8" font-family="Arial" font-size="14.00" fill="#666666">[timestamp with time zone]</text>
<polygon fill="none" stroke="black" points="43.2,-576.8 43.2,-607.6 355.98,-607.6 355.98,-576.8 43.2,-576.8"/>
<text text-anchor="start" x="50.2" y="-589" font-family="Arial" font-size="14.00">remember_count </text>
<text text-anchor="start" x="159.92" y="-589" font-family="Arial" font-size="14.00" fill="#666666">[integer]</text>
<polygon fill="none" stroke="black" points="43.2,-546 43.2,-576.8 355.98,-576.8 355.98,-546 43.2,-546"/>
<text text-anchor="start" x="50.2" y="-558.2" font-family="Arial" font-size="14.00">created_at </text>
<text text-anchor="start" x="120.25" y="-558.2" font-family="Arial" font-size="14.00" fill="#666666">[timestamp with time zone]</text>
<polygon fill="none" stroke="black" points="43.2,-515.2 43.2,-546 355.98,-546 355.98,-515.2 43.2,-515.2"/>
<text text-anchor="start" x="50.2" y="-527.4" font-family="Arial" font-size="14.00">updated_at </text>
<text text-anchor="start" x="124.16" y="-527.4" font-family="Arial" font-size="14.00" fill="#666666">[timestamp with time zone]</text>
</g>
<!-- public.robot_nodes&#45;&gt;public.nodes -->
<g id="edge1" class="edge">
<title>public.robot_nodes:node_id&#45;&gt;public.nodes:id</title>
<path fill="none" stroke="black" d="M366.89,-682.57C431.37,-654.23 377.23,-338.8 453.42,-338.8"/>
<polygon fill="black" stroke="black" points="367.1,-682.53 356.4,-680.12 361.88,-683.6 357.63,-684.47 357.63,-684.47 357.63,-684.47 361.88,-683.6 358.21,-688.94 367.1,-682.53"/>
<text text-anchor="start" x="363.98" y="-694.6" font-family="Arial" font-size="10.00">FOREIGN KEY (node_id) REFERENCES nodes(id) ON DELETE CASCADE</text>
</g>
<!-- public.node_tags -->
<g id="node3" class="node">
<title>public.node_tags</title>
<polygon fill="#efefef" stroke="none" points="460.11,-700 460.11,-735.6 721.07,-735.6 721.07,-700 460.11,-700"/>
<polygon fill="none" stroke="black" points="460.11,-700 460.11,-735.6 721.07,-735.6 721.07,-700 460.11,-700"/>
<text text-anchor="start" x="467.11" y="-713.4" font-family="Arial Bold" font-size="18.00">public.node_tags</text>
<text text-anchor="start" x="589.58" y="-713.4" font-family="Arial" font-size="14.00">    </text>
<text text-anchor="start" x="620.7" y="-713.4" font-family="Arial" font-size="14.00" fill="#666666">[BASE TABLE]</text>
<polygon fill="none" stroke="black" points="460.11,-669.2 460.11,-700 721.07,-700 721.07,-669.2 460.11,-669.2"/>
<text text-anchor="start" x="467.11" y="-681.4" font-family="Arial" font-size="14.00">id </text>
<text text-anchor="start" x="481.89" y="-681.4" font-family="Arial" font-size="14.00" fill="#666666">[bigint]</text>
<polygon fill="none" stroke="black" points="460.11,-638.4 460.11,-669.2 721.07,-669.2 721.07,-638.4 460.11,-638.4"/>
<text text-anchor="start" x="467.11" y="-650.6" font-family="Arial" font-size="14.00">node_id </text>
<text text-anchor="start" x="520.82" y="-650.6" font-family="Arial" font-size="14.00" fill="#666666">[bigint]</text>
<polygon fill="none" stroke="black" points="460.11,-607.6 460.11,-638.4 721.07,-638.4 721.07,-607.6 460.11,-607.6"/>
<text text-anchor="start" x="467.11" y="-619.8" font-family="Arial" font-size="14.00">tag_id </text>
<text text-anchor="start" x="509.14" y="-619.8" font-family="Arial" font-size="14.00" fill="#666666">[bigint]</text>
<polygon fill="none" stroke="black" points="460.11,-576.8 460.11,-607.6 721.07,-607.6 721.07,-576.8 460.11,-576.8"/>
<text text-anchor="start" x="467.11" y="-589" font-family="Arial" font-size="14.00">created_at </text>
<text text-anchor="start" x="537.15" y="-589" font-family="Arial" font-size="14.00" fill="#666666">[timestamp with time zone]</text>
</g>
<!-- public.node_tags&#45;&gt;public.nodes -->
<g id="edge2" class="edge">
<title>public.node_tags:node_id&#45;&gt;public.nodes:id</title>
<path fill="none" stroke="black" d="M730.26,-647.51C757.74,-603.11 759.82,-338.8 727.75,-338.8"/>
<polygon fill="black" stroke="black" points="730.27,-647.51 719.6,-650.03 726.04,-650.75 722.6,-653.39 722.6,-653.39 722.6,-653.39 726.04,-650.75 725.08,-657.17 730.27,-647.51"/>
<text text-anchor="start" x="375.53" y="-663.8" font-family="Arial" font-size="10.00">FOREIGN KEY (node_id) REFERENCES nodes(id) ON DELETE CASCADE</text>
</g>
<!-- public.working_memories -->
<g id="node4" class="node">
<title>public.working_memories</title>
<polygon fill="#efefef" stroke="none" points="825.61,-715.4 825.61,-751 1153.57,-751 1153.57,-715.4 825.61,-715.4"/>
<polygon fill="none" stroke="black" points="825.61,-715.4 825.61,-751 1153.57,-751 1153.57,-715.4 825.61,-715.4"/>
<text text-anchor="start" x="832.61" y="-728.8" font-family="Arial Bold" font-size="18.00">public.working_memories</text>
<text text-anchor="start" x="1022.08" y="-728.8" font-family="Arial" font-size="14.00">    </text>
<text text-anchor="start" x="1053.19" y="-728.8" font-family="Arial" font-size="14.00" fill="#666666">[BASE TABLE]</text>
<polygon fill="none" stroke="black" points="825.61,-684.6 825.61,-715.4 1153.57,-715.4 1153.57,-684.6 825.61,-684.6"/>
<text text-anchor="start" x="832.61" y="-696.8" font-family="Arial" font-size="14.00">id </text>
<text text-anchor="start" x="847.4" y="-696.8" font-family="Arial" font-size="14.00" fill="#666666">[bigint]</text>
<polygon fill="none" stroke="black" points="825.61,-653.8 825.61,-684.6 1153.57,-684.6 1153.57,-653.8 825.61,-653.8"/>
<text text-anchor="start" x="832.61" y="-666" font-family="Arial" font-size="14.00">robot_id </text>
<text text-anchor="start" x="887.09" y="-666" font-family="Arial" font-size="14.00" fill="#666666">[bigint]</text>
<polygon fill="none" stroke="black" points="825.61,-623 825.61,-653.8 1153.57,-653.8 1153.57,-623 825.61,-623"/>
<text text-anchor="start" x="832.61" y="-635.2" font-family="Arial" font-size="14.00">node_id </text>
<text text-anchor="start" x="886.33" y="-635.2" font-family="Arial" font-size="14.00" fill="#666666">[bigint]</text>
<polygon fill="none" stroke="black" points="825.61,-592.2 825.61,-623 1153.57,-623 1153.57,-592.2 825.61,-592.2"/>
<text text-anchor="start" x="832.61" y="-604.4" font-family="Arial" font-size="14.00">added_at </text>
<text text-anchor="start" x="894.89" y="-604.4" font-family="Arial" font-size="14.00" fill="#666666">[timestamp with time zone]</text>
<polygon fill="none" stroke="black" points="825.61,-561.4 825.61,-592.2 1153.57,-592.2 1153.57,-561.4 825.61,-561.4"/>
<text text-anchor="start" x="832.61" y="-573.6" font-family="Arial" font-size="14.00">token_count </text>
<text text-anchor="start" x="912.78" y="-573.6" font-family="Arial" font-size="14.00" fill="#666666">[integer]</text>
</g>
<!-- public.working_memories&#45;&gt;public.nodes -->
<g id="edge3" class="edge">
<title>public.working_memories:node_id&#45;&gt;public.nodes:id</title>
<path fill="none" stroke="black" d="M814.8,-636.16C758.73,-608.74 794.17,-338.8 727.75,-338.8"/>
<polygon fill="black" stroke="black" points="814.54,-636.1 823.28,-642.71 819.74,-637.29 823.96,-638.25 823.96,-638.25 823.96,-638.25 819.74,-637.29 825.29,-633.94 814.54,-636.1"/>
<text text-anchor="start" x="566.45" y="-622.4" font-family="Arial" font-size="10.00">FOREIGN KEY (node_id) REFERENCES nodes(id) ON DELETE CASCADE</text>
</g>
</g>
</svg>
