<?xml version="1.0" encoding="UTF-8" standalone="no"?>
<!DOCTYPE svg PUBLIC "-//W3C//DTD SVG 1.1//EN"
 "http://www.w3.org/Graphics/SVG/1.1/DTD/svg11.dtd">
<!-- Generated by graphviz version 12.1.2 (20240928.0832)
 -->
<!-- Title: public.nodes Pages: 1 -->
<svg width="2106pt" height="1469pt"
 viewBox="0.00 0.00 2105.90 1468.80" xmlns="http://www.w3.org/2000/svg" xmlns:xlink="http://www.w3.org/1999/xlink">
<g id="graph0" class="graph" transform="scale(1 1) rotate(0) translate(4 1464.8)">
<title>public.nodes</title>
<polygon fill="white" stroke="none" points="-4,4 -4,-1464.8 2101.9,-1464.8 2101.9,4 -4,4"/>
<!-- public.nodes -->
<g id="node1" class="node">
<title>public.nodes</title>
<polygon fill="#efefef" stroke="none" points="755.49,-923 755.49,-969 1411.53,-969 1411.53,-923 755.49,-923"/>
<polygon fill="none" stroke="black" points="755.49,-923 755.49,-969 1411.53,-969 1411.53,-923 755.49,-923"/>
<text text-anchor="start" x="975.53" y="-946.8" font-family="Arial Bold" font-size="18.00">public.nodes</text>
<text text-anchor="start" x="1067.01" y="-946.8" font-family="Arial" font-size="14.00">    </text>
<text text-anchor="start" x="1098.13" y="-946.8" font-family="Arial" font-size="14.00" fill="#666666">[BASE TABLE]</text>
<text text-anchor="start" x="892.09" y="-932.4" font-family="Arial" font-size="14.00" fill="#333333">Core memory storage for conversation messages and context</text>
<polygon fill="none" stroke="black" points="755.49,-892.2 755.49,-923 1411.53,-923 1411.53,-892.2 755.49,-892.2"/>
<text text-anchor="start" x="762.49" y="-904.4" font-family="Arial" font-size="14.00">access_count </text>
<text text-anchor="start" x="851.99" y="-904.4" font-family="Arial" font-size="14.00" fill="#666666">[integer]</text>
<text text-anchor="start" x="902.58" y="-904.4" font-family="Arial" font-size="14.00"> Number of times this node has been accessed/retrieved</text>
<polygon fill="none" stroke="black" points="755.49,-861.4 755.49,-892.2 1411.53,-892.2 1411.53,-861.4 755.49,-861.4"/>
<text text-anchor="start" x="762.49" y="-873.6" font-family="Arial" font-size="14.00">chunk_position </text>
<text text-anchor="start" x="859.78" y="-873.6" font-family="Arial" font-size="14.00" fill="#666666">[integer]</text>
<text text-anchor="start" x="910.37" y="-873.6" font-family="Arial" font-size="14.00"> Position within source file (0&#45;indexed)</text>
<polygon fill="none" stroke="black" points="755.49,-830.6 755.49,-861.4 1411.53,-861.4 1411.53,-830.6 755.49,-830.6"/>
<text text-anchor="start" x="762.49" y="-842.8" font-family="Arial" font-size="14.00">content </text>
<text text-anchor="start" x="812.31" y="-842.8" font-family="Arial" font-size="14.00" fill="#666666">[text]</text>
<text text-anchor="start" x="842.65" y="-842.8" font-family="Arial" font-size="14.00"> The conversation message/utterance content</text>
<polygon fill="none" stroke="black" points="755.49,-799.8 755.49,-830.6 1411.53,-830.6 1411.53,-799.8 755.49,-799.8"/>
<text text-anchor="start" x="762.49" y="-812" font-family="Arial" font-size="14.00">content_hash </text>
<text text-anchor="start" x="850.45" y="-812" font-family="Arial" font-size="14.00" fill="#666666">[varchar(64)]</text>
<text text-anchor="start" x="929.81" y="-812" font-family="Arial" font-size="14.00"> SHA&#45;256 hash of content for deduplication</text>
<polygon fill="none" stroke="black" points="755.49,-769 755.49,-799.8 1411.53,-799.8 1411.53,-769 755.49,-769"/>
<text text-anchor="start" x="762.49" y="-781.2" font-family="Arial" font-size="14.00">created_at </text>
<text text-anchor="start" x="832.54" y="-781.2" font-family="Arial" font-size="14.00" fill="#666666">[timestamp with time zone]</text>
<text text-anchor="start" x="998.26" y="-781.2" font-family="Arial" font-size="14.00"> When this memory was created</text>
<polygon fill="none" stroke="black" points="755.49,-738.2 755.49,-769 1411.53,-769 1411.53,-738.2 755.49,-738.2"/>
<text text-anchor="start" x="762.49" y="-750.4" font-family="Arial" font-size="14.00">deleted_at </text>
<text text-anchor="start" x="831.78" y="-750.4" font-family="Arial" font-size="14.00" fill="#666666">[timestamp with time zone]</text>
<text text-anchor="start" x="997.5" y="-750.4" font-family="Arial" font-size="14.00"> Soft delete timestamp &#45; node is considered deleted when set</text>
<polygon fill="none" stroke="black" points="755.49,-707.4 755.49,-738.2 1411.53,-738.2 1411.53,-707.4 755.49,-707.4"/>
<text text-anchor="start" x="762.49" y="-719.6" font-family="Arial" font-size="14.00">embedding </text>
<text text-anchor="start" x="835.66" y="-719.6" font-family="Arial" font-size="14.00" fill="#666666">[vector(2000)]</text>
<text text-anchor="start" x="922.03" y="-719.6" font-family="Arial" font-size="14.00"> Vector embedding (max 2000 dimensions) for semantic search</text>
<polygon fill="none" stroke="black" points="755.49,-676.6 755.49,-707.4 1411.53,-707.4 1411.53,-676.6 755.49,-676.6"/>
<text text-anchor="start" x="762.49" y="-688.8" font-family="Arial" font-size="14.00">embedding_dimension </text>
<text text-anchor="start" x="907.26" y="-688.8" font-family="Arial" font-size="14.00" fill="#666666">[integer]</text>
<text text-anchor="start" x="957.84" y="-688.8" font-family="Arial" font-size="14.00"> Actual number of dimensions used in the embedding vector (max 2000)</text>
<polygon fill="none" stroke="black" points="755.49,-645.8 755.49,-676.6 1411.53,-676.6 1411.53,-645.8 755.49,-645.8"/>
<text text-anchor="start" x="762.49" y="-658" font-family="Arial" font-size="14.00">id </text>
<text text-anchor="start" x="777.28" y="-658" font-family="Arial" font-size="14.00" fill="#666666">[bigint]</text>
<polygon fill="none" stroke="black" points="755.49,-615 755.49,-645.8 1411.53,-645.8 1411.53,-615 755.49,-615"/>
<text text-anchor="start" x="762.49" y="-627.2" font-family="Arial" font-size="14.00">last_accessed </text>
<text text-anchor="start" x="855.1" y="-627.2" font-family="Arial" font-size="14.00" fill="#666666">[timestamp with time zone]</text>
<text text-anchor="start" x="1020.82" y="-627.2" font-family="Arial" font-size="14.00"> When this memory was last accessed</text>
<polygon fill="none" stroke="black" points="755.49,-584.2 755.49,-615 1411.53,-615 1411.53,-584.2 755.49,-584.2"/>
<text text-anchor="start" x="762.49" y="-596.4" font-family="Arial" font-size="14.00">metadata </text>
<text text-anchor="start" x="824.76" y="-596.4" font-family="Arial" font-size="14.00" fill="#666666">[jsonb]</text>
<text text-anchor="start" x="866" y="-596.4" font-family="Arial" font-size="14.00"> Flexible metadata storage (memory_type, importance, source, etc.)</text>
<polygon fill="none" stroke="black" points="755.49,-553.4 755.49,-584.2 1411.53,-584.2 1411.53,-553.4 755.49,-553.4"/>
<text text-anchor="start" x="762.49" y="-565.6" font-family="Arial" font-size="14.00">source_id </text>
<text text-anchor="start" x="827.09" y="-565.6" font-family="Arial" font-size="14.00" fill="#666666">[bigint]</text>
<text text-anchor="start" x="868.33" y="-565.6" font-family="Arial" font-size="14.00"> Reference to source file (for file&#45;loaded nodes)</text>
<polygon fill="none" stroke="black" points="755.49,-522.6 755.49,-553.4 1411.53,-553.4 1411.53,-522.6 755.49,-522.6"/>
<text text-anchor="start" x="762.49" y="-534.8" font-family="Arial" font-size="14.00">token_count </text>
<text text-anchor="start" x="842.67" y="-534.8" font-family="Arial" font-size="14.00" fill="#666666">[integer]</text>
<text text-anchor="start" x="893.25" y="-534.8" font-family="Arial" font-size="14.00"> Number of tokens in the content (for context budget management)</text>
<polygon fill="none" stroke="black" points="755.49,-491.8 755.49,-522.6 1411.53,-522.6 1411.53,-491.8 755.49,-491.8"/>
<text text-anchor="start" x="762.49" y="-504" font-family="Arial" font-size="14.00">updated_at </text>
<text text-anchor="start" x="836.45" y="-504" font-family="Arial" font-size="14.00" fill="#666666">[timestamp with time zone]</text>
<text text-anchor="start" x="1002.18" y="-504" font-family="Arial" font-size="14.00"> When this memory was last modified</text>
<polygon fill="none" stroke="black" stroke-width="3" points="753.99,-490.3 753.99,-970.5 1413.03,-970.5 1413.03,-490.3 753.99,-490.3"/>
</g>
<!-- public.file_sources -->
<g id="node6" class="node">
<title>public.file_sources</title>
<polygon fill="#efefef" stroke="none" points="837.64,-320.4 837.64,-366.4 1329.38,-366.4 1329.38,-320.4 837.64,-320.4"/>
<polygon fill="none" stroke="black" points="837.64,-320.4 837.64,-366.4 1329.38,-366.4 1329.38,-320.4 837.64,-320.4"/>
<text text-anchor="start" x="953.04" y="-344.2" font-family="Arial Bold" font-size="18.00">public.file_sources</text>
<text text-anchor="start" x="1089.5" y="-344.2" font-family="Arial" font-size="14.00">    </text>
<text text-anchor="start" x="1120.61" y="-344.2" font-family="Arial" font-size="14.00" fill="#666666">[BASE TABLE]</text>
<text text-anchor="start" x="950.04" y="-329.8" font-family="Arial" font-size="14.00" fill="#333333">Source file metadata for loaded documents</text>
<polygon fill="none" stroke="black" points="837.64,-289.6 837.64,-320.4 1329.38,-320.4 1329.38,-289.6 837.64,-289.6"/>
<text text-anchor="start" x="844.64" y="-301.8" font-family="Arial" font-size="14.00">created_at </text>
<text text-anchor="start" x="914.69" y="-301.8" font-family="Arial" font-size="14.00" fill="#666666">[timestamp with time zone]</text>
<polygon fill="none" stroke="black" points="837.64,-258.8 837.64,-289.6 1329.38,-289.6 1329.38,-258.8 837.64,-258.8"/>
<text text-anchor="start" x="844.64" y="-271" font-family="Arial" font-size="14.00">file_hash </text>
<text text-anchor="start" x="904.57" y="-271" font-family="Arial" font-size="14.00" fill="#666666">[varchar(64)]</text>
<text text-anchor="start" x="983.93" y="-271" font-family="Arial" font-size="14.00"> SHA&#45;256 hash of file content</text>
<polygon fill="none" stroke="black" points="837.64,-228 837.64,-258.8 1329.38,-258.8 1329.38,-228 837.64,-228"/>
<text text-anchor="start" x="844.64" y="-240.2" font-family="Arial" font-size="14.00">file_path </text>
<text text-anchor="start" x="901.46" y="-240.2" font-family="Arial" font-size="14.00" fill="#666666">[text]</text>
<text text-anchor="start" x="931.81" y="-240.2" font-family="Arial" font-size="14.00"> Absolute path to source file</text>
<polygon fill="none" stroke="black" points="837.64,-197.2 837.64,-228 1329.38,-228 1329.38,-197.2 837.64,-197.2"/>
<text text-anchor="start" x="844.64" y="-209.4" font-family="Arial" font-size="14.00">file_size </text>
<text text-anchor="start" x="899.11" y="-209.4" font-family="Arial" font-size="14.00" fill="#666666">[integer]</text>
<text text-anchor="start" x="949.7" y="-209.4" font-family="Arial" font-size="14.00"> File size in bytes</text>
<polygon fill="none" stroke="black" points="837.64,-166.4 837.64,-197.2 1329.38,-197.2 1329.38,-166.4 837.64,-166.4"/>
<text text-anchor="start" x="844.64" y="-178.6" font-family="Arial" font-size="14.00">frontmatter </text>
<text text-anchor="start" x="916.22" y="-178.6" font-family="Arial" font-size="14.00" fill="#666666">[jsonb]</text>
<text text-anchor="start" x="957.47" y="-178.6" font-family="Arial" font-size="14.00"> Parsed YAML frontmatter</text>
<polygon fill="none" stroke="black" points="837.64,-135.6 837.64,-166.4 1329.38,-166.4 1329.38,-135.6 837.64,-135.6"/>
<text text-anchor="start" x="844.64" y="-147.8" font-family="Arial" font-size="14.00">id </text>
<text text-anchor="start" x="859.43" y="-147.8" font-family="Arial" font-size="14.00" fill="#666666">[bigint]</text>
<polygon fill="none" stroke="black" points="837.64,-104.8 837.64,-135.6 1329.38,-135.6 1329.38,-104.8 837.64,-104.8"/>
<text text-anchor="start" x="844.64" y="-117" font-family="Arial" font-size="14.00">last_synced_at </text>
<text text-anchor="start" x="941.92" y="-117" font-family="Arial" font-size="14.00" fill="#666666">[timestamp with time zone]</text>
<text text-anchor="start" x="1107.65" y="-117" font-family="Arial" font-size="14.00"> When file was last synced to HTM</text>
<polygon fill="none" stroke="black" points="837.64,-74 837.64,-104.8 1329.38,-104.8 1329.38,-74 837.64,-74"/>
<text text-anchor="start" x="844.64" y="-86.2" font-family="Arial" font-size="14.00">mtime </text>
<text text-anchor="start" x="886.64" y="-86.2" font-family="Arial" font-size="14.00" fill="#666666">[timestamp with time zone]</text>
<text text-anchor="start" x="1052.36" y="-86.2" font-family="Arial" font-size="14.00"> File modification time</text>
<polygon fill="none" stroke="black" points="837.64,-43.2 837.64,-74 1329.38,-74 1329.38,-43.2 837.64,-43.2"/>
<text text-anchor="start" x="844.64" y="-55.4" font-family="Arial" font-size="14.00">updated_at </text>
<text text-anchor="start" x="918.6" y="-55.4" font-family="Arial" font-size="14.00" fill="#666666">[timestamp with time zone]</text>
</g>
<!-- public.nodes&#45;&gt;public.file_sources -->
<g id="edge5" class="edge">
<title>public.nodes:source_id&#45;&gt;public.file_sources:id</title>
<path fill="none" stroke="black" d="M1422.34,-567.12C1501.04,-538.37 1421.49,-151 1330.38,-151"/>
<polygon fill="black" stroke="black" points="1422.72,-567.05 1412.1,-564.31 1417.46,-567.95 1413.19,-568.69 1413.19,-568.69 1413.19,-568.69 1417.46,-567.95 1413.62,-573.18 1422.72,-567.05"/>
<text text-anchor="start" x="1419.53" y="-578.8" font-family="Arial" font-size="10.00">FOREIGN KEY (source_id) REFERENCES file_sources(id) ON DELETE SET NULL</text>
</g>
<!-- public.node_tags -->
<g id="node2" class="node">
<title>public.node_tags</title>
<polygon fill="#efefef" stroke="none" points="496.91,-1294.6 496.91,-1340.6 966.12,-1340.6 966.12,-1294.6 496.91,-1294.6"/>
<polygon fill="none" stroke="black" points="496.91,-1294.6 496.91,-1340.6 966.12,-1340.6 966.12,-1294.6 496.91,-1294.6"/>
<text text-anchor="start" x="608.03" y="-1318.4" font-family="Arial Bold" font-size="18.00">public.node_tags</text>
<text text-anchor="start" x="730.51" y="-1318.4" font-family="Arial" font-size="14.00">    </text>
<text text-anchor="start" x="761.62" y="-1318.4" font-family="Arial" font-size="14.00" fill="#666666">[BASE TABLE]</text>
<text text-anchor="start" x="570.43" y="-1304" font-family="Arial" font-size="14.00" fill="#333333">Join table connecting nodes to tags (many&#45;to&#45;many)</text>
<polygon fill="none" stroke="black" points="496.91,-1263.8 496.91,-1294.6 966.12,-1294.6 966.12,-1263.8 496.91,-1263.8"/>
<text text-anchor="start" x="503.91" y="-1276" font-family="Arial" font-size="14.00">created_at </text>
<text text-anchor="start" x="573.95" y="-1276" font-family="Arial" font-size="14.00" fill="#666666">[timestamp with time zone]</text>
<text text-anchor="start" x="739.68" y="-1276" font-family="Arial" font-size="14.00"> When this association was created</text>
<polygon fill="none" stroke="black" points="496.91,-1233 496.91,-1263.8 966.12,-1263.8 966.12,-1233 496.91,-1233"/>
<text text-anchor="start" x="503.91" y="-1245.2" font-family="Arial" font-size="14.00">id </text>
<text text-anchor="start" x="518.69" y="-1245.2" font-family="Arial" font-size="14.00" fill="#666666">[bigint]</text>
<polygon fill="none" stroke="black" points="496.91,-1202.2 496.91,-1233 966.12,-1233 966.12,-1202.2 496.91,-1202.2"/>
<text text-anchor="start" x="503.91" y="-1214.4" font-family="Arial" font-size="14.00">node_id </text>
<text text-anchor="start" x="557.62" y="-1214.4" font-family="Arial" font-size="14.00" fill="#666666">[bigint]</text>
<text text-anchor="start" x="598.87" y="-1214.4" font-family="Arial" font-size="14.00"> ID of the node being tagged</text>
<polygon fill="none" stroke="black" points="496.91,-1171.4 496.91,-1202.2 966.12,-1202.2 966.12,-1171.4 496.91,-1171.4"/>
<text text-anchor="start" x="503.91" y="-1183.6" font-family="Arial" font-size="14.00">tag_id </text>
<text text-anchor="start" x="545.94" y="-1183.6" font-family="Arial" font-size="14.00" fill="#666666">[bigint]</text>
<text text-anchor="start" x="587.19" y="-1183.6" font-family="Arial" font-size="14.00"> ID of the tag being applied</text>
</g>
<!-- public.node_tags&#45;&gt;public.nodes -->
<g id="edge1" class="edge">
<title>public.node_tags:node_id&#45;&gt;public.nodes:id</title>
<path fill="none" stroke="black" d="M977.1,-1216.09C1002.92,-1206.98 984.7,-1158.86 966.12,-1128.2 911.07,-1037.35 810.17,-1106.28 755.49,-1015.2 715.01,-947.75 675.83,-661.2 754.49,-661.2"/>
<polygon fill="black" stroke="black" points="977.34,-1216.05 966.77,-1213.1 972.06,-1216.85 967.78,-1217.5 967.78,-1217.5 967.78,-1217.5 972.06,-1216.85 968.12,-1222 977.34,-1216.05"/>
<text text-anchor="start" x="974.12" y="-1227.6" font-family="Arial" font-size="10.00">FOREIGN KEY (node_id) REFERENCES nodes(id) ON DELETE CASCADE</text>
</g>
<!-- public.tags -->
<g id="node3" class="node">
<title>public.tags</title>
<polygon fill="#efefef" stroke="none" points="43.2,-753.6 43.2,-799.6 647.83,-799.6 647.83,-753.6 43.2,-753.6"/>
<polygon fill="none" stroke="black" points="43.2,-753.6 43.2,-799.6 647.83,-799.6 647.83,-753.6 43.2,-753.6"/>
<text text-anchor="start" x="244.02" y="-777.4" font-family="Arial Bold" font-size="18.00">public.tags</text>
<text text-anchor="start" x="322.51" y="-777.4" font-family="Arial" font-size="14.00">    </text>
<text text-anchor="start" x="353.63" y="-777.4" font-family="Arial" font-size="14.00" fill="#666666">[BASE TABLE]</text>
<text text-anchor="start" x="233.06" y="-763" font-family="Arial" font-size="14.00" fill="#333333">Unique tag names for categorization</text>
<polygon fill="none" stroke="black" points="43.2,-722.8 43.2,-753.6 647.83,-753.6 647.83,-722.8 43.2,-722.8"/>
<text text-anchor="start" x="50.2" y="-735" font-family="Arial" font-size="14.00">created_at </text>
<text text-anchor="start" x="120.25" y="-735" font-family="Arial" font-size="14.00" fill="#666666">[timestamp with time zone]</text>
<text text-anchor="start" x="285.97" y="-735" font-family="Arial" font-size="14.00"> When this tag was created</text>
<polygon fill="none" stroke="black" points="43.2,-692 43.2,-722.8 647.83,-722.8 647.83,-692 43.2,-692"/>
<text text-anchor="start" x="50.2" y="-704.2" font-family="Arial" font-size="14.00">id </text>
<text text-anchor="start" x="64.99" y="-704.2" font-family="Arial" font-size="14.00" fill="#666666">[bigint]</text>
<polygon fill="none" stroke="black" points="43.2,-661.2 43.2,-692 647.83,-692 647.83,-661.2 43.2,-661.2"/>
<text text-anchor="start" x="50.2" y="-673.4" font-family="Arial" font-size="14.00">name </text>
<text text-anchor="start" x="89.11" y="-673.4" font-family="Arial" font-size="14.00" fill="#666666">[text]</text>
<text text-anchor="start" x="119.45" y="-673.4" font-family="Arial" font-size="14.00"> Hierarchical tag in format: root:level1:level2 (e.g., database:postgresql:timescaledb)</text>
</g>
<!-- public.node_tags&#45;&gt;public.tags -->
<g id="edge2" class="edge">
<title>public.node_tags:tag_id&#45;&gt;public.tags:id</title>
<path fill="none" stroke="black" d="M485.73,-1186.43C291.39,-1171.48 868.87,-707.4 648.83,-707.4"/>
<polygon fill="black" stroke="black" points="485.58,-1186.42 495.41,-1191.28 490.91,-1186.62 495.24,-1186.78 495.24,-1186.78 495.24,-1186.78 490.91,-1186.62 495.74,-1182.29 485.58,-1186.42"/>
<text text-anchor="start" x="166.05" y="-1196.8" font-family="Arial" font-size="10.00">FOREIGN KEY (tag_id) REFERENCES tags(id) ON DELETE CASCADE</text>
</g>
<!-- public.robot_nodes -->
<g id="node4" class="node">
<title>public.robot_nodes</title>
<polygon fill="#efefef" stroke="none" points="1112.77,-1371.6 1112.77,-1417.6 1742.26,-1417.6 1742.26,-1371.6 1112.77,-1371.6"/>
<polygon fill="none" stroke="black" points="1112.77,-1371.6 1112.77,-1417.6 1742.26,-1417.6 1742.26,-1371.6 1112.77,-1371.6"/>
<text text-anchor="start" x="1296.03" y="-1395.4" font-family="Arial Bold" font-size="18.00">public.robot_nodes</text>
<text text-anchor="start" x="1434.51" y="-1395.4" font-family="Arial" font-size="14.00">    </text>
<text text-anchor="start" x="1465.63" y="-1395.4" font-family="Arial" font-size="14.00" fill="#666666">[BASE TABLE]</text>
<text text-anchor="start" x="1260.2" y="-1381" font-family="Arial" font-size="14.00" fill="#333333">Join table connecting robots to nodes (many&#45;to&#45;many)</text>
<polygon fill="none" stroke="black" points="1112.77,-1340.8 1112.77,-1371.6 1742.26,-1371.6 1742.26,-1340.8 1112.77,-1340.8"/>
<text text-anchor="start" x="1119.77" y="-1353" font-family="Arial" font-size="14.00">created_at </text>
<text text-anchor="start" x="1189.82" y="-1353" font-family="Arial" font-size="14.00" fill="#666666">[timestamp with time zone]</text>
<polygon fill="none" stroke="black" points="1112.77,-1310 1112.77,-1340.8 1742.26,-1340.8 1742.26,-1310 1112.77,-1310"/>
<text text-anchor="start" x="1119.77" y="-1322.2" font-family="Arial" font-size="14.00">first_remembered_at </text>
<text text-anchor="start" x="1252.82" y="-1322.2" font-family="Arial" font-size="14.00" fill="#666666">[timestamp with time zone]</text>
<text text-anchor="start" x="1418.55" y="-1322.2" font-family="Arial" font-size="14.00"> When this robot first remembered this content</text>
<polygon fill="none" stroke="black" points="1112.77,-1279.2 1112.77,-1310 1742.26,-1310 1742.26,-1279.2 1112.77,-1279.2"/>
<text text-anchor="start" x="1119.77" y="-1291.4" font-family="Arial" font-size="14.00">id </text>
<text text-anchor="start" x="1134.55" y="-1291.4" font-family="Arial" font-size="14.00" fill="#666666">[bigint]</text>
<polygon fill="none" stroke="black" points="1112.77,-1248.4 1112.77,-1279.2 1742.26,-1279.2 1742.26,-1248.4 1112.77,-1248.4"/>
<text text-anchor="start" x="1119.77" y="-1260.6" font-family="Arial" font-size="14.00">last_remembered_at </text>
<text text-anchor="start" x="1252.06" y="-1260.6" font-family="Arial" font-size="14.00" fill="#666666">[timestamp with time zone]</text>
<text text-anchor="start" x="1417.78" y="-1260.6" font-family="Arial" font-size="14.00"> When this robot last tried to remember this content</text>
<polygon fill="none" stroke="black" points="1112.77,-1217.6 1112.77,-1248.4 1742.26,-1248.4 1742.26,-1217.6 1112.77,-1217.6"/>
<text text-anchor="start" x="1119.77" y="-1229.8" font-family="Arial" font-size="14.00">node_id </text>
<text text-anchor="start" x="1173.49" y="-1229.8" font-family="Arial" font-size="14.00" fill="#666666">[bigint]</text>
<text text-anchor="start" x="1214.73" y="-1229.8" font-family="Arial" font-size="14.00"> ID of the node being remembered</text>
<polygon fill="none" stroke="black" points="1112.77,-1186.8 1112.77,-1217.6 1742.26,-1217.6 1742.26,-1186.8 1112.77,-1186.8"/>
<text text-anchor="start" x="1119.77" y="-1199" font-family="Arial" font-size="14.00">remember_count </text>
<text text-anchor="start" x="1229.49" y="-1199" font-family="Arial" font-size="14.00" fill="#666666">[integer]</text>
<text text-anchor="start" x="1280.07" y="-1199" font-family="Arial" font-size="14.00"> Number of times this robot has tried to remember this content</text>
<polygon fill="none" stroke="black" points="1112.77,-1156 1112.77,-1186.8 1742.26,-1186.8 1742.26,-1156 1112.77,-1156"/>
<text text-anchor="start" x="1119.77" y="-1168.2" font-family="Arial" font-size="14.00">robot_id </text>
<text text-anchor="start" x="1174.25" y="-1168.2" font-family="Arial" font-size="14.00" fill="#666666">[bigint]</text>
<text text-anchor="start" x="1215.5" y="-1168.2" font-family="Arial" font-size="14.00"> ID of the robot that remembered this node</text>
<polygon fill="none" stroke="black" points="1112.77,-1125.2 1112.77,-1156 1742.26,-1156 1742.26,-1125.2 1112.77,-1125.2"/>
<text text-anchor="start" x="1119.77" y="-1137.4" font-family="Arial" font-size="14.00">updated_at </text>
<text text-anchor="start" x="1193.73" y="-1137.4" font-family="Arial" font-size="14.00" fill="#666666">[timestamp with time zone]</text>
<polygon fill="none" stroke="black" points="1112.77,-1094.4 1112.77,-1125.2 1742.26,-1125.2 1742.26,-1094.4 1112.77,-1094.4"/>
<text text-anchor="start" x="1119.77" y="-1106.6" font-family="Arial" font-size="14.00">working_memory </text>
<text text-anchor="start" x="1230.24" y="-1106.6" font-family="Arial" font-size="14.00" fill="#666666">[boolean]</text>
<text text-anchor="start" x="1287.85" y="-1106.6" font-family="Arial" font-size="14.00"> True if this node is currently in the robot working memory</text>
</g>
<!-- public.robot_nodes&#45;&gt;public.nodes -->
<g id="edge3" class="edge">
<title>public.robot_nodes:node_id&#45;&gt;public.nodes:id</title>
<path fill="none" stroke="black" d="M1101.53,-1232.28C1033.54,-1222.21 1061.41,-1108.8 1112.77,-1051.2 1201.78,-951.38 1322.66,-1115.14 1411.53,-1015.2 1463.81,-956.41 1491.2,-661.2 1412.53,-661.2"/>
<polygon fill="black" stroke="black" points="1101.46,-1232.28 1111.12,-1237.47 1106.78,-1232.65 1111.1,-1232.95 1111.1,-1232.95 1111.1,-1232.95 1106.78,-1232.65 1111.75,-1228.49 1101.46,-1232.28"/>
<text text-anchor="start" x="853.61" y="-1217" font-family="Arial" font-size="10.00">FOREIGN KEY (node_id) REFERENCES nodes(id) ON DELETE CASCADE</text>
</g>
<!-- public.robots -->
<g id="node5" class="node">
<title>public.robots</title>
<polygon fill="#efefef" stroke="none" points="1519.41,-769 1519.41,-815 2023.62,-815 2023.62,-769 1519.41,-769"/>
<polygon fill="none" stroke="black" points="1519.41,-769 1519.41,-815 2023.62,-815 2023.62,-769 1519.41,-769"/>
<text text-anchor="start" x="1662.02" y="-792.8" font-family="Arial Bold" font-size="18.00">public.robots</text>
<text text-anchor="start" x="1756.51" y="-792.8" font-family="Arial" font-size="14.00">    </text>
<text text-anchor="start" x="1787.63" y="-792.8" font-family="Arial" font-size="14.00" fill="#666666">[BASE TABLE]</text>
<text text-anchor="start" x="1620.57" y="-778.4" font-family="Arial" font-size="14.00" fill="#333333">Registry of all LLM robots using the HTM system</text>
<polygon fill="none" stroke="black" points="1519.41,-738.2 1519.41,-769 2023.62,-769 2023.62,-738.2 1519.41,-738.2"/>
<text text-anchor="start" x="1526.41" y="-750.4" font-family="Arial" font-size="14.00">created_at </text>
<text text-anchor="start" x="1596.45" y="-750.4" font-family="Arial" font-size="14.00" fill="#666666">[timestamp with time zone]</text>
<text text-anchor="start" x="1762.18" y="-750.4" font-family="Arial" font-size="14.00"> When the robot was first registered</text>
<polygon fill="none" stroke="black" points="1519.41,-707.4 1519.41,-738.2 2023.62,-738.2 2023.62,-707.4 1519.41,-707.4"/>
<text text-anchor="start" x="1526.41" y="-719.6" font-family="Arial" font-size="14.00">id </text>
<text text-anchor="start" x="1541.19" y="-719.6" font-family="Arial" font-size="14.00" fill="#666666">[bigint]</text>
<polygon fill="none" stroke="black" points="1519.41,-676.6 1519.41,-707.4 2023.62,-707.4 2023.62,-676.6 1519.41,-676.6"/>
<text text-anchor="start" x="1526.41" y="-688.8" font-family="Arial" font-size="14.00">last_active </text>
<text text-anchor="start" x="1596.44" y="-688.8" font-family="Arial" font-size="14.00" fill="#666666">[timestamp with time zone]</text>
<text text-anchor="start" x="1762.16" y="-688.8" font-family="Arial" font-size="14.00"> Last time the robot accessed the system</text>
<polygon fill="none" stroke="black" points="1519.41,-645.8 1519.41,-676.6 2023.62,-676.6 2023.62,-645.8 1519.41,-645.8"/>
<text text-anchor="start" x="1526.41" y="-658" font-family="Arial" font-size="14.00">name </text>
<text text-anchor="start" x="1565.32" y="-658" font-family="Arial" font-size="14.00" fill="#666666">[text]</text>
<text text-anchor="start" x="1595.66" y="-658" font-family="Arial" font-size="14.00"> Human&#45;readable name for the robot</text>
</g>
<!-- public.robot_nodes&#45;&gt;public.robots -->
<g id="edge4" class="edge">
<title>public.robot_nodes:robot_id&#45;&gt;public.robots:id</title>
<path fill="none" stroke="black" d="M1753.29,-1170.37C1792.22,-1161.43 1763.08,-1096.29 1742.26,-1051.2 1687.32,-932.25 1574.29,-977.18 1519.41,-858.2 1494.2,-803.55 1458.23,-722.8 1518.41,-722.8"/>
<polygon fill="black" stroke="black" points="1753.54,-1170.34 1743.13,-1166.89 1748.23,-1170.89 1743.92,-1171.33 1743.92,-1171.33 1743.92,-1171.33 1748.23,-1170.89 1744.05,-1175.84 1753.54,-1170.34"/>
<text text-anchor="start" x="1750.26" y="-1181.4" font-family="Arial" font-size="10.00">FOREIGN KEY (robot_id) REFERENCES robots(id) ON DELETE CASCADE</text>
</g>
</g>
</svg>
