<?xml version="1.0" encoding="UTF-8" standalone="no"?>
<!DOCTYPE svg PUBLIC "-//W3C//DTD SVG 1.1//EN"
 "http://www.w3.org/Graphics/SVG/1.1/DTD/svg11.dtd">
<!-- Generated by graphviz version 12.1.2 (20240928.0832)
 -->
<!-- Title: public.tags Pages: 1 -->
<svg width="650pt" height="510pt"
 viewBox="0.00 0.00 650.02 509.60" xmlns="http://www.w3.org/2000/svg" xmlns:xlink="http://www.w3.org/1999/xlink">
<g id="graph0" class="graph" transform="scale(1 1) rotate(0) translate(4 505.6)">
<title>public.tags</title>
<polygon fill="white" stroke="none" points="-4,4 -4,-505.6 646.02,-505.6 646.02,4 -4,4"/>
<!-- public.tags -->
<g id="node1" class="node">
<title>public.tags</title>
<polygon fill="#efefef" stroke="none" points="48.8,-138.6 48.8,-174.2 298.57,-174.2 298.57,-138.6 48.8,-138.6"/>
<polygon fill="none" stroke="black" points="48.8,-138.6 48.8,-174.2 298.57,-174.2 298.57,-138.6 48.8,-138.6"/>
<text text-anchor="start" x="72.19" y="-152" font-family="Arial Bold" font-size="18.00">public.tags</text>
<text text-anchor="start" x="150.68" y="-152" font-family="Arial" font-size="14.00">    </text>
<text text-anchor="start" x="181.8" y="-152" font-family="Arial" font-size="14.00" fill="#666666">[BASE TABLE]</text>
<polygon fill="none" stroke="black" points="48.8,-107.8 48.8,-138.6 298.57,-138.6 298.57,-107.8 48.8,-107.8"/>
<text text-anchor="start" x="55.8" y="-120" font-family="Arial" font-size="14.00">id </text>
<text text-anchor="start" x="70.58" y="-120" font-family="Arial" font-size="14.00" fill="#666666">[bigint]</text>
<polygon fill="none" stroke="black" points="48.8,-77 48.8,-107.8 298.57,-107.8 298.57,-77 48.8,-77"/>
<text text-anchor="start" x="55.8" y="-89.2" font-family="Arial" font-size="14.00">name </text>
<text text-anchor="start" x="94.71" y="-89.2" font-family="Arial" font-size="14.00" fill="#666666">[text]</text>
<polygon fill="none" stroke="black" points="48.8,-46.2 48.8,-77 298.57,-77 298.57,-46.2 48.8,-46.2"/>
<text text-anchor="start" x="55.8" y="-58.4" font-family="Arial" font-size="14.00">created_at </text>
<text text-anchor="start" x="125.84" y="-58.4" font-family="Arial" font-size="14.00" fill="#666666">[timestamp with time zone]</text>
<polygon fill="none" stroke="black" stroke-width="3" points="47.3,-44.7 47.3,-175.7 300.07,-175.7 300.07,-44.7 47.3,-44.7"/>
</g>
<!-- public.node_tags -->
<g id="node2" class="node">
<title>public.node_tags</title>
<polygon fill="#efefef" stroke="none" points="43.2,-422.8 43.2,-458.4 304.16,-458.4 304.16,-422.8 43.2,-422.8"/>
<polygon fill="none" stroke="black" points="43.2,-422.8 43.2,-458.4 304.16,-458.4 304.16,-422.8 43.2,-422.8"/>
<text text-anchor="start" x="50.2" y="-436.2" font-family="Arial Bold" font-size="18.00">public.node_tags</text>
<text text-anchor="start" x="172.68" y="-436.2" font-family="Arial" font-size="14.00">    </text>
<text text-anchor="start" x="203.79" y="-436.2" font-family="Arial" font-size="14.00" fill="#666666">[BASE TABLE]</text>
<polygon fill="none" stroke="black" points="43.2,-392 43.2,-422.8 304.16,-422.8 304.16,-392 43.2,-392"/>
<text text-anchor="start" x="50.2" y="-404.2" font-family="Arial" font-size="14.00">id </text>
<text text-anchor="start" x="64.99" y="-404.2" font-family="Arial" font-size="14.00" fill="#666666">[bigint]</text>
<polygon fill="none" stroke="black" points="43.2,-361.2 43.2,-392 304.16,-392 304.16,-361.2 43.2,-361.2"/>
<text text-anchor="start" x="50.2" y="-373.4" font-family="Arial" font-size="14.00">node_id </text>
<text text-anchor="start" x="103.92" y="-373.4" font-family="Arial" font-size="14.00" fill="#666666">[bigint]</text>
<polygon fill="none" stroke="black" points="43.2,-330.4 43.2,-361.2 304.16,-361.2 304.16,-330.4 43.2,-330.4"/>
<text text-anchor="start" x="50.2" y="-342.6" font-family="Arial" font-size="14.00">tag_id </text>
<text text-anchor="start" x="92.23" y="-342.6" font-family="Arial" font-size="14.00" fill="#666666">[bigint]</text>
<polygon fill="none" stroke="black" points="43.2,-299.6 43.2,-330.4 304.16,-330.4 304.16,-299.6 43.2,-299.6"/>
<text text-anchor="start" x="50.2" y="-311.8" font-family="Arial" font-size="14.00">created_at </text>
<text text-anchor="start" x="120.25" y="-311.8" font-family="Arial" font-size="14.00" fill="#666666">[timestamp with time zone]</text>
</g>
<!-- public.node_tags&#45;&gt;public.tags -->
<g id="edge1" class="edge">
<title>public.node_tags:tag_id&#45;&gt;public.tags:id</title>
<path fill="none" stroke="black" d="M315.48,-344.95C403.6,-330 394.96,-123.2 299.57,-123.2"/>
<polygon fill="black" stroke="black" points="315.46,-344.95 305.13,-341.29 310.15,-345.39 305.83,-345.75 305.83,-345.75 305.83,-345.75 310.15,-345.39 305.87,-350.26 315.46,-344.95"/>
<text text-anchor="start" x="312.16" y="-355.8" font-family="Arial" font-size="10.00">FOREIGN KEY (tag_id) REFERENCES tags(id) ON DELETE CASCADE</text>
</g>
</g>
</svg>
