<?xml version="1.0" encoding="UTF-8" standalone="no"?>
<!DOCTYPE svg PUBLIC "-//W3C//DTD SVG 1.1//EN"
 "http://www.w3.org/Graphics/SVG/1.1/DTD/svg11.dtd">
<!-- Generated by graphviz version 12.1.2 (20240928.0832)
 -->
<!-- Title: public.tags Pages: 1 -->
<svg width="1466pt" height="771pt"
 viewBox="0.00 0.00 1465.73 770.80" xmlns="http://www.w3.org/2000/svg" xmlns:xlink="http://www.w3.org/1999/xlink">
<g id="graph0" class="graph" transform="scale(1 1) rotate(0) translate(4 766.8)">
<title>public.tags</title>
<polygon fill="white" stroke="none" points="-4,4 -4,-766.8 1461.73,-766.8 1461.73,4 -4,4"/>
<!-- public.tags -->
<g id="node1" class="node">
<title>public.tags</title>
<polygon fill="#efefef" stroke="none" points="46.2,-258.8 46.2,-304.8 650.83,-304.8 650.83,-258.8 46.2,-258.8"/>
<polygon fill="none" stroke="black" points="46.2,-258.8 46.2,-304.8 650.83,-304.8 650.83,-258.8 46.2,-258.8"/>
<text text-anchor="start" x="247.02" y="-282.6" font-family="Arial Bold" font-size="18.00">public.tags</text>
<text text-anchor="start" x="325.51" y="-282.6" font-family="Arial" font-size="14.00">    </text>
<text text-anchor="start" x="356.63" y="-282.6" font-family="Arial" font-size="14.00" fill="#666666">[BASE TABLE]</text>
<text text-anchor="start" x="236.06" y="-268.2" font-family="Arial" font-size="14.00" fill="#333333">Unique tag names for categorization</text>
<polygon fill="none" stroke="black" points="46.2,-228 46.2,-258.8 650.83,-258.8 650.83,-228 46.2,-228"/>
<text text-anchor="start" x="53.2" y="-240.2" font-family="Arial" font-size="14.00">created_at </text>
<text text-anchor="start" x="123.25" y="-240.2" font-family="Arial" font-size="14.00" fill="#666666">[timestamp with time zone]</text>
<text text-anchor="start" x="288.97" y="-240.2" font-family="Arial" font-size="14.00"> When this tag was created</text>
<polygon fill="none" stroke="black" points="46.2,-197.2 46.2,-228 650.83,-228 650.83,-197.2 46.2,-197.2"/>
<text text-anchor="start" x="53.2" y="-209.4" font-family="Arial" font-size="14.00">id </text>
<text text-anchor="start" x="67.99" y="-209.4" font-family="Arial" font-size="14.00" fill="#666666">[bigint]</text>
<polygon fill="none" stroke="black" points="46.2,-166.4 46.2,-197.2 650.83,-197.2 650.83,-166.4 46.2,-166.4"/>
<text text-anchor="start" x="53.2" y="-178.6" font-family="Arial" font-size="14.00">name </text>
<text text-anchor="start" x="92.11" y="-178.6" font-family="Arial" font-size="14.00" fill="#666666">[text]</text>
<text text-anchor="start" x="122.45" y="-178.6" font-family="Arial" font-size="14.00"> Hierarchical tag in format: root:level1:level2 (e.g., database:postgresql:timescaledb)</text>
<polygon fill="none" stroke="black" stroke-width="3" points="44.7,-164.9 44.7,-306.3 652.33,-306.3 652.33,-164.9 44.7,-164.9"/>
</g>
<!-- public.node_tags -->
<g id="node2" class="node">
<title>public.node_tags</title>
<polygon fill="#efefef" stroke="none" points="482.91,-673.6 482.91,-719.6 952.12,-719.6 952.12,-673.6 482.91,-673.6"/>
<polygon fill="none" stroke="black" points="482.91,-673.6 482.91,-719.6 952.12,-719.6 952.12,-673.6 482.91,-673.6"/>
<text text-anchor="start" x="594.03" y="-697.4" font-family="Arial Bold" font-size="18.00">public.node_tags</text>
<text text-anchor="start" x="716.51" y="-697.4" font-family="Arial" font-size="14.00">    </text>
<text text-anchor="start" x="747.62" y="-697.4" font-family="Arial" font-size="14.00" fill="#666666">[BASE TABLE]</text>
<text text-anchor="start" x="556.43" y="-683" font-family="Arial" font-size="14.00" fill="#333333">Join table connecting nodes to tags (many&#45;to&#45;many)</text>
<polygon fill="none" stroke="black" points="482.91,-642.8 482.91,-673.6 952.12,-673.6 952.12,-642.8 482.91,-642.8"/>
<text text-anchor="start" x="489.91" y="-655" font-family="Arial" font-size="14.00">created_at </text>
<text text-anchor="start" x="559.95" y="-655" font-family="Arial" font-size="14.00" fill="#666666">[timestamp with time zone]</text>
<text text-anchor="start" x="725.68" y="-655" font-family="Arial" font-size="14.00"> When this association was created</text>
<polygon fill="none" stroke="black" points="482.91,-612 482.91,-642.8 952.12,-642.8 952.12,-612 482.91,-612"/>
<text text-anchor="start" x="489.91" y="-624.2" font-family="Arial" font-size="14.00">id </text>
<text text-anchor="start" x="504.69" y="-624.2" font-family="Arial" font-size="14.00" fill="#666666">[bigint]</text>
<polygon fill="none" stroke="black" points="482.91,-581.2 482.91,-612 952.12,-612 952.12,-581.2 482.91,-581.2"/>
<text text-anchor="start" x="489.91" y="-593.4" font-family="Arial" font-size="14.00">node_id </text>
<text text-anchor="start" x="543.62" y="-593.4" font-family="Arial" font-size="14.00" fill="#666666">[bigint]</text>
<text text-anchor="start" x="584.87" y="-593.4" font-family="Arial" font-size="14.00"> ID of the node being tagged</text>
<polygon fill="none" stroke="black" points="482.91,-550.4 482.91,-581.2 952.12,-581.2 952.12,-550.4 482.91,-550.4"/>
<text text-anchor="start" x="489.91" y="-562.6" font-family="Arial" font-size="14.00">tag_id </text>
<text text-anchor="start" x="531.94" y="-562.6" font-family="Arial" font-size="14.00" fill="#666666">[bigint]</text>
<text text-anchor="start" x="573.19" y="-562.6" font-family="Arial" font-size="14.00"> ID of the tag being applied</text>
</g>
<!-- public.node_tags&#45;&gt;public.tags -->
<g id="edge1" class="edge">
<title>public.node_tags:tag_id&#45;&gt;public.tags:id</title>
<path fill="none" stroke="black" d="M472,-562.95C461.34,-554.16 474.12,-526.9 482.91,-507.2 524.4,-414.1 609.79,-444.3 650.83,-351 675.59,-294.69 713.34,-212.6 651.83,-212.6"/>
<polygon fill="black" stroke="black" points="471.98,-562.94 480.34,-570.03 477.1,-564.42 481.26,-565.61 481.26,-565.61 481.26,-565.61 477.1,-564.42 482.83,-561.38 471.98,-562.94"/>
<text text-anchor="start" x="152.05" y="-575.8" font-family="Arial" font-size="10.00">FOREIGN KEY (tag_id) REFERENCES tags(id) ON DELETE CASCADE</text>
</g>
<!-- public.nodes -->
<g id="node3" class="node">
<title>public.nodes</title>
<polygon fill="#efefef" stroke="none" points="758.49,-382 758.49,-428 1414.53,-428 1414.53,-382 758.49,-382"/>
<polygon fill="none" stroke="black" points="758.49,-382 758.49,-428 1414.53,-428 1414.53,-382 758.49,-382"/>
<text text-anchor="start" x="978.53" y="-405.8" font-family="Arial Bold" font-size="18.00">public.nodes</text>
<text text-anchor="start" x="1070.01" y="-405.8" font-family="Arial" font-size="14.00">    </text>
<text text-anchor="start" x="1101.13" y="-405.8" font-family="Arial" font-size="14.00" fill="#666666">[BASE TABLE]</text>
<text text-anchor="start" x="895.09" y="-391.4" font-family="Arial" font-size="14.00" fill="#333333">Core memory storage for conversation messages and context</text>
<polygon fill="none" stroke="black" points="758.49,-351.2 758.49,-382 1414.53,-382 1414.53,-351.2 758.49,-351.2"/>
<text text-anchor="start" x="765.49" y="-363.4" font-family="Arial" font-size="14.00">access_count </text>
<text text-anchor="start" x="854.99" y="-363.4" font-family="Arial" font-size="14.00" fill="#666666">[integer]</text>
<text text-anchor="start" x="905.58" y="-363.4" font-family="Arial" font-size="14.00"> Number of times this node has been accessed/retrieved</text>
<polygon fill="none" stroke="black" points="758.49,-320.4 758.49,-351.2 1414.53,-351.2 1414.53,-320.4 758.49,-320.4"/>
<text text-anchor="start" x="765.49" y="-332.6" font-family="Arial" font-size="14.00">content </text>
<text text-anchor="start" x="815.31" y="-332.6" font-family="Arial" font-size="14.00" fill="#666666">[text]</text>
<text text-anchor="start" x="845.65" y="-332.6" font-family="Arial" font-size="14.00"> The conversation message/utterance content</text>
<polygon fill="none" stroke="black" points="758.49,-289.6 758.49,-320.4 1414.53,-320.4 1414.53,-289.6 758.49,-289.6"/>
<text text-anchor="start" x="765.49" y="-301.8" font-family="Arial" font-size="14.00">content_hash </text>
<text text-anchor="start" x="853.45" y="-301.8" font-family="Arial" font-size="14.00" fill="#666666">[varchar(64)]</text>
<text text-anchor="start" x="932.81" y="-301.8" font-family="Arial" font-size="14.00"> SHA&#45;256 hash of content for deduplication</text>
<polygon fill="none" stroke="black" points="758.49,-258.8 758.49,-289.6 1414.53,-289.6 1414.53,-258.8 758.49,-258.8"/>
<text text-anchor="start" x="765.49" y="-271" font-family="Arial" font-size="14.00">created_at </text>
<text text-anchor="start" x="835.54" y="-271" font-family="Arial" font-size="14.00" fill="#666666">[timestamp with time zone]</text>
<text text-anchor="start" x="1001.26" y="-271" font-family="Arial" font-size="14.00"> When this memory was created</text>
<polygon fill="none" stroke="black" points="758.49,-228 758.49,-258.8 1414.53,-258.8 1414.53,-228 758.49,-228"/>
<text text-anchor="start" x="765.49" y="-240.2" font-family="Arial" font-size="14.00">deleted_at </text>
<text text-anchor="start" x="834.78" y="-240.2" font-family="Arial" font-size="14.00" fill="#666666">[timestamp with time zone]</text>
<text text-anchor="start" x="1000.5" y="-240.2" font-family="Arial" font-size="14.00"> Soft delete timestamp &#45; node is considered deleted when set</text>
<polygon fill="none" stroke="black" points="758.49,-197.2 758.49,-228 1414.53,-228 1414.53,-197.2 758.49,-197.2"/>
<text text-anchor="start" x="765.49" y="-209.4" font-family="Arial" font-size="14.00">embedding </text>
<text text-anchor="start" x="838.66" y="-209.4" font-family="Arial" font-size="14.00" fill="#666666">[vector(2000)]</text>
<text text-anchor="start" x="925.03" y="-209.4" font-family="Arial" font-size="14.00"> Vector embedding (max 2000 dimensions) for semantic search</text>
<polygon fill="none" stroke="black" points="758.49,-166.4 758.49,-197.2 1414.53,-197.2 1414.53,-166.4 758.49,-166.4"/>
<text text-anchor="start" x="765.49" y="-178.6" font-family="Arial" font-size="14.00">embedding_dimension </text>
<text text-anchor="start" x="910.26" y="-178.6" font-family="Arial" font-size="14.00" fill="#666666">[integer]</text>
<text text-anchor="start" x="960.84" y="-178.6" font-family="Arial" font-size="14.00"> Actual number of dimensions used in the embedding vector (max 2000)</text>
<polygon fill="none" stroke="black" points="758.49,-135.6 758.49,-166.4 1414.53,-166.4 1414.53,-135.6 758.49,-135.6"/>
<text text-anchor="start" x="765.49" y="-147.8" font-family="Arial" font-size="14.00">id </text>
<text text-anchor="start" x="780.28" y="-147.8" font-family="Arial" font-size="14.00" fill="#666666">[bigint]</text>
<polygon fill="none" stroke="black" points="758.49,-104.8 758.49,-135.6 1414.53,-135.6 1414.53,-104.8 758.49,-104.8"/>
<text text-anchor="start" x="765.49" y="-117" font-family="Arial" font-size="14.00">last_accessed </text>
<text text-anchor="start" x="858.1" y="-117" font-family="Arial" font-size="14.00" fill="#666666">[timestamp with time zone]</text>
<text text-anchor="start" x="1023.82" y="-117" font-family="Arial" font-size="14.00"> When this memory was last accessed</text>
<polygon fill="none" stroke="black" points="758.49,-74 758.49,-104.8 1414.53,-104.8 1414.53,-74 758.49,-74"/>
<text text-anchor="start" x="765.49" y="-86.2" font-family="Arial" font-size="14.00">token_count </text>
<text text-anchor="start" x="845.67" y="-86.2" font-family="Arial" font-size="14.00" fill="#666666">[integer]</text>
<text text-anchor="start" x="896.25" y="-86.2" font-family="Arial" font-size="14.00"> Number of tokens in the content (for context budget management)</text>
<polygon fill="none" stroke="black" points="758.49,-43.2 758.49,-74 1414.53,-74 1414.53,-43.2 758.49,-43.2"/>
<text text-anchor="start" x="765.49" y="-55.4" font-family="Arial" font-size="14.00">updated_at </text>
<text text-anchor="start" x="839.45" y="-55.4" font-family="Arial" font-size="14.00" fill="#666666">[timestamp with time zone]</text>
<text text-anchor="start" x="1005.18" y="-55.4" font-family="Arial" font-size="14.00"> When this memory was last modified</text>
</g>
<!-- public.node_tags&#45;&gt;public.nodes -->
<g id="edge2" class="edge">
<title>public.node_tags:node_id&#45;&gt;public.nodes:id</title>
<path fill="none" stroke="black" d="M963.23,-594.99C989.79,-585.35 975.19,-534.65 952.12,-507.2 895.79,-440.2 814.55,-538.43 758.49,-471.2 712.92,-416.55 686.34,-151 757.49,-151"/>
<polygon fill="black" stroke="black" points="963.33,-594.98 952.74,-592.1 958.06,-595.82 953.78,-596.5 953.78,-596.5 953.78,-596.5 958.06,-595.82 954.15,-600.99 963.33,-594.98"/>
<text text-anchor="start" x="960.12" y="-606.6" font-family="Arial" font-size="10.00">FOREIGN KEY (node_id) REFERENCES nodes(id) ON DELETE CASCADE</text>
</g>
</g>
</svg>
