<?xml version="1.0" encoding="UTF-8" standalone="no"?>
<!DOCTYPE svg PUBLIC "-//W3C//DTD SVG 1.1//EN"
 "http://www.w3.org/Graphics/SVG/1.1/DTD/svg11.dtd">
<!-- Generated by graphviz version 12.1.2 (20240928.0832)
 -->
<!-- Title: public.working_memories Pages: 1 -->
<svg width="1046pt" height="756pt"
 viewBox="0.00 0.00 1046.14 756.00" xmlns="http://www.w3.org/2000/svg" xmlns:xlink="http://www.w3.org/1999/xlink">
<g id="graph0" class="graph" transform="scale(1 1) rotate(0) translate(4 752)">
<title>public.working_memories</title>
<polygon fill="white" stroke="none" points="-4,4 -4,-752 1042.14,-752 1042.14,4 -4,4"/>
<!-- public.working_memories -->
<g id="node1" class="node">
<title>public.working_memories</title>
<polygon fill="#efefef" stroke="none" points="355.64,-666.2 355.64,-701.8 683.59,-701.8 683.59,-666.2 355.64,-666.2"/>
<polygon fill="none" stroke="black" points="355.64,-666.2 355.64,-701.8 683.59,-701.8 683.59,-666.2 355.64,-666.2"/>
<text text-anchor="start" x="362.64" y="-679.6" font-family="Arial Bold" font-size="18.00">public.working_memories</text>
<text text-anchor="start" x="552.11" y="-679.6" font-family="Arial" font-size="14.00">    </text>
<text text-anchor="start" x="583.22" y="-679.6" font-family="Arial" font-size="14.00" fill="#666666">[BASE TABLE]</text>
<polygon fill="none" stroke="black" points="355.64,-635.4 355.64,-666.2 683.59,-666.2 683.59,-635.4 355.64,-635.4"/>
<text text-anchor="start" x="362.64" y="-647.6" font-family="Arial" font-size="14.00">id </text>
<text text-anchor="start" x="377.43" y="-647.6" font-family="Arial" font-size="14.00" fill="#666666">[bigint]</text>
<polygon fill="none" stroke="black" points="355.64,-604.6 355.64,-635.4 683.59,-635.4 683.59,-604.6 355.64,-604.6"/>
<text text-anchor="start" x="362.64" y="-616.8" font-family="Arial" font-size="14.00">robot_id </text>
<text text-anchor="start" x="417.12" y="-616.8" font-family="Arial" font-size="14.00" fill="#666666">[bigint]</text>
<polygon fill="none" stroke="black" points="355.64,-573.8 355.64,-604.6 683.59,-604.6 683.59,-573.8 355.64,-573.8"/>
<text text-anchor="start" x="362.64" y="-586" font-family="Arial" font-size="14.00">node_id </text>
<text text-anchor="start" x="416.36" y="-586" font-family="Arial" font-size="14.00" fill="#666666">[bigint]</text>
<polygon fill="none" stroke="black" points="355.64,-543 355.64,-573.8 683.59,-573.8 683.59,-543 355.64,-543"/>
<text text-anchor="start" x="362.64" y="-555.2" font-family="Arial" font-size="14.00">added_at </text>
<text text-anchor="start" x="424.92" y="-555.2" font-family="Arial" font-size="14.00" fill="#666666">[timestamp with time zone]</text>
<polygon fill="none" stroke="black" points="355.64,-512.2 355.64,-543 683.59,-543 683.59,-512.2 355.64,-512.2"/>
<text text-anchor="start" x="362.64" y="-524.4" font-family="Arial" font-size="14.00">token_count </text>
<text text-anchor="start" x="442.81" y="-524.4" font-family="Arial" font-size="14.00" fill="#666666">[integer]</text>
<polygon fill="none" stroke="black" stroke-width="3" points="354.14,-510.7 354.14,-703.3 685.09,-703.3 685.09,-510.7 354.14,-510.7"/>
</g>
<!-- public.robots -->
<g id="node2" class="node">
<title>public.robots</title>
<polygon fill="#efefef" stroke="none" points="212.73,-258.8 212.73,-294.4 462.5,-294.4 462.5,-258.8 212.73,-258.8"/>
<polygon fill="none" stroke="black" points="212.73,-258.8 212.73,-294.4 462.5,-294.4 462.5,-258.8 212.73,-258.8"/>
<text text-anchor="start" x="228.13" y="-272.2" font-family="Arial Bold" font-size="18.00">public.robots</text>
<text text-anchor="start" x="322.62" y="-272.2" font-family="Arial" font-size="14.00">    </text>
<text text-anchor="start" x="353.74" y="-272.2" font-family="Arial" font-size="14.00" fill="#666666">[BASE TABLE]</text>
<polygon fill="none" stroke="black" points="212.73,-228 212.73,-258.8 462.5,-258.8 462.5,-228 212.73,-228"/>
<text text-anchor="start" x="219.73" y="-240.2" font-family="Arial" font-size="14.00">id </text>
<text text-anchor="start" x="234.52" y="-240.2" font-family="Arial" font-size="14.00" fill="#666666">[bigint]</text>
<polygon fill="none" stroke="black" points="212.73,-197.2 212.73,-228 462.5,-228 462.5,-197.2 212.73,-197.2"/>
<text text-anchor="start" x="219.73" y="-209.4" font-family="Arial" font-size="14.00">name </text>
<text text-anchor="start" x="258.64" y="-209.4" font-family="Arial" font-size="14.00" fill="#666666">[text]</text>
<polygon fill="none" stroke="black" points="212.73,-166.4 212.73,-197.2 462.5,-197.2 462.5,-166.4 212.73,-166.4"/>
<text text-anchor="start" x="219.73" y="-178.6" font-family="Arial" font-size="14.00">created_at </text>
<text text-anchor="start" x="289.78" y="-178.6" font-family="Arial" font-size="14.00" fill="#666666">[timestamp with time zone]</text>
<polygon fill="none" stroke="black" points="212.73,-135.6 212.73,-166.4 462.5,-166.4 462.5,-135.6 212.73,-135.6"/>
<text text-anchor="start" x="219.73" y="-147.8" font-family="Arial" font-size="14.00">last_active </text>
<text text-anchor="start" x="289.77" y="-147.8" font-family="Arial" font-size="14.00" fill="#666666">[timestamp with time zone]</text>
</g>
<!-- public.working_memories&#45;&gt;public.robots -->
<g id="edge1" class="edge">
<title>public.working_memories:robot_id&#45;&gt;public.robots:id</title>
<path fill="none" stroke="black" d="M344.41,-619.21C291.15,-610.26 333.43,-526.77 355.64,-466 381.12,-396.26 436.88,-407.28 462.5,-337.6 476.95,-298.3 505.37,-243.4 463.5,-243.4"/>
<polygon fill="black" stroke="black" points="344.34,-619.21 353.96,-624.46 349.65,-619.62 353.97,-619.95 353.97,-619.95 353.97,-619.95 349.65,-619.62 354.65,-615.49 344.34,-619.21"/>
<text text-anchor="start" x="7" y="-630" font-family="Arial" font-size="10.00">FOREIGN KEY (robot_id) REFERENCES robots(id) ON DELETE CASCADE</text>
</g>
<!-- public.nodes -->
<g id="node3" class="node">
<title>public.nodes</title>
<polygon fill="#efefef" stroke="none" points="566.45,-351.2 566.45,-386.8 838.78,-386.8 838.78,-351.2 566.45,-351.2"/>
<polygon fill="none" stroke="black" points="566.45,-351.2 566.45,-386.8 838.78,-386.8 838.78,-351.2 566.45,-351.2"/>
<text text-anchor="start" x="594.63" y="-364.6" font-family="Arial Bold" font-size="18.00">public.nodes</text>
<text text-anchor="start" x="686.12" y="-364.6" font-family="Arial" font-size="14.00">    </text>
<text text-anchor="start" x="717.23" y="-364.6" font-family="Arial" font-size="14.00" fill="#666666">[BASE TABLE]</text>
<polygon fill="none" stroke="black" points="566.45,-320.4 566.45,-351.2 838.78,-351.2 838.78,-320.4 566.45,-320.4"/>
<text text-anchor="start" x="573.45" y="-332.6" font-family="Arial" font-size="14.00">id </text>
<text text-anchor="start" x="588.24" y="-332.6" font-family="Arial" font-size="14.00" fill="#666666">[bigint]</text>
<polygon fill="none" stroke="black" points="566.45,-289.6 566.45,-320.4 838.78,-320.4 838.78,-289.6 566.45,-289.6"/>
<text text-anchor="start" x="573.45" y="-301.8" font-family="Arial" font-size="14.00">content </text>
<text text-anchor="start" x="623.27" y="-301.8" font-family="Arial" font-size="14.00" fill="#666666">[text]</text>
<polygon fill="none" stroke="black" points="566.45,-258.8 566.45,-289.6 838.78,-289.6 838.78,-258.8 566.45,-258.8"/>
<text text-anchor="start" x="573.45" y="-271" font-family="Arial" font-size="14.00">access_count </text>
<text text-anchor="start" x="662.95" y="-271" font-family="Arial" font-size="14.00" fill="#666666">[integer]</text>
<polygon fill="none" stroke="black" points="566.45,-228 566.45,-258.8 838.78,-258.8 838.78,-228 566.45,-228"/>
<text text-anchor="start" x="573.45" y="-240.2" font-family="Arial" font-size="14.00">created_at </text>
<text text-anchor="start" x="643.5" y="-240.2" font-family="Arial" font-size="14.00" fill="#666666">[timestamp with time zone]</text>
<polygon fill="none" stroke="black" points="566.45,-197.2 566.45,-228 838.78,-228 838.78,-197.2 566.45,-197.2"/>
<text text-anchor="start" x="573.45" y="-209.4" font-family="Arial" font-size="14.00">updated_at </text>
<text text-anchor="start" x="647.41" y="-209.4" font-family="Arial" font-size="14.00" fill="#666666">[timestamp with time zone]</text>
<polygon fill="none" stroke="black" points="566.45,-166.4 566.45,-197.2 838.78,-197.2 838.78,-166.4 566.45,-166.4"/>
<text text-anchor="start" x="573.45" y="-178.6" font-family="Arial" font-size="14.00">last_accessed </text>
<text text-anchor="start" x="666.06" y="-178.6" font-family="Arial" font-size="14.00" fill="#666666">[timestamp with time zone]</text>
<polygon fill="none" stroke="black" points="566.45,-135.6 566.45,-166.4 838.78,-166.4 838.78,-135.6 566.45,-135.6"/>
<text text-anchor="start" x="573.45" y="-147.8" font-family="Arial" font-size="14.00">token_count </text>
<text text-anchor="start" x="653.62" y="-147.8" font-family="Arial" font-size="14.00" fill="#666666">[integer]</text>
<polygon fill="none" stroke="black" points="566.45,-104.8 566.45,-135.6 838.78,-135.6 838.78,-104.8 566.45,-104.8"/>
<text text-anchor="start" x="573.45" y="-117" font-family="Arial" font-size="14.00">embedding </text>
<text text-anchor="start" x="646.62" y="-117" font-family="Arial" font-size="14.00" fill="#666666">[vector(2000)]</text>
<polygon fill="none" stroke="black" points="566.45,-74 566.45,-104.8 838.78,-104.8 838.78,-74 566.45,-74"/>
<text text-anchor="start" x="573.45" y="-86.2" font-family="Arial" font-size="14.00">embedding_dimension </text>
<text text-anchor="start" x="718.22" y="-86.2" font-family="Arial" font-size="14.00" fill="#666666">[integer]</text>
<polygon fill="none" stroke="black" points="566.45,-43.2 566.45,-74 838.78,-74 838.78,-43.2 566.45,-43.2"/>
<text text-anchor="start" x="573.45" y="-55.4" font-family="Arial" font-size="14.00">content_hash </text>
<text text-anchor="start" x="661.41" y="-55.4" font-family="Arial" font-size="14.00" fill="#666666">[varchar(64)]</text>
</g>
<!-- public.working_memories&#45;&gt;public.nodes -->
<g id="edge2" class="edge">
<title>public.working_memories:node_id&#45;&gt;public.nodes:id</title>
<path fill="none" stroke="black" d="M694.76,-588.13C736.16,-578.52 714.08,-506.91 683.59,-466 651.05,-422.32 599.05,-473.63 566.45,-430 541.39,-396.46 523.58,-335.8 565.45,-335.8"/>
<polygon fill="black" stroke="black" points="694.87,-588.11 684.45,-584.69 689.57,-588.67 685.26,-589.13 685.26,-589.13 685.26,-589.13 689.57,-588.67 685.4,-593.64 694.87,-588.11"/>
<text text-anchor="start" x="691.59" y="-599.2" font-family="Arial" font-size="10.00">FOREIGN KEY (node_id) REFERENCES nodes(id) ON DELETE CASCADE</text>
</g>
</g>
</svg>
