<?xml version="1.0" encoding="UTF-8" standalone="no"?>
<!DOCTYPE svg PUBLIC "-//W3C//DTD SVG 1.1//EN"
 "http://www.w3.org/Graphics/SVG/1.1/DTD/svg11.dtd">
<!-- Generated by graphviz version 12.1.2 (20240928.0832)
 -->
<!-- Title: htm_development Pages: 1 -->
<svg width="2561pt" height="1432pt"
 viewBox="0.00 0.00 2560.69 1432.00" xmlns="http://www.w3.org/2000/svg" xmlns:xlink="http://www.w3.org/1999/xlink">
<g id="graph0" class="graph" transform="scale(1 1) rotate(0) translate(4 1428)">
<title>htm_development</title>
<polygon fill="white" stroke="none" points="-4,4 -4,-1428 2556.69,-1428 2556.69,4 -4,4"/>
<!-- public.file_sources -->
<g id="node1" class="node">
<title>public.file_sources</title>
<polygon fill="#efefef" stroke="none" points="834.64,-320.4 834.64,-366.4 1326.38,-366.4 1326.38,-320.4 834.64,-320.4"/>
<polygon fill="none" stroke="black" points="834.64,-320.4 834.64,-366.4 1326.38,-366.4 1326.38,-320.4 834.64,-320.4"/>
<text text-anchor="start" x="950.04" y="-344.2" font-family="Arial Bold" font-size="18.00">public.file_sources</text>
<text text-anchor="start" x="1086.5" y="-344.2" font-family="Arial" font-size="14.00">    </text>
<text text-anchor="start" x="1117.61" y="-344.2" font-family="Arial" font-size="14.00" fill="#666666">[BASE TABLE]</text>
<text text-anchor="start" x="947.04" y="-329.8" font-family="Arial" font-size="14.00" fill="#333333">Source file metadata for loaded documents</text>
<polygon fill="none" stroke="black" points="834.64,-289.6 834.64,-320.4 1326.38,-320.4 1326.38,-289.6 834.64,-289.6"/>
<text text-anchor="start" x="841.64" y="-301.8" font-family="Arial" font-size="14.00">created_at </text>
<text text-anchor="start" x="911.69" y="-301.8" font-family="Arial" font-size="14.00" fill="#666666">[timestamp with time zone]</text>
<polygon fill="none" stroke="black" points="834.64,-258.8 834.64,-289.6 1326.38,-289.6 1326.38,-258.8 834.64,-258.8"/>
<text text-anchor="start" x="841.64" y="-271" font-family="Arial" font-size="14.00">file_hash </text>
<text text-anchor="start" x="901.57" y="-271" font-family="Arial" font-size="14.00" fill="#666666">[varchar(64)]</text>
<text text-anchor="start" x="980.93" y="-271" font-family="Arial" font-size="14.00"> SHA&#45;256 hash of file content</text>
<polygon fill="none" stroke="black" points="834.64,-228 834.64,-258.8 1326.38,-258.8 1326.38,-228 834.64,-228"/>
<text text-anchor="start" x="841.64" y="-240.2" font-family="Arial" font-size="14.00">file_path </text>
<text text-anchor="start" x="898.46" y="-240.2" font-family="Arial" font-size="14.00" fill="#666666">[text]</text>
<text text-anchor="start" x="928.81" y="-240.2" font-family="Arial" font-size="14.00"> Absolute path to source file</text>
<polygon fill="none" stroke="black" points="834.64,-197.2 834.64,-228 1326.38,-228 1326.38,-197.2 834.64,-197.2"/>
<text text-anchor="start" x="841.64" y="-209.4" font-family="Arial" font-size="14.00">file_size </text>
<text text-anchor="start" x="896.11" y="-209.4" font-family="Arial" font-size="14.00" fill="#666666">[integer]</text>
<text text-anchor="start" x="946.7" y="-209.4" font-family="Arial" font-size="14.00"> File size in bytes</text>
<polygon fill="none" stroke="black" points="834.64,-166.4 834.64,-197.2 1326.38,-197.2 1326.38,-166.4 834.64,-166.4"/>
<text text-anchor="start" x="841.64" y="-178.6" font-family="Arial" font-size="14.00">frontmatter </text>
<text text-anchor="start" x="913.22" y="-178.6" font-family="Arial" font-size="14.00" fill="#666666">[jsonb]</text>
<text text-anchor="start" x="954.47" y="-178.6" font-family="Arial" font-size="14.00"> Parsed YAML frontmatter</text>
<polygon fill="none" stroke="black" points="834.64,-135.6 834.64,-166.4 1326.38,-166.4 1326.38,-135.6 834.64,-135.6"/>
<text text-anchor="start" x="841.64" y="-147.8" font-family="Arial" font-size="14.00">id </text>
<text text-anchor="start" x="856.43" y="-147.8" font-family="Arial" font-size="14.00" fill="#666666">[bigint]</text>
<polygon fill="none" stroke="black" points="834.64,-104.8 834.64,-135.6 1326.38,-135.6 1326.38,-104.8 834.64,-104.8"/>
<text text-anchor="start" x="841.64" y="-117" font-family="Arial" font-size="14.00">last_synced_at </text>
<text text-anchor="start" x="938.92" y="-117" font-family="Arial" font-size="14.00" fill="#666666">[timestamp with time zone]</text>
<text text-anchor="start" x="1104.65" y="-117" font-family="Arial" font-size="14.00"> When file was last synced to HTM</text>
<polygon fill="none" stroke="black" points="834.64,-74 834.64,-104.8 1326.38,-104.8 1326.38,-74 834.64,-74"/>
<text text-anchor="start" x="841.64" y="-86.2" font-family="Arial" font-size="14.00">mtime </text>
<text text-anchor="start" x="883.64" y="-86.2" font-family="Arial" font-size="14.00" fill="#666666">[timestamp with time zone]</text>
<text text-anchor="start" x="1049.36" y="-86.2" font-family="Arial" font-size="14.00"> File modification time</text>
<polygon fill="none" stroke="black" points="834.64,-43.2 834.64,-74 1326.38,-74 1326.38,-43.2 834.64,-43.2"/>
<text text-anchor="start" x="841.64" y="-55.4" font-family="Arial" font-size="14.00">updated_at </text>
<text text-anchor="start" x="915.6" y="-55.4" font-family="Arial" font-size="14.00" fill="#666666">[timestamp with time zone]</text>
</g>
<!-- public.node_tags -->
<g id="node2" class="node">
<title>public.node_tags</title>
<polygon fill="#efefef" stroke="none" points="182.91,-1273.2 182.91,-1319.2 652.12,-1319.2 652.12,-1273.2 182.91,-1273.2"/>
<polygon fill="none" stroke="black" points="182.91,-1273.2 182.91,-1319.2 652.12,-1319.2 652.12,-1273.2 182.91,-1273.2"/>
<text text-anchor="start" x="294.03" y="-1297" font-family="Arial Bold" font-size="18.00">public.node_tags</text>
<text text-anchor="start" x="416.51" y="-1297" font-family="Arial" font-size="14.00">    </text>
<text text-anchor="start" x="447.62" y="-1297" font-family="Arial" font-size="14.00" fill="#666666">[BASE TABLE]</text>
<text text-anchor="start" x="256.43" y="-1282.6" font-family="Arial" font-size="14.00" fill="#333333">Join table connecting nodes to tags (many&#45;to&#45;many)</text>
<polygon fill="none" stroke="black" points="182.91,-1242.4 182.91,-1273.2 652.12,-1273.2 652.12,-1242.4 182.91,-1242.4"/>
<text text-anchor="start" x="189.91" y="-1254.6" font-family="Arial" font-size="14.00">created_at </text>
<text text-anchor="start" x="259.95" y="-1254.6" font-family="Arial" font-size="14.00" fill="#666666">[timestamp with time zone]</text>
<text text-anchor="start" x="425.68" y="-1254.6" font-family="Arial" font-size="14.00"> When this association was created</text>
<polygon fill="none" stroke="black" points="182.91,-1211.6 182.91,-1242.4 652.12,-1242.4 652.12,-1211.6 182.91,-1211.6"/>
<text text-anchor="start" x="189.91" y="-1223.8" font-family="Arial" font-size="14.00">id </text>
<text text-anchor="start" x="204.69" y="-1223.8" font-family="Arial" font-size="14.00" fill="#666666">[bigint]</text>
<polygon fill="none" stroke="black" points="182.91,-1180.8 182.91,-1211.6 652.12,-1211.6 652.12,-1180.8 182.91,-1180.8"/>
<text text-anchor="start" x="189.91" y="-1193" font-family="Arial" font-size="14.00">node_id </text>
<text text-anchor="start" x="243.62" y="-1193" font-family="Arial" font-size="14.00" fill="#666666">[bigint]</text>
<text text-anchor="start" x="284.87" y="-1193" font-family="Arial" font-size="14.00"> ID of the node being tagged</text>
<polygon fill="none" stroke="black" points="182.91,-1150 182.91,-1180.8 652.12,-1180.8 652.12,-1150 182.91,-1150"/>
<text text-anchor="start" x="189.91" y="-1162.2" font-family="Arial" font-size="14.00">tag_id </text>
<text text-anchor="start" x="231.94" y="-1162.2" font-family="Arial" font-size="14.00" fill="#666666">[bigint]</text>
<text text-anchor="start" x="273.19" y="-1162.2" font-family="Arial" font-size="14.00"> ID of the tag being applied</text>
</g>
<!-- public.nodes -->
<g id="node3" class="node">
<title>public.nodes</title>
<polygon fill="#efefef" stroke="none" points="752.49,-920 752.49,-966 1408.53,-966 1408.53,-920 752.49,-920"/>
<polygon fill="none" stroke="black" points="752.49,-920 752.49,-966 1408.53,-966 1408.53,-920 752.49,-920"/>
<text text-anchor="start" x="972.53" y="-943.8" font-family="Arial Bold" font-size="18.00">public.nodes</text>
<text text-anchor="start" x="1064.01" y="-943.8" font-family="Arial" font-size="14.00">    </text>
<text text-anchor="start" x="1095.13" y="-943.8" font-family="Arial" font-size="14.00" fill="#666666">[BASE TABLE]</text>
<text text-anchor="start" x="889.09" y="-929.4" font-family="Arial" font-size="14.00" fill="#333333">Core memory storage for conversation messages and context</text>
<polygon fill="none" stroke="black" points="752.49,-889.2 752.49,-920 1408.53,-920 1408.53,-889.2 752.49,-889.2"/>
<text text-anchor="start" x="759.49" y="-901.4" font-family="Arial" font-size="14.00">access_count </text>
<text text-anchor="start" x="848.99" y="-901.4" font-family="Arial" font-size="14.00" fill="#666666">[integer]</text>
<text text-anchor="start" x="899.58" y="-901.4" font-family="Arial" font-size="14.00"> Number of times this node has been accessed/retrieved</text>
<polygon fill="none" stroke="black" points="752.49,-858.4 752.49,-889.2 1408.53,-889.2 1408.53,-858.4 752.49,-858.4"/>
<text text-anchor="start" x="759.49" y="-870.6" font-family="Arial" font-size="14.00">chunk_position </text>
<text text-anchor="start" x="856.78" y="-870.6" font-family="Arial" font-size="14.00" fill="#666666">[integer]</text>
<text text-anchor="start" x="907.37" y="-870.6" font-family="Arial" font-size="14.00"> Position within source file (0&#45;indexed)</text>
<polygon fill="none" stroke="black" points="752.49,-827.6 752.49,-858.4 1408.53,-858.4 1408.53,-827.6 752.49,-827.6"/>
<text text-anchor="start" x="759.49" y="-839.8" font-family="Arial" font-size="14.00">content </text>
<text text-anchor="start" x="809.31" y="-839.8" font-family="Arial" font-size="14.00" fill="#666666">[text]</text>
<text text-anchor="start" x="839.65" y="-839.8" font-family="Arial" font-size="14.00"> The conversation message/utterance content</text>
<polygon fill="none" stroke="black" points="752.49,-796.8 752.49,-827.6 1408.53,-827.6 1408.53,-796.8 752.49,-796.8"/>
<text text-anchor="start" x="759.49" y="-809" font-family="Arial" font-size="14.00">content_hash </text>
<text text-anchor="start" x="847.45" y="-809" font-family="Arial" font-size="14.00" fill="#666666">[varchar(64)]</text>
<text text-anchor="start" x="926.81" y="-809" font-family="Arial" font-size="14.00"> SHA&#45;256 hash of content for deduplication</text>
<polygon fill="none" stroke="black" points="752.49,-766 752.49,-796.8 1408.53,-796.8 1408.53,-766 752.49,-766"/>
<text text-anchor="start" x="759.49" y="-778.2" font-family="Arial" font-size="14.00">created_at </text>
<text text-anchor="start" x="829.54" y="-778.2" font-family="Arial" font-size="14.00" fill="#666666">[timestamp with time zone]</text>
<text text-anchor="start" x="995.26" y="-778.2" font-family="Arial" font-size="14.00"> When this memory was created</text>
<polygon fill="none" stroke="black" points="752.49,-735.2 752.49,-766 1408.53,-766 1408.53,-735.2 752.49,-735.2"/>
<text text-anchor="start" x="759.49" y="-747.4" font-family="Arial" font-size="14.00">deleted_at </text>
<text text-anchor="start" x="828.78" y="-747.4" font-family="Arial" font-size="14.00" fill="#666666">[timestamp with time zone]</text>
<text text-anchor="start" x="994.5" y="-747.4" font-family="Arial" font-size="14.00"> Soft delete timestamp &#45; node is considered deleted when set</text>
<polygon fill="none" stroke="black" points="752.49,-704.4 752.49,-735.2 1408.53,-735.2 1408.53,-704.4 752.49,-704.4"/>
<text text-anchor="start" x="759.49" y="-716.6" font-family="Arial" font-size="14.00">embedding </text>
<text text-anchor="start" x="832.66" y="-716.6" font-family="Arial" font-size="14.00" fill="#666666">[vector(2000)]</text>
<text text-anchor="start" x="919.03" y="-716.6" font-family="Arial" font-size="14.00"> Vector embedding (max 2000 dimensions) for semantic search</text>
<polygon fill="none" stroke="black" points="752.49,-673.6 752.49,-704.4 1408.53,-704.4 1408.53,-673.6 752.49,-673.6"/>
<text text-anchor="start" x="759.49" y="-685.8" font-family="Arial" font-size="14.00">embedding_dimension </text>
<text text-anchor="start" x="904.26" y="-685.8" font-family="Arial" font-size="14.00" fill="#666666">[integer]</text>
<text text-anchor="start" x="954.84" y="-685.8" font-family="Arial" font-size="14.00"> Actual number of dimensions used in the embedding vector (max 2000)</text>
<polygon fill="none" stroke="black" points="752.49,-642.8 752.49,-673.6 1408.53,-673.6 1408.53,-642.8 752.49,-642.8"/>
<text text-anchor="start" x="759.49" y="-655" font-family="Arial" font-size="14.00">id </text>
<text text-anchor="start" x="774.28" y="-655" font-family="Arial" font-size="14.00" fill="#666666">[bigint]</text>
<polygon fill="none" stroke="black" points="752.49,-612 752.49,-642.8 1408.53,-642.8 1408.53,-612 752.49,-612"/>
<text text-anchor="start" x="759.49" y="-624.2" font-family="Arial" font-size="14.00">last_accessed </text>
<text text-anchor="start" x="852.1" y="-624.2" font-family="Arial" font-size="14.00" fill="#666666">[timestamp with time zone]</text>
<text text-anchor="start" x="1017.82" y="-624.2" font-family="Arial" font-size="14.00"> When this memory was last accessed</text>
<polygon fill="none" stroke="black" points="752.49,-581.2 752.49,-612 1408.53,-612 1408.53,-581.2 752.49,-581.2"/>
<text text-anchor="start" x="759.49" y="-593.4" font-family="Arial" font-size="14.00">metadata </text>
<text text-anchor="start" x="821.76" y="-593.4" font-family="Arial" font-size="14.00" fill="#666666">[jsonb]</text>
<text text-anchor="start" x="863" y="-593.4" font-family="Arial" font-size="14.00"> Flexible metadata storage (memory_type, importance, source, etc.)</text>
<polygon fill="none" stroke="black" points="752.49,-550.4 752.49,-581.2 1408.53,-581.2 1408.53,-550.4 752.49,-550.4"/>
<text text-anchor="start" x="759.49" y="-562.6" font-family="Arial" font-size="14.00">source_id </text>
<text text-anchor="start" x="824.09" y="-562.6" font-family="Arial" font-size="14.00" fill="#666666">[bigint]</text>
<text text-anchor="start" x="865.33" y="-562.6" font-family="Arial" font-size="14.00"> Reference to source file (for file&#45;loaded nodes)</text>
<polygon fill="none" stroke="black" points="752.49,-519.6 752.49,-550.4 1408.53,-550.4 1408.53,-519.6 752.49,-519.6"/>
<text text-anchor="start" x="759.49" y="-531.8" font-family="Arial" font-size="14.00">token_count </text>
<text text-anchor="start" x="839.67" y="-531.8" font-family="Arial" font-size="14.00" fill="#666666">[integer]</text>
<text text-anchor="start" x="890.25" y="-531.8" font-family="Arial" font-size="14.00"> Number of tokens in the content (for context budget management)</text>
<polygon fill="none" stroke="black" points="752.49,-488.8 752.49,-519.6 1408.53,-519.6 1408.53,-488.8 752.49,-488.8"/>
<text text-anchor="start" x="759.49" y="-501" font-family="Arial" font-size="14.00">updated_at </text>
<text text-anchor="start" x="833.45" y="-501" font-family="Arial" font-size="14.00" fill="#666666">[timestamp with time zone]</text>
<text text-anchor="start" x="999.18" y="-501" font-family="Arial" font-size="14.00"> When this memory was last modified</text>
</g>
<!-- public.node_tags&#45;&gt;public.nodes -->
<g id="edge1" class="edge">
<title>public.node_tags:node_id&#45;&gt;public.nodes:id</title>
<path fill="none" stroke="black" d="M663.41,-1195.64C734.26,-1187.39 684.51,-1089.68 700.51,-1009.2 715.88,-931.89 672.68,-658.2 751.49,-658.2"/>
<polygon fill="black" stroke="black" points="663.44,-1195.64 653.21,-1191.69 658.11,-1195.93 653.79,-1196.16 653.79,-1196.16 653.79,-1196.16 658.11,-1195.93 653.7,-1200.68 663.44,-1195.64"/>
<text text-anchor="start" x="660.12" y="-1206.2" font-family="Arial" font-size="10.00">FOREIGN KEY (node_id) REFERENCES nodes(id) ON DELETE CASCADE</text>
</g>
<!-- public.tags -->
<g id="node7" class="node">
<title>public.tags</title>
<polygon fill="#efefef" stroke="none" points="43.2,-750.6 43.2,-796.6 647.83,-796.6 647.83,-750.6 43.2,-750.6"/>
<polygon fill="none" stroke="black" points="43.2,-750.6 43.2,-796.6 647.83,-796.6 647.83,-750.6 43.2,-750.6"/>
<text text-anchor="start" x="244.02" y="-774.4" font-family="Arial Bold" font-size="18.00">public.tags</text>
<text text-anchor="start" x="322.51" y="-774.4" font-family="Arial" font-size="14.00">    </text>
<text text-anchor="start" x="353.63" y="-774.4" font-family="Arial" font-size="14.00" fill="#666666">[BASE TABLE]</text>
<text text-anchor="start" x="233.06" y="-760" font-family="Arial" font-size="14.00" fill="#333333">Unique tag names for categorization</text>
<polygon fill="none" stroke="black" points="43.2,-719.8 43.2,-750.6 647.83,-750.6 647.83,-719.8 43.2,-719.8"/>
<text text-anchor="start" x="50.2" y="-732" font-family="Arial" font-size="14.00">created_at </text>
<text text-anchor="start" x="120.25" y="-732" font-family="Arial" font-size="14.00" fill="#666666">[timestamp with time zone]</text>
<text text-anchor="start" x="285.97" y="-732" font-family="Arial" font-size="14.00"> When this tag was created</text>
<polygon fill="none" stroke="black" points="43.2,-689 43.2,-719.8 647.83,-719.8 647.83,-689 43.2,-689"/>
<text text-anchor="start" x="50.2" y="-701.2" font-family="Arial" font-size="14.00">id </text>
<text text-anchor="start" x="64.99" y="-701.2" font-family="Arial" font-size="14.00" fill="#666666">[bigint]</text>
<polygon fill="none" stroke="black" points="43.2,-658.2 43.2,-689 647.83,-689 647.83,-658.2 43.2,-658.2"/>
<text text-anchor="start" x="50.2" y="-670.4" font-family="Arial" font-size="14.00">name </text>
<text text-anchor="start" x="89.11" y="-670.4" font-family="Arial" font-size="14.00" fill="#666666">[text]</text>
<text text-anchor="start" x="119.45" y="-670.4" font-family="Arial" font-size="14.00"> Hierarchical tag in format: root:level1:level2 (e.g., database:postgresql:timescaledb)</text>
</g>
<!-- public.node_tags&#45;&gt;public.tags -->
<g id="edge2" class="edge">
<title>public.node_tags:tag_id&#45;&gt;public.tags:id</title>
<path fill="none" stroke="black" d="M417.73,-1138.7C424.67,-978.58 594.42,-998.92 647.83,-839.8 666.97,-782.75 709,-704.4 648.83,-704.4"/>
<polygon fill="black" stroke="black" points="417.73,-1138.67 413.02,-1148.57 417.62,-1144 417.53,-1148.33 417.53,-1148.33 417.53,-1148.33 417.62,-1144 422.02,-1148.76 417.73,-1138.67"/>
<text text-anchor="start" x="87.66" y="-1159" font-family="Arial" font-size="10.00">FOREIGN KEY (tag_id) REFERENCES tags(id) ON DELETE CASCADE</text>
</g>
<!-- public.nodes&#45;&gt;public.file_sources -->
<g id="edge3" class="edge">
<title>public.nodes:source_id&#45;&gt;public.file_sources:id</title>
<path fill="none" stroke="black" d="M1419.75,-563.95C1497.06,-534.03 1417.68,-151 1327.38,-151"/>
<polygon fill="black" stroke="black" points="1419.7,-563.96 1409.06,-561.31 1414.45,-564.91 1410.19,-565.68 1410.19,-565.68 1410.19,-565.68 1414.45,-564.91 1410.66,-570.17 1419.7,-563.96"/>
<text text-anchor="start" x="1416.53" y="-575.8" font-family="Arial" font-size="10.00">FOREIGN KEY (source_id) REFERENCES file_sources(id) ON DELETE SET NULL</text>
</g>
<!-- public.robot_nodes -->
<g id="node4" class="node">
<title>public.robot_nodes</title>
<polygon fill="#efefef" stroke="none" points="1447.77,-1334.8 1447.77,-1380.8 2077.26,-1380.8 2077.26,-1334.8 1447.77,-1334.8"/>
<polygon fill="none" stroke="black" points="1447.77,-1334.8 1447.77,-1380.8 2077.26,-1380.8 2077.26,-1334.8 1447.77,-1334.8"/>
<text text-anchor="start" x="1631.03" y="-1358.6" font-family="Arial Bold" font-size="18.00">public.robot_nodes</text>
<text text-anchor="start" x="1769.51" y="-1358.6" font-family="Arial" font-size="14.00">    </text>
<text text-anchor="start" x="1800.63" y="-1358.6" font-family="Arial" font-size="14.00" fill="#666666">[BASE TABLE]</text>
<text text-anchor="start" x="1595.2" y="-1344.2" font-family="Arial" font-size="14.00" fill="#333333">Join table connecting robots to nodes (many&#45;to&#45;many)</text>
<polygon fill="none" stroke="black" points="1447.77,-1304 1447.77,-1334.8 2077.26,-1334.8 2077.26,-1304 1447.77,-1304"/>
<text text-anchor="start" x="1454.77" y="-1316.2" font-family="Arial" font-size="14.00">created_at </text>
<text text-anchor="start" x="1524.82" y="-1316.2" font-family="Arial" font-size="14.00" fill="#666666">[timestamp with time zone]</text>
<polygon fill="none" stroke="black" points="1447.77,-1273.2 1447.77,-1304 2077.26,-1304 2077.26,-1273.2 1447.77,-1273.2"/>
<text text-anchor="start" x="1454.77" y="-1285.4" font-family="Arial" font-size="14.00">first_remembered_at </text>
<text text-anchor="start" x="1587.82" y="-1285.4" font-family="Arial" font-size="14.00" fill="#666666">[timestamp with time zone]</text>
<text text-anchor="start" x="1753.55" y="-1285.4" font-family="Arial" font-size="14.00"> When this robot first remembered this content</text>
<polygon fill="none" stroke="black" points="1447.77,-1242.4 1447.77,-1273.2 2077.26,-1273.2 2077.26,-1242.4 1447.77,-1242.4"/>
<text text-anchor="start" x="1454.77" y="-1254.6" font-family="Arial" font-size="14.00">id </text>
<text text-anchor="start" x="1469.55" y="-1254.6" font-family="Arial" font-size="14.00" fill="#666666">[bigint]</text>
<polygon fill="none" stroke="black" points="1447.77,-1211.6 1447.77,-1242.4 2077.26,-1242.4 2077.26,-1211.6 1447.77,-1211.6"/>
<text text-anchor="start" x="1454.77" y="-1223.8" font-family="Arial" font-size="14.00">last_remembered_at </text>
<text text-anchor="start" x="1587.06" y="-1223.8" font-family="Arial" font-size="14.00" fill="#666666">[timestamp with time zone]</text>
<text text-anchor="start" x="1752.78" y="-1223.8" font-family="Arial" font-size="14.00"> When this robot last tried to remember this content</text>
<polygon fill="none" stroke="black" points="1447.77,-1180.8 1447.77,-1211.6 2077.26,-1211.6 2077.26,-1180.8 1447.77,-1180.8"/>
<text text-anchor="start" x="1454.77" y="-1193" font-family="Arial" font-size="14.00">node_id </text>
<text text-anchor="start" x="1508.49" y="-1193" font-family="Arial" font-size="14.00" fill="#666666">[bigint]</text>
<text text-anchor="start" x="1549.73" y="-1193" font-family="Arial" font-size="14.00"> ID of the node being remembered</text>
<polygon fill="none" stroke="black" points="1447.77,-1150 1447.77,-1180.8 2077.26,-1180.8 2077.26,-1150 1447.77,-1150"/>
<text text-anchor="start" x="1454.77" y="-1162.2" font-family="Arial" font-size="14.00">remember_count </text>
<text text-anchor="start" x="1564.49" y="-1162.2" font-family="Arial" font-size="14.00" fill="#666666">[integer]</text>
<text text-anchor="start" x="1615.07" y="-1162.2" font-family="Arial" font-size="14.00"> Number of times this robot has tried to remember this content</text>
<polygon fill="none" stroke="black" points="1447.77,-1119.2 1447.77,-1150 2077.26,-1150 2077.26,-1119.2 1447.77,-1119.2"/>
<text text-anchor="start" x="1454.77" y="-1131.4" font-family="Arial" font-size="14.00">robot_id </text>
<text text-anchor="start" x="1509.25" y="-1131.4" font-family="Arial" font-size="14.00" fill="#666666">[bigint]</text>
<text text-anchor="start" x="1550.5" y="-1131.4" font-family="Arial" font-size="14.00"> ID of the robot that remembered this node</text>
<polygon fill="none" stroke="black" points="1447.77,-1088.4 1447.77,-1119.2 2077.26,-1119.2 2077.26,-1088.4 1447.77,-1088.4"/>
<text text-anchor="start" x="1454.77" y="-1100.6" font-family="Arial" font-size="14.00">updated_at </text>
<text text-anchor="start" x="1528.73" y="-1100.6" font-family="Arial" font-size="14.00" fill="#666666">[timestamp with time zone]</text>
</g>
<!-- public.robot_nodes&#45;&gt;public.nodes -->
<g id="edge5" class="edge">
<title>public.robot_nodes:node_id&#45;&gt;public.nodes:id</title>
<path fill="none" stroke="black" d="M1436.46,-1194.66C1339.27,-1163.1 1525.63,-658.2 1409.53,-658.2"/>
<polygon fill="black" stroke="black" points="1436.55,-1194.67 1445.77,-1200.6 1441.82,-1195.46 1446.11,-1196.1 1446.11,-1196.1 1446.11,-1196.1 1441.82,-1195.46 1447.1,-1191.7 1436.55,-1194.67"/>
<text text-anchor="start" x="1453.77" y="-1206.2" font-family="Arial" font-size="10.00">FOREIGN KEY (node_id) REFERENCES nodes(id) ON DELETE CASCADE</text>
</g>
<!-- public.robots -->
<g id="node5" class="node">
<title>public.robots</title>
<polygon fill="#efefef" stroke="none" points="1513.41,-766 1513.41,-812 2017.62,-812 2017.62,-766 1513.41,-766"/>
<polygon fill="none" stroke="black" points="1513.41,-766 1513.41,-812 2017.62,-812 2017.62,-766 1513.41,-766"/>
<text text-anchor="start" x="1656.02" y="-789.8" font-family="Arial Bold" font-size="18.00">public.robots</text>
<text text-anchor="start" x="1750.51" y="-789.8" font-family="Arial" font-size="14.00">    </text>
<text text-anchor="start" x="1781.63" y="-789.8" font-family="Arial" font-size="14.00" fill="#666666">[BASE TABLE]</text>
<text text-anchor="start" x="1614.57" y="-775.4" font-family="Arial" font-size="14.00" fill="#333333">Registry of all LLM robots using the HTM system</text>
<polygon fill="none" stroke="black" points="1513.41,-735.2 1513.41,-766 2017.62,-766 2017.62,-735.2 1513.41,-735.2"/>
<text text-anchor="start" x="1520.41" y="-747.4" font-family="Arial" font-size="14.00">created_at </text>
<text text-anchor="start" x="1590.45" y="-747.4" font-family="Arial" font-size="14.00" fill="#666666">[timestamp with time zone]</text>
<text text-anchor="start" x="1756.18" y="-747.4" font-family="Arial" font-size="14.00"> When the robot was first registered</text>
<polygon fill="none" stroke="black" points="1513.41,-704.4 1513.41,-735.2 2017.62,-735.2 2017.62,-704.4 1513.41,-704.4"/>
<text text-anchor="start" x="1520.41" y="-716.6" font-family="Arial" font-size="14.00">id </text>
<text text-anchor="start" x="1535.19" y="-716.6" font-family="Arial" font-size="14.00" fill="#666666">[bigint]</text>
<polygon fill="none" stroke="black" points="1513.41,-673.6 1513.41,-704.4 2017.62,-704.4 2017.62,-673.6 1513.41,-673.6"/>
<text text-anchor="start" x="1520.41" y="-685.8" font-family="Arial" font-size="14.00">last_active </text>
<text text-anchor="start" x="1590.44" y="-685.8" font-family="Arial" font-size="14.00" fill="#666666">[timestamp with time zone]</text>
<text text-anchor="start" x="1756.16" y="-685.8" font-family="Arial" font-size="14.00"> Last time the robot accessed the system</text>
<polygon fill="none" stroke="black" points="1513.41,-642.8 1513.41,-673.6 2017.62,-673.6 2017.62,-642.8 1513.41,-642.8"/>
<text text-anchor="start" x="1520.41" y="-655" font-family="Arial" font-size="14.00">name </text>
<text text-anchor="start" x="1559.32" y="-655" font-family="Arial" font-size="14.00" fill="#666666">[text]</text>
<text text-anchor="start" x="1589.66" y="-655" font-family="Arial" font-size="14.00"> Human&#45;readable name for the robot</text>
</g>
<!-- public.robot_nodes&#45;&gt;public.robots -->
<g id="edge4" class="edge">
<title>public.robot_nodes:robot_id&#45;&gt;public.robots:id</title>
<path fill="none" stroke="black" d="M2088.31,-1133.04C2114.54,-1123.66 2098.34,-1074.2 2077.26,-1045.2 1921.78,-831.28 1668.47,-1069.41 1513.41,-855.2 1478.12,-806.45 1452.23,-719.8 1512.41,-719.8"/>
<polygon fill="black" stroke="black" points="2088.47,-1133.01 2077.9,-1130.1 2083.2,-1133.83 2078.92,-1134.5 2078.92,-1134.5 2078.92,-1134.5 2083.2,-1133.83 2079.28,-1139 2088.47,-1133.01"/>
<text text-anchor="start" x="2085.26" y="-1118.6" font-family="Arial" font-size="10.00">FOREIGN KEY (robot_id) REFERENCES robots(id) ON DELETE CASCADE</text>
</g>
<!-- public.schema_migrations -->
<g id="node6" class="node">
<title>public.schema_migrations</title>
<polygon fill="#efefef" stroke="none" points="2181.54,-1232.2 2181.54,-1267.8 2509.49,-1267.8 2509.49,-1232.2 2181.54,-1232.2"/>
<polygon fill="none" stroke="black" points="2181.54,-1232.2 2181.54,-1267.8 2509.49,-1267.8 2509.49,-1232.2 2181.54,-1232.2"/>
<text text-anchor="start" x="2188.54" y="-1245.6" font-family="Arial Bold" font-size="18.00">public.schema_migrations</text>
<text text-anchor="start" x="2378" y="-1245.6" font-family="Arial" font-size="14.00">    </text>
<text text-anchor="start" x="2409.11" y="-1245.6" font-family="Arial" font-size="14.00" fill="#666666">[BASE TABLE]</text>
<polygon fill="none" stroke="black" points="2181.54,-1201.4 2181.54,-1232.2 2509.49,-1232.2 2509.49,-1201.4 2181.54,-1201.4"/>
<text text-anchor="start" x="2188.54" y="-1213.6" font-family="Arial" font-size="14.00">version </text>
<text text-anchor="start" x="2237.56" y="-1213.6" font-family="Arial" font-size="14.00" fill="#666666">[varchar]</text>
</g>
<!-- public.working_memories -->
<g id="node8" class="node">
<title>public.working_memories</title>
<polygon fill="#efefef" stroke="none" points="826.89,-1288.6 826.89,-1334.6 1338.14,-1334.6 1338.14,-1288.6 826.89,-1288.6"/>
<polygon fill="none" stroke="black" points="826.89,-1288.6 826.89,-1334.6 1338.14,-1334.6 1338.14,-1288.6 826.89,-1288.6"/>
<text text-anchor="start" x="925.53" y="-1312.4" font-family="Arial Bold" font-size="18.00">public.working_memories</text>
<text text-anchor="start" x="1115" y="-1312.4" font-family="Arial" font-size="14.00">    </text>
<text text-anchor="start" x="1146.12" y="-1312.4" font-family="Arial" font-size="14.00" fill="#666666">[BASE TABLE]</text>
<text text-anchor="start" x="914.05" y="-1298" font-family="Arial" font-size="14.00" fill="#333333">Per&#45;robot working memory state (optional persistence)</text>
<polygon fill="none" stroke="black" points="826.89,-1257.8 826.89,-1288.6 1338.14,-1288.6 1338.14,-1257.8 826.89,-1257.8"/>
<text text-anchor="start" x="833.89" y="-1270" font-family="Arial" font-size="14.00">added_at </text>
<text text-anchor="start" x="896.17" y="-1270" font-family="Arial" font-size="14.00" fill="#666666">[timestamp with time zone]</text>
<text text-anchor="start" x="1061.89" y="-1270" font-family="Arial" font-size="14.00"> When node was added to working memory</text>
<polygon fill="none" stroke="black" points="826.89,-1227 826.89,-1257.8 1338.14,-1257.8 1338.14,-1227 826.89,-1227"/>
<text text-anchor="start" x="833.89" y="-1239.2" font-family="Arial" font-size="14.00">id </text>
<text text-anchor="start" x="848.67" y="-1239.2" font-family="Arial" font-size="14.00" fill="#666666">[bigint]</text>
<polygon fill="none" stroke="black" points="826.89,-1196.2 826.89,-1227 1338.14,-1227 1338.14,-1196.2 826.89,-1196.2"/>
<text text-anchor="start" x="833.89" y="-1208.4" font-family="Arial" font-size="14.00">node_id </text>
<text text-anchor="start" x="887.6" y="-1208.4" font-family="Arial" font-size="14.00" fill="#666666">[bigint]</text>
<text text-anchor="start" x="928.85" y="-1208.4" font-family="Arial" font-size="14.00"> Node currently in working memory</text>
<polygon fill="none" stroke="black" points="826.89,-1165.4 826.89,-1196.2 1338.14,-1196.2 1338.14,-1165.4 826.89,-1165.4"/>
<text text-anchor="start" x="833.89" y="-1177.6" font-family="Arial" font-size="14.00">robot_id </text>
<text text-anchor="start" x="888.37" y="-1177.6" font-family="Arial" font-size="14.00" fill="#666666">[bigint]</text>
<text text-anchor="start" x="929.62" y="-1177.6" font-family="Arial" font-size="14.00"> Robot whose working memory this belongs to</text>
<polygon fill="none" stroke="black" points="826.89,-1134.6 826.89,-1165.4 1338.14,-1165.4 1338.14,-1134.6 826.89,-1134.6"/>
<text text-anchor="start" x="833.89" y="-1146.8" font-family="Arial" font-size="14.00">token_count </text>
<text text-anchor="start" x="914.06" y="-1146.8" font-family="Arial" font-size="14.00" fill="#666666">[integer]</text>
<text text-anchor="start" x="964.64" y="-1146.8" font-family="Arial" font-size="14.00"> Cached token count for budget tracking</text>
</g>
<!-- public.working_memories&#45;&gt;public.nodes -->
<g id="edge7" class="edge">
<title>public.working_memories:node_id&#45;&gt;public.nodes:id</title>
<path fill="none" stroke="black" d="M815.67,-1210.45C775.24,-1200.55 794.16,-1128.76 826.89,-1091.4 998.91,-895.01 1237.04,-1206.06 1408.53,-1009.2 1459.77,-950.39 1487.53,-658.2 1409.53,-658.2"/>
<polygon fill="black" stroke="black" points="815.62,-1210.45 825.05,-1216.03 820.92,-1211.04 825.22,-1211.53 825.22,-1211.53 825.22,-1211.53 820.92,-1211.04 826.06,-1207.09 815.62,-1210.45"/>
<text text-anchor="start" x="832.89" y="-1221.6" font-family="Arial" font-size="10.00">FOREIGN KEY (node_id) REFERENCES nodes(id) ON DELETE CASCADE</text>
</g>
<!-- public.working_memories&#45;&gt;public.robots -->
<g id="edge6" class="edge">
<title>public.working_memories:robot_id&#45;&gt;public.robots:id</title>
<path fill="none" stroke="black" d="M1349.44,-1179.93C1398.6,-1170.74 1354.56,-1091.01 1395.51,-1045.2 1417.52,-1020.58 1441.29,-1036.05 1460.51,-1009.2 1498.54,-956.07 1447.07,-719.8 1512.41,-719.8"/>
<polygon fill="black" stroke="black" points="1349.44,-1179.93 1339.09,-1176.29 1344.12,-1180.38 1339.81,-1180.74 1339.81,-1180.74 1339.81,-1180.74 1344.12,-1180.38 1339.85,-1185.26 1349.44,-1179.93"/>
<text text-anchor="start" x="991.5" y="-1164.8" font-family="Arial" font-size="10.00">FOREIGN KEY (robot_id) REFERENCES robots(id) ON DELETE CASCADE</text>
</g>
</g>
</svg>
