<?xml version="1.0" encoding="UTF-8" standalone="no"?>
<!DOCTYPE svg PUBLIC "-//W3C//DTD SVG 1.1//EN"
 "http://www.w3.org/Graphics/SVG/1.1/DTD/svg11.dtd">
<!-- Generated by graphviz version 12.1.2 (20240928.0832)
 -->
<!-- Title: htm_development Pages: 1 -->
<svg width="1637pt" height="842pt"
 viewBox="0.00 0.00 1637.35 842.40" xmlns="http://www.w3.org/2000/svg" xmlns:xlink="http://www.w3.org/1999/xlink">
<g id="graph0" class="graph" transform="scale(1 1) rotate(0) translate(4 838.4)">
<title>htm_development</title>
<polygon fill="white" stroke="none" points="-4,4 -4,-838.4 1633.35,-838.4 1633.35,4 -4,4"/>
<!-- public.robot_nodes -->
<g id="node1" class="node">
<title>public.robot_nodes</title>
<polygon fill="#efefef" stroke="none" points="475.79,-755.6 475.79,-791.2 788.57,-791.2 788.57,-755.6 475.79,-755.6"/>
<polygon fill="none" stroke="black" points="475.79,-755.6 475.79,-791.2 788.57,-791.2 788.57,-755.6 475.79,-755.6"/>
<text text-anchor="start" x="500.69" y="-769" font-family="Arial Bold" font-size="18.00">public.robot_nodes</text>
<text text-anchor="start" x="639.17" y="-769" font-family="Arial" font-size="14.00">    </text>
<text text-anchor="start" x="670.29" y="-769" font-family="Arial" font-size="14.00" fill="#666666">[BASE TABLE]</text>
<polygon fill="none" stroke="black" points="475.79,-724.8 475.79,-755.6 788.57,-755.6 788.57,-724.8 475.79,-724.8"/>
<text text-anchor="start" x="482.79" y="-737" font-family="Arial" font-size="14.00">id </text>
<text text-anchor="start" x="497.57" y="-737" font-family="Arial" font-size="14.00" fill="#666666">[bigint]</text>
<polygon fill="none" stroke="black" points="475.79,-694 475.79,-724.8 788.57,-724.8 788.57,-694 475.79,-694"/>
<text text-anchor="start" x="482.79" y="-706.2" font-family="Arial" font-size="14.00">robot_id </text>
<text text-anchor="start" x="537.27" y="-706.2" font-family="Arial" font-size="14.00" fill="#666666">[bigint]</text>
<polygon fill="none" stroke="black" points="475.79,-663.2 475.79,-694 788.57,-694 788.57,-663.2 475.79,-663.2"/>
<text text-anchor="start" x="482.79" y="-675.4" font-family="Arial" font-size="14.00">node_id </text>
<text text-anchor="start" x="536.51" y="-675.4" font-family="Arial" font-size="14.00" fill="#666666">[bigint]</text>
<polygon fill="none" stroke="black" points="475.79,-632.4 475.79,-663.2 788.57,-663.2 788.57,-632.4 475.79,-632.4"/>
<text text-anchor="start" x="482.79" y="-644.6" font-family="Arial" font-size="14.00">first_remembered_at </text>
<text text-anchor="start" x="615.84" y="-644.6" font-family="Arial" font-size="14.00" fill="#666666">[timestamp with time zone]</text>
<polygon fill="none" stroke="black" points="475.79,-601.6 475.79,-632.4 788.57,-632.4 788.57,-601.6 475.79,-601.6"/>
<text text-anchor="start" x="482.79" y="-613.8" font-family="Arial" font-size="14.00">last_remembered_at </text>
<text text-anchor="start" x="615.08" y="-613.8" font-family="Arial" font-size="14.00" fill="#666666">[timestamp with time zone]</text>
<polygon fill="none" stroke="black" points="475.79,-570.8 475.79,-601.6 788.57,-601.6 788.57,-570.8 475.79,-570.8"/>
<text text-anchor="start" x="482.79" y="-583" font-family="Arial" font-size="14.00">remember_count </text>
<text text-anchor="start" x="592.51" y="-583" font-family="Arial" font-size="14.00" fill="#666666">[integer]</text>
<polygon fill="none" stroke="black" points="475.79,-540 475.79,-570.8 788.57,-570.8 788.57,-540 475.79,-540"/>
<text text-anchor="start" x="482.79" y="-552.2" font-family="Arial" font-size="14.00">created_at </text>
<text text-anchor="start" x="552.84" y="-552.2" font-family="Arial" font-size="14.00" fill="#666666">[timestamp with time zone]</text>
<polygon fill="none" stroke="black" points="475.79,-509.2 475.79,-540 788.57,-540 788.57,-509.2 475.79,-509.2"/>
<text text-anchor="start" x="482.79" y="-521.4" font-family="Arial" font-size="14.00">updated_at </text>
<text text-anchor="start" x="556.75" y="-521.4" font-family="Arial" font-size="14.00" fill="#666666">[timestamp with time zone]</text>
</g>
<!-- public.robots -->
<g id="node3" class="node">
<title>public.robots</title>
<polygon fill="#efefef" stroke="none" points="112.29,-258.8 112.29,-294.4 362.06,-294.4 362.06,-258.8 112.29,-258.8"/>
<polygon fill="none" stroke="black" points="112.29,-258.8 112.29,-294.4 362.06,-294.4 362.06,-258.8 112.29,-258.8"/>
<text text-anchor="start" x="127.69" y="-272.2" font-family="Arial Bold" font-size="18.00">public.robots</text>
<text text-anchor="start" x="222.18" y="-272.2" font-family="Arial" font-size="14.00">    </text>
<text text-anchor="start" x="253.3" y="-272.2" font-family="Arial" font-size="14.00" fill="#666666">[BASE TABLE]</text>
<polygon fill="none" stroke="black" points="112.29,-228 112.29,-258.8 362.06,-258.8 362.06,-228 112.29,-228"/>
<text text-anchor="start" x="119.29" y="-240.2" font-family="Arial" font-size="14.00">id </text>
<text text-anchor="start" x="134.08" y="-240.2" font-family="Arial" font-size="14.00" fill="#666666">[bigint]</text>
<polygon fill="none" stroke="black" points="112.29,-197.2 112.29,-228 362.06,-228 362.06,-197.2 112.29,-197.2"/>
<text text-anchor="start" x="119.29" y="-209.4" font-family="Arial" font-size="14.00">name </text>
<text text-anchor="start" x="158.2" y="-209.4" font-family="Arial" font-size="14.00" fill="#666666">[text]</text>
<polygon fill="none" stroke="black" points="112.29,-166.4 112.29,-197.2 362.06,-197.2 362.06,-166.4 112.29,-166.4"/>
<text text-anchor="start" x="119.29" y="-178.6" font-family="Arial" font-size="14.00">created_at </text>
<text text-anchor="start" x="189.34" y="-178.6" font-family="Arial" font-size="14.00" fill="#666666">[timestamp with time zone]</text>
<polygon fill="none" stroke="black" points="112.29,-135.6 112.29,-166.4 362.06,-166.4 362.06,-135.6 112.29,-135.6"/>
<text text-anchor="start" x="119.29" y="-147.8" font-family="Arial" font-size="14.00">last_active </text>
<text text-anchor="start" x="189.33" y="-147.8" font-family="Arial" font-size="14.00" fill="#666666">[timestamp with time zone]</text>
</g>
<!-- public.robot_nodes&#45;&gt;public.robots -->
<g id="edge1" class="edge">
<title>public.robot_nodes:robot_id&#45;&gt;public.robots:id</title>
<path fill="none" stroke="black" d="M464.7,-706.99C421.57,-684.81 435.26,-516.18 423.18,-466 399.18,-366.37 465.54,-243.4 363.06,-243.4"/>
<polygon fill="black" stroke="black" points="464.74,-707 473.42,-713.7 469.93,-708.24 474.14,-709.24 474.14,-709.24 474.14,-709.24 469.93,-708.24 475.51,-704.95 464.74,-707"/>
<text text-anchor="start" x="481.79" y="-719.4" font-family="Arial" font-size="10.00">FOREIGN KEY (robot_id) REFERENCES robots(id) ON DELETE CASCADE</text>
</g>
<!-- public.nodes -->
<g id="node4" class="node">
<title>public.nodes</title>
<polygon fill="#efefef" stroke="none" points="496.01,-351.2 496.01,-386.8 768.34,-386.8 768.34,-351.2 496.01,-351.2"/>
<polygon fill="none" stroke="black" points="496.01,-351.2 496.01,-386.8 768.34,-386.8 768.34,-351.2 496.01,-351.2"/>
<text text-anchor="start" x="524.19" y="-364.6" font-family="Arial Bold" font-size="18.00">public.nodes</text>
<text text-anchor="start" x="615.68" y="-364.6" font-family="Arial" font-size="14.00">    </text>
<text text-anchor="start" x="646.79" y="-364.6" font-family="Arial" font-size="14.00" fill="#666666">[BASE TABLE]</text>
<polygon fill="none" stroke="black" points="496.01,-320.4 496.01,-351.2 768.34,-351.2 768.34,-320.4 496.01,-320.4"/>
<text text-anchor="start" x="503.01" y="-332.6" font-family="Arial" font-size="14.00">id </text>
<text text-anchor="start" x="517.8" y="-332.6" font-family="Arial" font-size="14.00" fill="#666666">[bigint]</text>
<polygon fill="none" stroke="black" points="496.01,-289.6 496.01,-320.4 768.34,-320.4 768.34,-289.6 496.01,-289.6"/>
<text text-anchor="start" x="503.01" y="-301.8" font-family="Arial" font-size="14.00">content </text>
<text text-anchor="start" x="552.83" y="-301.8" font-family="Arial" font-size="14.00" fill="#666666">[text]</text>
<polygon fill="none" stroke="black" points="496.01,-258.8 496.01,-289.6 768.34,-289.6 768.34,-258.8 496.01,-258.8"/>
<text text-anchor="start" x="503.01" y="-271" font-family="Arial" font-size="14.00">access_count </text>
<text text-anchor="start" x="592.51" y="-271" font-family="Arial" font-size="14.00" fill="#666666">[integer]</text>
<polygon fill="none" stroke="black" points="496.01,-228 496.01,-258.8 768.34,-258.8 768.34,-228 496.01,-228"/>
<text text-anchor="start" x="503.01" y="-240.2" font-family="Arial" font-size="14.00">created_at </text>
<text text-anchor="start" x="573.06" y="-240.2" font-family="Arial" font-size="14.00" fill="#666666">[timestamp with time zone]</text>
<polygon fill="none" stroke="black" points="496.01,-197.2 496.01,-228 768.34,-228 768.34,-197.2 496.01,-197.2"/>
<text text-anchor="start" x="503.01" y="-209.4" font-family="Arial" font-size="14.00">updated_at </text>
<text text-anchor="start" x="576.97" y="-209.4" font-family="Arial" font-size="14.00" fill="#666666">[timestamp with time zone]</text>
<polygon fill="none" stroke="black" points="496.01,-166.4 496.01,-197.2 768.34,-197.2 768.34,-166.4 496.01,-166.4"/>
<text text-anchor="start" x="503.01" y="-178.6" font-family="Arial" font-size="14.00">last_accessed </text>
<text text-anchor="start" x="595.62" y="-178.6" font-family="Arial" font-size="14.00" fill="#666666">[timestamp with time zone]</text>
<polygon fill="none" stroke="black" points="496.01,-135.6 496.01,-166.4 768.34,-166.4 768.34,-135.6 496.01,-135.6"/>
<text text-anchor="start" x="503.01" y="-147.8" font-family="Arial" font-size="14.00">token_count </text>
<text text-anchor="start" x="583.18" y="-147.8" font-family="Arial" font-size="14.00" fill="#666666">[integer]</text>
<polygon fill="none" stroke="black" points="496.01,-104.8 496.01,-135.6 768.34,-135.6 768.34,-104.8 496.01,-104.8"/>
<text text-anchor="start" x="503.01" y="-117" font-family="Arial" font-size="14.00">embedding </text>
<text text-anchor="start" x="576.18" y="-117" font-family="Arial" font-size="14.00" fill="#666666">[vector(2000)]</text>
<polygon fill="none" stroke="black" points="496.01,-74 496.01,-104.8 768.34,-104.8 768.34,-74 496.01,-74"/>
<text text-anchor="start" x="503.01" y="-86.2" font-family="Arial" font-size="14.00">embedding_dimension </text>
<text text-anchor="start" x="647.78" y="-86.2" font-family="Arial" font-size="14.00" fill="#666666">[integer]</text>
<polygon fill="none" stroke="black" points="496.01,-43.2 496.01,-74 768.34,-74 768.34,-43.2 496.01,-43.2"/>
<text text-anchor="start" x="503.01" y="-55.4" font-family="Arial" font-size="14.00">content_hash </text>
<text text-anchor="start" x="590.97" y="-55.4" font-family="Arial" font-size="14.00" fill="#666666">[varchar(64)]</text>
</g>
<!-- public.robot_nodes&#45;&gt;public.nodes -->
<g id="edge2" class="edge">
<title>public.robot_nodes:node_id&#45;&gt;public.nodes:id</title>
<path fill="none" stroke="black" d="M799.67,-676.41C863.86,-647.22 842.08,-335.8 769.34,-335.8"/>
<polygon fill="black" stroke="black" points="799.67,-676.41 788.94,-674.13 794.45,-677.54 790.22,-678.46 790.22,-678.46 790.22,-678.46 794.45,-677.54 790.85,-682.93 799.67,-676.41"/>
<text text-anchor="start" x="796.57" y="-688.6" font-family="Arial" font-size="10.00">FOREIGN KEY (node_id) REFERENCES nodes(id) ON DELETE CASCADE</text>
</g>
<!-- public.schema_migrations -->
<g id="node2" class="node">
<title>public.schema_migrations</title>
<polygon fill="#efefef" stroke="none" points="1258.2,-647.8 1258.2,-683.4 1586.15,-683.4 1586.15,-647.8 1258.2,-647.8"/>
<polygon fill="none" stroke="black" points="1258.2,-647.8 1258.2,-683.4 1586.15,-683.4 1586.15,-647.8 1258.2,-647.8"/>
<text text-anchor="start" x="1265.2" y="-661.2" font-family="Arial Bold" font-size="18.00">public.schema_migrations</text>
<text text-anchor="start" x="1454.66" y="-661.2" font-family="Arial" font-size="14.00">    </text>
<text text-anchor="start" x="1485.78" y="-661.2" font-family="Arial" font-size="14.00" fill="#666666">[BASE TABLE]</text>
<polygon fill="none" stroke="black" points="1258.2,-617 1258.2,-647.8 1586.15,-647.8 1586.15,-617 1258.2,-617"/>
<text text-anchor="start" x="1265.2" y="-629.2" font-family="Arial" font-size="14.00">version </text>
<text text-anchor="start" x="1314.22" y="-629.2" font-family="Arial" font-size="14.00" fill="#666666">[varchar]</text>
</g>
<!-- public.tags -->
<g id="node5" class="node">
<title>public.tags</title>
<polygon fill="#efefef" stroke="none" points="898.29,-243.4 898.29,-279 1148.06,-279 1148.06,-243.4 898.29,-243.4"/>
<polygon fill="none" stroke="black" points="898.29,-243.4 898.29,-279 1148.06,-279 1148.06,-243.4 898.29,-243.4"/>
<text text-anchor="start" x="921.69" y="-256.8" font-family="Arial Bold" font-size="18.00">public.tags</text>
<text text-anchor="start" x="1000.18" y="-256.8" font-family="Arial" font-size="14.00">    </text>
<text text-anchor="start" x="1031.29" y="-256.8" font-family="Arial" font-size="14.00" fill="#666666">[BASE TABLE]</text>
<polygon fill="none" stroke="black" points="898.29,-212.6 898.29,-243.4 1148.06,-243.4 1148.06,-212.6 898.29,-212.6"/>
<text text-anchor="start" x="905.29" y="-224.8" font-family="Arial" font-size="14.00">id </text>
<text text-anchor="start" x="920.08" y="-224.8" font-family="Arial" font-size="14.00" fill="#666666">[bigint]</text>
<polygon fill="none" stroke="black" points="898.29,-181.8 898.29,-212.6 1148.06,-212.6 1148.06,-181.8 898.29,-181.8"/>
<text text-anchor="start" x="905.29" y="-194" font-family="Arial" font-size="14.00">name </text>
<text text-anchor="start" x="944.2" y="-194" font-family="Arial" font-size="14.00" fill="#666666">[text]</text>
<polygon fill="none" stroke="black" points="898.29,-151 898.29,-181.8 1148.06,-181.8 1148.06,-151 898.29,-151"/>
<text text-anchor="start" x="905.29" y="-163.2" font-family="Arial" font-size="14.00">created_at </text>
<text text-anchor="start" x="975.34" y="-163.2" font-family="Arial" font-size="14.00" fill="#666666">[timestamp with time zone]</text>
</g>
<!-- public.node_tags -->
<g id="node6" class="node">
<title>public.node_tags</title>
<polygon fill="#efefef" stroke="none" points="892.7,-694 892.7,-729.6 1153.66,-729.6 1153.66,-694 892.7,-694"/>
<polygon fill="none" stroke="black" points="892.7,-694 892.7,-729.6 1153.66,-729.6 1153.66,-694 892.7,-694"/>
<text text-anchor="start" x="899.7" y="-707.4" font-family="Arial Bold" font-size="18.00">public.node_tags</text>
<text text-anchor="start" x="1022.17" y="-707.4" font-family="Arial" font-size="14.00">    </text>
<text text-anchor="start" x="1053.29" y="-707.4" font-family="Arial" font-size="14.00" fill="#666666">[BASE TABLE]</text>
<polygon fill="none" stroke="black" points="892.7,-663.2 892.7,-694 1153.66,-694 1153.66,-663.2 892.7,-663.2"/>
<text text-anchor="start" x="899.7" y="-675.4" font-family="Arial" font-size="14.00">id </text>
<text text-anchor="start" x="914.48" y="-675.4" font-family="Arial" font-size="14.00" fill="#666666">[bigint]</text>
<polygon fill="none" stroke="black" points="892.7,-632.4 892.7,-663.2 1153.66,-663.2 1153.66,-632.4 892.7,-632.4"/>
<text text-anchor="start" x="899.7" y="-644.6" font-family="Arial" font-size="14.00">node_id </text>
<text text-anchor="start" x="953.41" y="-644.6" font-family="Arial" font-size="14.00" fill="#666666">[bigint]</text>
<polygon fill="none" stroke="black" points="892.7,-601.6 892.7,-632.4 1153.66,-632.4 1153.66,-601.6 892.7,-601.6"/>
<text text-anchor="start" x="899.7" y="-613.8" font-family="Arial" font-size="14.00">tag_id </text>
<text text-anchor="start" x="941.73" y="-613.8" font-family="Arial" font-size="14.00" fill="#666666">[bigint]</text>
<polygon fill="none" stroke="black" points="892.7,-570.8 892.7,-601.6 1153.66,-601.6 1153.66,-570.8 892.7,-570.8"/>
<text text-anchor="start" x="899.7" y="-583" font-family="Arial" font-size="14.00">created_at </text>
<text text-anchor="start" x="969.74" y="-583" font-family="Arial" font-size="14.00" fill="#666666">[timestamp with time zone]</text>
</g>
<!-- public.node_tags&#45;&gt;public.nodes -->
<g id="edge3" class="edge">
<title>public.node_tags:node_id&#45;&gt;public.nodes:id</title>
<path fill="none" stroke="black" d="M881.27,-647.18C813.48,-638.5 871.45,-540.15 841.18,-466 816.2,-404.81 835.43,-335.8 769.34,-335.8"/>
<polygon fill="black" stroke="black" points="881.38,-647.19 891.09,-652.27 886.7,-647.5 891.03,-647.76 891.03,-647.76 891.03,-647.76 886.7,-647.5 891.63,-643.29 881.38,-647.19"/>
<text text-anchor="start" x="898.7" y="-657.8" font-family="Arial" font-size="10.00">FOREIGN KEY (node_id) REFERENCES nodes(id) ON DELETE CASCADE</text>
</g>
<!-- public.node_tags&#45;&gt;public.tags -->
<g id="edge4" class="edge">
<title>public.node_tags:tag_id&#45;&gt;public.tags:id</title>
<path fill="none" stroke="black" d="M1163.27,-611.2C1196.88,-562.81 1189.17,-228 1149.06,-228"/>
<polygon fill="black" stroke="black" points="1163.23,-611.23 1152.42,-613.08 1158.81,-614.21 1155.21,-616.63 1155.21,-616.63 1155.21,-616.63 1158.81,-614.21 1157.45,-620.55 1163.23,-611.23"/>
<text text-anchor="start" x="993.23" y="-601" font-family="Arial" font-size="10.00">FOREIGN KEY (tag_id) REFERENCES tags(id) ON DELETE CASCADE</text>
</g>
<!-- public.working_memories -->
<g id="node7" class="node">
<title>public.working_memories</title>
<polygon fill="#efefef" stroke="none" points="43.2,-709.4 43.2,-745 371.16,-745 371.16,-709.4 43.2,-709.4"/>
<polygon fill="none" stroke="black" points="43.2,-709.4 43.2,-745 371.16,-745 371.16,-709.4 43.2,-709.4"/>
<text text-anchor="start" x="50.2" y="-722.8" font-family="Arial Bold" font-size="18.00">public.working_memories</text>
<text text-anchor="start" x="239.67" y="-722.8" font-family="Arial" font-size="14.00">    </text>
<text text-anchor="start" x="270.78" y="-722.8" font-family="Arial" font-size="14.00" fill="#666666">[BASE TABLE]</text>
<polygon fill="none" stroke="black" points="43.2,-678.6 43.2,-709.4 371.16,-709.4 371.16,-678.6 43.2,-678.6"/>
<text text-anchor="start" x="50.2" y="-690.8" font-family="Arial" font-size="14.00">id </text>
<text text-anchor="start" x="64.99" y="-690.8" font-family="Arial" font-size="14.00" fill="#666666">[bigint]</text>
<polygon fill="none" stroke="black" points="43.2,-647.8 43.2,-678.6 371.16,-678.6 371.16,-647.8 43.2,-647.8"/>
<text text-anchor="start" x="50.2" y="-660" font-family="Arial" font-size="14.00">robot_id </text>
<text text-anchor="start" x="104.68" y="-660" font-family="Arial" font-size="14.00" fill="#666666">[bigint]</text>
<polygon fill="none" stroke="black" points="43.2,-617 43.2,-647.8 371.16,-647.8 371.16,-617 43.2,-617"/>
<text text-anchor="start" x="50.2" y="-629.2" font-family="Arial" font-size="14.00">node_id </text>
<text text-anchor="start" x="103.92" y="-629.2" font-family="Arial" font-size="14.00" fill="#666666">[bigint]</text>
<polygon fill="none" stroke="black" points="43.2,-586.2 43.2,-617 371.16,-617 371.16,-586.2 43.2,-586.2"/>
<text text-anchor="start" x="50.2" y="-598.4" font-family="Arial" font-size="14.00">added_at </text>
<text text-anchor="start" x="112.48" y="-598.4" font-family="Arial" font-size="14.00" fill="#666666">[timestamp with time zone]</text>
<polygon fill="none" stroke="black" points="43.2,-555.4 43.2,-586.2 371.16,-586.2 371.16,-555.4 43.2,-555.4"/>
<text text-anchor="start" x="50.2" y="-567.6" font-family="Arial" font-size="14.00">token_count </text>
<text text-anchor="start" x="130.37" y="-567.6" font-family="Arial" font-size="14.00" fill="#666666">[integer]</text>
</g>
<!-- public.working_memories&#45;&gt;public.robots -->
<g id="edge5" class="edge">
<title>public.working_memories:robot_id&#45;&gt;public.robots:id</title>
<path fill="none" stroke="black" d="M382.25,-662.4C435.3,-653.25 401.13,-568.12 371.16,-512.2 305.6,-389.89 178.09,-459.78 112.29,-337.6 92.44,-300.74 69.42,-243.4 111.29,-243.4"/>
<polygon fill="black" stroke="black" points="382.46,-662.38 372.13,-658.69 377.14,-662.8 372.82,-663.15 372.82,-663.15 372.82,-663.15 377.14,-662.8 372.85,-667.66 382.46,-662.38"/>
<text text-anchor="start" x="379.16" y="-673.2" font-family="Arial" font-size="10.00">FOREIGN KEY (robot_id) REFERENCES robots(id) ON DELETE CASCADE</text>
</g>
<!-- public.working_memories&#45;&gt;public.nodes -->
<g id="edge6" class="edge">
<title>public.working_memories:node_id&#45;&gt;public.nodes:id</title>
<path fill="none" stroke="black" d="M382.55,-631.73C444.2,-623.16 394.47,-533.74 423.18,-466 448.97,-405.15 428.92,-335.8 495.01,-335.8"/>
<polygon fill="black" stroke="black" points="382.47,-631.74 372.2,-627.89 377.14,-632.08 372.82,-632.36 372.82,-632.36 372.82,-632.36 377.14,-632.08 372.78,-636.87 382.47,-631.74"/>
<text text-anchor="start" x="379.16" y="-642.4" font-family="Arial" font-size="10.00">FOREIGN KEY (node_id) REFERENCES nodes(id) ON DELETE CASCADE</text>
</g>
</g>
</svg>
