<?xml version="1.0" encoding="UTF-8" standalone="no"?>
<!DOCTYPE svg PUBLIC "-//W3C//DTD SVG 1.1//EN"
 "http://www.w3.org/Graphics/SVG/1.1/DTD/svg11.dtd">
<!-- Generated by graphviz version 12.1.2 (20240928.0832)
 -->
<!-- Title: public.node_stats Pages: 1 -->
<svg width="328pt" height="321pt"
 viewBox="0.00 0.00 328.37 320.80" xmlns="http://www.w3.org/2000/svg" xmlns:xlink="http://www.w3.org/1999/xlink">
<g id="graph0" class="graph" transform="scale(1 1) rotate(0) translate(4 316.8)">
<title>public.node_stats</title>
<polygon fill="white" stroke="none" points="-4,4 -4,-316.8 324.37,-316.8 324.37,4 -4,4"/>
<!-- public.node_stats -->
<g id="node1" class="node">
<title>public.node_stats</title>
<polygon fill="#efefef" stroke="none" points="46.2,-231 46.2,-266.6 274.17,-266.6 274.17,-231 46.2,-231"/>
<polygon fill="none" stroke="black" points="46.2,-231 46.2,-266.6 274.17,-266.6 274.17,-231 46.2,-231"/>
<text text-anchor="start" x="60.11" y="-244.4" font-family="Arial Bold" font-size="18.00">public.node_stats</text>
<text text-anchor="start" x="185.59" y="-244.4" font-family="Arial" font-size="14.00">    </text>
<text text-anchor="start" x="216.71" y="-244.4" font-family="Arial" font-size="14.00" fill="#666666">[VIEW]</text>
<polygon fill="none" stroke="black" points="46.2,-200.2 46.2,-231 274.17,-231 274.17,-200.2 46.2,-200.2"/>
<text text-anchor="start" x="53.2" y="-212.4" font-family="Arial" font-size="14.00">type </text>
<text text-anchor="start" x="83.55" y="-212.4" font-family="Arial" font-size="14.00" fill="#666666">[text]</text>
<polygon fill="none" stroke="black" points="46.2,-169.4 46.2,-200.2 274.17,-200.2 274.17,-169.4 46.2,-169.4"/>
<text text-anchor="start" x="53.2" y="-181.6" font-family="Arial" font-size="14.00">count </text>
<text text-anchor="start" x="91.34" y="-181.6" font-family="Arial" font-size="14.00" fill="#666666">[bigint]</text>
<polygon fill="none" stroke="black" points="46.2,-138.6 46.2,-169.4 274.17,-169.4 274.17,-138.6 46.2,-138.6"/>
<text text-anchor="start" x="53.2" y="-150.8" font-family="Arial" font-size="14.00">avg_importance </text>
<text text-anchor="start" x="156.7" y="-150.8" font-family="Arial" font-size="14.00" fill="#666666">[double precision]</text>
<polygon fill="none" stroke="black" points="46.2,-107.8 46.2,-138.6 274.17,-138.6 274.17,-107.8 46.2,-107.8"/>
<text text-anchor="start" x="53.2" y="-120" font-family="Arial" font-size="14.00">total_tokens </text>
<text text-anchor="start" x="132.59" y="-120" font-family="Arial" font-size="14.00" fill="#666666">[bigint]</text>
<polygon fill="none" stroke="black" points="46.2,-77 46.2,-107.8 274.17,-107.8 274.17,-77 46.2,-77"/>
<text text-anchor="start" x="53.2" y="-89.2" font-family="Arial" font-size="14.00">oldest </text>
<text text-anchor="start" x="94.45" y="-89.2" font-family="Arial" font-size="14.00" fill="#666666">[timestamp with time zone]</text>
<polygon fill="none" stroke="black" points="46.2,-46.2 46.2,-77 274.17,-77 274.17,-46.2 46.2,-46.2"/>
<text text-anchor="start" x="53.2" y="-58.4" font-family="Arial" font-size="14.00">newest </text>
<text text-anchor="start" x="101.45" y="-58.4" font-family="Arial" font-size="14.00" fill="#666666">[timestamp with time zone]</text>
<polygon fill="none" stroke="black" stroke-width="3" points="44.7,-44.7 44.7,-268.1 275.67,-268.1 275.67,-44.7 44.7,-44.7"/>
</g>
</g>
</svg>
