<?xml version="1.0" encoding="UTF-8" standalone="no"?>
<!DOCTYPE svg PUBLIC "-//W3C//DTD SVG 1.1//EN"
 "http://www.w3.org/Graphics/SVG/1.1/DTD/svg11.dtd">
<!-- Generated by graphviz version 12.1.2 (20240928.0832)
 -->
<!-- Title: public.ontology_structure Pages: 1 -->
<svg width="375pt" height="290pt"
 viewBox="0.00 0.00 374.54 290.00" xmlns="http://www.w3.org/2000/svg" xmlns:xlink="http://www.w3.org/1999/xlink">
<g id="graph0" class="graph" transform="scale(1 1) rotate(0) translate(4 286)">
<title>public.ontology_structure</title>
<polygon fill="white" stroke="none" points="-4,4 -4,-286 370.54,-286 370.54,4 -4,4"/>
<!-- public.ontology_structure -->
<g id="node1" class="node">
<title>public.ontology_structure</title>
<polygon fill="#efefef" stroke="none" points="46.2,-200.2 46.2,-235.8 320.34,-235.8 320.34,-200.2 46.2,-200.2"/>
<polygon fill="none" stroke="black" points="46.2,-200.2 46.2,-235.8 320.34,-235.8 320.34,-200.2 46.2,-200.2"/>
<text text-anchor="start" x="53.2" y="-213.6" font-family="Arial Bold" font-size="18.00">public.ontology_structure</text>
<text text-anchor="start" x="238.67" y="-213.6" font-family="Arial" font-size="14.00">    </text>
<text text-anchor="start" x="269.78" y="-213.6" font-family="Arial" font-size="14.00" fill="#666666">[VIEW]</text>
<polygon fill="none" stroke="black" points="46.2,-169.4 46.2,-200.2 320.34,-200.2 320.34,-169.4 46.2,-169.4"/>
<text text-anchor="start" x="53.2" y="-181.6" font-family="Arial" font-size="14.00">root_topic </text>
<text text-anchor="start" x="118.57" y="-181.6" font-family="Arial" font-size="14.00" fill="#666666">[text]</text>
<polygon fill="none" stroke="black" points="46.2,-138.6 46.2,-169.4 320.34,-169.4 320.34,-138.6 46.2,-138.6"/>
<text text-anchor="start" x="53.2" y="-150.8" font-family="Arial" font-size="14.00">level1_topic </text>
<text text-anchor="start" x="131.03" y="-150.8" font-family="Arial" font-size="14.00" fill="#666666">[text]</text>
<polygon fill="none" stroke="black" points="46.2,-107.8 46.2,-138.6 320.34,-138.6 320.34,-107.8 46.2,-107.8"/>
<text text-anchor="start" x="53.2" y="-120" font-family="Arial" font-size="14.00">level2_topic </text>
<text text-anchor="start" x="131.03" y="-120" font-family="Arial" font-size="14.00" fill="#666666">[text]</text>
<polygon fill="none" stroke="black" points="46.2,-77 46.2,-107.8 320.34,-107.8 320.34,-77 46.2,-77"/>
<text text-anchor="start" x="53.2" y="-89.2" font-family="Arial" font-size="14.00">full_path </text>
<text text-anchor="start" x="110.02" y="-89.2" font-family="Arial" font-size="14.00" fill="#666666">[text]</text>
<polygon fill="none" stroke="black" points="46.2,-46.2 46.2,-77 320.34,-77 320.34,-46.2 46.2,-46.2"/>
<text text-anchor="start" x="53.2" y="-58.4" font-family="Arial" font-size="14.00">node_count </text>
<text text-anchor="start" x="130.27" y="-58.4" font-family="Arial" font-size="14.00" fill="#666666">[bigint]</text>
<polygon fill="none" stroke="black" stroke-width="3" points="44.7,-44.7 44.7,-237.3 321.84,-237.3 321.84,-44.7 44.7,-44.7"/>
</g>
</g>
</svg>
