<?xml version="1.0" encoding="UTF-8" standalone="no"?>
<!DOCTYPE svg PUBLIC "-//W3C//DTD SVG 1.1//EN"
 "http://www.w3.org/Graphics/SVG/1.1/DTD/svg11.dtd">
<!-- Generated by graphviz version 12.1.2 (20240928.0832)
 -->
<!-- Title: public.operations_log Pages: 1 -->
<svg width="1013pt" height="910pt"
 viewBox="0.00 0.00 1013.15 910.00" xmlns="http://www.w3.org/2000/svg" xmlns:xlink="http://www.w3.org/1999/xlink">
<g id="graph0" class="graph" transform="scale(1 1) rotate(0) translate(4 906)">
<title>public.operations_log</title>
<polygon fill="white" stroke="none" points="-4,4 -4,-906 1009.15,-906 1009.15,4 -4,4"/>
<!-- public.operations_log -->
<g id="node1" class="node">
<title>public.operations_log</title>
<polygon fill="#efefef" stroke="none" points="354.55,-820.2 354.55,-855.8 649.51,-855.8 649.51,-820.2 354.55,-820.2"/>
<polygon fill="none" stroke="black" points="354.55,-820.2 354.55,-855.8 649.51,-855.8 649.51,-820.2 354.55,-820.2"/>
<text text-anchor="start" x="361.55" y="-833.6" font-family="Arial Bold" font-size="18.00">public.operations_log</text>
<text text-anchor="start" x="518.02" y="-833.6" font-family="Arial" font-size="14.00">    </text>
<text text-anchor="start" x="549.13" y="-833.6" font-family="Arial" font-size="14.00" fill="#666666">[BASE TABLE]</text>
<polygon fill="none" stroke="black" points="354.55,-789.4 354.55,-820.2 649.51,-820.2 649.51,-789.4 354.55,-789.4"/>
<text text-anchor="start" x="361.55" y="-801.6" font-family="Arial" font-size="14.00">id </text>
<text text-anchor="start" x="376.33" y="-801.6" font-family="Arial" font-size="14.00" fill="#666666">[bigint]</text>
<polygon fill="none" stroke="black" points="354.55,-758.6 354.55,-789.4 649.51,-789.4 649.51,-758.6 354.55,-758.6"/>
<text text-anchor="start" x="361.55" y="-770.8" font-family="Arial" font-size="14.00">timestamp </text>
<text text-anchor="start" x="430.01" y="-770.8" font-family="Arial" font-size="14.00" fill="#666666">[timestamp with time zone]</text>
<polygon fill="none" stroke="black" points="354.55,-727.8 354.55,-758.6 649.51,-758.6 649.51,-727.8 354.55,-727.8"/>
<text text-anchor="start" x="361.55" y="-740" font-family="Arial" font-size="14.00">operation </text>
<text text-anchor="start" x="423.81" y="-740" font-family="Arial" font-size="14.00" fill="#666666">[text]</text>
<polygon fill="none" stroke="black" points="354.55,-697 354.55,-727.8 649.51,-727.8 649.51,-697 354.55,-697"/>
<text text-anchor="start" x="361.55" y="-709.2" font-family="Arial" font-size="14.00">node_id </text>
<text text-anchor="start" x="415.26" y="-709.2" font-family="Arial" font-size="14.00" fill="#666666">[bigint]</text>
<polygon fill="none" stroke="black" points="354.55,-666.2 354.55,-697 649.51,-697 649.51,-666.2 354.55,-666.2"/>
<text text-anchor="start" x="361.55" y="-678.4" font-family="Arial" font-size="14.00">robot_id </text>
<text text-anchor="start" x="416.03" y="-678.4" font-family="Arial" font-size="14.00" fill="#666666">[text]</text>
<polygon fill="none" stroke="black" points="354.55,-635.4 354.55,-666.2 649.51,-666.2 649.51,-635.4 354.55,-635.4"/>
<text text-anchor="start" x="361.55" y="-647.6" font-family="Arial" font-size="14.00">details </text>
<text text-anchor="start" x="405.9" y="-647.6" font-family="Arial" font-size="14.00" fill="#666666">[jsonb]</text>
<polygon fill="none" stroke="black" stroke-width="3" points="353.05,-633.9 353.05,-857.3 651.01,-857.3 651.01,-633.9 353.05,-633.9"/>
</g>
<!-- public.nodes -->
<g id="node2" class="node">
<title>public.nodes</title>
<polygon fill="#efefef" stroke="none" points="183.86,-474.4 183.86,-510 456.19,-510 456.19,-474.4 183.86,-474.4"/>
<polygon fill="none" stroke="black" points="183.86,-474.4 183.86,-510 456.19,-510 456.19,-474.4 183.86,-474.4"/>
<text text-anchor="start" x="212.04" y="-487.8" font-family="Arial Bold" font-size="18.00">public.nodes</text>
<text text-anchor="start" x="303.52" y="-487.8" font-family="Arial" font-size="14.00">    </text>
<text text-anchor="start" x="334.64" y="-487.8" font-family="Arial" font-size="14.00" fill="#666666">[BASE TABLE]</text>
<polygon fill="none" stroke="black" points="183.86,-443.6 183.86,-474.4 456.19,-474.4 456.19,-443.6 183.86,-443.6"/>
<text text-anchor="start" x="190.86" y="-455.8" font-family="Arial" font-size="14.00">id </text>
<text text-anchor="start" x="205.65" y="-455.8" font-family="Arial" font-size="14.00" fill="#666666">[bigint]</text>
<polygon fill="none" stroke="black" points="183.86,-412.8 183.86,-443.6 456.19,-443.6 456.19,-412.8 183.86,-412.8"/>
<text text-anchor="start" x="190.86" y="-425" font-family="Arial" font-size="14.00">content </text>
<text text-anchor="start" x="240.67" y="-425" font-family="Arial" font-size="14.00" fill="#666666">[text]</text>
<polygon fill="none" stroke="black" points="183.86,-382 183.86,-412.8 456.19,-412.8 456.19,-382 183.86,-382"/>
<text text-anchor="start" x="190.86" y="-394.2" font-family="Arial" font-size="14.00">speaker </text>
<text text-anchor="start" x="244.56" y="-394.2" font-family="Arial" font-size="14.00" fill="#666666">[text]</text>
<polygon fill="none" stroke="black" points="183.86,-351.2 183.86,-382 456.19,-382 456.19,-351.2 183.86,-351.2"/>
<text text-anchor="start" x="190.86" y="-363.4" font-family="Arial" font-size="14.00">type </text>
<text text-anchor="start" x="221.21" y="-363.4" font-family="Arial" font-size="14.00" fill="#666666">[text]</text>
<polygon fill="none" stroke="black" points="183.86,-320.4 183.86,-351.2 456.19,-351.2 456.19,-320.4 183.86,-320.4"/>
<text text-anchor="start" x="190.86" y="-332.6" font-family="Arial" font-size="14.00">category </text>
<text text-anchor="start" x="248.45" y="-332.6" font-family="Arial" font-size="14.00" fill="#666666">[text]</text>
<polygon fill="none" stroke="black" points="183.86,-289.6 183.86,-320.4 456.19,-320.4 456.19,-289.6 183.86,-289.6"/>
<text text-anchor="start" x="190.86" y="-301.8" font-family="Arial" font-size="14.00">importance </text>
<text text-anchor="start" x="264.01" y="-301.8" font-family="Arial" font-size="14.00" fill="#666666">[double precision]</text>
<polygon fill="none" stroke="black" points="183.86,-258.8 183.86,-289.6 456.19,-289.6 456.19,-258.8 183.86,-258.8"/>
<text text-anchor="start" x="190.86" y="-271" font-family="Arial" font-size="14.00">created_at </text>
<text text-anchor="start" x="260.91" y="-271" font-family="Arial" font-size="14.00" fill="#666666">[timestamp with time zone]</text>
<polygon fill="none" stroke="black" points="183.86,-228 183.86,-258.8 456.19,-258.8 456.19,-228 183.86,-228"/>
<text text-anchor="start" x="190.86" y="-240.2" font-family="Arial" font-size="14.00">updated_at </text>
<text text-anchor="start" x="264.82" y="-240.2" font-family="Arial" font-size="14.00" fill="#666666">[timestamp with time zone]</text>
<polygon fill="none" stroke="black" points="183.86,-197.2 183.86,-228 456.19,-228 456.19,-197.2 183.86,-197.2"/>
<text text-anchor="start" x="190.86" y="-209.4" font-family="Arial" font-size="14.00">last_accessed </text>
<text text-anchor="start" x="283.47" y="-209.4" font-family="Arial" font-size="14.00" fill="#666666">[timestamp with time zone]</text>
<polygon fill="none" stroke="black" points="183.86,-166.4 183.86,-197.2 456.19,-197.2 456.19,-166.4 183.86,-166.4"/>
<text text-anchor="start" x="190.86" y="-178.6" font-family="Arial" font-size="14.00">token_count </text>
<text text-anchor="start" x="271.03" y="-178.6" font-family="Arial" font-size="14.00" fill="#666666">[integer]</text>
<polygon fill="none" stroke="black" points="183.86,-135.6 183.86,-166.4 456.19,-166.4 456.19,-135.6 183.86,-135.6"/>
<text text-anchor="start" x="190.86" y="-147.8" font-family="Arial" font-size="14.00">in_working_memory </text>
<text text-anchor="start" x="320.02" y="-147.8" font-family="Arial" font-size="14.00" fill="#666666">[boolean]</text>
<polygon fill="none" stroke="black" points="183.86,-104.8 183.86,-135.6 456.19,-135.6 456.19,-104.8 183.86,-104.8"/>
<text text-anchor="start" x="190.86" y="-117" font-family="Arial" font-size="14.00">robot_id </text>
<text text-anchor="start" x="245.34" y="-117" font-family="Arial" font-size="14.00" fill="#666666">[text]</text>
<polygon fill="none" stroke="black" points="183.86,-74 183.86,-104.8 456.19,-104.8 456.19,-74 183.86,-74"/>
<text text-anchor="start" x="190.86" y="-86.2" font-family="Arial" font-size="14.00">embedding </text>
<text text-anchor="start" x="264.03" y="-86.2" font-family="Arial" font-size="14.00" fill="#666666">[vector(2000)]</text>
<polygon fill="none" stroke="black" points="183.86,-43.2 183.86,-74 456.19,-74 456.19,-43.2 183.86,-43.2"/>
<text text-anchor="start" x="190.86" y="-55.4" font-family="Arial" font-size="14.00">embedding_dimension </text>
<text text-anchor="start" x="335.63" y="-55.4" font-family="Arial" font-size="14.00" fill="#666666">[integer]</text>
</g>
<!-- public.operations_log&#45;&gt;public.nodes -->
<g id="edge1" class="edge">
<title>public.operations_log:node_id&#45;&gt;public.nodes:id</title>
<path fill="none" stroke="black" d="M343.4,-711.33C302.1,-701.81 324.94,-630.74 354.55,-589.2 382.36,-550.17 428.33,-592.19 456.19,-553.2 480.54,-519.14 499.06,-459 457.19,-459"/>
<polygon fill="black" stroke="black" points="343.27,-711.32 352.74,-716.84 348.57,-711.88 352.88,-712.33 352.88,-712.33 352.88,-712.33 348.57,-711.88 353.68,-707.89 343.27,-711.32"/>
<text text-anchor="start" x="7" y="-722.4" font-family="Arial" font-size="10.00">FOREIGN KEY (node_id) REFERENCES nodes(id) ON DELETE CASCADE</text>
</g>
<!-- public.robots -->
<g id="node3" class="node">
<title>public.robots</title>
<polygon fill="#efefef" stroke="none" points="560.14,-335.8 560.14,-371.4 809.91,-371.4 809.91,-335.8 560.14,-335.8"/>
<polygon fill="none" stroke="black" points="560.14,-335.8 560.14,-371.4 809.91,-371.4 809.91,-335.8 560.14,-335.8"/>
<text text-anchor="start" x="575.54" y="-349.2" font-family="Arial Bold" font-size="18.00">public.robots</text>
<text text-anchor="start" x="670.03" y="-349.2" font-family="Arial" font-size="14.00">    </text>
<text text-anchor="start" x="701.14" y="-349.2" font-family="Arial" font-size="14.00" fill="#666666">[BASE TABLE]</text>
<polygon fill="none" stroke="black" points="560.14,-305 560.14,-335.8 809.91,-335.8 809.91,-305 560.14,-305"/>
<text text-anchor="start" x="567.14" y="-317.2" font-family="Arial" font-size="14.00">id </text>
<text text-anchor="start" x="581.93" y="-317.2" font-family="Arial" font-size="14.00" fill="#666666">[text]</text>
<polygon fill="none" stroke="black" points="560.14,-274.2 560.14,-305 809.91,-305 809.91,-274.2 560.14,-274.2"/>
<text text-anchor="start" x="567.14" y="-286.4" font-family="Arial" font-size="14.00">name </text>
<text text-anchor="start" x="606.05" y="-286.4" font-family="Arial" font-size="14.00" fill="#666666">[text]</text>
<polygon fill="none" stroke="black" points="560.14,-243.4 560.14,-274.2 809.91,-274.2 809.91,-243.4 560.14,-243.4"/>
<text text-anchor="start" x="567.14" y="-255.6" font-family="Arial" font-size="14.00">created_at </text>
<text text-anchor="start" x="637.19" y="-255.6" font-family="Arial" font-size="14.00" fill="#666666">[timestamp with time zone]</text>
<polygon fill="none" stroke="black" points="560.14,-212.6 560.14,-243.4 809.91,-243.4 809.91,-212.6 560.14,-212.6"/>
<text text-anchor="start" x="567.14" y="-224.8" font-family="Arial" font-size="14.00">last_active </text>
<text text-anchor="start" x="637.17" y="-224.8" font-family="Arial" font-size="14.00" fill="#666666">[timestamp with time zone]</text>
<polygon fill="none" stroke="black" points="560.14,-181.8 560.14,-212.6 809.91,-212.6 809.91,-181.8 560.14,-181.8"/>
<text text-anchor="start" x="567.14" y="-194" font-family="Arial" font-size="14.00">metadata </text>
<text text-anchor="start" x="629.4" y="-194" font-family="Arial" font-size="14.00" fill="#666666">[jsonb]</text>
</g>
<!-- public.operations_log&#45;&gt;public.robots -->
<g id="edge2" class="edge">
<title>public.operations_log:robot_id&#45;&gt;public.robots:id</title>
<path fill="none" stroke="black" d="M660.79,-681.06C797.41,-665.56 397.27,-320.4 559.14,-320.4"/>
<polygon fill="black" stroke="black" points="660.83,-681.06 650.61,-677.09 655.5,-681.34 651.17,-681.57 651.17,-681.57 651.17,-681.57 655.5,-681.34 651.08,-686.08 660.83,-681.06"/>
<text text-anchor="start" x="657.51" y="-691.6" font-family="Arial" font-size="10.00">FOREIGN KEY (robot_id) REFERENCES robots(id) ON DELETE CASCADE</text>
</g>
</g>
</svg>
