<?xml version="1.0" encoding="UTF-8" standalone="no"?>
<!DOCTYPE svg PUBLIC "-//W3C//DTD SVG 1.1//EN"
 "http://www.w3.org/Graphics/SVG/1.1/DTD/svg11.dtd">
<!-- Generated by graphviz version 12.1.2 (20240928.0832)
 -->
<!-- Title: public.node_tags Pages: 1 -->
<svg width="1460pt" height="1494pt"
 viewBox="0.00 0.00 1459.73 1493.60" xmlns="http://www.w3.org/2000/svg" xmlns:xlink="http://www.w3.org/1999/xlink">
<g id="graph0" class="graph" transform="scale(1 1) rotate(0) translate(4 1489.6)">
<title>public.node_tags</title>
<polygon fill="white" stroke="none" points="-4,4 -4,-1489.6 1455.73,-1489.6 1455.73,4 -4,4"/>
<!-- public.node_tags -->
<g id="node1" class="node">
<title>public.node_tags</title>
<polygon fill="#efefef" stroke="none" points="832.61,-1319.4 832.61,-1365.4 1301.83,-1365.4 1301.83,-1319.4 832.61,-1319.4"/>
<polygon fill="none" stroke="black" points="832.61,-1319.4 832.61,-1365.4 1301.83,-1365.4 1301.83,-1319.4 832.61,-1319.4"/>
<text text-anchor="start" x="943.74" y="-1343.2" font-family="Arial Bold" font-size="18.00">public.node_tags</text>
<text text-anchor="start" x="1066.21" y="-1343.2" font-family="Arial" font-size="14.00">    </text>
<text text-anchor="start" x="1097.33" y="-1343.2" font-family="Arial" font-size="14.00" fill="#666666">[BASE TABLE]</text>
<text text-anchor="start" x="906.13" y="-1328.8" font-family="Arial" font-size="14.00" fill="#333333">Join table connecting nodes to tags (many&#45;to&#45;many)</text>
<polygon fill="none" stroke="black" points="832.61,-1288.6 832.61,-1319.4 1301.83,-1319.4 1301.83,-1288.6 832.61,-1288.6"/>
<text text-anchor="start" x="839.61" y="-1300.8" font-family="Arial" font-size="14.00">created_at </text>
<text text-anchor="start" x="909.66" y="-1300.8" font-family="Arial" font-size="14.00" fill="#666666">[timestamp with time zone]</text>
<text text-anchor="start" x="1075.38" y="-1300.8" font-family="Arial" font-size="14.00"> When this association was created</text>
<polygon fill="none" stroke="black" points="832.61,-1257.8 832.61,-1288.6 1301.83,-1288.6 1301.83,-1257.8 832.61,-1257.8"/>
<text text-anchor="start" x="839.61" y="-1270" font-family="Arial" font-size="14.00">deleted_at </text>
<text text-anchor="start" x="908.9" y="-1270" font-family="Arial" font-size="14.00" fill="#666666">[timestamp with time zone]</text>
<text text-anchor="start" x="1074.62" y="-1270" font-family="Arial" font-size="14.00"> Soft delete timestamp</text>
<polygon fill="none" stroke="black" points="832.61,-1227 832.61,-1257.8 1301.83,-1257.8 1301.83,-1227 832.61,-1227"/>
<text text-anchor="start" x="839.61" y="-1239.2" font-family="Arial" font-size="14.00">id </text>
<text text-anchor="start" x="854.4" y="-1239.2" font-family="Arial" font-size="14.00" fill="#666666">[bigint]</text>
<polygon fill="none" stroke="black" points="832.61,-1196.2 832.61,-1227 1301.83,-1227 1301.83,-1196.2 832.61,-1196.2"/>
<text text-anchor="start" x="839.61" y="-1208.4" font-family="Arial" font-size="14.00">node_id </text>
<text text-anchor="start" x="893.33" y="-1208.4" font-family="Arial" font-size="14.00" fill="#666666">[bigint]</text>
<text text-anchor="start" x="934.58" y="-1208.4" font-family="Arial" font-size="14.00"> ID of the node being tagged</text>
<polygon fill="none" stroke="black" points="832.61,-1165.4 832.61,-1196.2 1301.83,-1196.2 1301.83,-1165.4 832.61,-1165.4"/>
<text text-anchor="start" x="839.61" y="-1177.6" font-family="Arial" font-size="14.00">tag_id </text>
<text text-anchor="start" x="881.65" y="-1177.6" font-family="Arial" font-size="14.00" fill="#666666">[bigint]</text>
<text text-anchor="start" x="922.9" y="-1177.6" font-family="Arial" font-size="14.00"> ID of the tag being applied</text>
<polygon fill="none" stroke="black" stroke-width="3" points="831.11,-1163.9 831.11,-1366.9 1303.33,-1366.9 1303.33,-1163.9 831.11,-1163.9"/>
</g>
<!-- public.nodes -->
<g id="node2" class="node">
<title>public.nodes</title>
<polygon fill="#efefef" stroke="none" points="43.2,-920 43.2,-966 699.24,-966 699.24,-920 43.2,-920"/>
<polygon fill="none" stroke="black" points="43.2,-920 43.2,-966 699.24,-966 699.24,-920 43.2,-920"/>
<text text-anchor="start" x="263.23" y="-943.8" font-family="Arial Bold" font-size="18.00">public.nodes</text>
<text text-anchor="start" x="354.72" y="-943.8" font-family="Arial" font-size="14.00">    </text>
<text text-anchor="start" x="385.83" y="-943.8" font-family="Arial" font-size="14.00" fill="#666666">[BASE TABLE]</text>
<text text-anchor="start" x="179.8" y="-929.4" font-family="Arial" font-size="14.00" fill="#333333">Core memory storage for conversation messages and context</text>
<polygon fill="none" stroke="black" points="43.2,-889.2 43.2,-920 699.24,-920 699.24,-889.2 43.2,-889.2"/>
<text text-anchor="start" x="50.2" y="-901.4" font-family="Arial" font-size="14.00">access_count </text>
<text text-anchor="start" x="139.7" y="-901.4" font-family="Arial" font-size="14.00" fill="#666666">[integer]</text>
<text text-anchor="start" x="190.28" y="-901.4" font-family="Arial" font-size="14.00"> Number of times this node has been accessed/retrieved</text>
<polygon fill="none" stroke="black" points="43.2,-858.4 43.2,-889.2 699.24,-889.2 699.24,-858.4 43.2,-858.4"/>
<text text-anchor="start" x="50.2" y="-870.6" font-family="Arial" font-size="14.00">chunk_position </text>
<text text-anchor="start" x="147.49" y="-870.6" font-family="Arial" font-size="14.00" fill="#666666">[integer]</text>
<text text-anchor="start" x="198.07" y="-870.6" font-family="Arial" font-size="14.00"> Position within source file (0&#45;indexed)</text>
<polygon fill="none" stroke="black" points="43.2,-827.6 43.2,-858.4 699.24,-858.4 699.24,-827.6 43.2,-827.6"/>
<text text-anchor="start" x="50.2" y="-839.8" font-family="Arial" font-size="14.00">content </text>
<text text-anchor="start" x="100.01" y="-839.8" font-family="Arial" font-size="14.00" fill="#666666">[text]</text>
<text text-anchor="start" x="130.36" y="-839.8" font-family="Arial" font-size="14.00"> The conversation message/utterance content</text>
<polygon fill="none" stroke="black" points="43.2,-796.8 43.2,-827.6 699.24,-827.6 699.24,-796.8 43.2,-796.8"/>
<text text-anchor="start" x="50.2" y="-809" font-family="Arial" font-size="14.00">content_hash </text>
<text text-anchor="start" x="138.16" y="-809" font-family="Arial" font-size="14.00" fill="#666666">[varchar(64)]</text>
<text text-anchor="start" x="217.52" y="-809" font-family="Arial" font-size="14.00"> SHA&#45;256 hash of content for deduplication</text>
<polygon fill="none" stroke="black" points="43.2,-766 43.2,-796.8 699.24,-796.8 699.24,-766 43.2,-766"/>
<text text-anchor="start" x="50.2" y="-778.2" font-family="Arial" font-size="14.00">created_at </text>
<text text-anchor="start" x="120.25" y="-778.2" font-family="Arial" font-size="14.00" fill="#666666">[timestamp with time zone]</text>
<text text-anchor="start" x="285.97" y="-778.2" font-family="Arial" font-size="14.00"> When this memory was created</text>
<polygon fill="none" stroke="black" points="43.2,-735.2 43.2,-766 699.24,-766 699.24,-735.2 43.2,-735.2"/>
<text text-anchor="start" x="50.2" y="-747.4" font-family="Arial" font-size="14.00">deleted_at </text>
<text text-anchor="start" x="119.48" y="-747.4" font-family="Arial" font-size="14.00" fill="#666666">[timestamp with time zone]</text>
<text text-anchor="start" x="285.21" y="-747.4" font-family="Arial" font-size="14.00"> Soft delete timestamp &#45; node is considered deleted when set</text>
<polygon fill="none" stroke="black" points="43.2,-704.4 43.2,-735.2 699.24,-735.2 699.24,-704.4 43.2,-704.4"/>
<text text-anchor="start" x="50.2" y="-716.6" font-family="Arial" font-size="14.00">embedding </text>
<text text-anchor="start" x="123.37" y="-716.6" font-family="Arial" font-size="14.00" fill="#666666">[vector(2000)]</text>
<text text-anchor="start" x="209.74" y="-716.6" font-family="Arial" font-size="14.00"> Vector embedding (max 2000 dimensions) for semantic search</text>
<polygon fill="none" stroke="black" points="43.2,-673.6 43.2,-704.4 699.24,-704.4 699.24,-673.6 43.2,-673.6"/>
<text text-anchor="start" x="50.2" y="-685.8" font-family="Arial" font-size="14.00">embedding_dimension </text>
<text text-anchor="start" x="194.96" y="-685.8" font-family="Arial" font-size="14.00" fill="#666666">[integer]</text>
<text text-anchor="start" x="245.55" y="-685.8" font-family="Arial" font-size="14.00"> Actual number of dimensions used in the embedding vector (max 2000)</text>
<polygon fill="none" stroke="black" points="43.2,-642.8 43.2,-673.6 699.24,-673.6 699.24,-642.8 43.2,-642.8"/>
<text text-anchor="start" x="50.2" y="-655" font-family="Arial" font-size="14.00">id </text>
<text text-anchor="start" x="64.99" y="-655" font-family="Arial" font-size="14.00" fill="#666666">[bigint]</text>
<polygon fill="none" stroke="black" points="43.2,-612 43.2,-642.8 699.24,-642.8 699.24,-612 43.2,-612"/>
<text text-anchor="start" x="50.2" y="-624.2" font-family="Arial" font-size="14.00">last_accessed </text>
<text text-anchor="start" x="142.81" y="-624.2" font-family="Arial" font-size="14.00" fill="#666666">[timestamp with time zone]</text>
<text text-anchor="start" x="308.53" y="-624.2" font-family="Arial" font-size="14.00"> When this memory was last accessed</text>
<polygon fill="none" stroke="black" points="43.2,-581.2 43.2,-612 699.24,-612 699.24,-581.2 43.2,-581.2"/>
<text text-anchor="start" x="50.2" y="-593.4" font-family="Arial" font-size="14.00">metadata </text>
<text text-anchor="start" x="112.46" y="-593.4" font-family="Arial" font-size="14.00" fill="#666666">[jsonb]</text>
<text text-anchor="start" x="153.71" y="-593.4" font-family="Arial" font-size="14.00"> Flexible metadata storage (memory_type, importance, source, etc.)</text>
<polygon fill="none" stroke="black" points="43.2,-550.4 43.2,-581.2 699.24,-581.2 699.24,-550.4 43.2,-550.4"/>
<text text-anchor="start" x="50.2" y="-562.6" font-family="Arial" font-size="14.00">source_id </text>
<text text-anchor="start" x="114.79" y="-562.6" font-family="Arial" font-size="14.00" fill="#666666">[bigint]</text>
<text text-anchor="start" x="156.04" y="-562.6" font-family="Arial" font-size="14.00"> Reference to source file (for file&#45;loaded nodes)</text>
<polygon fill="none" stroke="black" points="43.2,-519.6 43.2,-550.4 699.24,-550.4 699.24,-519.6 43.2,-519.6"/>
<text text-anchor="start" x="50.2" y="-531.8" font-family="Arial" font-size="14.00">token_count </text>
<text text-anchor="start" x="130.37" y="-531.8" font-family="Arial" font-size="14.00" fill="#666666">[integer]</text>
<text text-anchor="start" x="180.96" y="-531.8" font-family="Arial" font-size="14.00"> Number of tokens in the content (for context budget management)</text>
<polygon fill="none" stroke="black" points="43.2,-488.8 43.2,-519.6 699.24,-519.6 699.24,-488.8 43.2,-488.8"/>
<text text-anchor="start" x="50.2" y="-501" font-family="Arial" font-size="14.00">updated_at </text>
<text text-anchor="start" x="124.16" y="-501" font-family="Arial" font-size="14.00" fill="#666666">[timestamp with time zone]</text>
<text text-anchor="start" x="289.88" y="-501" font-family="Arial" font-size="14.00"> When this memory was last modified</text>
</g>
<!-- public.node_tags&#45;&gt;public.nodes -->
<g id="edge1" class="edge">
<title>public.node_tags:node_id&#45;&gt;public.nodes:id</title>
<path fill="none" stroke="black" d="M821.4,-1211.16C737.8,-1203.54 775.28,-1099.24 751.22,-1009.2 730.87,-933.05 779.06,-658.2 700.24,-658.2"/>
<polygon fill="black" stroke="black" points="821.29,-1211.15 831.08,-1216.08 826.62,-1211.38 830.94,-1211.57 830.94,-1211.57 830.94,-1211.57 826.62,-1211.38 831.47,-1207.09 821.29,-1211.15"/>
<text text-anchor="start" x="573.45" y="-1195.6" font-family="Arial" font-size="10.00">FOREIGN KEY (node_id) REFERENCES nodes(id) ON DELETE CASCADE</text>
</g>
<!-- public.tags -->
<g id="node5" class="node">
<title>public.tags</title>
<polygon fill="#efefef" stroke="none" points="803.91,-766 803.91,-812 1408.53,-812 1408.53,-766 803.91,-766"/>
<polygon fill="none" stroke="black" points="803.91,-766 803.91,-812 1408.53,-812 1408.53,-766 803.91,-766"/>
<text text-anchor="start" x="1004.73" y="-789.8" font-family="Arial Bold" font-size="18.00">public.tags</text>
<text text-anchor="start" x="1083.22" y="-789.8" font-family="Arial" font-size="14.00">    </text>
<text text-anchor="start" x="1114.33" y="-789.8" font-family="Arial" font-size="14.00" fill="#666666">[BASE TABLE]</text>
<text text-anchor="start" x="993.76" y="-775.4" font-family="Arial" font-size="14.00" fill="#333333">Unique tag names for categorization</text>
<polygon fill="none" stroke="black" points="803.91,-735.2 803.91,-766 1408.53,-766 1408.53,-735.2 803.91,-735.2"/>
<text text-anchor="start" x="810.91" y="-747.4" font-family="Arial" font-size="14.00">created_at </text>
<text text-anchor="start" x="880.95" y="-747.4" font-family="Arial" font-size="14.00" fill="#666666">[timestamp with time zone]</text>
<text text-anchor="start" x="1046.68" y="-747.4" font-family="Arial" font-size="14.00"> When this tag was created</text>
<polygon fill="none" stroke="black" points="803.91,-704.4 803.91,-735.2 1408.53,-735.2 1408.53,-704.4 803.91,-704.4"/>
<text text-anchor="start" x="810.91" y="-716.6" font-family="Arial" font-size="14.00">deleted_at </text>
<text text-anchor="start" x="880.19" y="-716.6" font-family="Arial" font-size="14.00" fill="#666666">[timestamp with time zone]</text>
<text text-anchor="start" x="1045.91" y="-716.6" font-family="Arial" font-size="14.00"> Soft delete timestamp</text>
<polygon fill="none" stroke="black" points="803.91,-673.6 803.91,-704.4 1408.53,-704.4 1408.53,-673.6 803.91,-673.6"/>
<text text-anchor="start" x="810.91" y="-685.8" font-family="Arial" font-size="14.00">id </text>
<text text-anchor="start" x="825.69" y="-685.8" font-family="Arial" font-size="14.00" fill="#666666">[bigint]</text>
<polygon fill="none" stroke="black" points="803.91,-642.8 803.91,-673.6 1408.53,-673.6 1408.53,-642.8 803.91,-642.8"/>
<text text-anchor="start" x="810.91" y="-655" font-family="Arial" font-size="14.00">name </text>
<text text-anchor="start" x="849.82" y="-655" font-family="Arial" font-size="14.00" fill="#666666">[text]</text>
<text text-anchor="start" x="880.16" y="-655" font-family="Arial" font-size="14.00"> Hierarchical tag in format: root:level1:level2 (e.g., database:postgresql:timescaledb)</text>
</g>
<!-- public.node_tags&#45;&gt;public.tags -->
<g id="edge4" class="edge">
<title>public.node_tags:tag_id&#45;&gt;public.tags:id</title>
<path fill="none" stroke="black" d="M1066.99,-1154.07C1059.44,-985.4 865.54,-1021.1 803.91,-855.2 778.18,-785.96 729.04,-689 802.91,-689"/>
<polygon fill="black" stroke="black" points="1066.99,-1154.07 1062.71,-1164.16 1067.11,-1159.4 1067.2,-1163.73 1067.2,-1163.73 1067.2,-1163.73 1067.11,-1159.4 1071.71,-1163.97 1066.99,-1154.07"/>
<text text-anchor="start" x="1074.22" y="-1174.4" font-family="Arial" font-size="10.00">FOREIGN KEY (tag_id) REFERENCES tags(id) ON DELETE CASCADE</text>
</g>
<!-- public.file_sources -->
<g id="node4" class="node">
<title>public.file_sources</title>
<polygon fill="#efefef" stroke="none" points="125.35,-320.4 125.35,-366.4 617.09,-366.4 617.09,-320.4 125.35,-320.4"/>
<polygon fill="none" stroke="black" points="125.35,-320.4 125.35,-366.4 617.09,-366.4 617.09,-320.4 125.35,-320.4"/>
<text text-anchor="start" x="240.74" y="-344.2" font-family="Arial Bold" font-size="18.00">public.file_sources</text>
<text text-anchor="start" x="377.2" y="-344.2" font-family="Arial" font-size="14.00">    </text>
<text text-anchor="start" x="408.32" y="-344.2" font-family="Arial" font-size="14.00" fill="#666666">[BASE TABLE]</text>
<text text-anchor="start" x="237.75" y="-329.8" font-family="Arial" font-size="14.00" fill="#333333">Source file metadata for loaded documents</text>
<polygon fill="none" stroke="black" points="125.35,-289.6 125.35,-320.4 617.09,-320.4 617.09,-289.6 125.35,-289.6"/>
<text text-anchor="start" x="132.35" y="-301.8" font-family="Arial" font-size="14.00">created_at </text>
<text text-anchor="start" x="202.4" y="-301.8" font-family="Arial" font-size="14.00" fill="#666666">[timestamp with time zone]</text>
<polygon fill="none" stroke="black" points="125.35,-258.8 125.35,-289.6 617.09,-289.6 617.09,-258.8 125.35,-258.8"/>
<text text-anchor="start" x="132.35" y="-271" font-family="Arial" font-size="14.00">file_hash </text>
<text text-anchor="start" x="192.28" y="-271" font-family="Arial" font-size="14.00" fill="#666666">[varchar(64)]</text>
<text text-anchor="start" x="271.64" y="-271" font-family="Arial" font-size="14.00"> SHA&#45;256 hash of file content</text>
<polygon fill="none" stroke="black" points="125.35,-228 125.35,-258.8 617.09,-258.8 617.09,-228 125.35,-228"/>
<text text-anchor="start" x="132.35" y="-240.2" font-family="Arial" font-size="14.00">file_path </text>
<text text-anchor="start" x="189.17" y="-240.2" font-family="Arial" font-size="14.00" fill="#666666">[text]</text>
<text text-anchor="start" x="219.51" y="-240.2" font-family="Arial" font-size="14.00"> Absolute path to source file</text>
<polygon fill="none" stroke="black" points="125.35,-197.2 125.35,-228 617.09,-228 617.09,-197.2 125.35,-197.2"/>
<text text-anchor="start" x="132.35" y="-209.4" font-family="Arial" font-size="14.00">file_size </text>
<text text-anchor="start" x="186.82" y="-209.4" font-family="Arial" font-size="14.00" fill="#666666">[integer]</text>
<text text-anchor="start" x="237.4" y="-209.4" font-family="Arial" font-size="14.00"> File size in bytes</text>
<polygon fill="none" stroke="black" points="125.35,-166.4 125.35,-197.2 617.09,-197.2 617.09,-166.4 125.35,-166.4"/>
<text text-anchor="start" x="132.35" y="-178.6" font-family="Arial" font-size="14.00">frontmatter </text>
<text text-anchor="start" x="203.93" y="-178.6" font-family="Arial" font-size="14.00" fill="#666666">[jsonb]</text>
<text text-anchor="start" x="245.17" y="-178.6" font-family="Arial" font-size="14.00"> Parsed YAML frontmatter</text>
<polygon fill="none" stroke="black" points="125.35,-135.6 125.35,-166.4 617.09,-166.4 617.09,-135.6 125.35,-135.6"/>
<text text-anchor="start" x="132.35" y="-147.8" font-family="Arial" font-size="14.00">id </text>
<text text-anchor="start" x="147.13" y="-147.8" font-family="Arial" font-size="14.00" fill="#666666">[bigint]</text>
<polygon fill="none" stroke="black" points="125.35,-104.8 125.35,-135.6 617.09,-135.6 617.09,-104.8 125.35,-104.8"/>
<text text-anchor="start" x="132.35" y="-117" font-family="Arial" font-size="14.00">last_synced_at </text>
<text text-anchor="start" x="229.63" y="-117" font-family="Arial" font-size="14.00" fill="#666666">[timestamp with time zone]</text>
<text text-anchor="start" x="395.35" y="-117" font-family="Arial" font-size="14.00"> When file was last synced to HTM</text>
<polygon fill="none" stroke="black" points="125.35,-74 125.35,-104.8 617.09,-104.8 617.09,-74 125.35,-74"/>
<text text-anchor="start" x="132.35" y="-86.2" font-family="Arial" font-size="14.00">mtime </text>
<text text-anchor="start" x="174.35" y="-86.2" font-family="Arial" font-size="14.00" fill="#666666">[timestamp with time zone]</text>
<text text-anchor="start" x="340.07" y="-86.2" font-family="Arial" font-size="14.00"> File modification time</text>
<polygon fill="none" stroke="black" points="125.35,-43.2 125.35,-74 617.09,-74 617.09,-43.2 125.35,-43.2"/>
<text text-anchor="start" x="132.35" y="-55.4" font-family="Arial" font-size="14.00">updated_at </text>
<text text-anchor="start" x="206.31" y="-55.4" font-family="Arial" font-size="14.00" fill="#666666">[timestamp with time zone]</text>
</g>
<!-- public.nodes&#45;&gt;public.file_sources -->
<g id="edge3" class="edge">
<title>public.nodes:source_id&#45;&gt;public.file_sources:id</title>
<path fill="none" stroke="black" d="M710.45,-563.95C787.77,-534.03 708.39,-151 618.09,-151"/>
<polygon fill="black" stroke="black" points="710.41,-563.96 699.77,-561.31 705.16,-564.91 700.9,-565.68 700.9,-565.68 700.9,-565.68 705.16,-564.91 701.37,-570.17 710.41,-563.96"/>
<text text-anchor="start" x="707.24" y="-575.8" font-family="Arial" font-size="10.00">FOREIGN KEY (source_id) REFERENCES file_sources(id) ON DELETE SET NULL</text>
</g>
<!-- public.robot_nodes -->
<g id="node3" class="node">
<title>public.robot_nodes</title>
<polygon fill="#efefef" stroke="none" points="56.48,-1396.4 56.48,-1442.4 685.96,-1442.4 685.96,-1396.4 56.48,-1396.4"/>
<polygon fill="none" stroke="black" points="56.48,-1396.4 56.48,-1442.4 685.96,-1442.4 685.96,-1396.4 56.48,-1396.4"/>
<text text-anchor="start" x="239.73" y="-1420.2" font-family="Arial Bold" font-size="18.00">public.robot_nodes</text>
<text text-anchor="start" x="378.21" y="-1420.2" font-family="Arial" font-size="14.00">    </text>
<text text-anchor="start" x="409.33" y="-1420.2" font-family="Arial" font-size="14.00" fill="#666666">[BASE TABLE]</text>
<text text-anchor="start" x="203.91" y="-1405.8" font-family="Arial" font-size="14.00" fill="#333333">Join table connecting robots to nodes (many&#45;to&#45;many)</text>
<polygon fill="none" stroke="black" points="56.48,-1365.6 56.48,-1396.4 685.96,-1396.4 685.96,-1365.6 56.48,-1365.6"/>
<text text-anchor="start" x="63.48" y="-1377.8" font-family="Arial" font-size="14.00">created_at </text>
<text text-anchor="start" x="133.52" y="-1377.8" font-family="Arial" font-size="14.00" fill="#666666">[timestamp with time zone]</text>
<polygon fill="none" stroke="black" points="56.48,-1334.8 56.48,-1365.6 685.96,-1365.6 685.96,-1334.8 56.48,-1334.8"/>
<text text-anchor="start" x="63.48" y="-1347" font-family="Arial" font-size="14.00">deleted_at </text>
<text text-anchor="start" x="132.76" y="-1347" font-family="Arial" font-size="14.00" fill="#666666">[timestamp with time zone]</text>
<text text-anchor="start" x="298.48" y="-1347" font-family="Arial" font-size="14.00"> Soft delete timestamp</text>
<polygon fill="none" stroke="black" points="56.48,-1304 56.48,-1334.8 685.96,-1334.8 685.96,-1304 56.48,-1304"/>
<text text-anchor="start" x="63.48" y="-1316.2" font-family="Arial" font-size="14.00">first_remembered_at </text>
<text text-anchor="start" x="196.53" y="-1316.2" font-family="Arial" font-size="14.00" fill="#666666">[timestamp with time zone]</text>
<text text-anchor="start" x="362.25" y="-1316.2" font-family="Arial" font-size="14.00"> When this robot first remembered this content</text>
<polygon fill="none" stroke="black" points="56.48,-1273.2 56.48,-1304 685.96,-1304 685.96,-1273.2 56.48,-1273.2"/>
<text text-anchor="start" x="63.48" y="-1285.4" font-family="Arial" font-size="14.00">id </text>
<text text-anchor="start" x="78.26" y="-1285.4" font-family="Arial" font-size="14.00" fill="#666666">[bigint]</text>
<polygon fill="none" stroke="black" points="56.48,-1242.4 56.48,-1273.2 685.96,-1273.2 685.96,-1242.4 56.48,-1242.4"/>
<text text-anchor="start" x="63.48" y="-1254.6" font-family="Arial" font-size="14.00">last_remembered_at </text>
<text text-anchor="start" x="195.76" y="-1254.6" font-family="Arial" font-size="14.00" fill="#666666">[timestamp with time zone]</text>
<text text-anchor="start" x="361.49" y="-1254.6" font-family="Arial" font-size="14.00"> When this robot last tried to remember this content</text>
<polygon fill="none" stroke="black" points="56.48,-1211.6 56.48,-1242.4 685.96,-1242.4 685.96,-1211.6 56.48,-1211.6"/>
<text text-anchor="start" x="63.48" y="-1223.8" font-family="Arial" font-size="14.00">node_id </text>
<text text-anchor="start" x="117.19" y="-1223.8" font-family="Arial" font-size="14.00" fill="#666666">[bigint]</text>
<text text-anchor="start" x="158.44" y="-1223.8" font-family="Arial" font-size="14.00"> ID of the node being remembered</text>
<polygon fill="none" stroke="black" points="56.48,-1180.8 56.48,-1211.6 685.96,-1211.6 685.96,-1180.8 56.48,-1180.8"/>
<text text-anchor="start" x="63.48" y="-1193" font-family="Arial" font-size="14.00">remember_count </text>
<text text-anchor="start" x="173.19" y="-1193" font-family="Arial" font-size="14.00" fill="#666666">[integer]</text>
<text text-anchor="start" x="223.78" y="-1193" font-family="Arial" font-size="14.00"> Number of times this robot has tried to remember this content</text>
<polygon fill="none" stroke="black" points="56.48,-1150 56.48,-1180.8 685.96,-1180.8 685.96,-1150 56.48,-1150"/>
<text text-anchor="start" x="63.48" y="-1162.2" font-family="Arial" font-size="14.00">robot_id </text>
<text text-anchor="start" x="117.96" y="-1162.2" font-family="Arial" font-size="14.00" fill="#666666">[bigint]</text>
<text text-anchor="start" x="159.21" y="-1162.2" font-family="Arial" font-size="14.00"> ID of the robot that remembered this node</text>
<polygon fill="none" stroke="black" points="56.48,-1119.2 56.48,-1150 685.96,-1150 685.96,-1119.2 56.48,-1119.2"/>
<text text-anchor="start" x="63.48" y="-1131.4" font-family="Arial" font-size="14.00">updated_at </text>
<text text-anchor="start" x="137.43" y="-1131.4" font-family="Arial" font-size="14.00" fill="#666666">[timestamp with time zone]</text>
<polygon fill="none" stroke="black" points="56.48,-1088.4 56.48,-1119.2 685.96,-1119.2 685.96,-1088.4 56.48,-1088.4"/>
<text text-anchor="start" x="63.48" y="-1100.6" font-family="Arial" font-size="14.00">working_memory </text>
<text text-anchor="start" x="173.95" y="-1100.6" font-family="Arial" font-size="14.00" fill="#666666">[boolean]</text>
<text text-anchor="start" x="231.56" y="-1100.6" font-family="Arial" font-size="14.00"> True if this node is currently in the robot working memory</text>
</g>
<!-- public.robot_nodes&#45;&gt;public.nodes -->
<g id="edge2" class="edge">
<title>public.robot_nodes:node_id&#45;&gt;public.nodes:id</title>
<path fill="none" stroke="black" d="M696.2,-1222.75C751.33,-1170.7 760.25,-658.2 700.24,-658.2"/>
<polygon fill="black" stroke="black" points="696.35,-1222.68 685.39,-1222.77 691.51,-1224.91 687.57,-1226.72 687.57,-1226.72 687.57,-1226.72 691.51,-1224.91 689.15,-1230.95 696.35,-1222.68"/>
<text text-anchor="start" x="340.42" y="-1237" font-family="Arial" font-size="10.00">FOREIGN KEY (node_id) REFERENCES nodes(id) ON DELETE CASCADE</text>
</g>
</g>
</svg>
