<?xml version="1.0" encoding="UTF-8" standalone="no"?>
<!DOCTYPE svg PUBLIC "-//W3C//DTD SVG 1.1//EN"
 "http://www.w3.org/Graphics/SVG/1.1/DTD/svg11.dtd">
<!-- Generated by graphviz version 12.1.2 (20240928.0832)
 -->
<!-- Title: public.robot_nodes Pages: 1 -->
<svg width="2229pt" height="900pt"
 viewBox="0.00 0.00 2229.19 900.00" xmlns="http://www.w3.org/2000/svg" xmlns:xlink="http://www.w3.org/1999/xlink">
<g id="graph0" class="graph" transform="scale(1 1) rotate(0) translate(4 896)">
<title>public.robot_nodes</title>
<polygon fill="white" stroke="none" points="-4,4 -4,-896 2225.19,-896 2225.19,4 -4,4"/>
<!-- public.robot_nodes -->
<g id="node1" class="node">
<title>public.robot_nodes</title>
<polygon fill="#efefef" stroke="none" points="1236.06,-799.8 1236.06,-845.8 1865.55,-845.8 1865.55,-799.8 1236.06,-799.8"/>
<polygon fill="none" stroke="black" points="1236.06,-799.8 1236.06,-845.8 1865.55,-845.8 1865.55,-799.8 1236.06,-799.8"/>
<text text-anchor="start" x="1419.32" y="-823.6" font-family="Arial Bold" font-size="18.00">public.robot_nodes</text>
<text text-anchor="start" x="1557.8" y="-823.6" font-family="Arial" font-size="14.00">    </text>
<text text-anchor="start" x="1588.92" y="-823.6" font-family="Arial" font-size="14.00" fill="#666666">[BASE TABLE]</text>
<text text-anchor="start" x="1383.5" y="-809.2" font-family="Arial" font-size="14.00" fill="#333333">Join table connecting robots to nodes (many&#45;to&#45;many)</text>
<polygon fill="none" stroke="black" points="1236.06,-769 1236.06,-799.8 1865.55,-799.8 1865.55,-769 1236.06,-769"/>
<text text-anchor="start" x="1243.06" y="-781.2" font-family="Arial" font-size="14.00">created_at </text>
<text text-anchor="start" x="1313.11" y="-781.2" font-family="Arial" font-size="14.00" fill="#666666">[timestamp with time zone]</text>
<polygon fill="none" stroke="black" points="1236.06,-738.2 1236.06,-769 1865.55,-769 1865.55,-738.2 1236.06,-738.2"/>
<text text-anchor="start" x="1243.06" y="-750.4" font-family="Arial" font-size="14.00">first_remembered_at </text>
<text text-anchor="start" x="1376.12" y="-750.4" font-family="Arial" font-size="14.00" fill="#666666">[timestamp with time zone]</text>
<text text-anchor="start" x="1541.84" y="-750.4" font-family="Arial" font-size="14.00"> When this robot first remembered this content</text>
<polygon fill="none" stroke="black" points="1236.06,-707.4 1236.06,-738.2 1865.55,-738.2 1865.55,-707.4 1236.06,-707.4"/>
<text text-anchor="start" x="1243.06" y="-719.6" font-family="Arial" font-size="14.00">id </text>
<text text-anchor="start" x="1257.85" y="-719.6" font-family="Arial" font-size="14.00" fill="#666666">[bigint]</text>
<polygon fill="none" stroke="black" points="1236.06,-676.6 1236.06,-707.4 1865.55,-707.4 1865.55,-676.6 1236.06,-676.6"/>
<text text-anchor="start" x="1243.06" y="-688.8" font-family="Arial" font-size="14.00">last_remembered_at </text>
<text text-anchor="start" x="1375.35" y="-688.8" font-family="Arial" font-size="14.00" fill="#666666">[timestamp with time zone]</text>
<text text-anchor="start" x="1541.08" y="-688.8" font-family="Arial" font-size="14.00"> When this robot last tried to remember this content</text>
<polygon fill="none" stroke="black" points="1236.06,-645.8 1236.06,-676.6 1865.55,-676.6 1865.55,-645.8 1236.06,-645.8"/>
<text text-anchor="start" x="1243.06" y="-658" font-family="Arial" font-size="14.00">node_id </text>
<text text-anchor="start" x="1296.78" y="-658" font-family="Arial" font-size="14.00" fill="#666666">[bigint]</text>
<text text-anchor="start" x="1338.03" y="-658" font-family="Arial" font-size="14.00"> ID of the node being remembered</text>
<polygon fill="none" stroke="black" points="1236.06,-615 1236.06,-645.8 1865.55,-645.8 1865.55,-615 1236.06,-615"/>
<text text-anchor="start" x="1243.06" y="-627.2" font-family="Arial" font-size="14.00">remember_count </text>
<text text-anchor="start" x="1352.78" y="-627.2" font-family="Arial" font-size="14.00" fill="#666666">[integer]</text>
<text text-anchor="start" x="1403.37" y="-627.2" font-family="Arial" font-size="14.00"> Number of times this robot has tried to remember this content</text>
<polygon fill="none" stroke="black" points="1236.06,-584.2 1236.06,-615 1865.55,-615 1865.55,-584.2 1236.06,-584.2"/>
<text text-anchor="start" x="1243.06" y="-596.4" font-family="Arial" font-size="14.00">robot_id </text>
<text text-anchor="start" x="1297.54" y="-596.4" font-family="Arial" font-size="14.00" fill="#666666">[bigint]</text>
<text text-anchor="start" x="1338.79" y="-596.4" font-family="Arial" font-size="14.00"> ID of the robot that remembered this node</text>
<polygon fill="none" stroke="black" points="1236.06,-553.4 1236.06,-584.2 1865.55,-584.2 1865.55,-553.4 1236.06,-553.4"/>
<text text-anchor="start" x="1243.06" y="-565.6" font-family="Arial" font-size="14.00">updated_at </text>
<text text-anchor="start" x="1317.02" y="-565.6" font-family="Arial" font-size="14.00" fill="#666666">[timestamp with time zone]</text>
<polygon fill="none" stroke="black" stroke-width="3" points="1234.56,-551.9 1234.56,-847.3 1867.05,-847.3 1867.05,-551.9 1234.56,-551.9"/>
</g>
<!-- public.nodes -->
<g id="node2" class="node">
<title>public.nodes</title>
<polygon fill="#efefef" stroke="none" points="537.79,-382 537.79,-428 1193.83,-428 1193.83,-382 537.79,-382"/>
<polygon fill="none" stroke="black" points="537.79,-382 537.79,-428 1193.83,-428 1193.83,-382 537.79,-382"/>
<text text-anchor="start" x="757.82" y="-405.8" font-family="Arial Bold" font-size="18.00">public.nodes</text>
<text text-anchor="start" x="849.3" y="-405.8" font-family="Arial" font-size="14.00">    </text>
<text text-anchor="start" x="880.42" y="-405.8" font-family="Arial" font-size="14.00" fill="#666666">[BASE TABLE]</text>
<text text-anchor="start" x="674.38" y="-391.4" font-family="Arial" font-size="14.00" fill="#333333">Core memory storage for conversation messages and context</text>
<polygon fill="none" stroke="black" points="537.79,-351.2 537.79,-382 1193.83,-382 1193.83,-351.2 537.79,-351.2"/>
<text text-anchor="start" x="544.79" y="-363.4" font-family="Arial" font-size="14.00">access_count </text>
<text text-anchor="start" x="634.28" y="-363.4" font-family="Arial" font-size="14.00" fill="#666666">[integer]</text>
<text text-anchor="start" x="684.87" y="-363.4" font-family="Arial" font-size="14.00"> Number of times this node has been accessed/retrieved</text>
<polygon fill="none" stroke="black" points="537.79,-320.4 537.79,-351.2 1193.83,-351.2 1193.83,-320.4 537.79,-320.4"/>
<text text-anchor="start" x="544.79" y="-332.6" font-family="Arial" font-size="14.00">content </text>
<text text-anchor="start" x="594.6" y="-332.6" font-family="Arial" font-size="14.00" fill="#666666">[text]</text>
<text text-anchor="start" x="624.95" y="-332.6" font-family="Arial" font-size="14.00"> The conversation message/utterance content</text>
<polygon fill="none" stroke="black" points="537.79,-289.6 537.79,-320.4 1193.83,-320.4 1193.83,-289.6 537.79,-289.6"/>
<text text-anchor="start" x="544.79" y="-301.8" font-family="Arial" font-size="14.00">content_hash </text>
<text text-anchor="start" x="632.74" y="-301.8" font-family="Arial" font-size="14.00" fill="#666666">[varchar(64)]</text>
<text text-anchor="start" x="712.1" y="-301.8" font-family="Arial" font-size="14.00"> SHA&#45;256 hash of content for deduplication</text>
<polygon fill="none" stroke="black" points="537.79,-258.8 537.79,-289.6 1193.83,-289.6 1193.83,-258.8 537.79,-258.8"/>
<text text-anchor="start" x="544.79" y="-271" font-family="Arial" font-size="14.00">created_at </text>
<text text-anchor="start" x="614.83" y="-271" font-family="Arial" font-size="14.00" fill="#666666">[timestamp with time zone]</text>
<text text-anchor="start" x="780.56" y="-271" font-family="Arial" font-size="14.00"> When this memory was created</text>
<polygon fill="none" stroke="black" points="537.79,-228 537.79,-258.8 1193.83,-258.8 1193.83,-228 537.79,-228"/>
<text text-anchor="start" x="544.79" y="-240.2" font-family="Arial" font-size="14.00">deleted_at </text>
<text text-anchor="start" x="614.07" y="-240.2" font-family="Arial" font-size="14.00" fill="#666666">[timestamp with time zone]</text>
<text text-anchor="start" x="779.79" y="-240.2" font-family="Arial" font-size="14.00"> Soft delete timestamp &#45; node is considered deleted when set</text>
<polygon fill="none" stroke="black" points="537.79,-197.2 537.79,-228 1193.83,-228 1193.83,-197.2 537.79,-197.2"/>
<text text-anchor="start" x="544.79" y="-209.4" font-family="Arial" font-size="14.00">embedding </text>
<text text-anchor="start" x="617.95" y="-209.4" font-family="Arial" font-size="14.00" fill="#666666">[vector(2000)]</text>
<text text-anchor="start" x="704.32" y="-209.4" font-family="Arial" font-size="14.00"> Vector embedding (max 2000 dimensions) for semantic search</text>
<polygon fill="none" stroke="black" points="537.79,-166.4 537.79,-197.2 1193.83,-197.2 1193.83,-166.4 537.79,-166.4"/>
<text text-anchor="start" x="544.79" y="-178.6" font-family="Arial" font-size="14.00">embedding_dimension </text>
<text text-anchor="start" x="689.55" y="-178.6" font-family="Arial" font-size="14.00" fill="#666666">[integer]</text>
<text text-anchor="start" x="740.14" y="-178.6" font-family="Arial" font-size="14.00"> Actual number of dimensions used in the embedding vector (max 2000)</text>
<polygon fill="none" stroke="black" points="537.79,-135.6 537.79,-166.4 1193.83,-166.4 1193.83,-135.6 537.79,-135.6"/>
<text text-anchor="start" x="544.79" y="-147.8" font-family="Arial" font-size="14.00">id </text>
<text text-anchor="start" x="559.57" y="-147.8" font-family="Arial" font-size="14.00" fill="#666666">[bigint]</text>
<polygon fill="none" stroke="black" points="537.79,-104.8 537.79,-135.6 1193.83,-135.6 1193.83,-104.8 537.79,-104.8"/>
<text text-anchor="start" x="544.79" y="-117" font-family="Arial" font-size="14.00">last_accessed </text>
<text text-anchor="start" x="637.39" y="-117" font-family="Arial" font-size="14.00" fill="#666666">[timestamp with time zone]</text>
<text text-anchor="start" x="803.12" y="-117" font-family="Arial" font-size="14.00"> When this memory was last accessed</text>
<polygon fill="none" stroke="black" points="537.79,-74 537.79,-104.8 1193.83,-104.8 1193.83,-74 537.79,-74"/>
<text text-anchor="start" x="544.79" y="-86.2" font-family="Arial" font-size="14.00">token_count </text>
<text text-anchor="start" x="624.96" y="-86.2" font-family="Arial" font-size="14.00" fill="#666666">[integer]</text>
<text text-anchor="start" x="675.54" y="-86.2" font-family="Arial" font-size="14.00"> Number of tokens in the content (for context budget management)</text>
<polygon fill="none" stroke="black" points="537.79,-43.2 537.79,-74 1193.83,-74 1193.83,-43.2 537.79,-43.2"/>
<text text-anchor="start" x="544.79" y="-55.4" font-family="Arial" font-size="14.00">updated_at </text>
<text text-anchor="start" x="618.74" y="-55.4" font-family="Arial" font-size="14.00" fill="#666666">[timestamp with time zone]</text>
<text text-anchor="start" x="784.47" y="-55.4" font-family="Arial" font-size="14.00"> When this memory was last modified</text>
</g>
<!-- public.robot_nodes&#45;&gt;public.nodes -->
<g id="edge1" class="edge">
<title>public.robot_nodes:node_id&#45;&gt;public.nodes:id</title>
<path fill="none" stroke="black" d="M1224.98,-659.64C1133.09,-628.85 1304.89,-151 1194.83,-151"/>
<polygon fill="black" stroke="black" points="1224.85,-659.62 1234.05,-665.6 1230.12,-660.44 1234.4,-661.1 1234.4,-661.1 1234.4,-661.1 1230.12,-660.44 1235.42,-656.7 1224.85,-659.62"/>
<text text-anchor="start" x="976.9" y="-645.2" font-family="Arial" font-size="10.00">FOREIGN KEY (node_id) REFERENCES nodes(id) ON DELETE CASCADE</text>
</g>
<!-- public.robots -->
<g id="node5" class="node">
<title>public.robots</title>
<polygon fill="#efefef" stroke="none" points="1298.7,-274.2 1298.7,-320.2 1802.91,-320.2 1802.91,-274.2 1298.7,-274.2"/>
<polygon fill="none" stroke="black" points="1298.7,-274.2 1298.7,-320.2 1802.91,-320.2 1802.91,-274.2 1298.7,-274.2"/>
<text text-anchor="start" x="1441.32" y="-298" font-family="Arial Bold" font-size="18.00">public.robots</text>
<text text-anchor="start" x="1535.81" y="-298" font-family="Arial" font-size="14.00">    </text>
<text text-anchor="start" x="1566.92" y="-298" font-family="Arial" font-size="14.00" fill="#666666">[BASE TABLE]</text>
<text text-anchor="start" x="1399.87" y="-283.6" font-family="Arial" font-size="14.00" fill="#333333">Registry of all LLM robots using the HTM system</text>
<polygon fill="none" stroke="black" points="1298.7,-243.4 1298.7,-274.2 1802.91,-274.2 1802.91,-243.4 1298.7,-243.4"/>
<text text-anchor="start" x="1305.7" y="-255.6" font-family="Arial" font-size="14.00">created_at </text>
<text text-anchor="start" x="1375.75" y="-255.6" font-family="Arial" font-size="14.00" fill="#666666">[timestamp with time zone]</text>
<text text-anchor="start" x="1541.47" y="-255.6" font-family="Arial" font-size="14.00"> When the robot was first registered</text>
<polygon fill="none" stroke="black" points="1298.7,-212.6 1298.7,-243.4 1802.91,-243.4 1802.91,-212.6 1298.7,-212.6"/>
<text text-anchor="start" x="1305.7" y="-224.8" font-family="Arial" font-size="14.00">id </text>
<text text-anchor="start" x="1320.49" y="-224.8" font-family="Arial" font-size="14.00" fill="#666666">[bigint]</text>
<polygon fill="none" stroke="black" points="1298.7,-181.8 1298.7,-212.6 1802.91,-212.6 1802.91,-181.8 1298.7,-181.8"/>
<text text-anchor="start" x="1305.7" y="-194" font-family="Arial" font-size="14.00">last_active </text>
<text text-anchor="start" x="1375.73" y="-194" font-family="Arial" font-size="14.00" fill="#666666">[timestamp with time zone]</text>
<text text-anchor="start" x="1541.46" y="-194" font-family="Arial" font-size="14.00"> Last time the robot accessed the system</text>
<polygon fill="none" stroke="black" points="1298.7,-151 1298.7,-181.8 1802.91,-181.8 1802.91,-151 1298.7,-151"/>
<text text-anchor="start" x="1305.7" y="-163.2" font-family="Arial" font-size="14.00">name </text>
<text text-anchor="start" x="1344.61" y="-163.2" font-family="Arial" font-size="14.00" fill="#666666">[text]</text>
<text text-anchor="start" x="1374.95" y="-163.2" font-family="Arial" font-size="14.00"> Human&#45;readable name for the robot</text>
</g>
<!-- public.robot_nodes&#45;&gt;public.robots -->
<g id="edge4" class="edge">
<title>public.robot_nodes:robot_id&#45;&gt;public.robots:id</title>
<path fill="none" stroke="black" d="M1876.54,-597.6C1944.87,-568.35 1884.06,-228 1803.91,-228"/>
<polygon fill="black" stroke="black" points="1876.68,-597.57 1865.99,-595.12 1871.45,-598.62 1867.21,-599.47 1867.21,-599.47 1867.21,-599.47 1871.45,-598.62 1867.76,-603.95 1876.68,-597.57"/>
<text text-anchor="start" x="1873.55" y="-609.6" font-family="Arial" font-size="10.00">FOREIGN KEY (robot_id) REFERENCES robots(id) ON DELETE CASCADE</text>
</g>
<!-- public.node_tags -->
<g id="node3" class="node">
<title>public.node_tags</title>
<polygon fill="#efefef" stroke="none" points="43.2,-738.2 43.2,-784.2 512.41,-784.2 512.41,-738.2 43.2,-738.2"/>
<polygon fill="none" stroke="black" points="43.2,-738.2 43.2,-784.2 512.41,-784.2 512.41,-738.2 43.2,-738.2"/>
<text text-anchor="start" x="154.32" y="-762" font-family="Arial Bold" font-size="18.00">public.node_tags</text>
<text text-anchor="start" x="276.8" y="-762" font-family="Arial" font-size="14.00">    </text>
<text text-anchor="start" x="307.92" y="-762" font-family="Arial" font-size="14.00" fill="#666666">[BASE TABLE]</text>
<text text-anchor="start" x="116.72" y="-747.6" font-family="Arial" font-size="14.00" fill="#333333">Join table connecting nodes to tags (many&#45;to&#45;many)</text>
<polygon fill="none" stroke="black" points="43.2,-707.4 43.2,-738.2 512.41,-738.2 512.41,-707.4 43.2,-707.4"/>
<text text-anchor="start" x="50.2" y="-719.6" font-family="Arial" font-size="14.00">created_at </text>
<text text-anchor="start" x="120.25" y="-719.6" font-family="Arial" font-size="14.00" fill="#666666">[timestamp with time zone]</text>
<text text-anchor="start" x="285.97" y="-719.6" font-family="Arial" font-size="14.00"> When this association was created</text>
<polygon fill="none" stroke="black" points="43.2,-676.6 43.2,-707.4 512.41,-707.4 512.41,-676.6 43.2,-676.6"/>
<text text-anchor="start" x="50.2" y="-688.8" font-family="Arial" font-size="14.00">id </text>
<text text-anchor="start" x="64.99" y="-688.8" font-family="Arial" font-size="14.00" fill="#666666">[bigint]</text>
<polygon fill="none" stroke="black" points="43.2,-645.8 43.2,-676.6 512.41,-676.6 512.41,-645.8 43.2,-645.8"/>
<text text-anchor="start" x="50.2" y="-658" font-family="Arial" font-size="14.00">node_id </text>
<text text-anchor="start" x="103.92" y="-658" font-family="Arial" font-size="14.00" fill="#666666">[bigint]</text>
<text text-anchor="start" x="145.16" y="-658" font-family="Arial" font-size="14.00"> ID of the node being tagged</text>
<polygon fill="none" stroke="black" points="43.2,-615 43.2,-645.8 512.41,-645.8 512.41,-615 43.2,-615"/>
<text text-anchor="start" x="50.2" y="-627.2" font-family="Arial" font-size="14.00">tag_id </text>
<text text-anchor="start" x="92.23" y="-627.2" font-family="Arial" font-size="14.00" fill="#666666">[bigint]</text>
<text text-anchor="start" x="133.48" y="-627.2" font-family="Arial" font-size="14.00"> ID of the tag being applied</text>
</g>
<!-- public.node_tags&#45;&gt;public.nodes -->
<g id="edge2" class="edge">
<title>public.node_tags:node_id&#45;&gt;public.nodes:id</title>
<path fill="none" stroke="black" d="M523.69,-659.55C613.74,-627.88 427.06,-151 536.79,-151"/>
<polygon fill="black" stroke="black" points="523.62,-659.56 513.03,-656.7 518.35,-660.41 514.07,-661.09 514.07,-661.09 514.07,-661.09 518.35,-660.41 514.46,-665.59 523.62,-659.56"/>
<text text-anchor="start" x="520.41" y="-671.2" font-family="Arial" font-size="10.00">FOREIGN KEY (node_id) REFERENCES nodes(id) ON DELETE CASCADE</text>
</g>
<!-- public.working_memories -->
<g id="node4" class="node">
<title>public.working_memories</title>
<polygon fill="#efefef" stroke="none" points="617.18,-753.6 617.18,-799.6 1128.43,-799.6 1128.43,-753.6 617.18,-753.6"/>
<polygon fill="none" stroke="black" points="617.18,-753.6 617.18,-799.6 1128.43,-799.6 1128.43,-753.6 617.18,-753.6"/>
<text text-anchor="start" x="715.83" y="-777.4" font-family="Arial Bold" font-size="18.00">public.working_memories</text>
<text text-anchor="start" x="905.29" y="-777.4" font-family="Arial" font-size="14.00">    </text>
<text text-anchor="start" x="936.41" y="-777.4" font-family="Arial" font-size="14.00" fill="#666666">[BASE TABLE]</text>
<text text-anchor="start" x="704.35" y="-763" font-family="Arial" font-size="14.00" fill="#333333">Per&#45;robot working memory state (optional persistence)</text>
<polygon fill="none" stroke="black" points="617.18,-722.8 617.18,-753.6 1128.43,-753.6 1128.43,-722.8 617.18,-722.8"/>
<text text-anchor="start" x="624.18" y="-735" font-family="Arial" font-size="14.00">added_at </text>
<text text-anchor="start" x="686.46" y="-735" font-family="Arial" font-size="14.00" fill="#666666">[timestamp with time zone]</text>
<text text-anchor="start" x="852.19" y="-735" font-family="Arial" font-size="14.00"> When node was added to working memory</text>
<polygon fill="none" stroke="black" points="617.18,-692 617.18,-722.8 1128.43,-722.8 1128.43,-692 617.18,-692"/>
<text text-anchor="start" x="624.18" y="-704.2" font-family="Arial" font-size="14.00">id </text>
<text text-anchor="start" x="638.97" y="-704.2" font-family="Arial" font-size="14.00" fill="#666666">[bigint]</text>
<polygon fill="none" stroke="black" points="617.18,-661.2 617.18,-692 1128.43,-692 1128.43,-661.2 617.18,-661.2"/>
<text text-anchor="start" x="624.18" y="-673.4" font-family="Arial" font-size="14.00">node_id </text>
<text text-anchor="start" x="677.9" y="-673.4" font-family="Arial" font-size="14.00" fill="#666666">[bigint]</text>
<text text-anchor="start" x="719.14" y="-673.4" font-family="Arial" font-size="14.00"> Node currently in working memory</text>
<polygon fill="none" stroke="black" points="617.18,-630.4 617.18,-661.2 1128.43,-661.2 1128.43,-630.4 617.18,-630.4"/>
<text text-anchor="start" x="624.18" y="-642.6" font-family="Arial" font-size="14.00">robot_id </text>
<text text-anchor="start" x="678.66" y="-642.6" font-family="Arial" font-size="14.00" fill="#666666">[bigint]</text>
<text text-anchor="start" x="719.91" y="-642.6" font-family="Arial" font-size="14.00"> Robot whose working memory this belongs to</text>
<polygon fill="none" stroke="black" points="617.18,-599.6 617.18,-630.4 1128.43,-630.4 1128.43,-599.6 617.18,-599.6"/>
<text text-anchor="start" x="624.18" y="-611.8" font-family="Arial" font-size="14.00">token_count </text>
<text text-anchor="start" x="704.35" y="-611.8" font-family="Arial" font-size="14.00" fill="#666666">[integer]</text>
<text text-anchor="start" x="754.94" y="-611.8" font-family="Arial" font-size="14.00"> Cached token count for budget tracking</text>
</g>
<!-- public.working_memories&#45;&gt;public.nodes -->
<g id="edge3" class="edge">
<title>public.working_memories:node_id&#45;&gt;public.nodes:id</title>
<path fill="none" stroke="black" d="M605.97,-675.46C565.55,-665.56 584.57,-593.86 617.18,-556.4 787.27,-360.98 1024.25,-667.06 1193.83,-471.2 1240.4,-417.41 1265.98,-151 1194.83,-151"/>
<polygon fill="black" stroke="black" points="605.91,-675.45 615.35,-681.03 611.21,-676.04 615.51,-676.53 615.51,-676.53 615.51,-676.53 611.21,-676.04 616.35,-672.09 605.91,-675.45"/>
<text text-anchor="start" x="623.18" y="-686.6" font-family="Arial" font-size="10.00">FOREIGN KEY (node_id) REFERENCES nodes(id) ON DELETE CASCADE</text>
</g>
<!-- public.working_memories&#45;&gt;public.robots -->
<g id="edge5" class="edge">
<title>public.working_memories:robot_id&#45;&gt;public.robots:id</title>
<path fill="none" stroke="black" d="M1139.76,-644.91C1188.77,-635.53 1140.49,-554.1 1180.81,-507.2 1202.33,-482.16 1226.15,-497.74 1245.81,-471.2 1311.6,-382.39 1187.18,-228 1297.7,-228"/>
<polygon fill="black" stroke="black" points="1139.73,-644.91 1129.38,-641.29 1134.41,-645.37 1130.1,-645.74 1130.1,-645.74 1130.1,-645.74 1134.41,-645.37 1130.15,-650.25 1139.73,-644.91"/>
<text text-anchor="start" x="959.11" y="-629.8" font-family="Arial" font-size="10.00">FOREIGN KEY (robot_id) REFERENCES robots(id) ON DELETE CASCADE</text>
</g>
</g>
</svg>
