<?xml version="1.0" encoding="UTF-8" standalone="no"?>
<!DOCTYPE svg PUBLIC "-//W3C//DTD SVG 1.1//EN"
 "http://www.w3.org/Graphics/SVG/1.1/DTD/svg11.dtd">
<!-- Generated by graphviz version 12.1.2 (20240928.0832)
 -->
<!-- Title: public.file_sources Pages: 1 -->
<svg width="1329pt" height="1500pt"
 viewBox="0.00 0.00 1328.70 1499.60" xmlns="http://www.w3.org/2000/svg" xmlns:xlink="http://www.w3.org/1999/xlink">
<g id="graph0" class="graph" transform="scale(1 1) rotate(0) translate(4 1495.6)">
<title>public.file_sources</title>
<polygon fill="white" stroke="none" points="-4,4 -4,-1495.6 1324.7,-1495.6 1324.7,4 -4,4"/>
<!-- public.file_sources -->
<g id="node1" class="node">
<title>public.file_sources</title>
<polygon fill="#efefef" stroke="none" points="358.93,-323.4 358.93,-369.4 850.68,-369.4 850.68,-323.4 358.93,-323.4"/>
<polygon fill="none" stroke="black" points="358.93,-323.4 358.93,-369.4 850.68,-369.4 850.68,-323.4 358.93,-323.4"/>
<text text-anchor="start" x="474.33" y="-347.2" font-family="Arial Bold" font-size="18.00">public.file_sources</text>
<text text-anchor="start" x="610.79" y="-347.2" font-family="Arial" font-size="14.00">    </text>
<text text-anchor="start" x="641.91" y="-347.2" font-family="Arial" font-size="14.00" fill="#666666">[BASE TABLE]</text>
<text text-anchor="start" x="471.34" y="-332.8" font-family="Arial" font-size="14.00" fill="#333333">Source file metadata for loaded documents</text>
<polygon fill="none" stroke="black" points="358.93,-292.6 358.93,-323.4 850.68,-323.4 850.68,-292.6 358.93,-292.6"/>
<text text-anchor="start" x="365.93" y="-304.8" font-family="Arial" font-size="14.00">created_at </text>
<text text-anchor="start" x="435.98" y="-304.8" font-family="Arial" font-size="14.00" fill="#666666">[timestamp with time zone]</text>
<polygon fill="none" stroke="black" points="358.93,-261.8 358.93,-292.6 850.68,-292.6 850.68,-261.8 358.93,-261.8"/>
<text text-anchor="start" x="365.93" y="-274" font-family="Arial" font-size="14.00">file_hash </text>
<text text-anchor="start" x="425.87" y="-274" font-family="Arial" font-size="14.00" fill="#666666">[varchar(64)]</text>
<text text-anchor="start" x="505.22" y="-274" font-family="Arial" font-size="14.00"> SHA&#45;256 hash of file content</text>
<polygon fill="none" stroke="black" points="358.93,-231 358.93,-261.8 850.68,-261.8 850.68,-231 358.93,-231"/>
<text text-anchor="start" x="365.93" y="-243.2" font-family="Arial" font-size="14.00">file_path </text>
<text text-anchor="start" x="422.75" y="-243.2" font-family="Arial" font-size="14.00" fill="#666666">[text]</text>
<text text-anchor="start" x="453.1" y="-243.2" font-family="Arial" font-size="14.00"> Absolute path to source file</text>
<polygon fill="none" stroke="black" points="358.93,-200.2 358.93,-231 850.68,-231 850.68,-200.2 358.93,-200.2"/>
<text text-anchor="start" x="365.93" y="-212.4" font-family="Arial" font-size="14.00">file_size </text>
<text text-anchor="start" x="420.4" y="-212.4" font-family="Arial" font-size="14.00" fill="#666666">[integer]</text>
<text text-anchor="start" x="470.99" y="-212.4" font-family="Arial" font-size="14.00"> File size in bytes</text>
<polygon fill="none" stroke="black" points="358.93,-169.4 358.93,-200.2 850.68,-200.2 850.68,-169.4 358.93,-169.4"/>
<text text-anchor="start" x="365.93" y="-181.6" font-family="Arial" font-size="14.00">frontmatter </text>
<text text-anchor="start" x="437.51" y="-181.6" font-family="Arial" font-size="14.00" fill="#666666">[jsonb]</text>
<text text-anchor="start" x="478.76" y="-181.6" font-family="Arial" font-size="14.00"> Parsed YAML frontmatter</text>
<polygon fill="none" stroke="black" points="358.93,-138.6 358.93,-169.4 850.68,-169.4 850.68,-138.6 358.93,-138.6"/>
<text text-anchor="start" x="365.93" y="-150.8" font-family="Arial" font-size="14.00">id </text>
<text text-anchor="start" x="380.72" y="-150.8" font-family="Arial" font-size="14.00" fill="#666666">[bigint]</text>
<polygon fill="none" stroke="black" points="358.93,-107.8 358.93,-138.6 850.68,-138.6 850.68,-107.8 358.93,-107.8"/>
<text text-anchor="start" x="365.93" y="-120" font-family="Arial" font-size="14.00">last_synced_at </text>
<text text-anchor="start" x="463.22" y="-120" font-family="Arial" font-size="14.00" fill="#666666">[timestamp with time zone]</text>
<text text-anchor="start" x="628.94" y="-120" font-family="Arial" font-size="14.00"> When file was last synced to HTM</text>
<polygon fill="none" stroke="black" points="358.93,-77 358.93,-107.8 850.68,-107.8 850.68,-77 358.93,-77"/>
<text text-anchor="start" x="365.93" y="-89.2" font-family="Arial" font-size="14.00">mtime </text>
<text text-anchor="start" x="407.93" y="-89.2" font-family="Arial" font-size="14.00" fill="#666666">[timestamp with time zone]</text>
<text text-anchor="start" x="573.66" y="-89.2" font-family="Arial" font-size="14.00"> File modification time</text>
<polygon fill="none" stroke="black" points="358.93,-46.2 358.93,-77 850.68,-77 850.68,-46.2 358.93,-46.2"/>
<text text-anchor="start" x="365.93" y="-58.4" font-family="Arial" font-size="14.00">updated_at </text>
<text text-anchor="start" x="439.89" y="-58.4" font-family="Arial" font-size="14.00" fill="#666666">[timestamp with time zone]</text>
<polygon fill="none" stroke="black" stroke-width="3" points="357.43,-44.7 357.43,-370.9 852.18,-370.9 852.18,-44.7 357.43,-44.7"/>
</g>
<!-- public.nodes -->
<g id="node2" class="node">
<title>public.nodes</title>
<polygon fill="#efefef" stroke="none" points="276.79,-926 276.79,-972 932.83,-972 932.83,-926 276.79,-926"/>
<polygon fill="none" stroke="black" points="276.79,-926 276.79,-972 932.83,-972 932.83,-926 276.79,-926"/>
<text text-anchor="start" x="496.82" y="-949.8" font-family="Arial Bold" font-size="18.00">public.nodes</text>
<text text-anchor="start" x="588.3" y="-949.8" font-family="Arial" font-size="14.00">    </text>
<text text-anchor="start" x="619.42" y="-949.8" font-family="Arial" font-size="14.00" fill="#666666">[BASE TABLE]</text>
<text text-anchor="start" x="413.38" y="-935.4" font-family="Arial" font-size="14.00" fill="#333333">Core memory storage for conversation messages and context</text>
<polygon fill="none" stroke="black" points="276.79,-895.2 276.79,-926 932.83,-926 932.83,-895.2 276.79,-895.2"/>
<text text-anchor="start" x="283.79" y="-907.4" font-family="Arial" font-size="14.00">access_count </text>
<text text-anchor="start" x="373.28" y="-907.4" font-family="Arial" font-size="14.00" fill="#666666">[integer]</text>
<text text-anchor="start" x="423.87" y="-907.4" font-family="Arial" font-size="14.00"> Number of times this node has been accessed/retrieved</text>
<polygon fill="none" stroke="black" points="276.79,-864.4 276.79,-895.2 932.83,-895.2 932.83,-864.4 276.79,-864.4"/>
<text text-anchor="start" x="283.79" y="-876.6" font-family="Arial" font-size="14.00">chunk_position </text>
<text text-anchor="start" x="381.08" y="-876.6" font-family="Arial" font-size="14.00" fill="#666666">[integer]</text>
<text text-anchor="start" x="431.66" y="-876.6" font-family="Arial" font-size="14.00"> Position within source file (0&#45;indexed)</text>
<polygon fill="none" stroke="black" points="276.79,-833.6 276.79,-864.4 932.83,-864.4 932.83,-833.6 276.79,-833.6"/>
<text text-anchor="start" x="283.79" y="-845.8" font-family="Arial" font-size="14.00">content </text>
<text text-anchor="start" x="333.6" y="-845.8" font-family="Arial" font-size="14.00" fill="#666666">[text]</text>
<text text-anchor="start" x="363.95" y="-845.8" font-family="Arial" font-size="14.00"> The conversation message/utterance content</text>
<polygon fill="none" stroke="black" points="276.79,-802.8 276.79,-833.6 932.83,-833.6 932.83,-802.8 276.79,-802.8"/>
<text text-anchor="start" x="283.79" y="-815" font-family="Arial" font-size="14.00">content_hash </text>
<text text-anchor="start" x="371.74" y="-815" font-family="Arial" font-size="14.00" fill="#666666">[varchar(64)]</text>
<text text-anchor="start" x="451.1" y="-815" font-family="Arial" font-size="14.00"> SHA&#45;256 hash of content for deduplication</text>
<polygon fill="none" stroke="black" points="276.79,-772 276.79,-802.8 932.83,-802.8 932.83,-772 276.79,-772"/>
<text text-anchor="start" x="283.79" y="-784.2" font-family="Arial" font-size="14.00">created_at </text>
<text text-anchor="start" x="353.83" y="-784.2" font-family="Arial" font-size="14.00" fill="#666666">[timestamp with time zone]</text>
<text text-anchor="start" x="519.56" y="-784.2" font-family="Arial" font-size="14.00"> When this memory was created</text>
<polygon fill="none" stroke="black" points="276.79,-741.2 276.79,-772 932.83,-772 932.83,-741.2 276.79,-741.2"/>
<text text-anchor="start" x="283.79" y="-753.4" font-family="Arial" font-size="14.00">deleted_at </text>
<text text-anchor="start" x="353.07" y="-753.4" font-family="Arial" font-size="14.00" fill="#666666">[timestamp with time zone]</text>
<text text-anchor="start" x="518.79" y="-753.4" font-family="Arial" font-size="14.00"> Soft delete timestamp &#45; node is considered deleted when set</text>
<polygon fill="none" stroke="black" points="276.79,-710.4 276.79,-741.2 932.83,-741.2 932.83,-710.4 276.79,-710.4"/>
<text text-anchor="start" x="283.79" y="-722.6" font-family="Arial" font-size="14.00">embedding </text>
<text text-anchor="start" x="356.95" y="-722.6" font-family="Arial" font-size="14.00" fill="#666666">[vector(2000)]</text>
<text text-anchor="start" x="443.32" y="-722.6" font-family="Arial" font-size="14.00"> Vector embedding (max 2000 dimensions) for semantic search</text>
<polygon fill="none" stroke="black" points="276.79,-679.6 276.79,-710.4 932.83,-710.4 932.83,-679.6 276.79,-679.6"/>
<text text-anchor="start" x="283.79" y="-691.8" font-family="Arial" font-size="14.00">embedding_dimension </text>
<text text-anchor="start" x="428.55" y="-691.8" font-family="Arial" font-size="14.00" fill="#666666">[integer]</text>
<text text-anchor="start" x="479.14" y="-691.8" font-family="Arial" font-size="14.00"> Actual number of dimensions used in the embedding vector (max 2000)</text>
<polygon fill="none" stroke="black" points="276.79,-648.8 276.79,-679.6 932.83,-679.6 932.83,-648.8 276.79,-648.8"/>
<text text-anchor="start" x="283.79" y="-661" font-family="Arial" font-size="14.00">id </text>
<text text-anchor="start" x="298.57" y="-661" font-family="Arial" font-size="14.00" fill="#666666">[bigint]</text>
<polygon fill="none" stroke="black" points="276.79,-618 276.79,-648.8 932.83,-648.8 932.83,-618 276.79,-618"/>
<text text-anchor="start" x="283.79" y="-630.2" font-family="Arial" font-size="14.00">last_accessed </text>
<text text-anchor="start" x="376.39" y="-630.2" font-family="Arial" font-size="14.00" fill="#666666">[timestamp with time zone]</text>
<text text-anchor="start" x="542.12" y="-630.2" font-family="Arial" font-size="14.00"> When this memory was last accessed</text>
<polygon fill="none" stroke="black" points="276.79,-587.2 276.79,-618 932.83,-618 932.83,-587.2 276.79,-587.2"/>
<text text-anchor="start" x="283.79" y="-599.4" font-family="Arial" font-size="14.00">metadata </text>
<text text-anchor="start" x="346.05" y="-599.4" font-family="Arial" font-size="14.00" fill="#666666">[jsonb]</text>
<text text-anchor="start" x="387.3" y="-599.4" font-family="Arial" font-size="14.00"> Flexible metadata storage (memory_type, importance, source, etc.)</text>
<polygon fill="none" stroke="black" points="276.79,-556.4 276.79,-587.2 932.83,-587.2 932.83,-556.4 276.79,-556.4"/>
<text text-anchor="start" x="283.79" y="-568.6" font-family="Arial" font-size="14.00">source_id </text>
<text text-anchor="start" x="348.38" y="-568.6" font-family="Arial" font-size="14.00" fill="#666666">[bigint]</text>
<text text-anchor="start" x="389.63" y="-568.6" font-family="Arial" font-size="14.00"> Reference to source file (for file&#45;loaded nodes)</text>
<polygon fill="none" stroke="black" points="276.79,-525.6 276.79,-556.4 932.83,-556.4 932.83,-525.6 276.79,-525.6"/>
<text text-anchor="start" x="283.79" y="-537.8" font-family="Arial" font-size="14.00">token_count </text>
<text text-anchor="start" x="363.96" y="-537.8" font-family="Arial" font-size="14.00" fill="#666666">[integer]</text>
<text text-anchor="start" x="414.54" y="-537.8" font-family="Arial" font-size="14.00"> Number of tokens in the content (for context budget management)</text>
<polygon fill="none" stroke="black" points="276.79,-494.8 276.79,-525.6 932.83,-525.6 932.83,-494.8 276.79,-494.8"/>
<text text-anchor="start" x="283.79" y="-507" font-family="Arial" font-size="14.00">updated_at </text>
<text text-anchor="start" x="357.74" y="-507" font-family="Arial" font-size="14.00" fill="#666666">[timestamp with time zone]</text>
<text text-anchor="start" x="523.47" y="-507" font-family="Arial" font-size="14.00"> When this memory was last modified</text>
</g>
<!-- public.nodes&#45;&gt;public.file_sources -->
<g id="edge1" class="edge">
<title>public.nodes:source_id&#45;&gt;public.file_sources:id</title>
<path fill="none" stroke="black" d="M944.08,-571.37C1119.98,-556.44 1037.41,-154 851.68,-154"/>
<polygon fill="black" stroke="black" points="944.15,-571.37 933.97,-567.29 938.82,-571.59 934.49,-571.77 934.49,-571.77 934.49,-571.77 938.82,-571.59 934.35,-576.28 944.15,-571.37"/>
<text text-anchor="start" x="940.83" y="-581.8" font-family="Arial" font-size="10.00">FOREIGN KEY (source_id) REFERENCES file_sources(id) ON DELETE SET NULL</text>
</g>
<!-- public.node_tags -->
<g id="node3" class="node">
<title>public.node_tags</title>
<polygon fill="#efefef" stroke="none" points="43.2,-1325.4 43.2,-1371.4 512.41,-1371.4 512.41,-1325.4 43.2,-1325.4"/>
<polygon fill="none" stroke="black" points="43.2,-1325.4 43.2,-1371.4 512.41,-1371.4 512.41,-1325.4 43.2,-1325.4"/>
<text text-anchor="start" x="154.32" y="-1349.2" font-family="Arial Bold" font-size="18.00">public.node_tags</text>
<text text-anchor="start" x="276.8" y="-1349.2" font-family="Arial" font-size="14.00">    </text>
<text text-anchor="start" x="307.92" y="-1349.2" font-family="Arial" font-size="14.00" fill="#666666">[BASE TABLE]</text>
<text text-anchor="start" x="116.72" y="-1334.8" font-family="Arial" font-size="14.00" fill="#333333">Join table connecting nodes to tags (many&#45;to&#45;many)</text>
<polygon fill="none" stroke="black" points="43.2,-1294.6 43.2,-1325.4 512.41,-1325.4 512.41,-1294.6 43.2,-1294.6"/>
<text text-anchor="start" x="50.2" y="-1306.8" font-family="Arial" font-size="14.00">created_at </text>
<text text-anchor="start" x="120.25" y="-1306.8" font-family="Arial" font-size="14.00" fill="#666666">[timestamp with time zone]</text>
<text text-anchor="start" x="285.97" y="-1306.8" font-family="Arial" font-size="14.00"> When this association was created</text>
<polygon fill="none" stroke="black" points="43.2,-1263.8 43.2,-1294.6 512.41,-1294.6 512.41,-1263.8 43.2,-1263.8"/>
<text text-anchor="start" x="50.2" y="-1276" font-family="Arial" font-size="14.00">deleted_at </text>
<text text-anchor="start" x="119.48" y="-1276" font-family="Arial" font-size="14.00" fill="#666666">[timestamp with time zone]</text>
<text text-anchor="start" x="285.21" y="-1276" font-family="Arial" font-size="14.00"> Soft delete timestamp</text>
<polygon fill="none" stroke="black" points="43.2,-1233 43.2,-1263.8 512.41,-1263.8 512.41,-1233 43.2,-1233"/>
<text text-anchor="start" x="50.2" y="-1245.2" font-family="Arial" font-size="14.00">id </text>
<text text-anchor="start" x="64.99" y="-1245.2" font-family="Arial" font-size="14.00" fill="#666666">[bigint]</text>
<polygon fill="none" stroke="black" points="43.2,-1202.2 43.2,-1233 512.41,-1233 512.41,-1202.2 43.2,-1202.2"/>
<text text-anchor="start" x="50.2" y="-1214.4" font-family="Arial" font-size="14.00">node_id </text>
<text text-anchor="start" x="103.92" y="-1214.4" font-family="Arial" font-size="14.00" fill="#666666">[bigint]</text>
<text text-anchor="start" x="145.16" y="-1214.4" font-family="Arial" font-size="14.00"> ID of the node being tagged</text>
<polygon fill="none" stroke="black" points="43.2,-1171.4 43.2,-1202.2 512.41,-1202.2 512.41,-1171.4 43.2,-1171.4"/>
<text text-anchor="start" x="50.2" y="-1183.6" font-family="Arial" font-size="14.00">tag_id </text>
<text text-anchor="start" x="92.23" y="-1183.6" font-family="Arial" font-size="14.00" fill="#666666">[bigint]</text>
<text text-anchor="start" x="133.48" y="-1183.6" font-family="Arial" font-size="14.00"> ID of the tag being applied</text>
</g>
<!-- public.node_tags&#45;&gt;public.nodes -->
<g id="edge2" class="edge">
<title>public.node_tags:node_id&#45;&gt;public.nodes:id</title>
<path fill="none" stroke="black" d="M523.42,-1216.07C549.34,-1206.9 531.68,-1158.44 512.41,-1128.2 449.99,-1030.26 338.8,-1113.4 276.79,-1015.2 193.49,-883.3 119.79,-664.2 275.79,-664.2"/>
<polygon fill="black" stroke="black" points="523.63,-1216.04 513.06,-1213.1 518.35,-1216.85 514.07,-1217.5 514.07,-1217.5 514.07,-1217.5 518.35,-1216.85 514.42,-1222 523.63,-1216.04"/>
<text text-anchor="start" x="520.41" y="-1227.6" font-family="Arial" font-size="10.00">FOREIGN KEY (node_id) REFERENCES nodes(id) ON DELETE CASCADE</text>
</g>
<!-- public.robot_nodes -->
<g id="node4" class="node">
<title>public.robot_nodes</title>
<polygon fill="#efefef" stroke="none" points="617.06,-1402.4 617.06,-1448.4 1246.55,-1448.4 1246.55,-1402.4 617.06,-1402.4"/>
<polygon fill="none" stroke="black" points="617.06,-1402.4 617.06,-1448.4 1246.55,-1448.4 1246.55,-1402.4 617.06,-1402.4"/>
<text text-anchor="start" x="800.32" y="-1426.2" font-family="Arial Bold" font-size="18.00">public.robot_nodes</text>
<text text-anchor="start" x="938.8" y="-1426.2" font-family="Arial" font-size="14.00">    </text>
<text text-anchor="start" x="969.92" y="-1426.2" font-family="Arial" font-size="14.00" fill="#666666">[BASE TABLE]</text>
<text text-anchor="start" x="764.5" y="-1411.8" font-family="Arial" font-size="14.00" fill="#333333">Join table connecting robots to nodes (many&#45;to&#45;many)</text>
<polygon fill="none" stroke="black" points="617.06,-1371.6 617.06,-1402.4 1246.55,-1402.4 1246.55,-1371.6 617.06,-1371.6"/>
<text text-anchor="start" x="624.06" y="-1383.8" font-family="Arial" font-size="14.00">created_at </text>
<text text-anchor="start" x="694.11" y="-1383.8" font-family="Arial" font-size="14.00" fill="#666666">[timestamp with time zone]</text>
<polygon fill="none" stroke="black" points="617.06,-1340.8 617.06,-1371.6 1246.55,-1371.6 1246.55,-1340.8 617.06,-1340.8"/>
<text text-anchor="start" x="624.06" y="-1353" font-family="Arial" font-size="14.00">deleted_at </text>
<text text-anchor="start" x="693.34" y="-1353" font-family="Arial" font-size="14.00" fill="#666666">[timestamp with time zone]</text>
<text text-anchor="start" x="859.07" y="-1353" font-family="Arial" font-size="14.00"> Soft delete timestamp</text>
<polygon fill="none" stroke="black" points="617.06,-1310 617.06,-1340.8 1246.55,-1340.8 1246.55,-1310 617.06,-1310"/>
<text text-anchor="start" x="624.06" y="-1322.2" font-family="Arial" font-size="14.00">first_remembered_at </text>
<text text-anchor="start" x="757.12" y="-1322.2" font-family="Arial" font-size="14.00" fill="#666666">[timestamp with time zone]</text>
<text text-anchor="start" x="922.84" y="-1322.2" font-family="Arial" font-size="14.00"> When this robot first remembered this content</text>
<polygon fill="none" stroke="black" points="617.06,-1279.2 617.06,-1310 1246.55,-1310 1246.55,-1279.2 617.06,-1279.2"/>
<text text-anchor="start" x="624.06" y="-1291.4" font-family="Arial" font-size="14.00">id </text>
<text text-anchor="start" x="638.85" y="-1291.4" font-family="Arial" font-size="14.00" fill="#666666">[bigint]</text>
<polygon fill="none" stroke="black" points="617.06,-1248.4 617.06,-1279.2 1246.55,-1279.2 1246.55,-1248.4 617.06,-1248.4"/>
<text text-anchor="start" x="624.06" y="-1260.6" font-family="Arial" font-size="14.00">last_remembered_at </text>
<text text-anchor="start" x="756.35" y="-1260.6" font-family="Arial" font-size="14.00" fill="#666666">[timestamp with time zone]</text>
<text text-anchor="start" x="922.08" y="-1260.6" font-family="Arial" font-size="14.00"> When this robot last tried to remember this content</text>
<polygon fill="none" stroke="black" points="617.06,-1217.6 617.06,-1248.4 1246.55,-1248.4 1246.55,-1217.6 617.06,-1217.6"/>
<text text-anchor="start" x="624.06" y="-1229.8" font-family="Arial" font-size="14.00">node_id </text>
<text text-anchor="start" x="677.78" y="-1229.8" font-family="Arial" font-size="14.00" fill="#666666">[bigint]</text>
<text text-anchor="start" x="719.03" y="-1229.8" font-family="Arial" font-size="14.00"> ID of the node being remembered</text>
<polygon fill="none" stroke="black" points="617.06,-1186.8 617.06,-1217.6 1246.55,-1217.6 1246.55,-1186.8 617.06,-1186.8"/>
<text text-anchor="start" x="624.06" y="-1199" font-family="Arial" font-size="14.00">remember_count </text>
<text text-anchor="start" x="733.78" y="-1199" font-family="Arial" font-size="14.00" fill="#666666">[integer]</text>
<text text-anchor="start" x="784.37" y="-1199" font-family="Arial" font-size="14.00"> Number of times this robot has tried to remember this content</text>
<polygon fill="none" stroke="black" points="617.06,-1156 617.06,-1186.8 1246.55,-1186.8 1246.55,-1156 617.06,-1156"/>
<text text-anchor="start" x="624.06" y="-1168.2" font-family="Arial" font-size="14.00">robot_id </text>
<text text-anchor="start" x="678.54" y="-1168.2" font-family="Arial" font-size="14.00" fill="#666666">[bigint]</text>
<text text-anchor="start" x="719.79" y="-1168.2" font-family="Arial" font-size="14.00"> ID of the robot that remembered this node</text>
<polygon fill="none" stroke="black" points="617.06,-1125.2 617.06,-1156 1246.55,-1156 1246.55,-1125.2 617.06,-1125.2"/>
<text text-anchor="start" x="624.06" y="-1137.4" font-family="Arial" font-size="14.00">updated_at </text>
<text text-anchor="start" x="698.02" y="-1137.4" font-family="Arial" font-size="14.00" fill="#666666">[timestamp with time zone]</text>
<polygon fill="none" stroke="black" points="617.06,-1094.4 617.06,-1125.2 1246.55,-1125.2 1246.55,-1094.4 617.06,-1094.4"/>
<text text-anchor="start" x="624.06" y="-1106.6" font-family="Arial" font-size="14.00">working_memory </text>
<text text-anchor="start" x="734.54" y="-1106.6" font-family="Arial" font-size="14.00" fill="#666666">[boolean]</text>
<text text-anchor="start" x="792.14" y="-1106.6" font-family="Arial" font-size="14.00"> True if this node is currently in the robot working memory</text>
</g>
<!-- public.robot_nodes&#45;&gt;public.nodes -->
<g id="edge3" class="edge">
<title>public.robot_nodes:node_id&#45;&gt;public.nodes:id</title>
<path fill="none" stroke="black" d="M605.82,-1232.28C537.81,-1222.19 565.52,-1108.63 617.06,-1051.2 711.4,-946.08 838.62,-1120.45 932.83,-1015.2 1036.86,-898.96 1089.83,-664.2 933.83,-664.2"/>
<polygon fill="black" stroke="black" points="605.75,-1232.28 615.41,-1237.47 611.07,-1232.65 615.39,-1232.95 615.39,-1232.95 615.39,-1232.95 611.07,-1232.65 616.04,-1228.49 605.75,-1232.28"/>
<text text-anchor="start" x="623.06" y="-1243" font-family="Arial" font-size="10.00">FOREIGN KEY (node_id) REFERENCES nodes(id) ON DELETE CASCADE</text>
</g>
</g>
</svg>
