<?xml version="1.0" encoding="UTF-8" standalone="no"?>
<!DOCTYPE svg PUBLIC "-//W3C//DTD SVG 1.1//EN"
 "http://www.w3.org/Graphics/SVG/1.1/DTD/svg11.dtd">
<!-- Generated by graphviz version 12.1.2 (20240928.0832)
 -->
<!-- Title: public.working_memories Pages: 1 -->
<svg width="2229pt" height="894pt"
 viewBox="0.00 0.00 2229.07 894.00" xmlns="http://www.w3.org/2000/svg" xmlns:xlink="http://www.w3.org/1999/xlink">
<g id="graph0" class="graph" transform="scale(1 1) rotate(0) translate(4 890)">
<title>public.working_memories</title>
<polygon fill="white" stroke="none" points="-4,4 -4,-890 2225.07,-890 2225.07,4 -4,4"/>
<!-- public.working_memories -->
<g id="node1" class="node">
<title>public.working_memories</title>
<polygon fill="#efefef" stroke="none" points="1354.18,-750.6 1354.18,-796.6 1865.43,-796.6 1865.43,-750.6 1354.18,-750.6"/>
<polygon fill="none" stroke="black" points="1354.18,-750.6 1354.18,-796.6 1865.43,-796.6 1865.43,-750.6 1354.18,-750.6"/>
<text text-anchor="start" x="1452.83" y="-774.4" font-family="Arial Bold" font-size="18.00">public.working_memories</text>
<text text-anchor="start" x="1642.29" y="-774.4" font-family="Arial" font-size="14.00">    </text>
<text text-anchor="start" x="1673.41" y="-774.4" font-family="Arial" font-size="14.00" fill="#666666">[BASE TABLE]</text>
<text text-anchor="start" x="1441.35" y="-760" font-family="Arial" font-size="14.00" fill="#333333">Per&#45;robot working memory state (optional persistence)</text>
<polygon fill="none" stroke="black" points="1354.18,-719.8 1354.18,-750.6 1865.43,-750.6 1865.43,-719.8 1354.18,-719.8"/>
<text text-anchor="start" x="1361.18" y="-732" font-family="Arial" font-size="14.00">added_at </text>
<text text-anchor="start" x="1423.46" y="-732" font-family="Arial" font-size="14.00" fill="#666666">[timestamp with time zone]</text>
<text text-anchor="start" x="1589.19" y="-732" font-family="Arial" font-size="14.00"> When node was added to working memory</text>
<polygon fill="none" stroke="black" points="1354.18,-689 1354.18,-719.8 1865.43,-719.8 1865.43,-689 1354.18,-689"/>
<text text-anchor="start" x="1361.18" y="-701.2" font-family="Arial" font-size="14.00">id </text>
<text text-anchor="start" x="1375.97" y="-701.2" font-family="Arial" font-size="14.00" fill="#666666">[bigint]</text>
<polygon fill="none" stroke="black" points="1354.18,-658.2 1354.18,-689 1865.43,-689 1865.43,-658.2 1354.18,-658.2"/>
<text text-anchor="start" x="1361.18" y="-670.4" font-family="Arial" font-size="14.00">node_id </text>
<text text-anchor="start" x="1414.9" y="-670.4" font-family="Arial" font-size="14.00" fill="#666666">[bigint]</text>
<text text-anchor="start" x="1456.14" y="-670.4" font-family="Arial" font-size="14.00"> Node currently in working memory</text>
<polygon fill="none" stroke="black" points="1354.18,-627.4 1354.18,-658.2 1865.43,-658.2 1865.43,-627.4 1354.18,-627.4"/>
<text text-anchor="start" x="1361.18" y="-639.6" font-family="Arial" font-size="14.00">robot_id </text>
<text text-anchor="start" x="1415.66" y="-639.6" font-family="Arial" font-size="14.00" fill="#666666">[bigint]</text>
<text text-anchor="start" x="1456.91" y="-639.6" font-family="Arial" font-size="14.00"> Robot whose working memory this belongs to</text>
<polygon fill="none" stroke="black" points="1354.18,-596.6 1354.18,-627.4 1865.43,-627.4 1865.43,-596.6 1354.18,-596.6"/>
<text text-anchor="start" x="1361.18" y="-608.8" font-family="Arial" font-size="14.00">token_count </text>
<text text-anchor="start" x="1441.35" y="-608.8" font-family="Arial" font-size="14.00" fill="#666666">[integer]</text>
<text text-anchor="start" x="1491.94" y="-608.8" font-family="Arial" font-size="14.00"> Cached token count for budget tracking</text>
<polygon fill="none" stroke="black" stroke-width="3" points="1352.68,-595.1 1352.68,-798.1 1866.93,-798.1 1866.93,-595.1 1352.68,-595.1"/>
</g>
<!-- public.nodes -->
<g id="node2" class="node">
<title>public.nodes</title>
<polygon fill="#efefef" stroke="none" points="596.79,-382 596.79,-428 1252.83,-428 1252.83,-382 596.79,-382"/>
<polygon fill="none" stroke="black" points="596.79,-382 596.79,-428 1252.83,-428 1252.83,-382 596.79,-382"/>
<text text-anchor="start" x="816.82" y="-405.8" font-family="Arial Bold" font-size="18.00">public.nodes</text>
<text text-anchor="start" x="908.3" y="-405.8" font-family="Arial" font-size="14.00">    </text>
<text text-anchor="start" x="939.42" y="-405.8" font-family="Arial" font-size="14.00" fill="#666666">[BASE TABLE]</text>
<text text-anchor="start" x="733.38" y="-391.4" font-family="Arial" font-size="14.00" fill="#333333">Core memory storage for conversation messages and context</text>
<polygon fill="none" stroke="black" points="596.79,-351.2 596.79,-382 1252.83,-382 1252.83,-351.2 596.79,-351.2"/>
<text text-anchor="start" x="603.79" y="-363.4" font-family="Arial" font-size="14.00">access_count </text>
<text text-anchor="start" x="693.28" y="-363.4" font-family="Arial" font-size="14.00" fill="#666666">[integer]</text>
<text text-anchor="start" x="743.87" y="-363.4" font-family="Arial" font-size="14.00"> Number of times this node has been accessed/retrieved</text>
<polygon fill="none" stroke="black" points="596.79,-320.4 596.79,-351.2 1252.83,-351.2 1252.83,-320.4 596.79,-320.4"/>
<text text-anchor="start" x="603.79" y="-332.6" font-family="Arial" font-size="14.00">content </text>
<text text-anchor="start" x="653.6" y="-332.6" font-family="Arial" font-size="14.00" fill="#666666">[text]</text>
<text text-anchor="start" x="683.95" y="-332.6" font-family="Arial" font-size="14.00"> The conversation message/utterance content</text>
<polygon fill="none" stroke="black" points="596.79,-289.6 596.79,-320.4 1252.83,-320.4 1252.83,-289.6 596.79,-289.6"/>
<text text-anchor="start" x="603.79" y="-301.8" font-family="Arial" font-size="14.00">content_hash </text>
<text text-anchor="start" x="691.74" y="-301.8" font-family="Arial" font-size="14.00" fill="#666666">[varchar(64)]</text>
<text text-anchor="start" x="771.1" y="-301.8" font-family="Arial" font-size="14.00"> SHA&#45;256 hash of content for deduplication</text>
<polygon fill="none" stroke="black" points="596.79,-258.8 596.79,-289.6 1252.83,-289.6 1252.83,-258.8 596.79,-258.8"/>
<text text-anchor="start" x="603.79" y="-271" font-family="Arial" font-size="14.00">created_at </text>
<text text-anchor="start" x="673.83" y="-271" font-family="Arial" font-size="14.00" fill="#666666">[timestamp with time zone]</text>
<text text-anchor="start" x="839.56" y="-271" font-family="Arial" font-size="14.00"> When this memory was created</text>
<polygon fill="none" stroke="black" points="596.79,-228 596.79,-258.8 1252.83,-258.8 1252.83,-228 596.79,-228"/>
<text text-anchor="start" x="603.79" y="-240.2" font-family="Arial" font-size="14.00">deleted_at </text>
<text text-anchor="start" x="673.07" y="-240.2" font-family="Arial" font-size="14.00" fill="#666666">[timestamp with time zone]</text>
<text text-anchor="start" x="838.79" y="-240.2" font-family="Arial" font-size="14.00"> Soft delete timestamp &#45; node is considered deleted when set</text>
<polygon fill="none" stroke="black" points="596.79,-197.2 596.79,-228 1252.83,-228 1252.83,-197.2 596.79,-197.2"/>
<text text-anchor="start" x="603.79" y="-209.4" font-family="Arial" font-size="14.00">embedding </text>
<text text-anchor="start" x="676.95" y="-209.4" font-family="Arial" font-size="14.00" fill="#666666">[vector(2000)]</text>
<text text-anchor="start" x="763.32" y="-209.4" font-family="Arial" font-size="14.00"> Vector embedding (max 2000 dimensions) for semantic search</text>
<polygon fill="none" stroke="black" points="596.79,-166.4 596.79,-197.2 1252.83,-197.2 1252.83,-166.4 596.79,-166.4"/>
<text text-anchor="start" x="603.79" y="-178.6" font-family="Arial" font-size="14.00">embedding_dimension </text>
<text text-anchor="start" x="748.55" y="-178.6" font-family="Arial" font-size="14.00" fill="#666666">[integer]</text>
<text text-anchor="start" x="799.14" y="-178.6" font-family="Arial" font-size="14.00"> Actual number of dimensions used in the embedding vector (max 2000)</text>
<polygon fill="none" stroke="black" points="596.79,-135.6 596.79,-166.4 1252.83,-166.4 1252.83,-135.6 596.79,-135.6"/>
<text text-anchor="start" x="603.79" y="-147.8" font-family="Arial" font-size="14.00">id </text>
<text text-anchor="start" x="618.57" y="-147.8" font-family="Arial" font-size="14.00" fill="#666666">[bigint]</text>
<polygon fill="none" stroke="black" points="596.79,-104.8 596.79,-135.6 1252.83,-135.6 1252.83,-104.8 596.79,-104.8"/>
<text text-anchor="start" x="603.79" y="-117" font-family="Arial" font-size="14.00">last_accessed </text>
<text text-anchor="start" x="696.39" y="-117" font-family="Arial" font-size="14.00" fill="#666666">[timestamp with time zone]</text>
<text text-anchor="start" x="862.12" y="-117" font-family="Arial" font-size="14.00"> When this memory was last accessed</text>
<polygon fill="none" stroke="black" points="596.79,-74 596.79,-104.8 1252.83,-104.8 1252.83,-74 596.79,-74"/>
<text text-anchor="start" x="603.79" y="-86.2" font-family="Arial" font-size="14.00">token_count </text>
<text text-anchor="start" x="683.96" y="-86.2" font-family="Arial" font-size="14.00" fill="#666666">[integer]</text>
<text text-anchor="start" x="734.54" y="-86.2" font-family="Arial" font-size="14.00"> Number of tokens in the content (for context budget management)</text>
<polygon fill="none" stroke="black" points="596.79,-43.2 596.79,-74 1252.83,-74 1252.83,-43.2 596.79,-43.2"/>
<text text-anchor="start" x="603.79" y="-55.4" font-family="Arial" font-size="14.00">updated_at </text>
<text text-anchor="start" x="677.74" y="-55.4" font-family="Arial" font-size="14.00" fill="#666666">[timestamp with time zone]</text>
<text text-anchor="start" x="843.47" y="-55.4" font-family="Arial" font-size="14.00"> When this memory was last modified</text>
</g>
<!-- public.working_memories&#45;&gt;public.nodes -->
<g id="edge1" class="edge">
<title>public.working_memories:node_id&#45;&gt;public.nodes:id</title>
<path fill="none" stroke="black" d="M1343.05,-673.1C1265.59,-664.9 1323.05,-558.29 1305.81,-471.2 1291.81,-400.49 1325.91,-151 1253.83,-151"/>
<polygon fill="black" stroke="black" points="1342.86,-673.09 1352.62,-678.08 1348.19,-673.35 1352.51,-673.57 1352.51,-673.57 1352.51,-673.57 1348.19,-673.35 1353.07,-669.09 1342.86,-673.09"/>
<text text-anchor="start" x="1095.02" y="-657.6" font-family="Arial" font-size="10.00">FOREIGN KEY (node_id) REFERENCES nodes(id) ON DELETE CASCADE</text>
</g>
<!-- public.robots -->
<g id="node5" class="node">
<title>public.robots</title>
<polygon fill="#efefef" stroke="none" points="1357.7,-274.2 1357.7,-320.2 1861.91,-320.2 1861.91,-274.2 1357.7,-274.2"/>
<polygon fill="none" stroke="black" points="1357.7,-274.2 1357.7,-320.2 1861.91,-320.2 1861.91,-274.2 1357.7,-274.2"/>
<text text-anchor="start" x="1500.32" y="-298" font-family="Arial Bold" font-size="18.00">public.robots</text>
<text text-anchor="start" x="1594.81" y="-298" font-family="Arial" font-size="14.00">    </text>
<text text-anchor="start" x="1625.92" y="-298" font-family="Arial" font-size="14.00" fill="#666666">[BASE TABLE]</text>
<text text-anchor="start" x="1458.87" y="-283.6" font-family="Arial" font-size="14.00" fill="#333333">Registry of all LLM robots using the HTM system</text>
<polygon fill="none" stroke="black" points="1357.7,-243.4 1357.7,-274.2 1861.91,-274.2 1861.91,-243.4 1357.7,-243.4"/>
<text text-anchor="start" x="1364.7" y="-255.6" font-family="Arial" font-size="14.00">created_at </text>
<text text-anchor="start" x="1434.75" y="-255.6" font-family="Arial" font-size="14.00" fill="#666666">[timestamp with time zone]</text>
<text text-anchor="start" x="1600.47" y="-255.6" font-family="Arial" font-size="14.00"> When the robot was first registered</text>
<polygon fill="none" stroke="black" points="1357.7,-212.6 1357.7,-243.4 1861.91,-243.4 1861.91,-212.6 1357.7,-212.6"/>
<text text-anchor="start" x="1364.7" y="-224.8" font-family="Arial" font-size="14.00">id </text>
<text text-anchor="start" x="1379.49" y="-224.8" font-family="Arial" font-size="14.00" fill="#666666">[bigint]</text>
<polygon fill="none" stroke="black" points="1357.7,-181.8 1357.7,-212.6 1861.91,-212.6 1861.91,-181.8 1357.7,-181.8"/>
<text text-anchor="start" x="1364.7" y="-194" font-family="Arial" font-size="14.00">last_active </text>
<text text-anchor="start" x="1434.73" y="-194" font-family="Arial" font-size="14.00" fill="#666666">[timestamp with time zone]</text>
<text text-anchor="start" x="1600.46" y="-194" font-family="Arial" font-size="14.00"> Last time the robot accessed the system</text>
<polygon fill="none" stroke="black" points="1357.7,-151 1357.7,-181.8 1861.91,-181.8 1861.91,-151 1357.7,-151"/>
<text text-anchor="start" x="1364.7" y="-163.2" font-family="Arial" font-size="14.00">name </text>
<text text-anchor="start" x="1403.61" y="-163.2" font-family="Arial" font-size="14.00" fill="#666666">[text]</text>
<text text-anchor="start" x="1433.95" y="-163.2" font-family="Arial" font-size="14.00"> Human&#45;readable name for the robot</text>
</g>
<!-- public.working_memories&#45;&gt;public.robots -->
<g id="edge4" class="edge">
<title>public.working_memories:robot_id&#45;&gt;public.robots:id</title>
<path fill="none" stroke="black" d="M1876.3,-641.13C1958.23,-612.59 1951.67,-228 1862.91,-228"/>
<polygon fill="black" stroke="black" points="1876.62,-641.07 1866.01,-638.31 1871.36,-641.96 1867.09,-642.69 1867.09,-642.69 1867.09,-642.69 1871.36,-641.96 1867.51,-647.18 1876.62,-641.07"/>
<text text-anchor="start" x="1873.43" y="-652.8" font-family="Arial" font-size="10.00">FOREIGN KEY (robot_id) REFERENCES robots(id) ON DELETE CASCADE</text>
</g>
<!-- public.node_tags -->
<g id="node3" class="node">
<title>public.node_tags</title>
<polygon fill="#efefef" stroke="none" points="43.2,-735.2 43.2,-781.2 512.41,-781.2 512.41,-735.2 43.2,-735.2"/>
<polygon fill="none" stroke="black" points="43.2,-735.2 43.2,-781.2 512.41,-781.2 512.41,-735.2 43.2,-735.2"/>
<text text-anchor="start" x="154.32" y="-759" font-family="Arial Bold" font-size="18.00">public.node_tags</text>
<text text-anchor="start" x="276.8" y="-759" font-family="Arial" font-size="14.00">    </text>
<text text-anchor="start" x="307.92" y="-759" font-family="Arial" font-size="14.00" fill="#666666">[BASE TABLE]</text>
<text text-anchor="start" x="116.72" y="-744.6" font-family="Arial" font-size="14.00" fill="#333333">Join table connecting nodes to tags (many&#45;to&#45;many)</text>
<polygon fill="none" stroke="black" points="43.2,-704.4 43.2,-735.2 512.41,-735.2 512.41,-704.4 43.2,-704.4"/>
<text text-anchor="start" x="50.2" y="-716.6" font-family="Arial" font-size="14.00">created_at </text>
<text text-anchor="start" x="120.25" y="-716.6" font-family="Arial" font-size="14.00" fill="#666666">[timestamp with time zone]</text>
<text text-anchor="start" x="285.97" y="-716.6" font-family="Arial" font-size="14.00"> When this association was created</text>
<polygon fill="none" stroke="black" points="43.2,-673.6 43.2,-704.4 512.41,-704.4 512.41,-673.6 43.2,-673.6"/>
<text text-anchor="start" x="50.2" y="-685.8" font-family="Arial" font-size="14.00">id </text>
<text text-anchor="start" x="64.99" y="-685.8" font-family="Arial" font-size="14.00" fill="#666666">[bigint]</text>
<polygon fill="none" stroke="black" points="43.2,-642.8 43.2,-673.6 512.41,-673.6 512.41,-642.8 43.2,-642.8"/>
<text text-anchor="start" x="50.2" y="-655" font-family="Arial" font-size="14.00">node_id </text>
<text text-anchor="start" x="103.92" y="-655" font-family="Arial" font-size="14.00" fill="#666666">[bigint]</text>
<text text-anchor="start" x="145.16" y="-655" font-family="Arial" font-size="14.00"> ID of the node being tagged</text>
<polygon fill="none" stroke="black" points="43.2,-612 43.2,-642.8 512.41,-642.8 512.41,-612 43.2,-612"/>
<text text-anchor="start" x="50.2" y="-624.2" font-family="Arial" font-size="14.00">tag_id </text>
<text text-anchor="start" x="92.23" y="-624.2" font-family="Arial" font-size="14.00" fill="#666666">[bigint]</text>
<text text-anchor="start" x="133.48" y="-624.2" font-family="Arial" font-size="14.00"> ID of the tag being applied</text>
</g>
<!-- public.node_tags&#45;&gt;public.nodes -->
<g id="edge2" class="edge">
<title>public.node_tags:node_id&#45;&gt;public.nodes:id</title>
<path fill="none" stroke="black" d="M523.66,-656.65C618.46,-626.04 485.28,-151 595.79,-151"/>
<polygon fill="black" stroke="black" points="523.63,-656.66 513.07,-653.7 518.36,-657.45 514.07,-658.1 514.07,-658.1 514.07,-658.1 518.36,-657.45 514.41,-662.6 523.63,-656.66"/>
<text text-anchor="start" x="520.41" y="-668.2" font-family="Arial" font-size="10.00">FOREIGN KEY (node_id) REFERENCES nodes(id) ON DELETE CASCADE</text>
</g>
<!-- public.robot_nodes -->
<g id="node4" class="node">
<title>public.robot_nodes</title>
<polygon fill="#efefef" stroke="none" points="617.06,-796.8 617.06,-842.8 1246.55,-842.8 1246.55,-796.8 617.06,-796.8"/>
<polygon fill="none" stroke="black" points="617.06,-796.8 617.06,-842.8 1246.55,-842.8 1246.55,-796.8 617.06,-796.8"/>
<text text-anchor="start" x="800.32" y="-820.6" font-family="Arial Bold" font-size="18.00">public.robot_nodes</text>
<text text-anchor="start" x="938.8" y="-820.6" font-family="Arial" font-size="14.00">    </text>
<text text-anchor="start" x="969.92" y="-820.6" font-family="Arial" font-size="14.00" fill="#666666">[BASE TABLE]</text>
<text text-anchor="start" x="764.5" y="-806.2" font-family="Arial" font-size="14.00" fill="#333333">Join table connecting robots to nodes (many&#45;to&#45;many)</text>
<polygon fill="none" stroke="black" points="617.06,-766 617.06,-796.8 1246.55,-796.8 1246.55,-766 617.06,-766"/>
<text text-anchor="start" x="624.06" y="-778.2" font-family="Arial" font-size="14.00">created_at </text>
<text text-anchor="start" x="694.11" y="-778.2" font-family="Arial" font-size="14.00" fill="#666666">[timestamp with time zone]</text>
<polygon fill="none" stroke="black" points="617.06,-735.2 617.06,-766 1246.55,-766 1246.55,-735.2 617.06,-735.2"/>
<text text-anchor="start" x="624.06" y="-747.4" font-family="Arial" font-size="14.00">first_remembered_at </text>
<text text-anchor="start" x="757.12" y="-747.4" font-family="Arial" font-size="14.00" fill="#666666">[timestamp with time zone]</text>
<text text-anchor="start" x="922.84" y="-747.4" font-family="Arial" font-size="14.00"> When this robot first remembered this content</text>
<polygon fill="none" stroke="black" points="617.06,-704.4 617.06,-735.2 1246.55,-735.2 1246.55,-704.4 617.06,-704.4"/>
<text text-anchor="start" x="624.06" y="-716.6" font-family="Arial" font-size="14.00">id </text>
<text text-anchor="start" x="638.85" y="-716.6" font-family="Arial" font-size="14.00" fill="#666666">[bigint]</text>
<polygon fill="none" stroke="black" points="617.06,-673.6 617.06,-704.4 1246.55,-704.4 1246.55,-673.6 617.06,-673.6"/>
<text text-anchor="start" x="624.06" y="-685.8" font-family="Arial" font-size="14.00">last_remembered_at </text>
<text text-anchor="start" x="756.35" y="-685.8" font-family="Arial" font-size="14.00" fill="#666666">[timestamp with time zone]</text>
<text text-anchor="start" x="922.08" y="-685.8" font-family="Arial" font-size="14.00"> When this robot last tried to remember this content</text>
<polygon fill="none" stroke="black" points="617.06,-642.8 617.06,-673.6 1246.55,-673.6 1246.55,-642.8 617.06,-642.8"/>
<text text-anchor="start" x="624.06" y="-655" font-family="Arial" font-size="14.00">node_id </text>
<text text-anchor="start" x="677.78" y="-655" font-family="Arial" font-size="14.00" fill="#666666">[bigint]</text>
<text text-anchor="start" x="719.03" y="-655" font-family="Arial" font-size="14.00"> ID of the node being remembered</text>
<polygon fill="none" stroke="black" points="617.06,-612 617.06,-642.8 1246.55,-642.8 1246.55,-612 617.06,-612"/>
<text text-anchor="start" x="624.06" y="-624.2" font-family="Arial" font-size="14.00">remember_count </text>
<text text-anchor="start" x="733.78" y="-624.2" font-family="Arial" font-size="14.00" fill="#666666">[integer]</text>
<text text-anchor="start" x="784.37" y="-624.2" font-family="Arial" font-size="14.00"> Number of times this robot has tried to remember this content</text>
<polygon fill="none" stroke="black" points="617.06,-581.2 617.06,-612 1246.55,-612 1246.55,-581.2 617.06,-581.2"/>
<text text-anchor="start" x="624.06" y="-593.4" font-family="Arial" font-size="14.00">robot_id </text>
<text text-anchor="start" x="678.54" y="-593.4" font-family="Arial" font-size="14.00" fill="#666666">[bigint]</text>
<text text-anchor="start" x="719.79" y="-593.4" font-family="Arial" font-size="14.00"> ID of the robot that remembered this node</text>
<polygon fill="none" stroke="black" points="617.06,-550.4 617.06,-581.2 1246.55,-581.2 1246.55,-550.4 617.06,-550.4"/>
<text text-anchor="start" x="624.06" y="-562.6" font-family="Arial" font-size="14.00">updated_at </text>
<text text-anchor="start" x="698.02" y="-562.6" font-family="Arial" font-size="14.00" fill="#666666">[timestamp with time zone]</text>
</g>
<!-- public.robot_nodes&#45;&gt;public.nodes -->
<g id="edge3" class="edge">
<title>public.robot_nodes:node_id&#45;&gt;public.nodes:id</title>
<path fill="none" stroke="black" d="M605.84,-657.31C551.41,-647.16 573.34,-553.17 617.06,-507.2 714.59,-404.67 1155.47,-573.9 1252.83,-471.2 1301.78,-419.56 1324.98,-151 1253.83,-151"/>
<polygon fill="black" stroke="black" points="605.77,-657.3 615.34,-662.65 611.08,-657.76 615.4,-658.14 615.4,-658.14 615.4,-658.14 611.08,-657.76 616.12,-653.69 605.77,-657.3"/>
<text text-anchor="start" x="623.06" y="-642.2" font-family="Arial" font-size="10.00">FOREIGN KEY (node_id) REFERENCES nodes(id) ON DELETE CASCADE</text>
</g>
<!-- public.robot_nodes&#45;&gt;public.robots -->
<g id="edge5" class="edge">
<title>public.robot_nodes:robot_id&#45;&gt;public.robots:id</title>
<path fill="none" stroke="black" d="M1257.78,-595.88C1306.16,-588.49 1286.74,-525.85 1304.81,-471.2 1322.15,-418.73 1301.44,-228 1356.7,-228"/>
<polygon fill="black" stroke="black" points="1257.86,-595.87 1247.57,-592.09 1252.54,-596.25 1248.22,-596.55 1248.22,-596.55 1248.22,-596.55 1252.54,-596.25 1248.2,-601.07 1257.86,-595.87"/>
<text text-anchor="start" x="1077.23" y="-580.6" font-family="Arial" font-size="10.00">FOREIGN KEY (robot_id) REFERENCES robots(id) ON DELETE CASCADE</text>
</g>
</g>
</svg>
