<?xml version="1.0" encoding="UTF-8" standalone="no"?>
<!DOCTYPE svg PUBLIC "-//W3C//DTD SVG 1.1//EN"
 "http://www.w3.org/Graphics/SVG/1.1/DTD/svg11.dtd">
<!-- Generated by graphviz version 12.1.2 (20240928.0832)
 -->
<!-- Title: public.node_tags Pages: 1 -->
<svg width="2086pt" height="894pt"
 viewBox="0.00 0.00 2086.46 894.00" xmlns="http://www.w3.org/2000/svg" xmlns:xlink="http://www.w3.org/1999/xlink">
<g id="graph0" class="graph" transform="scale(1 1) rotate(0) translate(4 890)">
<title>public.node_tags</title>
<polygon fill="white" stroke="none" points="-4,4 -4,-890 2082.46,-890 2082.46,4 -4,4"/>
<!-- public.node_tags -->
<g id="node1" class="node">
<title>public.node_tags</title>
<polygon fill="#efefef" stroke="none" points="1464.34,-735.2 1464.34,-781.2 1933.55,-781.2 1933.55,-735.2 1464.34,-735.2"/>
<polygon fill="none" stroke="black" points="1464.34,-735.2 1464.34,-781.2 1933.55,-781.2 1933.55,-735.2 1464.34,-735.2"/>
<text text-anchor="start" x="1575.46" y="-759" font-family="Arial Bold" font-size="18.00">public.node_tags</text>
<text text-anchor="start" x="1697.94" y="-759" font-family="Arial" font-size="14.00">    </text>
<text text-anchor="start" x="1729.05" y="-759" font-family="Arial" font-size="14.00" fill="#666666">[BASE TABLE]</text>
<text text-anchor="start" x="1537.86" y="-744.6" font-family="Arial" font-size="14.00" fill="#333333">Join table connecting nodes to tags (many&#45;to&#45;many)</text>
<polygon fill="none" stroke="black" points="1464.34,-704.4 1464.34,-735.2 1933.55,-735.2 1933.55,-704.4 1464.34,-704.4"/>
<text text-anchor="start" x="1471.34" y="-716.6" font-family="Arial" font-size="14.00">created_at </text>
<text text-anchor="start" x="1541.39" y="-716.6" font-family="Arial" font-size="14.00" fill="#666666">[timestamp with time zone]</text>
<text text-anchor="start" x="1707.11" y="-716.6" font-family="Arial" font-size="14.00"> When this association was created</text>
<polygon fill="none" stroke="black" points="1464.34,-673.6 1464.34,-704.4 1933.55,-704.4 1933.55,-673.6 1464.34,-673.6"/>
<text text-anchor="start" x="1471.34" y="-685.8" font-family="Arial" font-size="14.00">id </text>
<text text-anchor="start" x="1486.12" y="-685.8" font-family="Arial" font-size="14.00" fill="#666666">[bigint]</text>
<polygon fill="none" stroke="black" points="1464.34,-642.8 1464.34,-673.6 1933.55,-673.6 1933.55,-642.8 1464.34,-642.8"/>
<text text-anchor="start" x="1471.34" y="-655" font-family="Arial" font-size="14.00">node_id </text>
<text text-anchor="start" x="1525.05" y="-655" font-family="Arial" font-size="14.00" fill="#666666">[bigint]</text>
<text text-anchor="start" x="1566.3" y="-655" font-family="Arial" font-size="14.00"> ID of the node being tagged</text>
<polygon fill="none" stroke="black" points="1464.34,-612 1464.34,-642.8 1933.55,-642.8 1933.55,-612 1464.34,-612"/>
<text text-anchor="start" x="1471.34" y="-624.2" font-family="Arial" font-size="14.00">tag_id </text>
<text text-anchor="start" x="1513.37" y="-624.2" font-family="Arial" font-size="14.00" fill="#666666">[bigint]</text>
<text text-anchor="start" x="1554.62" y="-624.2" font-family="Arial" font-size="14.00"> ID of the tag being applied</text>
<polygon fill="none" stroke="black" stroke-width="3" points="1462.84,-610.5 1462.84,-782.7 1935.05,-782.7 1935.05,-610.5 1462.84,-610.5"/>
</g>
<!-- public.nodes -->
<g id="node2" class="node">
<title>public.nodes</title>
<polygon fill="#efefef" stroke="none" points="669.92,-382 669.92,-428 1325.96,-428 1325.96,-382 669.92,-382"/>
<polygon fill="none" stroke="black" points="669.92,-382 669.92,-428 1325.96,-428 1325.96,-382 669.92,-382"/>
<text text-anchor="start" x="889.96" y="-405.8" font-family="Arial Bold" font-size="18.00">public.nodes</text>
<text text-anchor="start" x="981.44" y="-405.8" font-family="Arial" font-size="14.00">    </text>
<text text-anchor="start" x="1012.56" y="-405.8" font-family="Arial" font-size="14.00" fill="#666666">[BASE TABLE]</text>
<text text-anchor="start" x="806.52" y="-391.4" font-family="Arial" font-size="14.00" fill="#333333">Core memory storage for conversation messages and context</text>
<polygon fill="none" stroke="black" points="669.92,-351.2 669.92,-382 1325.96,-382 1325.96,-351.2 669.92,-351.2"/>
<text text-anchor="start" x="676.92" y="-363.4" font-family="Arial" font-size="14.00">access_count </text>
<text text-anchor="start" x="766.42" y="-363.4" font-family="Arial" font-size="14.00" fill="#666666">[integer]</text>
<text text-anchor="start" x="817.01" y="-363.4" font-family="Arial" font-size="14.00"> Number of times this node has been accessed/retrieved</text>
<polygon fill="none" stroke="black" points="669.92,-320.4 669.92,-351.2 1325.96,-351.2 1325.96,-320.4 669.92,-320.4"/>
<text text-anchor="start" x="676.92" y="-332.6" font-family="Arial" font-size="14.00">content </text>
<text text-anchor="start" x="726.74" y="-332.6" font-family="Arial" font-size="14.00" fill="#666666">[text]</text>
<text text-anchor="start" x="757.08" y="-332.6" font-family="Arial" font-size="14.00"> The conversation message/utterance content</text>
<polygon fill="none" stroke="black" points="669.92,-289.6 669.92,-320.4 1325.96,-320.4 1325.96,-289.6 669.92,-289.6"/>
<text text-anchor="start" x="676.92" y="-301.8" font-family="Arial" font-size="14.00">content_hash </text>
<text text-anchor="start" x="764.88" y="-301.8" font-family="Arial" font-size="14.00" fill="#666666">[varchar(64)]</text>
<text text-anchor="start" x="844.24" y="-301.8" font-family="Arial" font-size="14.00"> SHA&#45;256 hash of content for deduplication</text>
<polygon fill="none" stroke="black" points="669.92,-258.8 669.92,-289.6 1325.96,-289.6 1325.96,-258.8 669.92,-258.8"/>
<text text-anchor="start" x="676.92" y="-271" font-family="Arial" font-size="14.00">created_at </text>
<text text-anchor="start" x="746.97" y="-271" font-family="Arial" font-size="14.00" fill="#666666">[timestamp with time zone]</text>
<text text-anchor="start" x="912.7" y="-271" font-family="Arial" font-size="14.00"> When this memory was created</text>
<polygon fill="none" stroke="black" points="669.92,-228 669.92,-258.8 1325.96,-258.8 1325.96,-228 669.92,-228"/>
<text text-anchor="start" x="676.92" y="-240.2" font-family="Arial" font-size="14.00">deleted_at </text>
<text text-anchor="start" x="746.21" y="-240.2" font-family="Arial" font-size="14.00" fill="#666666">[timestamp with time zone]</text>
<text text-anchor="start" x="911.93" y="-240.2" font-family="Arial" font-size="14.00"> Soft delete timestamp &#45; node is considered deleted when set</text>
<polygon fill="none" stroke="black" points="669.92,-197.2 669.92,-228 1325.96,-228 1325.96,-197.2 669.92,-197.2"/>
<text text-anchor="start" x="676.92" y="-209.4" font-family="Arial" font-size="14.00">embedding </text>
<text text-anchor="start" x="750.09" y="-209.4" font-family="Arial" font-size="14.00" fill="#666666">[vector(2000)]</text>
<text text-anchor="start" x="836.46" y="-209.4" font-family="Arial" font-size="14.00"> Vector embedding (max 2000 dimensions) for semantic search</text>
<polygon fill="none" stroke="black" points="669.92,-166.4 669.92,-197.2 1325.96,-197.2 1325.96,-166.4 669.92,-166.4"/>
<text text-anchor="start" x="676.92" y="-178.6" font-family="Arial" font-size="14.00">embedding_dimension </text>
<text text-anchor="start" x="821.69" y="-178.6" font-family="Arial" font-size="14.00" fill="#666666">[integer]</text>
<text text-anchor="start" x="872.28" y="-178.6" font-family="Arial" font-size="14.00"> Actual number of dimensions used in the embedding vector (max 2000)</text>
<polygon fill="none" stroke="black" points="669.92,-135.6 669.92,-166.4 1325.96,-166.4 1325.96,-135.6 669.92,-135.6"/>
<text text-anchor="start" x="676.92" y="-147.8" font-family="Arial" font-size="14.00">id </text>
<text text-anchor="start" x="691.71" y="-147.8" font-family="Arial" font-size="14.00" fill="#666666">[bigint]</text>
<polygon fill="none" stroke="black" points="669.92,-104.8 669.92,-135.6 1325.96,-135.6 1325.96,-104.8 669.92,-104.8"/>
<text text-anchor="start" x="676.92" y="-117" font-family="Arial" font-size="14.00">last_accessed </text>
<text text-anchor="start" x="769.53" y="-117" font-family="Arial" font-size="14.00" fill="#666666">[timestamp with time zone]</text>
<text text-anchor="start" x="935.25" y="-117" font-family="Arial" font-size="14.00"> When this memory was last accessed</text>
<polygon fill="none" stroke="black" points="669.92,-74 669.92,-104.8 1325.96,-104.8 1325.96,-74 669.92,-74"/>
<text text-anchor="start" x="676.92" y="-86.2" font-family="Arial" font-size="14.00">token_count </text>
<text text-anchor="start" x="757.1" y="-86.2" font-family="Arial" font-size="14.00" fill="#666666">[integer]</text>
<text text-anchor="start" x="807.68" y="-86.2" font-family="Arial" font-size="14.00"> Number of tokens in the content (for context budget management)</text>
<polygon fill="none" stroke="black" points="669.92,-43.2 669.92,-74 1325.96,-74 1325.96,-43.2 669.92,-43.2"/>
<text text-anchor="start" x="676.92" y="-55.4" font-family="Arial" font-size="14.00">updated_at </text>
<text text-anchor="start" x="750.88" y="-55.4" font-family="Arial" font-size="14.00" fill="#666666">[timestamp with time zone]</text>
<text text-anchor="start" x="916.61" y="-55.4" font-family="Arial" font-size="14.00"> When this memory was last modified</text>
</g>
<!-- public.node_tags&#45;&gt;public.nodes -->
<g id="edge1" class="edge">
<title>public.node_tags:node_id&#45;&gt;public.nodes:id</title>
<path fill="none" stroke="black" d="M1453.19,-657.75C1374.41,-650.44 1403.31,-555.25 1377.94,-471.2 1357.12,-402.22 1399.01,-151 1326.96,-151"/>
<polygon fill="black" stroke="black" points="1453.01,-657.74 1462.8,-662.68 1458.34,-657.98 1462.67,-658.17 1462.67,-658.17 1462.67,-658.17 1458.34,-657.98 1463.2,-653.69 1453.01,-657.74"/>
<text text-anchor="start" x="1205.18" y="-642.2" font-family="Arial" font-size="10.00">FOREIGN KEY (node_id) REFERENCES nodes(id) ON DELETE CASCADE</text>
</g>
<!-- public.tags -->
<g id="node5" class="node">
<title>public.tags</title>
<polygon fill="#efefef" stroke="none" points="1430.63,-258.8 1430.63,-304.8 2035.26,-304.8 2035.26,-258.8 1430.63,-258.8"/>
<polygon fill="none" stroke="black" points="1430.63,-258.8 1430.63,-304.8 2035.26,-304.8 2035.26,-258.8 1430.63,-258.8"/>
<text text-anchor="start" x="1631.46" y="-282.6" font-family="Arial Bold" font-size="18.00">public.tags</text>
<text text-anchor="start" x="1709.94" y="-282.6" font-family="Arial" font-size="14.00">    </text>
<text text-anchor="start" x="1741.06" y="-282.6" font-family="Arial" font-size="14.00" fill="#666666">[BASE TABLE]</text>
<text text-anchor="start" x="1620.49" y="-268.2" font-family="Arial" font-size="14.00" fill="#333333">Unique tag names for categorization</text>
<polygon fill="none" stroke="black" points="1430.63,-228 1430.63,-258.8 2035.26,-258.8 2035.26,-228 1430.63,-228"/>
<text text-anchor="start" x="1437.63" y="-240.2" font-family="Arial" font-size="14.00">created_at </text>
<text text-anchor="start" x="1507.68" y="-240.2" font-family="Arial" font-size="14.00" fill="#666666">[timestamp with time zone]</text>
<text text-anchor="start" x="1673.4" y="-240.2" font-family="Arial" font-size="14.00"> When this tag was created</text>
<polygon fill="none" stroke="black" points="1430.63,-197.2 1430.63,-228 2035.26,-228 2035.26,-197.2 1430.63,-197.2"/>
<text text-anchor="start" x="1437.63" y="-209.4" font-family="Arial" font-size="14.00">id </text>
<text text-anchor="start" x="1452.42" y="-209.4" font-family="Arial" font-size="14.00" fill="#666666">[bigint]</text>
<polygon fill="none" stroke="black" points="1430.63,-166.4 1430.63,-197.2 2035.26,-197.2 2035.26,-166.4 1430.63,-166.4"/>
<text text-anchor="start" x="1437.63" y="-178.6" font-family="Arial" font-size="14.00">name </text>
<text text-anchor="start" x="1476.54" y="-178.6" font-family="Arial" font-size="14.00" fill="#666666">[text]</text>
<text text-anchor="start" x="1506.89" y="-178.6" font-family="Arial" font-size="14.00"> Hierarchical tag in format: root:level1:level2 (e.g., database:postgresql:timescaledb)</text>
</g>
<!-- public.node_tags&#45;&gt;public.tags -->
<g id="edge4" class="edge">
<title>public.node_tags:tag_id&#45;&gt;public.tags:id</title>
<path fill="none" stroke="black" d="M1698.69,-601.01C1690.67,-446.29 1494.53,-498.56 1430.63,-348 1407.12,-292.6 1369.45,-212.6 1429.63,-212.6"/>
<polygon fill="black" stroke="black" points="1698.68,-600.67 1694.44,-610.78 1698.82,-606 1698.93,-610.33 1698.93,-610.33 1698.93,-610.33 1698.82,-606 1703.43,-610.55 1698.68,-600.67"/>
<text text-anchor="start" x="1705.94" y="-621" font-family="Arial" font-size="10.00">FOREIGN KEY (tag_id) REFERENCES tags(id) ON DELETE CASCADE</text>
</g>
<!-- public.robot_nodes -->
<g id="node3" class="node">
<title>public.robot_nodes</title>
<polygon fill="#efefef" stroke="none" points="43.2,-796.8 43.2,-842.8 672.69,-842.8 672.69,-796.8 43.2,-796.8"/>
<polygon fill="none" stroke="black" points="43.2,-796.8 43.2,-842.8 672.69,-842.8 672.69,-796.8 43.2,-796.8"/>
<text text-anchor="start" x="226.46" y="-820.6" font-family="Arial Bold" font-size="18.00">public.robot_nodes</text>
<text text-anchor="start" x="364.94" y="-820.6" font-family="Arial" font-size="14.00">    </text>
<text text-anchor="start" x="396.06" y="-820.6" font-family="Arial" font-size="14.00" fill="#666666">[BASE TABLE]</text>
<text text-anchor="start" x="190.63" y="-806.2" font-family="Arial" font-size="14.00" fill="#333333">Join table connecting robots to nodes (many&#45;to&#45;many)</text>
<polygon fill="none" stroke="black" points="43.2,-766 43.2,-796.8 672.69,-796.8 672.69,-766 43.2,-766"/>
<text text-anchor="start" x="50.2" y="-778.2" font-family="Arial" font-size="14.00">created_at </text>
<text text-anchor="start" x="120.25" y="-778.2" font-family="Arial" font-size="14.00" fill="#666666">[timestamp with time zone]</text>
<polygon fill="none" stroke="black" points="43.2,-735.2 43.2,-766 672.69,-766 672.69,-735.2 43.2,-735.2"/>
<text text-anchor="start" x="50.2" y="-747.4" font-family="Arial" font-size="14.00">first_remembered_at </text>
<text text-anchor="start" x="183.25" y="-747.4" font-family="Arial" font-size="14.00" fill="#666666">[timestamp with time zone]</text>
<text text-anchor="start" x="348.98" y="-747.4" font-family="Arial" font-size="14.00"> When this robot first remembered this content</text>
<polygon fill="none" stroke="black" points="43.2,-704.4 43.2,-735.2 672.69,-735.2 672.69,-704.4 43.2,-704.4"/>
<text text-anchor="start" x="50.2" y="-716.6" font-family="Arial" font-size="14.00">id </text>
<text text-anchor="start" x="64.99" y="-716.6" font-family="Arial" font-size="14.00" fill="#666666">[bigint]</text>
<polygon fill="none" stroke="black" points="43.2,-673.6 43.2,-704.4 672.69,-704.4 672.69,-673.6 43.2,-673.6"/>
<text text-anchor="start" x="50.2" y="-685.8" font-family="Arial" font-size="14.00">last_remembered_at </text>
<text text-anchor="start" x="182.49" y="-685.8" font-family="Arial" font-size="14.00" fill="#666666">[timestamp with time zone]</text>
<text text-anchor="start" x="348.21" y="-685.8" font-family="Arial" font-size="14.00"> When this robot last tried to remember this content</text>
<polygon fill="none" stroke="black" points="43.2,-642.8 43.2,-673.6 672.69,-673.6 672.69,-642.8 43.2,-642.8"/>
<text text-anchor="start" x="50.2" y="-655" font-family="Arial" font-size="14.00">node_id </text>
<text text-anchor="start" x="103.92" y="-655" font-family="Arial" font-size="14.00" fill="#666666">[bigint]</text>
<text text-anchor="start" x="145.16" y="-655" font-family="Arial" font-size="14.00"> ID of the node being remembered</text>
<polygon fill="none" stroke="black" points="43.2,-612 43.2,-642.8 672.69,-642.8 672.69,-612 43.2,-612"/>
<text text-anchor="start" x="50.2" y="-624.2" font-family="Arial" font-size="14.00">remember_count </text>
<text text-anchor="start" x="159.92" y="-624.2" font-family="Arial" font-size="14.00" fill="#666666">[integer]</text>
<text text-anchor="start" x="210.5" y="-624.2" font-family="Arial" font-size="14.00"> Number of times this robot has tried to remember this content</text>
<polygon fill="none" stroke="black" points="43.2,-581.2 43.2,-612 672.69,-612 672.69,-581.2 43.2,-581.2"/>
<text text-anchor="start" x="50.2" y="-593.4" font-family="Arial" font-size="14.00">robot_id </text>
<text text-anchor="start" x="104.68" y="-593.4" font-family="Arial" font-size="14.00" fill="#666666">[bigint]</text>
<text text-anchor="start" x="145.93" y="-593.4" font-family="Arial" font-size="14.00"> ID of the robot that remembered this node</text>
<polygon fill="none" stroke="black" points="43.2,-550.4 43.2,-581.2 672.69,-581.2 672.69,-550.4 43.2,-550.4"/>
<text text-anchor="start" x="50.2" y="-562.6" font-family="Arial" font-size="14.00">updated_at </text>
<text text-anchor="start" x="124.16" y="-562.6" font-family="Arial" font-size="14.00" fill="#666666">[timestamp with time zone]</text>
</g>
<!-- public.robot_nodes&#45;&gt;public.nodes -->
<g id="edge2" class="edge">
<title>public.robot_nodes:node_id&#45;&gt;public.nodes:id</title>
<path fill="none" stroke="black" d="M683.85,-657.41C733.6,-648.74 675.32,-570.46 672.69,-507.2 666.1,-349.02 510.6,-151 668.92,-151"/>
<polygon fill="black" stroke="black" points="683.99,-657.4 673.67,-653.69 678.67,-657.81 674.35,-658.15 674.35,-658.15 674.35,-658.15 678.67,-657.81 674.37,-662.66 683.99,-657.4"/>
<text text-anchor="start" x="680.69" y="-668.2" font-family="Arial" font-size="10.00">FOREIGN KEY (node_id) REFERENCES nodes(id) ON DELETE CASCADE</text>
</g>
<!-- public.working_memories -->
<g id="node4" class="node">
<title>public.working_memories</title>
<polygon fill="#efefef" stroke="none" points="777.32,-750.6 777.32,-796.6 1288.57,-796.6 1288.57,-750.6 777.32,-750.6"/>
<polygon fill="none" stroke="black" points="777.32,-750.6 777.32,-796.6 1288.57,-796.6 1288.57,-750.6 777.32,-750.6"/>
<text text-anchor="start" x="875.97" y="-774.4" font-family="Arial Bold" font-size="18.00">public.working_memories</text>
<text text-anchor="start" x="1065.43" y="-774.4" font-family="Arial" font-size="14.00">    </text>
<text text-anchor="start" x="1096.55" y="-774.4" font-family="Arial" font-size="14.00" fill="#666666">[BASE TABLE]</text>
<text text-anchor="start" x="864.49" y="-760" font-family="Arial" font-size="14.00" fill="#333333">Per&#45;robot working memory state (optional persistence)</text>
<polygon fill="none" stroke="black" points="777.32,-719.8 777.32,-750.6 1288.57,-750.6 1288.57,-719.8 777.32,-719.8"/>
<text text-anchor="start" x="784.32" y="-732" font-family="Arial" font-size="14.00">added_at </text>
<text text-anchor="start" x="846.6" y="-732" font-family="Arial" font-size="14.00" fill="#666666">[timestamp with time zone]</text>
<text text-anchor="start" x="1012.32" y="-732" font-family="Arial" font-size="14.00"> When node was added to working memory</text>
<polygon fill="none" stroke="black" points="777.32,-689 777.32,-719.8 1288.57,-719.8 1288.57,-689 777.32,-689"/>
<text text-anchor="start" x="784.32" y="-701.2" font-family="Arial" font-size="14.00">id </text>
<text text-anchor="start" x="799.1" y="-701.2" font-family="Arial" font-size="14.00" fill="#666666">[bigint]</text>
<polygon fill="none" stroke="black" points="777.32,-658.2 777.32,-689 1288.57,-689 1288.57,-658.2 777.32,-658.2"/>
<text text-anchor="start" x="784.32" y="-670.4" font-family="Arial" font-size="14.00">node_id </text>
<text text-anchor="start" x="838.03" y="-670.4" font-family="Arial" font-size="14.00" fill="#666666">[bigint]</text>
<text text-anchor="start" x="879.28" y="-670.4" font-family="Arial" font-size="14.00"> Node currently in working memory</text>
<polygon fill="none" stroke="black" points="777.32,-627.4 777.32,-658.2 1288.57,-658.2 1288.57,-627.4 777.32,-627.4"/>
<text text-anchor="start" x="784.32" y="-639.6" font-family="Arial" font-size="14.00">robot_id </text>
<text text-anchor="start" x="838.8" y="-639.6" font-family="Arial" font-size="14.00" fill="#666666">[bigint]</text>
<text text-anchor="start" x="880.05" y="-639.6" font-family="Arial" font-size="14.00"> Robot whose working memory this belongs to</text>
<polygon fill="none" stroke="black" points="777.32,-596.6 777.32,-627.4 1288.57,-627.4 1288.57,-596.6 777.32,-596.6"/>
<text text-anchor="start" x="784.32" y="-608.8" font-family="Arial" font-size="14.00">token_count </text>
<text text-anchor="start" x="864.49" y="-608.8" font-family="Arial" font-size="14.00" fill="#666666">[integer]</text>
<text text-anchor="start" x="915.08" y="-608.8" font-family="Arial" font-size="14.00"> Cached token count for budget tracking</text>
</g>
<!-- public.working_memories&#45;&gt;public.nodes -->
<g id="edge3" class="edge">
<title>public.working_memories:node_id&#45;&gt;public.nodes:id</title>
<path fill="none" stroke="black" d="M766.11,-672.46C725.7,-662.56 744.75,-590.9 777.32,-553.4 939.01,-367.25 1164.76,-657.77 1325.96,-471.2 1372.48,-417.36 1398.12,-151 1326.96,-151"/>
<polygon fill="black" stroke="black" points="766.05,-672.45 775.48,-678.03 771.35,-673.04 775.65,-673.53 775.65,-673.53 775.65,-673.53 771.35,-673.04 776.49,-669.09 766.05,-672.45"/>
<text text-anchor="start" x="783.32" y="-683.6" font-family="Arial" font-size="10.00">FOREIGN KEY (node_id) REFERENCES nodes(id) ON DELETE CASCADE</text>
</g>
</g>
</svg>
