<?xml version="1.0" encoding="UTF-8" standalone="no"?>
<!DOCTYPE svg PUBLIC "-//W3C//DTD SVG 1.1//EN"
 "http://www.w3.org/Graphics/SVG/1.1/DTD/svg11.dtd">
<!-- Generated by graphviz version 12.1.2 (20240928.0832)
 -->
<!-- Title: htm_development Pages: 1 -->
<svg width="2221pt" height="1494pt"
 viewBox="0.00 0.00 2220.69 1493.60" xmlns="http://www.w3.org/2000/svg" xmlns:xlink="http://www.w3.org/1999/xlink">
<g id="graph0" class="graph" transform="scale(1 1) rotate(0) translate(4 1489.6)">
<title>htm_development</title>
<polygon fill="white" stroke="none" points="-4,4 -4,-1489.6 2216.69,-1489.6 2216.69,4 -4,4"/>
<!-- public.file_sources -->
<g id="node1" class="node">
<title>public.file_sources</title>
<polygon fill="#efefef" stroke="none" points="834.64,-320.4 834.64,-366.4 1326.38,-366.4 1326.38,-320.4 834.64,-320.4"/>
<polygon fill="none" stroke="black" points="834.64,-320.4 834.64,-366.4 1326.38,-366.4 1326.38,-320.4 834.64,-320.4"/>
<text text-anchor="start" x="950.04" y="-344.2" font-family="Arial Bold" font-size="18.00">public.file_sources</text>
<text text-anchor="start" x="1086.5" y="-344.2" font-family="Arial" font-size="14.00">    </text>
<text text-anchor="start" x="1117.61" y="-344.2" font-family="Arial" font-size="14.00" fill="#666666">[BASE TABLE]</text>
<text text-anchor="start" x="947.04" y="-329.8" font-family="Arial" font-size="14.00" fill="#333333">Source file metadata for loaded documents</text>
<polygon fill="none" stroke="black" points="834.64,-289.6 834.64,-320.4 1326.38,-320.4 1326.38,-289.6 834.64,-289.6"/>
<text text-anchor="start" x="841.64" y="-301.8" font-family="Arial" font-size="14.00">created_at </text>
<text text-anchor="start" x="911.69" y="-301.8" font-family="Arial" font-size="14.00" fill="#666666">[timestamp with time zone]</text>
<polygon fill="none" stroke="black" points="834.64,-258.8 834.64,-289.6 1326.38,-289.6 1326.38,-258.8 834.64,-258.8"/>
<text text-anchor="start" x="841.64" y="-271" font-family="Arial" font-size="14.00">file_hash </text>
<text text-anchor="start" x="901.57" y="-271" font-family="Arial" font-size="14.00" fill="#666666">[varchar(64)]</text>
<text text-anchor="start" x="980.93" y="-271" font-family="Arial" font-size="14.00"> SHA&#45;256 hash of file content</text>
<polygon fill="none" stroke="black" points="834.64,-228 834.64,-258.8 1326.38,-258.8 1326.38,-228 834.64,-228"/>
<text text-anchor="start" x="841.64" y="-240.2" font-family="Arial" font-size="14.00">file_path </text>
<text text-anchor="start" x="898.46" y="-240.2" font-family="Arial" font-size="14.00" fill="#666666">[text]</text>
<text text-anchor="start" x="928.81" y="-240.2" font-family="Arial" font-size="14.00"> Absolute path to source file</text>
<polygon fill="none" stroke="black" points="834.64,-197.2 834.64,-228 1326.38,-228 1326.38,-197.2 834.64,-197.2"/>
<text text-anchor="start" x="841.64" y="-209.4" font-family="Arial" font-size="14.00">file_size </text>
<text text-anchor="start" x="896.11" y="-209.4" font-family="Arial" font-size="14.00" fill="#666666">[integer]</text>
<text text-anchor="start" x="946.7" y="-209.4" font-family="Arial" font-size="14.00"> File size in bytes</text>
<polygon fill="none" stroke="black" points="834.64,-166.4 834.64,-197.2 1326.38,-197.2 1326.38,-166.4 834.64,-166.4"/>
<text text-anchor="start" x="841.64" y="-178.6" font-family="Arial" font-size="14.00">frontmatter </text>
<text text-anchor="start" x="913.22" y="-178.6" font-family="Arial" font-size="14.00" fill="#666666">[jsonb]</text>
<text text-anchor="start" x="954.47" y="-178.6" font-family="Arial" font-size="14.00"> Parsed YAML frontmatter</text>
<polygon fill="none" stroke="black" points="834.64,-135.6 834.64,-166.4 1326.38,-166.4 1326.38,-135.6 834.64,-135.6"/>
<text text-anchor="start" x="841.64" y="-147.8" font-family="Arial" font-size="14.00">id </text>
<text text-anchor="start" x="856.43" y="-147.8" font-family="Arial" font-size="14.00" fill="#666666">[bigint]</text>
<polygon fill="none" stroke="black" points="834.64,-104.8 834.64,-135.6 1326.38,-135.6 1326.38,-104.8 834.64,-104.8"/>
<text text-anchor="start" x="841.64" y="-117" font-family="Arial" font-size="14.00">last_synced_at </text>
<text text-anchor="start" x="938.92" y="-117" font-family="Arial" font-size="14.00" fill="#666666">[timestamp with time zone]</text>
<text text-anchor="start" x="1104.65" y="-117" font-family="Arial" font-size="14.00"> When file was last synced to HTM</text>
<polygon fill="none" stroke="black" points="834.64,-74 834.64,-104.8 1326.38,-104.8 1326.38,-74 834.64,-74"/>
<text text-anchor="start" x="841.64" y="-86.2" font-family="Arial" font-size="14.00">mtime </text>
<text text-anchor="start" x="883.64" y="-86.2" font-family="Arial" font-size="14.00" fill="#666666">[timestamp with time zone]</text>
<text text-anchor="start" x="1049.36" y="-86.2" font-family="Arial" font-size="14.00"> File modification time</text>
<polygon fill="none" stroke="black" points="834.64,-43.2 834.64,-74 1326.38,-74 1326.38,-43.2 834.64,-43.2"/>
<text text-anchor="start" x="841.64" y="-55.4" font-family="Arial" font-size="14.00">updated_at </text>
<text text-anchor="start" x="915.6" y="-55.4" font-family="Arial" font-size="14.00" fill="#666666">[timestamp with time zone]</text>
</g>
<!-- public.node_tags -->
<g id="node2" class="node">
<title>public.node_tags</title>
<polygon fill="#efefef" stroke="none" points="493.91,-1319.4 493.91,-1365.4 963.12,-1365.4 963.12,-1319.4 493.91,-1319.4"/>
<polygon fill="none" stroke="black" points="493.91,-1319.4 493.91,-1365.4 963.12,-1365.4 963.12,-1319.4 493.91,-1319.4"/>
<text text-anchor="start" x="605.03" y="-1343.2" font-family="Arial Bold" font-size="18.00">public.node_tags</text>
<text text-anchor="start" x="727.51" y="-1343.2" font-family="Arial" font-size="14.00">    </text>
<text text-anchor="start" x="758.62" y="-1343.2" font-family="Arial" font-size="14.00" fill="#666666">[BASE TABLE]</text>
<text text-anchor="start" x="567.43" y="-1328.8" font-family="Arial" font-size="14.00" fill="#333333">Join table connecting nodes to tags (many&#45;to&#45;many)</text>
<polygon fill="none" stroke="black" points="493.91,-1288.6 493.91,-1319.4 963.12,-1319.4 963.12,-1288.6 493.91,-1288.6"/>
<text text-anchor="start" x="500.91" y="-1300.8" font-family="Arial" font-size="14.00">created_at </text>
<text text-anchor="start" x="570.95" y="-1300.8" font-family="Arial" font-size="14.00" fill="#666666">[timestamp with time zone]</text>
<text text-anchor="start" x="736.68" y="-1300.8" font-family="Arial" font-size="14.00"> When this association was created</text>
<polygon fill="none" stroke="black" points="493.91,-1257.8 493.91,-1288.6 963.12,-1288.6 963.12,-1257.8 493.91,-1257.8"/>
<text text-anchor="start" x="500.91" y="-1270" font-family="Arial" font-size="14.00">deleted_at </text>
<text text-anchor="start" x="570.19" y="-1270" font-family="Arial" font-size="14.00" fill="#666666">[timestamp with time zone]</text>
<text text-anchor="start" x="735.91" y="-1270" font-family="Arial" font-size="14.00"> Soft delete timestamp</text>
<polygon fill="none" stroke="black" points="493.91,-1227 493.91,-1257.8 963.12,-1257.8 963.12,-1227 493.91,-1227"/>
<text text-anchor="start" x="500.91" y="-1239.2" font-family="Arial" font-size="14.00">id </text>
<text text-anchor="start" x="515.69" y="-1239.2" font-family="Arial" font-size="14.00" fill="#666666">[bigint]</text>
<polygon fill="none" stroke="black" points="493.91,-1196.2 493.91,-1227 963.12,-1227 963.12,-1196.2 493.91,-1196.2"/>
<text text-anchor="start" x="500.91" y="-1208.4" font-family="Arial" font-size="14.00">node_id </text>
<text text-anchor="start" x="554.62" y="-1208.4" font-family="Arial" font-size="14.00" fill="#666666">[bigint]</text>
<text text-anchor="start" x="595.87" y="-1208.4" font-family="Arial" font-size="14.00"> ID of the node being tagged</text>
<polygon fill="none" stroke="black" points="493.91,-1165.4 493.91,-1196.2 963.12,-1196.2 963.12,-1165.4 493.91,-1165.4"/>
<text text-anchor="start" x="500.91" y="-1177.6" font-family="Arial" font-size="14.00">tag_id </text>
<text text-anchor="start" x="542.94" y="-1177.6" font-family="Arial" font-size="14.00" fill="#666666">[bigint]</text>
<text text-anchor="start" x="584.19" y="-1177.6" font-family="Arial" font-size="14.00"> ID of the tag being applied</text>
</g>
<!-- public.nodes -->
<g id="node3" class="node">
<title>public.nodes</title>
<polygon fill="#efefef" stroke="none" points="752.49,-920 752.49,-966 1408.53,-966 1408.53,-920 752.49,-920"/>
<polygon fill="none" stroke="black" points="752.49,-920 752.49,-966 1408.53,-966 1408.53,-920 752.49,-920"/>
<text text-anchor="start" x="972.53" y="-943.8" font-family="Arial Bold" font-size="18.00">public.nodes</text>
<text text-anchor="start" x="1064.01" y="-943.8" font-family="Arial" font-size="14.00">    </text>
<text text-anchor="start" x="1095.13" y="-943.8" font-family="Arial" font-size="14.00" fill="#666666">[BASE TABLE]</text>
<text text-anchor="start" x="889.09" y="-929.4" font-family="Arial" font-size="14.00" fill="#333333">Core memory storage for conversation messages and context</text>
<polygon fill="none" stroke="black" points="752.49,-889.2 752.49,-920 1408.53,-920 1408.53,-889.2 752.49,-889.2"/>
<text text-anchor="start" x="759.49" y="-901.4" font-family="Arial" font-size="14.00">access_count </text>
<text text-anchor="start" x="848.99" y="-901.4" font-family="Arial" font-size="14.00" fill="#666666">[integer]</text>
<text text-anchor="start" x="899.58" y="-901.4" font-family="Arial" font-size="14.00"> Number of times this node has been accessed/retrieved</text>
<polygon fill="none" stroke="black" points="752.49,-858.4 752.49,-889.2 1408.53,-889.2 1408.53,-858.4 752.49,-858.4"/>
<text text-anchor="start" x="759.49" y="-870.6" font-family="Arial" font-size="14.00">chunk_position </text>
<text text-anchor="start" x="856.78" y="-870.6" font-family="Arial" font-size="14.00" fill="#666666">[integer]</text>
<text text-anchor="start" x="907.37" y="-870.6" font-family="Arial" font-size="14.00"> Position within source file (0&#45;indexed)</text>
<polygon fill="none" stroke="black" points="752.49,-827.6 752.49,-858.4 1408.53,-858.4 1408.53,-827.6 752.49,-827.6"/>
<text text-anchor="start" x="759.49" y="-839.8" font-family="Arial" font-size="14.00">content </text>
<text text-anchor="start" x="809.31" y="-839.8" font-family="Arial" font-size="14.00" fill="#666666">[text]</text>
<text text-anchor="start" x="839.65" y="-839.8" font-family="Arial" font-size="14.00"> The conversation message/utterance content</text>
<polygon fill="none" stroke="black" points="752.49,-796.8 752.49,-827.6 1408.53,-827.6 1408.53,-796.8 752.49,-796.8"/>
<text text-anchor="start" x="759.49" y="-809" font-family="Arial" font-size="14.00">content_hash </text>
<text text-anchor="start" x="847.45" y="-809" font-family="Arial" font-size="14.00" fill="#666666">[varchar(64)]</text>
<text text-anchor="start" x="926.81" y="-809" font-family="Arial" font-size="14.00"> SHA&#45;256 hash of content for deduplication</text>
<polygon fill="none" stroke="black" points="752.49,-766 752.49,-796.8 1408.53,-796.8 1408.53,-766 752.49,-766"/>
<text text-anchor="start" x="759.49" y="-778.2" font-family="Arial" font-size="14.00">created_at </text>
<text text-anchor="start" x="829.54" y="-778.2" font-family="Arial" font-size="14.00" fill="#666666">[timestamp with time zone]</text>
<text text-anchor="start" x="995.26" y="-778.2" font-family="Arial" font-size="14.00"> When this memory was created</text>
<polygon fill="none" stroke="black" points="752.49,-735.2 752.49,-766 1408.53,-766 1408.53,-735.2 752.49,-735.2"/>
<text text-anchor="start" x="759.49" y="-747.4" font-family="Arial" font-size="14.00">deleted_at </text>
<text text-anchor="start" x="828.78" y="-747.4" font-family="Arial" font-size="14.00" fill="#666666">[timestamp with time zone]</text>
<text text-anchor="start" x="994.5" y="-747.4" font-family="Arial" font-size="14.00"> Soft delete timestamp &#45; node is considered deleted when set</text>
<polygon fill="none" stroke="black" points="752.49,-704.4 752.49,-735.2 1408.53,-735.2 1408.53,-704.4 752.49,-704.4"/>
<text text-anchor="start" x="759.49" y="-716.6" font-family="Arial" font-size="14.00">embedding </text>
<text text-anchor="start" x="832.66" y="-716.6" font-family="Arial" font-size="14.00" fill="#666666">[vector(2000)]</text>
<text text-anchor="start" x="919.03" y="-716.6" font-family="Arial" font-size="14.00"> Vector embedding (max 2000 dimensions) for semantic search</text>
<polygon fill="none" stroke="black" points="752.49,-673.6 752.49,-704.4 1408.53,-704.4 1408.53,-673.6 752.49,-673.6"/>
<text text-anchor="start" x="759.49" y="-685.8" font-family="Arial" font-size="14.00">embedding_dimension </text>
<text text-anchor="start" x="904.26" y="-685.8" font-family="Arial" font-size="14.00" fill="#666666">[integer]</text>
<text text-anchor="start" x="954.84" y="-685.8" font-family="Arial" font-size="14.00"> Actual number of dimensions used in the embedding vector (max 2000)</text>
<polygon fill="none" stroke="black" points="752.49,-642.8 752.49,-673.6 1408.53,-673.6 1408.53,-642.8 752.49,-642.8"/>
<text text-anchor="start" x="759.49" y="-655" font-family="Arial" font-size="14.00">id </text>
<text text-anchor="start" x="774.28" y="-655" font-family="Arial" font-size="14.00" fill="#666666">[bigint]</text>
<polygon fill="none" stroke="black" points="752.49,-612 752.49,-642.8 1408.53,-642.8 1408.53,-612 752.49,-612"/>
<text text-anchor="start" x="759.49" y="-624.2" font-family="Arial" font-size="14.00">last_accessed </text>
<text text-anchor="start" x="852.1" y="-624.2" font-family="Arial" font-size="14.00" fill="#666666">[timestamp with time zone]</text>
<text text-anchor="start" x="1017.82" y="-624.2" font-family="Arial" font-size="14.00"> When this memory was last accessed</text>
<polygon fill="none" stroke="black" points="752.49,-581.2 752.49,-612 1408.53,-612 1408.53,-581.2 752.49,-581.2"/>
<text text-anchor="start" x="759.49" y="-593.4" font-family="Arial" font-size="14.00">metadata </text>
<text text-anchor="start" x="821.76" y="-593.4" font-family="Arial" font-size="14.00" fill="#666666">[jsonb]</text>
<text text-anchor="start" x="863" y="-593.4" font-family="Arial" font-size="14.00"> Flexible metadata storage (memory_type, importance, source, etc.)</text>
<polygon fill="none" stroke="black" points="752.49,-550.4 752.49,-581.2 1408.53,-581.2 1408.53,-550.4 752.49,-550.4"/>
<text text-anchor="start" x="759.49" y="-562.6" font-family="Arial" font-size="14.00">source_id </text>
<text text-anchor="start" x="824.09" y="-562.6" font-family="Arial" font-size="14.00" fill="#666666">[bigint]</text>
<text text-anchor="start" x="865.33" y="-562.6" font-family="Arial" font-size="14.00"> Reference to source file (for file&#45;loaded nodes)</text>
<polygon fill="none" stroke="black" points="752.49,-519.6 752.49,-550.4 1408.53,-550.4 1408.53,-519.6 752.49,-519.6"/>
<text text-anchor="start" x="759.49" y="-531.8" font-family="Arial" font-size="14.00">token_count </text>
<text text-anchor="start" x="839.67" y="-531.8" font-family="Arial" font-size="14.00" fill="#666666">[integer]</text>
<text text-anchor="start" x="890.25" y="-531.8" font-family="Arial" font-size="14.00"> Number of tokens in the content (for context budget management)</text>
<polygon fill="none" stroke="black" points="752.49,-488.8 752.49,-519.6 1408.53,-519.6 1408.53,-488.8 752.49,-488.8"/>
<text text-anchor="start" x="759.49" y="-501" font-family="Arial" font-size="14.00">updated_at </text>
<text text-anchor="start" x="833.45" y="-501" font-family="Arial" font-size="14.00" fill="#666666">[timestamp with time zone]</text>
<text text-anchor="start" x="999.18" y="-501" font-family="Arial" font-size="14.00"> When this memory was last modified</text>
</g>
<!-- public.node_tags&#45;&gt;public.nodes -->
<g id="edge1" class="edge">
<title>public.node_tags:node_id&#45;&gt;public.nodes:id</title>
<path fill="none" stroke="black" d="M974.1,-1210.09C999.92,-1200.98 981.7,-1152.86 963.12,-1122.2 908.07,-1031.35 807.17,-1100.28 752.49,-1009.2 712.35,-942.32 673.49,-658.2 751.49,-658.2"/>
<polygon fill="black" stroke="black" points="974.34,-1210.05 963.77,-1207.1 969.06,-1210.85 964.78,-1211.5 964.78,-1211.5 964.78,-1211.5 969.06,-1210.85 965.12,-1216 974.34,-1210.05"/>
<text text-anchor="start" x="971.12" y="-1221.6" font-family="Arial" font-size="10.00">FOREIGN KEY (node_id) REFERENCES nodes(id) ON DELETE CASCADE</text>
</g>
<!-- public.tags -->
<g id="node7" class="node">
<title>public.tags</title>
<polygon fill="#efefef" stroke="none" points="43.2,-766 43.2,-812 647.83,-812 647.83,-766 43.2,-766"/>
<polygon fill="none" stroke="black" points="43.2,-766 43.2,-812 647.83,-812 647.83,-766 43.2,-766"/>
<text text-anchor="start" x="244.02" y="-789.8" font-family="Arial Bold" font-size="18.00">public.tags</text>
<text text-anchor="start" x="322.51" y="-789.8" font-family="Arial" font-size="14.00">    </text>
<text text-anchor="start" x="353.63" y="-789.8" font-family="Arial" font-size="14.00" fill="#666666">[BASE TABLE]</text>
<text text-anchor="start" x="233.06" y="-775.4" font-family="Arial" font-size="14.00" fill="#333333">Unique tag names for categorization</text>
<polygon fill="none" stroke="black" points="43.2,-735.2 43.2,-766 647.83,-766 647.83,-735.2 43.2,-735.2"/>
<text text-anchor="start" x="50.2" y="-747.4" font-family="Arial" font-size="14.00">created_at </text>
<text text-anchor="start" x="120.25" y="-747.4" font-family="Arial" font-size="14.00" fill="#666666">[timestamp with time zone]</text>
<text text-anchor="start" x="285.97" y="-747.4" font-family="Arial" font-size="14.00"> When this tag was created</text>
<polygon fill="none" stroke="black" points="43.2,-704.4 43.2,-735.2 647.83,-735.2 647.83,-704.4 43.2,-704.4"/>
<text text-anchor="start" x="50.2" y="-716.6" font-family="Arial" font-size="14.00">deleted_at </text>
<text text-anchor="start" x="119.48" y="-716.6" font-family="Arial" font-size="14.00" fill="#666666">[timestamp with time zone]</text>
<text text-anchor="start" x="285.21" y="-716.6" font-family="Arial" font-size="14.00"> Soft delete timestamp</text>
<polygon fill="none" stroke="black" points="43.2,-673.6 43.2,-704.4 647.83,-704.4 647.83,-673.6 43.2,-673.6"/>
<text text-anchor="start" x="50.2" y="-685.8" font-family="Arial" font-size="14.00">id </text>
<text text-anchor="start" x="64.99" y="-685.8" font-family="Arial" font-size="14.00" fill="#666666">[bigint]</text>
<polygon fill="none" stroke="black" points="43.2,-642.8 43.2,-673.6 647.83,-673.6 647.83,-642.8 43.2,-642.8"/>
<text text-anchor="start" x="50.2" y="-655" font-family="Arial" font-size="14.00">name </text>
<text text-anchor="start" x="89.11" y="-655" font-family="Arial" font-size="14.00" fill="#666666">[text]</text>
<text text-anchor="start" x="119.45" y="-655" font-family="Arial" font-size="14.00"> Hierarchical tag in format: root:level1:level2 (e.g., database:postgresql:timescaledb)</text>
</g>
<!-- public.node_tags&#45;&gt;public.tags -->
<g id="edge2" class="edge">
<title>public.node_tags:tag_id&#45;&gt;public.tags:id</title>
<path fill="none" stroke="black" d="M482.99,-1177.8C473.66,-1169.03 488.21,-1142.79 493.91,-1122.2 530.44,-990.19 612.02,-987.41 647.83,-855.2 667.13,-783.9 722.69,-689 648.83,-689"/>
<polygon fill="black" stroke="black" points="483.02,-1177.81 491.28,-1185.01 488.12,-1179.35 492.27,-1180.61 492.27,-1180.61 492.27,-1180.61 488.12,-1179.35 493.89,-1176.4 483.02,-1177.81"/>
<text text-anchor="start" x="163.05" y="-1190.8" font-family="Arial" font-size="10.00">FOREIGN KEY (tag_id) REFERENCES tags(id) ON DELETE CASCADE</text>
</g>
<!-- public.nodes&#45;&gt;public.file_sources -->
<g id="edge3" class="edge">
<title>public.nodes:source_id&#45;&gt;public.file_sources:id</title>
<path fill="none" stroke="black" d="M1419.75,-563.95C1497.06,-534.03 1417.68,-151 1327.38,-151"/>
<polygon fill="black" stroke="black" points="1419.7,-563.96 1409.06,-561.31 1414.45,-564.91 1410.19,-565.68 1410.19,-565.68 1410.19,-565.68 1414.45,-564.91 1410.66,-570.17 1419.7,-563.96"/>
<text text-anchor="start" x="1416.53" y="-575.8" font-family="Arial" font-size="10.00">FOREIGN KEY (source_id) REFERENCES file_sources(id) ON DELETE SET NULL</text>
</g>
<!-- public.robot_nodes -->
<g id="node4" class="node">
<title>public.robot_nodes</title>
<polygon fill="#efefef" stroke="none" points="1107.77,-1396.4 1107.77,-1442.4 1737.26,-1442.4 1737.26,-1396.4 1107.77,-1396.4"/>
<polygon fill="none" stroke="black" points="1107.77,-1396.4 1107.77,-1442.4 1737.26,-1442.4 1737.26,-1396.4 1107.77,-1396.4"/>
<text text-anchor="start" x="1291.03" y="-1420.2" font-family="Arial Bold" font-size="18.00">public.robot_nodes</text>
<text text-anchor="start" x="1429.51" y="-1420.2" font-family="Arial" font-size="14.00">    </text>
<text text-anchor="start" x="1460.63" y="-1420.2" font-family="Arial" font-size="14.00" fill="#666666">[BASE TABLE]</text>
<text text-anchor="start" x="1255.2" y="-1405.8" font-family="Arial" font-size="14.00" fill="#333333">Join table connecting robots to nodes (many&#45;to&#45;many)</text>
<polygon fill="none" stroke="black" points="1107.77,-1365.6 1107.77,-1396.4 1737.26,-1396.4 1737.26,-1365.6 1107.77,-1365.6"/>
<text text-anchor="start" x="1114.77" y="-1377.8" font-family="Arial" font-size="14.00">created_at </text>
<text text-anchor="start" x="1184.82" y="-1377.8" font-family="Arial" font-size="14.00" fill="#666666">[timestamp with time zone]</text>
<polygon fill="none" stroke="black" points="1107.77,-1334.8 1107.77,-1365.6 1737.26,-1365.6 1737.26,-1334.8 1107.77,-1334.8"/>
<text text-anchor="start" x="1114.77" y="-1347" font-family="Arial" font-size="14.00">deleted_at </text>
<text text-anchor="start" x="1184.05" y="-1347" font-family="Arial" font-size="14.00" fill="#666666">[timestamp with time zone]</text>
<text text-anchor="start" x="1349.77" y="-1347" font-family="Arial" font-size="14.00"> Soft delete timestamp</text>
<polygon fill="none" stroke="black" points="1107.77,-1304 1107.77,-1334.8 1737.26,-1334.8 1737.26,-1304 1107.77,-1304"/>
<text text-anchor="start" x="1114.77" y="-1316.2" font-family="Arial" font-size="14.00">first_remembered_at </text>
<text text-anchor="start" x="1247.82" y="-1316.2" font-family="Arial" font-size="14.00" fill="#666666">[timestamp with time zone]</text>
<text text-anchor="start" x="1413.55" y="-1316.2" font-family="Arial" font-size="14.00"> When this robot first remembered this content</text>
<polygon fill="none" stroke="black" points="1107.77,-1273.2 1107.77,-1304 1737.26,-1304 1737.26,-1273.2 1107.77,-1273.2"/>
<text text-anchor="start" x="1114.77" y="-1285.4" font-family="Arial" font-size="14.00">id </text>
<text text-anchor="start" x="1129.55" y="-1285.4" font-family="Arial" font-size="14.00" fill="#666666">[bigint]</text>
<polygon fill="none" stroke="black" points="1107.77,-1242.4 1107.77,-1273.2 1737.26,-1273.2 1737.26,-1242.4 1107.77,-1242.4"/>
<text text-anchor="start" x="1114.77" y="-1254.6" font-family="Arial" font-size="14.00">last_remembered_at </text>
<text text-anchor="start" x="1247.06" y="-1254.6" font-family="Arial" font-size="14.00" fill="#666666">[timestamp with time zone]</text>
<text text-anchor="start" x="1412.78" y="-1254.6" font-family="Arial" font-size="14.00"> When this robot last tried to remember this content</text>
<polygon fill="none" stroke="black" points="1107.77,-1211.6 1107.77,-1242.4 1737.26,-1242.4 1737.26,-1211.6 1107.77,-1211.6"/>
<text text-anchor="start" x="1114.77" y="-1223.8" font-family="Arial" font-size="14.00">node_id </text>
<text text-anchor="start" x="1168.49" y="-1223.8" font-family="Arial" font-size="14.00" fill="#666666">[bigint]</text>
<text text-anchor="start" x="1209.73" y="-1223.8" font-family="Arial" font-size="14.00"> ID of the node being remembered</text>
<polygon fill="none" stroke="black" points="1107.77,-1180.8 1107.77,-1211.6 1737.26,-1211.6 1737.26,-1180.8 1107.77,-1180.8"/>
<text text-anchor="start" x="1114.77" y="-1193" font-family="Arial" font-size="14.00">remember_count </text>
<text text-anchor="start" x="1224.49" y="-1193" font-family="Arial" font-size="14.00" fill="#666666">[integer]</text>
<text text-anchor="start" x="1275.07" y="-1193" font-family="Arial" font-size="14.00"> Number of times this robot has tried to remember this content</text>
<polygon fill="none" stroke="black" points="1107.77,-1150 1107.77,-1180.8 1737.26,-1180.8 1737.26,-1150 1107.77,-1150"/>
<text text-anchor="start" x="1114.77" y="-1162.2" font-family="Arial" font-size="14.00">robot_id </text>
<text text-anchor="start" x="1169.25" y="-1162.2" font-family="Arial" font-size="14.00" fill="#666666">[bigint]</text>
<text text-anchor="start" x="1210.5" y="-1162.2" font-family="Arial" font-size="14.00"> ID of the robot that remembered this node</text>
<polygon fill="none" stroke="black" points="1107.77,-1119.2 1107.77,-1150 1737.26,-1150 1737.26,-1119.2 1107.77,-1119.2"/>
<text text-anchor="start" x="1114.77" y="-1131.4" font-family="Arial" font-size="14.00">updated_at </text>
<text text-anchor="start" x="1188.73" y="-1131.4" font-family="Arial" font-size="14.00" fill="#666666">[timestamp with time zone]</text>
<polygon fill="none" stroke="black" points="1107.77,-1088.4 1107.77,-1119.2 1737.26,-1119.2 1737.26,-1088.4 1107.77,-1088.4"/>
<text text-anchor="start" x="1114.77" y="-1100.6" font-family="Arial" font-size="14.00">working_memory </text>
<text text-anchor="start" x="1225.24" y="-1100.6" font-family="Arial" font-size="14.00" fill="#666666">[boolean]</text>
<text text-anchor="start" x="1282.85" y="-1100.6" font-family="Arial" font-size="14.00"> True if this node is currently in the robot working memory</text>
</g>
<!-- public.robot_nodes&#45;&gt;public.nodes -->
<g id="edge5" class="edge">
<title>public.robot_nodes:node_id&#45;&gt;public.nodes:id</title>
<path fill="none" stroke="black" d="M1096.53,-1226.28C1028.54,-1216.21 1056.39,-1102.78 1107.77,-1045.2 1197.41,-944.75 1319.03,-1109.77 1408.53,-1009.2 1460.39,-950.93 1487.53,-658.2 1409.53,-658.2"/>
<polygon fill="black" stroke="black" points="1096.46,-1226.28 1106.12,-1231.47 1101.78,-1226.65 1106.1,-1226.95 1106.1,-1226.95 1106.1,-1226.95 1101.78,-1226.65 1106.75,-1222.49 1096.46,-1226.28"/>
<text text-anchor="start" x="848.61" y="-1211" font-family="Arial" font-size="10.00">FOREIGN KEY (node_id) REFERENCES nodes(id) ON DELETE CASCADE</text>
</g>
<!-- public.robots -->
<g id="node5" class="node">
<title>public.robots</title>
<polygon fill="#efefef" stroke="none" points="1513.41,-766 1513.41,-812 2017.62,-812 2017.62,-766 1513.41,-766"/>
<polygon fill="none" stroke="black" points="1513.41,-766 1513.41,-812 2017.62,-812 2017.62,-766 1513.41,-766"/>
<text text-anchor="start" x="1656.02" y="-789.8" font-family="Arial Bold" font-size="18.00">public.robots</text>
<text text-anchor="start" x="1750.51" y="-789.8" font-family="Arial" font-size="14.00">    </text>
<text text-anchor="start" x="1781.63" y="-789.8" font-family="Arial" font-size="14.00" fill="#666666">[BASE TABLE]</text>
<text text-anchor="start" x="1614.57" y="-775.4" font-family="Arial" font-size="14.00" fill="#333333">Registry of all LLM robots using the HTM system</text>
<polygon fill="none" stroke="black" points="1513.41,-735.2 1513.41,-766 2017.62,-766 2017.62,-735.2 1513.41,-735.2"/>
<text text-anchor="start" x="1520.41" y="-747.4" font-family="Arial" font-size="14.00">created_at </text>
<text text-anchor="start" x="1590.45" y="-747.4" font-family="Arial" font-size="14.00" fill="#666666">[timestamp with time zone]</text>
<text text-anchor="start" x="1756.18" y="-747.4" font-family="Arial" font-size="14.00"> When the robot was first registered</text>
<polygon fill="none" stroke="black" points="1513.41,-704.4 1513.41,-735.2 2017.62,-735.2 2017.62,-704.4 1513.41,-704.4"/>
<text text-anchor="start" x="1520.41" y="-716.6" font-family="Arial" font-size="14.00">id </text>
<text text-anchor="start" x="1535.19" y="-716.6" font-family="Arial" font-size="14.00" fill="#666666">[bigint]</text>
<polygon fill="none" stroke="black" points="1513.41,-673.6 1513.41,-704.4 2017.62,-704.4 2017.62,-673.6 1513.41,-673.6"/>
<text text-anchor="start" x="1520.41" y="-685.8" font-family="Arial" font-size="14.00">last_active </text>
<text text-anchor="start" x="1590.44" y="-685.8" font-family="Arial" font-size="14.00" fill="#666666">[timestamp with time zone]</text>
<text text-anchor="start" x="1756.16" y="-685.8" font-family="Arial" font-size="14.00"> Last time the robot accessed the system</text>
<polygon fill="none" stroke="black" points="1513.41,-642.8 1513.41,-673.6 2017.62,-673.6 2017.62,-642.8 1513.41,-642.8"/>
<text text-anchor="start" x="1520.41" y="-655" font-family="Arial" font-size="14.00">name </text>
<text text-anchor="start" x="1559.32" y="-655" font-family="Arial" font-size="14.00" fill="#666666">[text]</text>
<text text-anchor="start" x="1589.66" y="-655" font-family="Arial" font-size="14.00"> Human&#45;readable name for the robot</text>
</g>
<!-- public.robot_nodes&#45;&gt;public.robots -->
<g id="edge4" class="edge">
<title>public.robot_nodes:robot_id&#45;&gt;public.robots:id</title>
<path fill="none" stroke="black" d="M1748.29,-1164.37C1787.26,-1155.42 1758.31,-1090.19 1737.26,-1045.2 1681.95,-927.01 1568.66,-973.42 1513.41,-855.2 1487.93,-800.68 1452.23,-719.8 1512.41,-719.8"/>
<polygon fill="black" stroke="black" points="1748.54,-1164.34 1738.13,-1160.89 1743.23,-1164.89 1738.92,-1165.33 1738.92,-1165.33 1738.92,-1165.33 1743.23,-1164.89 1739.05,-1169.84 1748.54,-1164.34"/>
<text text-anchor="start" x="1745.26" y="-1149.4" font-family="Arial" font-size="10.00">FOREIGN KEY (robot_id) REFERENCES robots(id) ON DELETE CASCADE</text>
</g>
<!-- public.schema_migrations -->
<g id="node6" class="node">
<title>public.schema_migrations</title>
<polygon fill="#efefef" stroke="none" points="1841.54,-1263 1841.54,-1298.6 2169.49,-1298.6 2169.49,-1263 1841.54,-1263"/>
<polygon fill="none" stroke="black" points="1841.54,-1263 1841.54,-1298.6 2169.49,-1298.6 2169.49,-1263 1841.54,-1263"/>
<text text-anchor="start" x="1848.54" y="-1276.4" font-family="Arial Bold" font-size="18.00">public.schema_migrations</text>
<text text-anchor="start" x="2038" y="-1276.4" font-family="Arial" font-size="14.00">    </text>
<text text-anchor="start" x="2069.11" y="-1276.4" font-family="Arial" font-size="14.00" fill="#666666">[BASE TABLE]</text>
<polygon fill="none" stroke="black" points="1841.54,-1232.2 1841.54,-1263 2169.49,-1263 2169.49,-1232.2 1841.54,-1232.2"/>
<text text-anchor="start" x="1848.54" y="-1244.4" font-family="Arial" font-size="14.00">version </text>
<text text-anchor="start" x="1897.56" y="-1244.4" font-family="Arial" font-size="14.00" fill="#666666">[varchar]</text>
</g>
</g>
</svg>
