<?xml version="1.0" encoding="UTF-8" standalone="no"?>
<!DOCTYPE svg PUBLIC "-//W3C//DTD SVG 1.1//EN"
 "http://www.w3.org/Graphics/SVG/1.1/DTD/svg11.dtd">
<!-- Generated by graphviz version 12.1.2 (20240928.0832)
 -->
<!-- Title: htm_development Pages: 1 -->
<svg width="2561pt" height="1401pt"
 viewBox="0.00 0.00 2560.69 1401.20" xmlns="http://www.w3.org/2000/svg" xmlns:xlink="http://www.w3.org/1999/xlink">
<g id="graph0" class="graph" transform="scale(1 1) rotate(0) translate(4 1397.2)">
<title>htm_development</title>
<polygon fill="white" stroke="none" points="-4,4 -4,-1397.2 2556.69,-1397.2 2556.69,4 -4,4"/>
<!-- public.file_sources -->
<g id="node1" class="node">
<title>public.file_sources</title>
<polygon fill="#efefef" stroke="none" points="834.64,-320.4 834.64,-366.4 1326.38,-366.4 1326.38,-320.4 834.64,-320.4"/>
<polygon fill="none" stroke="black" points="834.64,-320.4 834.64,-366.4 1326.38,-366.4 1326.38,-320.4 834.64,-320.4"/>
<text text-anchor="start" x="950.04" y="-344.2" font-family="Arial Bold" font-size="18.00">public.file_sources</text>
<text text-anchor="start" x="1086.5" y="-344.2" font-family="Arial" font-size="14.00">    </text>
<text text-anchor="start" x="1117.61" y="-344.2" font-family="Arial" font-size="14.00" fill="#666666">[BASE TABLE]</text>
<text text-anchor="start" x="947.04" y="-329.8" font-family="Arial" font-size="14.00" fill="#333333">Source file metadata for loaded documents</text>
<polygon fill="none" stroke="black" points="834.64,-289.6 834.64,-320.4 1326.38,-320.4 1326.38,-289.6 834.64,-289.6"/>
<text text-anchor="start" x="841.64" y="-301.8" font-family="Arial" font-size="14.00">created_at </text>
<text text-anchor="start" x="911.69" y="-301.8" font-family="Arial" font-size="14.00" fill="#666666">[timestamp with time zone]</text>
<polygon fill="none" stroke="black" points="834.64,-258.8 834.64,-289.6 1326.38,-289.6 1326.38,-258.8 834.64,-258.8"/>
<text text-anchor="start" x="841.64" y="-271" font-family="Arial" font-size="14.00">file_hash </text>
<text text-anchor="start" x="901.57" y="-271" font-family="Arial" font-size="14.00" fill="#666666">[varchar(64)]</text>
<text text-anchor="start" x="980.93" y="-271" font-family="Arial" font-size="14.00"> SHA&#45;256 hash of file content</text>
<polygon fill="none" stroke="black" points="834.64,-228 834.64,-258.8 1326.38,-258.8 1326.38,-228 834.64,-228"/>
<text text-anchor="start" x="841.64" y="-240.2" font-family="Arial" font-size="14.00">file_path </text>
<text text-anchor="start" x="898.46" y="-240.2" font-family="Arial" font-size="14.00" fill="#666666">[text]</text>
<text text-anchor="start" x="928.81" y="-240.2" font-family="Arial" font-size="14.00"> Absolute path to source file</text>
<polygon fill="none" stroke="black" points="834.64,-197.2 834.64,-228 1326.38,-228 1326.38,-197.2 834.64,-197.2"/>
<text text-anchor="start" x="841.64" y="-209.4" font-family="Arial" font-size="14.00">file_size </text>
<text text-anchor="start" x="896.11" y="-209.4" font-family="Arial" font-size="14.00" fill="#666666">[integer]</text>
<text text-anchor="start" x="946.7" y="-209.4" font-family="Arial" font-size="14.00"> File size in bytes</text>
<polygon fill="none" stroke="black" points="834.64,-166.4 834.64,-197.2 1326.38,-197.2 1326.38,-166.4 834.64,-166.4"/>
<text text-anchor="start" x="841.64" y="-178.6" font-family="Arial" font-size="14.00">frontmatter </text>
<text text-anchor="start" x="913.22" y="-178.6" font-family="Arial" font-size="14.00" fill="#666666">[jsonb]</text>
<text text-anchor="start" x="954.47" y="-178.6" font-family="Arial" font-size="14.00"> Parsed YAML frontmatter</text>
<polygon fill="none" stroke="black" points="834.64,-135.6 834.64,-166.4 1326.38,-166.4 1326.38,-135.6 834.64,-135.6"/>
<text text-anchor="start" x="841.64" y="-147.8" font-family="Arial" font-size="14.00">id </text>
<text text-anchor="start" x="856.43" y="-147.8" font-family="Arial" font-size="14.00" fill="#666666">[bigint]</text>
<polygon fill="none" stroke="black" points="834.64,-104.8 834.64,-135.6 1326.38,-135.6 1326.38,-104.8 834.64,-104.8"/>
<text text-anchor="start" x="841.64" y="-117" font-family="Arial" font-size="14.00">last_synced_at </text>
<text text-anchor="start" x="938.92" y="-117" font-family="Arial" font-size="14.00" fill="#666666">[timestamp with time zone]</text>
<text text-anchor="start" x="1104.65" y="-117" font-family="Arial" font-size="14.00"> When file was last synced to HTM</text>
<polygon fill="none" stroke="black" points="834.64,-74 834.64,-104.8 1326.38,-104.8 1326.38,-74 834.64,-74"/>
<text text-anchor="start" x="841.64" y="-86.2" font-family="Arial" font-size="14.00">mtime </text>
<text text-anchor="start" x="883.64" y="-86.2" font-family="Arial" font-size="14.00" fill="#666666">[timestamp with time zone]</text>
<text text-anchor="start" x="1049.36" y="-86.2" font-family="Arial" font-size="14.00"> File modification time</text>
<polygon fill="none" stroke="black" points="834.64,-43.2 834.64,-74 1326.38,-74 1326.38,-43.2 834.64,-43.2"/>
<text text-anchor="start" x="841.64" y="-55.4" font-family="Arial" font-size="14.00">updated_at </text>
<text text-anchor="start" x="915.6" y="-55.4" font-family="Arial" font-size="14.00" fill="#666666">[timestamp with time zone]</text>
</g>
<!-- public.node_tags -->
<g id="node2" class="node">
<title>public.node_tags</title>
<polygon fill="#efefef" stroke="none" points="182.91,-1242.4 182.91,-1288.4 652.12,-1288.4 652.12,-1242.4 182.91,-1242.4"/>
<polygon fill="none" stroke="black" points="182.91,-1242.4 182.91,-1288.4 652.12,-1288.4 652.12,-1242.4 182.91,-1242.4"/>
<text text-anchor="start" x="294.03" y="-1266.2" font-family="Arial Bold" font-size="18.00">public.node_tags</text>
<text text-anchor="start" x="416.51" y="-1266.2" font-family="Arial" font-size="14.00">    </text>
<text text-anchor="start" x="447.62" y="-1266.2" font-family="Arial" font-size="14.00" fill="#666666">[BASE TABLE]</text>
<text text-anchor="start" x="256.43" y="-1251.8" font-family="Arial" font-size="14.00" fill="#333333">Join table connecting nodes to tags (many&#45;to&#45;many)</text>
<polygon fill="none" stroke="black" points="182.91,-1211.6 182.91,-1242.4 652.12,-1242.4 652.12,-1211.6 182.91,-1211.6"/>
<text text-anchor="start" x="189.91" y="-1223.8" font-family="Arial" font-size="14.00">created_at </text>
<text text-anchor="start" x="259.95" y="-1223.8" font-family="Arial" font-size="14.00" fill="#666666">[timestamp with time zone]</text>
<text text-anchor="start" x="425.68" y="-1223.8" font-family="Arial" font-size="14.00"> When this association was created</text>
<polygon fill="none" stroke="black" points="182.91,-1180.8 182.91,-1211.6 652.12,-1211.6 652.12,-1180.8 182.91,-1180.8"/>
<text text-anchor="start" x="189.91" y="-1193" font-family="Arial" font-size="14.00">id </text>
<text text-anchor="start" x="204.69" y="-1193" font-family="Arial" font-size="14.00" fill="#666666">[bigint]</text>
<polygon fill="none" stroke="black" points="182.91,-1150 182.91,-1180.8 652.12,-1180.8 652.12,-1150 182.91,-1150"/>
<text text-anchor="start" x="189.91" y="-1162.2" font-family="Arial" font-size="14.00">node_id </text>
<text text-anchor="start" x="243.62" y="-1162.2" font-family="Arial" font-size="14.00" fill="#666666">[bigint]</text>
<text text-anchor="start" x="284.87" y="-1162.2" font-family="Arial" font-size="14.00"> ID of the node being tagged</text>
<polygon fill="none" stroke="black" points="182.91,-1119.2 182.91,-1150 652.12,-1150 652.12,-1119.2 182.91,-1119.2"/>
<text text-anchor="start" x="189.91" y="-1131.4" font-family="Arial" font-size="14.00">tag_id </text>
<text text-anchor="start" x="231.94" y="-1131.4" font-family="Arial" font-size="14.00" fill="#666666">[bigint]</text>
<text text-anchor="start" x="273.19" y="-1131.4" font-family="Arial" font-size="14.00"> ID of the tag being applied</text>
</g>
<!-- public.nodes -->
<g id="node3" class="node">
<title>public.nodes</title>
<polygon fill="#efefef" stroke="none" points="752.49,-889.2 752.49,-935.2 1408.53,-935.2 1408.53,-889.2 752.49,-889.2"/>
<polygon fill="none" stroke="black" points="752.49,-889.2 752.49,-935.2 1408.53,-935.2 1408.53,-889.2 752.49,-889.2"/>
<text text-anchor="start" x="972.53" y="-913" font-family="Arial Bold" font-size="18.00">public.nodes</text>
<text text-anchor="start" x="1064.01" y="-913" font-family="Arial" font-size="14.00">    </text>
<text text-anchor="start" x="1095.13" y="-913" font-family="Arial" font-size="14.00" fill="#666666">[BASE TABLE]</text>
<text text-anchor="start" x="889.09" y="-898.6" font-family="Arial" font-size="14.00" fill="#333333">Core memory storage for conversation messages and context</text>
<polygon fill="none" stroke="black" points="752.49,-858.4 752.49,-889.2 1408.53,-889.2 1408.53,-858.4 752.49,-858.4"/>
<text text-anchor="start" x="759.49" y="-870.6" font-family="Arial" font-size="14.00">access_count </text>
<text text-anchor="start" x="848.99" y="-870.6" font-family="Arial" font-size="14.00" fill="#666666">[integer]</text>
<text text-anchor="start" x="899.58" y="-870.6" font-family="Arial" font-size="14.00"> Number of times this node has been accessed/retrieved</text>
<polygon fill="none" stroke="black" points="752.49,-827.6 752.49,-858.4 1408.53,-858.4 1408.53,-827.6 752.49,-827.6"/>
<text text-anchor="start" x="759.49" y="-839.8" font-family="Arial" font-size="14.00">chunk_position </text>
<text text-anchor="start" x="856.78" y="-839.8" font-family="Arial" font-size="14.00" fill="#666666">[integer]</text>
<text text-anchor="start" x="907.37" y="-839.8" font-family="Arial" font-size="14.00"> Position within source file (0&#45;indexed)</text>
<polygon fill="none" stroke="black" points="752.49,-796.8 752.49,-827.6 1408.53,-827.6 1408.53,-796.8 752.49,-796.8"/>
<text text-anchor="start" x="759.49" y="-809" font-family="Arial" font-size="14.00">content </text>
<text text-anchor="start" x="809.31" y="-809" font-family="Arial" font-size="14.00" fill="#666666">[text]</text>
<text text-anchor="start" x="839.65" y="-809" font-family="Arial" font-size="14.00"> The conversation message/utterance content</text>
<polygon fill="none" stroke="black" points="752.49,-766 752.49,-796.8 1408.53,-796.8 1408.53,-766 752.49,-766"/>
<text text-anchor="start" x="759.49" y="-778.2" font-family="Arial" font-size="14.00">content_hash </text>
<text text-anchor="start" x="847.45" y="-778.2" font-family="Arial" font-size="14.00" fill="#666666">[varchar(64)]</text>
<text text-anchor="start" x="926.81" y="-778.2" font-family="Arial" font-size="14.00"> SHA&#45;256 hash of content for deduplication</text>
<polygon fill="none" stroke="black" points="752.49,-735.2 752.49,-766 1408.53,-766 1408.53,-735.2 752.49,-735.2"/>
<text text-anchor="start" x="759.49" y="-747.4" font-family="Arial" font-size="14.00">created_at </text>
<text text-anchor="start" x="829.54" y="-747.4" font-family="Arial" font-size="14.00" fill="#666666">[timestamp with time zone]</text>
<text text-anchor="start" x="995.26" y="-747.4" font-family="Arial" font-size="14.00"> When this memory was created</text>
<polygon fill="none" stroke="black" points="752.49,-704.4 752.49,-735.2 1408.53,-735.2 1408.53,-704.4 752.49,-704.4"/>
<text text-anchor="start" x="759.49" y="-716.6" font-family="Arial" font-size="14.00">deleted_at </text>
<text text-anchor="start" x="828.78" y="-716.6" font-family="Arial" font-size="14.00" fill="#666666">[timestamp with time zone]</text>
<text text-anchor="start" x="994.5" y="-716.6" font-family="Arial" font-size="14.00"> Soft delete timestamp &#45; node is considered deleted when set</text>
<polygon fill="none" stroke="black" points="752.49,-673.6 752.49,-704.4 1408.53,-704.4 1408.53,-673.6 752.49,-673.6"/>
<text text-anchor="start" x="759.49" y="-685.8" font-family="Arial" font-size="14.00">embedding </text>
<text text-anchor="start" x="832.66" y="-685.8" font-family="Arial" font-size="14.00" fill="#666666">[vector(2000)]</text>
<text text-anchor="start" x="919.03" y="-685.8" font-family="Arial" font-size="14.00"> Vector embedding (max 2000 dimensions) for semantic search</text>
<polygon fill="none" stroke="black" points="752.49,-642.8 752.49,-673.6 1408.53,-673.6 1408.53,-642.8 752.49,-642.8"/>
<text text-anchor="start" x="759.49" y="-655" font-family="Arial" font-size="14.00">embedding_dimension </text>
<text text-anchor="start" x="904.26" y="-655" font-family="Arial" font-size="14.00" fill="#666666">[integer]</text>
<text text-anchor="start" x="954.84" y="-655" font-family="Arial" font-size="14.00"> Actual number of dimensions used in the embedding vector (max 2000)</text>
<polygon fill="none" stroke="black" points="752.49,-612 752.49,-642.8 1408.53,-642.8 1408.53,-612 752.49,-612"/>
<text text-anchor="start" x="759.49" y="-624.2" font-family="Arial" font-size="14.00">id </text>
<text text-anchor="start" x="774.28" y="-624.2" font-family="Arial" font-size="14.00" fill="#666666">[bigint]</text>
<polygon fill="none" stroke="black" points="752.49,-581.2 752.49,-612 1408.53,-612 1408.53,-581.2 752.49,-581.2"/>
<text text-anchor="start" x="759.49" y="-593.4" font-family="Arial" font-size="14.00">last_accessed </text>
<text text-anchor="start" x="852.1" y="-593.4" font-family="Arial" font-size="14.00" fill="#666666">[timestamp with time zone]</text>
<text text-anchor="start" x="1017.82" y="-593.4" font-family="Arial" font-size="14.00"> When this memory was last accessed</text>
<polygon fill="none" stroke="black" points="752.49,-550.4 752.49,-581.2 1408.53,-581.2 1408.53,-550.4 752.49,-550.4"/>
<text text-anchor="start" x="759.49" y="-562.6" font-family="Arial" font-size="14.00">source_id </text>
<text text-anchor="start" x="824.09" y="-562.6" font-family="Arial" font-size="14.00" fill="#666666">[bigint]</text>
<text text-anchor="start" x="865.33" y="-562.6" font-family="Arial" font-size="14.00"> Reference to source file (for file&#45;loaded nodes)</text>
<polygon fill="none" stroke="black" points="752.49,-519.6 752.49,-550.4 1408.53,-550.4 1408.53,-519.6 752.49,-519.6"/>
<text text-anchor="start" x="759.49" y="-531.8" font-family="Arial" font-size="14.00">token_count </text>
<text text-anchor="start" x="839.67" y="-531.8" font-family="Arial" font-size="14.00" fill="#666666">[integer]</text>
<text text-anchor="start" x="890.25" y="-531.8" font-family="Arial" font-size="14.00"> Number of tokens in the content (for context budget management)</text>
<polygon fill="none" stroke="black" points="752.49,-488.8 752.49,-519.6 1408.53,-519.6 1408.53,-488.8 752.49,-488.8"/>
<text text-anchor="start" x="759.49" y="-501" font-family="Arial" font-size="14.00">updated_at </text>
<text text-anchor="start" x="833.45" y="-501" font-family="Arial" font-size="14.00" fill="#666666">[timestamp with time zone]</text>
<text text-anchor="start" x="999.18" y="-501" font-family="Arial" font-size="14.00"> When this memory was last modified</text>
</g>
<!-- public.node_tags&#45;&gt;public.nodes -->
<g id="edge1" class="edge">
<title>public.node_tags:node_id&#45;&gt;public.nodes:id</title>
<path fill="none" stroke="black" d="M663.41,-1164.84C734.26,-1156.59 684.51,-1058.88 700.51,-978.4 715.88,-901.09 672.68,-627.4 751.49,-627.4"/>
<polygon fill="black" stroke="black" points="663.44,-1164.84 653.21,-1160.89 658.11,-1165.13 653.79,-1165.36 653.79,-1165.36 653.79,-1165.36 658.11,-1165.13 653.7,-1169.88 663.44,-1164.84"/>
<text text-anchor="start" x="660.12" y="-1175.4" font-family="Arial" font-size="10.00">FOREIGN KEY (node_id) REFERENCES nodes(id) ON DELETE CASCADE</text>
</g>
<!-- public.tags -->
<g id="node7" class="node">
<title>public.tags</title>
<polygon fill="#efefef" stroke="none" points="43.2,-735.2 43.2,-781.2 647.83,-781.2 647.83,-735.2 43.2,-735.2"/>
<polygon fill="none" stroke="black" points="43.2,-735.2 43.2,-781.2 647.83,-781.2 647.83,-735.2 43.2,-735.2"/>
<text text-anchor="start" x="244.02" y="-759" font-family="Arial Bold" font-size="18.00">public.tags</text>
<text text-anchor="start" x="322.51" y="-759" font-family="Arial" font-size="14.00">    </text>
<text text-anchor="start" x="353.63" y="-759" font-family="Arial" font-size="14.00" fill="#666666">[BASE TABLE]</text>
<text text-anchor="start" x="233.06" y="-744.6" font-family="Arial" font-size="14.00" fill="#333333">Unique tag names for categorization</text>
<polygon fill="none" stroke="black" points="43.2,-704.4 43.2,-735.2 647.83,-735.2 647.83,-704.4 43.2,-704.4"/>
<text text-anchor="start" x="50.2" y="-716.6" font-family="Arial" font-size="14.00">created_at </text>
<text text-anchor="start" x="120.25" y="-716.6" font-family="Arial" font-size="14.00" fill="#666666">[timestamp with time zone]</text>
<text text-anchor="start" x="285.97" y="-716.6" font-family="Arial" font-size="14.00"> When this tag was created</text>
<polygon fill="none" stroke="black" points="43.2,-673.6 43.2,-704.4 647.83,-704.4 647.83,-673.6 43.2,-673.6"/>
<text text-anchor="start" x="50.2" y="-685.8" font-family="Arial" font-size="14.00">id </text>
<text text-anchor="start" x="64.99" y="-685.8" font-family="Arial" font-size="14.00" fill="#666666">[bigint]</text>
<polygon fill="none" stroke="black" points="43.2,-642.8 43.2,-673.6 647.83,-673.6 647.83,-642.8 43.2,-642.8"/>
<text text-anchor="start" x="50.2" y="-655" font-family="Arial" font-size="14.00">name </text>
<text text-anchor="start" x="89.11" y="-655" font-family="Arial" font-size="14.00" fill="#666666">[text]</text>
<text text-anchor="start" x="119.45" y="-655" font-family="Arial" font-size="14.00"> Hierarchical tag in format: root:level1:level2 (e.g., database:postgresql:timescaledb)</text>
</g>
<!-- public.node_tags&#45;&gt;public.tags -->
<g id="edge2" class="edge">
<title>public.node_tags:tag_id&#45;&gt;public.tags:id</title>
<path fill="none" stroke="black" d="M417.75,-1107.77C425,-953.43 594.28,-977.67 647.83,-824.4 667.67,-767.59 709,-689 648.83,-689"/>
<polygon fill="black" stroke="black" points="417.75,-1107.87 413.02,-1117.76 417.63,-1113.2 417.53,-1117.53 417.53,-1117.53 417.53,-1117.53 417.63,-1113.2 422.02,-1117.97 417.75,-1107.87"/>
<text text-anchor="start" x="87.66" y="-1128.2" font-family="Arial" font-size="10.00">FOREIGN KEY (tag_id) REFERENCES tags(id) ON DELETE CASCADE</text>
</g>
<!-- public.nodes&#45;&gt;public.file_sources -->
<g id="edge3" class="edge">
<title>public.nodes:source_id&#45;&gt;public.file_sources:id</title>
<path fill="none" stroke="black" d="M1419.75,-563.95C1497.06,-534.03 1417.68,-151 1327.38,-151"/>
<polygon fill="black" stroke="black" points="1419.7,-563.96 1409.06,-561.31 1414.45,-564.91 1410.19,-565.68 1410.19,-565.68 1410.19,-565.68 1414.45,-564.91 1410.66,-570.17 1419.7,-563.96"/>
<text text-anchor="start" x="1416.53" y="-549.8" font-family="Arial" font-size="10.00">FOREIGN KEY (source_id) REFERENCES file_sources(id) ON DELETE SET NULL</text>
</g>
<!-- public.robot_nodes -->
<g id="node4" class="node">
<title>public.robot_nodes</title>
<polygon fill="#efefef" stroke="none" points="1447.77,-1304 1447.77,-1350 2077.26,-1350 2077.26,-1304 1447.77,-1304"/>
<polygon fill="none" stroke="black" points="1447.77,-1304 1447.77,-1350 2077.26,-1350 2077.26,-1304 1447.77,-1304"/>
<text text-anchor="start" x="1631.03" y="-1327.8" font-family="Arial Bold" font-size="18.00">public.robot_nodes</text>
<text text-anchor="start" x="1769.51" y="-1327.8" font-family="Arial" font-size="14.00">    </text>
<text text-anchor="start" x="1800.63" y="-1327.8" font-family="Arial" font-size="14.00" fill="#666666">[BASE TABLE]</text>
<text text-anchor="start" x="1595.2" y="-1313.4" font-family="Arial" font-size="14.00" fill="#333333">Join table connecting robots to nodes (many&#45;to&#45;many)</text>
<polygon fill="none" stroke="black" points="1447.77,-1273.2 1447.77,-1304 2077.26,-1304 2077.26,-1273.2 1447.77,-1273.2"/>
<text text-anchor="start" x="1454.77" y="-1285.4" font-family="Arial" font-size="14.00">created_at </text>
<text text-anchor="start" x="1524.82" y="-1285.4" font-family="Arial" font-size="14.00" fill="#666666">[timestamp with time zone]</text>
<polygon fill="none" stroke="black" points="1447.77,-1242.4 1447.77,-1273.2 2077.26,-1273.2 2077.26,-1242.4 1447.77,-1242.4"/>
<text text-anchor="start" x="1454.77" y="-1254.6" font-family="Arial" font-size="14.00">first_remembered_at </text>
<text text-anchor="start" x="1587.82" y="-1254.6" font-family="Arial" font-size="14.00" fill="#666666">[timestamp with time zone]</text>
<text text-anchor="start" x="1753.55" y="-1254.6" font-family="Arial" font-size="14.00"> When this robot first remembered this content</text>
<polygon fill="none" stroke="black" points="1447.77,-1211.6 1447.77,-1242.4 2077.26,-1242.4 2077.26,-1211.6 1447.77,-1211.6"/>
<text text-anchor="start" x="1454.77" y="-1223.8" font-family="Arial" font-size="14.00">id </text>
<text text-anchor="start" x="1469.55" y="-1223.8" font-family="Arial" font-size="14.00" fill="#666666">[bigint]</text>
<polygon fill="none" stroke="black" points="1447.77,-1180.8 1447.77,-1211.6 2077.26,-1211.6 2077.26,-1180.8 1447.77,-1180.8"/>
<text text-anchor="start" x="1454.77" y="-1193" font-family="Arial" font-size="14.00">last_remembered_at </text>
<text text-anchor="start" x="1587.06" y="-1193" font-family="Arial" font-size="14.00" fill="#666666">[timestamp with time zone]</text>
<text text-anchor="start" x="1752.78" y="-1193" font-family="Arial" font-size="14.00"> When this robot last tried to remember this content</text>
<polygon fill="none" stroke="black" points="1447.77,-1150 1447.77,-1180.8 2077.26,-1180.8 2077.26,-1150 1447.77,-1150"/>
<text text-anchor="start" x="1454.77" y="-1162.2" font-family="Arial" font-size="14.00">node_id </text>
<text text-anchor="start" x="1508.49" y="-1162.2" font-family="Arial" font-size="14.00" fill="#666666">[bigint]</text>
<text text-anchor="start" x="1549.73" y="-1162.2" font-family="Arial" font-size="14.00"> ID of the node being remembered</text>
<polygon fill="none" stroke="black" points="1447.77,-1119.2 1447.77,-1150 2077.26,-1150 2077.26,-1119.2 1447.77,-1119.2"/>
<text text-anchor="start" x="1454.77" y="-1131.4" font-family="Arial" font-size="14.00">remember_count </text>
<text text-anchor="start" x="1564.49" y="-1131.4" font-family="Arial" font-size="14.00" fill="#666666">[integer]</text>
<text text-anchor="start" x="1615.07" y="-1131.4" font-family="Arial" font-size="14.00"> Number of times this robot has tried to remember this content</text>
<polygon fill="none" stroke="black" points="1447.77,-1088.4 1447.77,-1119.2 2077.26,-1119.2 2077.26,-1088.4 1447.77,-1088.4"/>
<text text-anchor="start" x="1454.77" y="-1100.6" font-family="Arial" font-size="14.00">robot_id </text>
<text text-anchor="start" x="1509.25" y="-1100.6" font-family="Arial" font-size="14.00" fill="#666666">[bigint]</text>
<text text-anchor="start" x="1550.5" y="-1100.6" font-family="Arial" font-size="14.00"> ID of the robot that remembered this node</text>
<polygon fill="none" stroke="black" points="1447.77,-1057.6 1447.77,-1088.4 2077.26,-1088.4 2077.26,-1057.6 1447.77,-1057.6"/>
<text text-anchor="start" x="1454.77" y="-1069.8" font-family="Arial" font-size="14.00">updated_at </text>
<text text-anchor="start" x="1528.73" y="-1069.8" font-family="Arial" font-size="14.00" fill="#666666">[timestamp with time zone]</text>
</g>
<!-- public.robot_nodes&#45;&gt;public.nodes -->
<g id="edge5" class="edge">
<title>public.robot_nodes:node_id&#45;&gt;public.nodes:id</title>
<path fill="none" stroke="black" d="M1436.46,-1163.86C1339.27,-1132.3 1525.63,-627.4 1409.53,-627.4"/>
<polygon fill="black" stroke="black" points="1436.55,-1163.87 1445.77,-1169.8 1441.82,-1164.66 1446.11,-1165.3 1446.11,-1165.3 1446.11,-1165.3 1441.82,-1164.66 1447.1,-1160.9 1436.55,-1163.87"/>
<text text-anchor="start" x="1453.77" y="-1175.4" font-family="Arial" font-size="10.00">FOREIGN KEY (node_id) REFERENCES nodes(id) ON DELETE CASCADE</text>
</g>
<!-- public.robots -->
<g id="node5" class="node">
<title>public.robots</title>
<polygon fill="#efefef" stroke="none" points="1513.41,-750.6 1513.41,-796.6 2017.62,-796.6 2017.62,-750.6 1513.41,-750.6"/>
<polygon fill="none" stroke="black" points="1513.41,-750.6 1513.41,-796.6 2017.62,-796.6 2017.62,-750.6 1513.41,-750.6"/>
<text text-anchor="start" x="1656.02" y="-774.4" font-family="Arial Bold" font-size="18.00">public.robots</text>
<text text-anchor="start" x="1750.51" y="-774.4" font-family="Arial" font-size="14.00">    </text>
<text text-anchor="start" x="1781.63" y="-774.4" font-family="Arial" font-size="14.00" fill="#666666">[BASE TABLE]</text>
<text text-anchor="start" x="1614.57" y="-760" font-family="Arial" font-size="14.00" fill="#333333">Registry of all LLM robots using the HTM system</text>
<polygon fill="none" stroke="black" points="1513.41,-719.8 1513.41,-750.6 2017.62,-750.6 2017.62,-719.8 1513.41,-719.8"/>
<text text-anchor="start" x="1520.41" y="-732" font-family="Arial" font-size="14.00">created_at </text>
<text text-anchor="start" x="1590.45" y="-732" font-family="Arial" font-size="14.00" fill="#666666">[timestamp with time zone]</text>
<text text-anchor="start" x="1756.18" y="-732" font-family="Arial" font-size="14.00"> When the robot was first registered</text>
<polygon fill="none" stroke="black" points="1513.41,-689 1513.41,-719.8 2017.62,-719.8 2017.62,-689 1513.41,-689"/>
<text text-anchor="start" x="1520.41" y="-701.2" font-family="Arial" font-size="14.00">id </text>
<text text-anchor="start" x="1535.19" y="-701.2" font-family="Arial" font-size="14.00" fill="#666666">[bigint]</text>
<polygon fill="none" stroke="black" points="1513.41,-658.2 1513.41,-689 2017.62,-689 2017.62,-658.2 1513.41,-658.2"/>
<text text-anchor="start" x="1520.41" y="-670.4" font-family="Arial" font-size="14.00">last_active </text>
<text text-anchor="start" x="1590.44" y="-670.4" font-family="Arial" font-size="14.00" fill="#666666">[timestamp with time zone]</text>
<text text-anchor="start" x="1756.16" y="-670.4" font-family="Arial" font-size="14.00"> Last time the robot accessed the system</text>
<polygon fill="none" stroke="black" points="1513.41,-627.4 1513.41,-658.2 2017.62,-658.2 2017.62,-627.4 1513.41,-627.4"/>
<text text-anchor="start" x="1520.41" y="-639.6" font-family="Arial" font-size="14.00">name </text>
<text text-anchor="start" x="1559.32" y="-639.6" font-family="Arial" font-size="14.00" fill="#666666">[text]</text>
<text text-anchor="start" x="1589.66" y="-639.6" font-family="Arial" font-size="14.00"> Human&#45;readable name for the robot</text>
</g>
<!-- public.robot_nodes&#45;&gt;public.robots -->
<g id="edge4" class="edge">
<title>public.robot_nodes:robot_id&#45;&gt;public.robots:id</title>
<path fill="none" stroke="black" d="M2088.32,-1102.23C2114.61,-1092.81 2098.69,-1043.14 2077.26,-1014.4 1920.41,-804.11 1669.85,-1050.39 1513.41,-839.8 1477.52,-791.49 1452.23,-704.4 1512.41,-704.4"/>
<polygon fill="black" stroke="black" points="2088.47,-1102.21 2077.89,-1099.3 2083.2,-1103.03 2078.92,-1103.7 2078.92,-1103.7 2078.92,-1103.7 2083.2,-1103.03 2079.28,-1108.19 2088.47,-1102.21"/>
<text text-anchor="start" x="2085.26" y="-1087.8" font-family="Arial" font-size="10.00">FOREIGN KEY (robot_id) REFERENCES robots(id) ON DELETE CASCADE</text>
</g>
<!-- public.schema_migrations -->
<g id="node6" class="node">
<title>public.schema_migrations</title>
<polygon fill="#efefef" stroke="none" points="2181.54,-1201.4 2181.54,-1237 2509.49,-1237 2509.49,-1201.4 2181.54,-1201.4"/>
<polygon fill="none" stroke="black" points="2181.54,-1201.4 2181.54,-1237 2509.49,-1237 2509.49,-1201.4 2181.54,-1201.4"/>
<text text-anchor="start" x="2188.54" y="-1214.8" font-family="Arial Bold" font-size="18.00">public.schema_migrations</text>
<text text-anchor="start" x="2378" y="-1214.8" font-family="Arial" font-size="14.00">    </text>
<text text-anchor="start" x="2409.11" y="-1214.8" font-family="Arial" font-size="14.00" fill="#666666">[BASE TABLE]</text>
<polygon fill="none" stroke="black" points="2181.54,-1170.6 2181.54,-1201.4 2509.49,-1201.4 2509.49,-1170.6 2181.54,-1170.6"/>
<text text-anchor="start" x="2188.54" y="-1182.8" font-family="Arial" font-size="14.00">version </text>
<text text-anchor="start" x="2237.56" y="-1182.8" font-family="Arial" font-size="14.00" fill="#666666">[varchar]</text>
</g>
<!-- public.working_memories -->
<g id="node8" class="node">
<title>public.working_memories</title>
<polygon fill="#efefef" stroke="none" points="826.89,-1257.8 826.89,-1303.8 1338.14,-1303.8 1338.14,-1257.8 826.89,-1257.8"/>
<polygon fill="none" stroke="black" points="826.89,-1257.8 826.89,-1303.8 1338.14,-1303.8 1338.14,-1257.8 826.89,-1257.8"/>
<text text-anchor="start" x="925.53" y="-1281.6" font-family="Arial Bold" font-size="18.00">public.working_memories</text>
<text text-anchor="start" x="1115" y="-1281.6" font-family="Arial" font-size="14.00">    </text>
<text text-anchor="start" x="1146.12" y="-1281.6" font-family="Arial" font-size="14.00" fill="#666666">[BASE TABLE]</text>
<text text-anchor="start" x="914.05" y="-1267.2" font-family="Arial" font-size="14.00" fill="#333333">Per&#45;robot working memory state (optional persistence)</text>
<polygon fill="none" stroke="black" points="826.89,-1227 826.89,-1257.8 1338.14,-1257.8 1338.14,-1227 826.89,-1227"/>
<text text-anchor="start" x="833.89" y="-1239.2" font-family="Arial" font-size="14.00">added_at </text>
<text text-anchor="start" x="896.17" y="-1239.2" font-family="Arial" font-size="14.00" fill="#666666">[timestamp with time zone]</text>
<text text-anchor="start" x="1061.89" y="-1239.2" font-family="Arial" font-size="14.00"> When node was added to working memory</text>
<polygon fill="none" stroke="black" points="826.89,-1196.2 826.89,-1227 1338.14,-1227 1338.14,-1196.2 826.89,-1196.2"/>
<text text-anchor="start" x="833.89" y="-1208.4" font-family="Arial" font-size="14.00">id </text>
<text text-anchor="start" x="848.67" y="-1208.4" font-family="Arial" font-size="14.00" fill="#666666">[bigint]</text>
<polygon fill="none" stroke="black" points="826.89,-1165.4 826.89,-1196.2 1338.14,-1196.2 1338.14,-1165.4 826.89,-1165.4"/>
<text text-anchor="start" x="833.89" y="-1177.6" font-family="Arial" font-size="14.00">node_id </text>
<text text-anchor="start" x="887.6" y="-1177.6" font-family="Arial" font-size="14.00" fill="#666666">[bigint]</text>
<text text-anchor="start" x="928.85" y="-1177.6" font-family="Arial" font-size="14.00"> Node currently in working memory</text>
<polygon fill="none" stroke="black" points="826.89,-1134.6 826.89,-1165.4 1338.14,-1165.4 1338.14,-1134.6 826.89,-1134.6"/>
<text text-anchor="start" x="833.89" y="-1146.8" font-family="Arial" font-size="14.00">robot_id </text>
<text text-anchor="start" x="888.37" y="-1146.8" font-family="Arial" font-size="14.00" fill="#666666">[bigint]</text>
<text text-anchor="start" x="929.62" y="-1146.8" font-family="Arial" font-size="14.00"> Robot whose working memory this belongs to</text>
<polygon fill="none" stroke="black" points="826.89,-1103.8 826.89,-1134.6 1338.14,-1134.6 1338.14,-1103.8 826.89,-1103.8"/>
<text text-anchor="start" x="833.89" y="-1116" font-family="Arial" font-size="14.00">token_count </text>
<text text-anchor="start" x="914.06" y="-1116" font-family="Arial" font-size="14.00" fill="#666666">[integer]</text>
<text text-anchor="start" x="964.64" y="-1116" font-family="Arial" font-size="14.00"> Cached token count for budget tracking</text>
</g>
<!-- public.working_memories&#45;&gt;public.nodes -->
<g id="edge7" class="edge">
<title>public.working_memories:node_id&#45;&gt;public.nodes:id</title>
<path fill="none" stroke="black" d="M815.67,-1179.65C775.24,-1169.75 794.16,-1097.96 826.89,-1060.6 998.91,-864.21 1237.04,-1175.26 1408.53,-978.4 1459.77,-919.59 1487.53,-627.4 1409.53,-627.4"/>
<polygon fill="black" stroke="black" points="815.62,-1179.65 825.05,-1185.23 820.92,-1180.24 825.22,-1180.73 825.22,-1180.73 825.22,-1180.73 820.92,-1180.24 826.06,-1176.29 815.62,-1179.65"/>
<text text-anchor="start" x="832.89" y="-1190.8" font-family="Arial" font-size="10.00">FOREIGN KEY (node_id) REFERENCES nodes(id) ON DELETE CASCADE</text>
</g>
<!-- public.working_memories&#45;&gt;public.robots -->
<g id="edge6" class="edge">
<title>public.working_memories:robot_id&#45;&gt;public.robots:id</title>
<path fill="none" stroke="black" d="M1349.44,-1149.13C1398.6,-1139.94 1354.56,-1060.21 1395.51,-1014.4 1417.52,-989.78 1441.16,-1005.16 1460.51,-978.4 1496.83,-928.18 1450.44,-704.4 1512.41,-704.4"/>
<polygon fill="black" stroke="black" points="1349.44,-1149.13 1339.09,-1145.49 1344.12,-1149.58 1339.81,-1149.94 1339.81,-1149.94 1339.81,-1149.94 1344.12,-1149.58 1339.85,-1154.46 1349.44,-1149.13"/>
<text text-anchor="start" x="991.5" y="-1134" font-family="Arial" font-size="10.00">FOREIGN KEY (robot_id) REFERENCES robots(id) ON DELETE CASCADE</text>
</g>
</g>
</svg>
