<svg xmlns="http://www.w3.org/2000/svg" viewBox="0 0 800 500" style="background: transparent;">
  <defs>
    <!-- Gradients for visual depth -->
    <linearGradient id="appGradient" x1="0%" y1="0%" x2="0%" y2="100%">
      <stop offset="0%" style="stop-color:#3b82f6;stop-opacity:0.9"/>
      <stop offset="100%" style="stop-color:#1d4ed8;stop-opacity:0.9"/>
    </linearGradient>
    <linearGradient id="telemetryGradient" x1="0%" y1="0%" x2="0%" y2="100%">
      <stop offset="0%" style="stop-color:#8b5cf6;stop-opacity:0.9"/>
      <stop offset="100%" style="stop-color:#6d28d9;stop-opacity:0.9"/>
    </linearGradient>
    <linearGradient id="nullGradient" x1="0%" y1="0%" x2="0%" y2="100%">
      <stop offset="0%" style="stop-color:#6b7280;stop-opacity:0.8"/>
      <stop offset="100%" style="stop-color:#4b5563;stop-opacity:0.8"/>
    </linearGradient>
    <linearGradient id="sdkGradient" x1="0%" y1="0%" x2="0%" y2="100%">
      <stop offset="0%" style="stop-color:#10b981;stop-opacity:0.9"/>
      <stop offset="100%" style="stop-color:#059669;stop-opacity:0.9"/>
    </linearGradient>
    <linearGradient id="backendGradient" x1="0%" y1="0%" x2="0%" y2="100%">
      <stop offset="0%" style="stop-color:#f59e0b;stop-opacity:0.9"/>
      <stop offset="100%" style="stop-color:#d97706;stop-opacity:0.9"/>
    </linearGradient>

    <!-- Arrow marker -->
    <marker id="arrowhead" markerWidth="10" markerHeight="7" refX="9" refY="3.5" orient="auto">
      <polygon points="0 0, 10 3.5, 0 7" fill="#94a3b8"/>
    </marker>
    <marker id="arrowheadGreen" markerWidth="10" markerHeight="7" refX="9" refY="3.5" orient="auto">
      <polygon points="0 0, 10 3.5, 0 7" fill="#10b981"/>
    </marker>
  </defs>

  <!-- HTM Application Container -->
  <rect x="50" y="30" width="700" height="280" rx="12" ry="12"
        fill="none" stroke="#3b82f6" stroke-width="2" stroke-dasharray="5,5"/>
  <text x="400" y="55" text-anchor="middle" fill="#e2e8f0" font-family="system-ui, sans-serif" font-size="16" font-weight="600">
    HTM Application
  </text>

  <!-- Job boxes at top -->
  <rect x="80" y="75" width="180" height="50" rx="8" ry="8" fill="url(#appGradient)"/>
  <text x="170" y="105" text-anchor="middle" fill="#ffffff" font-family="system-ui, sans-serif" font-size="13" font-weight="500">
    GenerateEmbeddingJob
  </text>

  <rect x="310" y="75" width="180" height="50" rx="8" ry="8" fill="url(#appGradient)"/>
  <text x="400" y="105" text-anchor="middle" fill="#ffffff" font-family="system-ui, sans-serif" font-size="13" font-weight="500">
    GenerateTagsJob
  </text>

  <rect x="540" y="75" width="180" height="50" rx="8" ry="8" fill="url(#appGradient)"/>
  <text x="630" y="105" text-anchor="middle" fill="#ffffff" font-family="system-ui, sans-serif" font-size="13" font-weight="500">
    Search Methods
  </text>

  <!-- Arrows from jobs to telemetry -->
  <line x1="170" y1="125" x2="170" y2="155" stroke="#94a3b8" stroke-width="2" marker-end="url(#arrowhead)"/>
  <line x1="400" y1="125" x2="400" y2="155" stroke="#94a3b8" stroke-width="2" marker-end="url(#arrowhead)"/>
  <line x1="630" y1="125" x2="630" y2="155" stroke="#94a3b8" stroke-width="2" marker-end="url(#arrowhead)"/>

  <!-- Horizontal connector line -->
  <line x1="170" y1="155" x2="630" y2="155" stroke="#94a3b8" stroke-width="2"/>
  <line x1="400" y1="155" x2="400" y2="170" stroke="#94a3b8" stroke-width="2" marker-end="url(#arrowhead)"/>

  <!-- HTM::Telemetry box -->
  <rect x="280" y="175" width="240" height="45" rx="8" ry="8" fill="url(#telemetryGradient)"/>
  <text x="400" y="203" text-anchor="middle" fill="#ffffff" font-family="system-ui, sans-serif" font-size="14" font-weight="600">
    HTM::Telemetry
  </text>

  <!-- Three branches from telemetry -->
  <line x1="400" y1="220" x2="400" y2="240" stroke="#94a3b8" stroke-width="2"/>

  <!-- Branch lines -->
  <line x1="150" y1="240" x2="650" y2="240" stroke="#94a3b8" stroke-width="2"/>
  <line x1="150" y1="240" x2="150" y2="255" stroke="#94a3b8" stroke-width="2" marker-end="url(#arrowhead)"/>
  <line x1="400" y1="240" x2="400" y2="255" stroke="#94a3b8" stroke-width="2" marker-end="url(#arrowhead)"/>
  <line x1="650" y1="240" x2="650" y2="255" stroke="#94a3b8" stroke-width="2" marker-end="url(#arrowhead)"/>

  <!-- Three meter options -->
  <rect x="70" y="260" width="160" height="55" rx="8" ry="8" fill="url(#nullGradient)"/>
  <text x="150" y="283" text-anchor="middle" fill="#ffffff" font-family="system-ui, sans-serif" font-size="12" font-weight="500">
    NullMeter
  </text>
  <text x="150" y="300" text-anchor="middle" fill="#d1d5db" font-family="system-ui, sans-serif" font-size="10">
    (when disabled)
  </text>

  <rect x="320" y="260" width="160" height="55" rx="8" ry="8" fill="url(#sdkGradient)"/>
  <text x="400" y="283" text-anchor="middle" fill="#ffffff" font-family="system-ui, sans-serif" font-size="12" font-weight="500">
    OpenTelemetry
  </text>
  <text x="400" y="300" text-anchor="middle" fill="#d1fae5" font-family="system-ui, sans-serif" font-size="10">
    SDK Meter
  </text>

  <rect x="570" y="260" width="160" height="55" rx="8" ry="8" fill="url(#nullGradient)"/>
  <text x="650" y="283" text-anchor="middle" fill="#ffffff" font-family="system-ui, sans-serif" font-size="12" font-weight="500">
    NullMeter
  </text>
  <text x="650" y="300" text-anchor="middle" fill="#d1d5db" font-family="system-ui, sans-serif" font-size="10">
    (SDK missing)
  </text>

  <!-- Arrows to outcomes -->
  <line x1="150" y1="315" x2="150" y2="345" stroke="#6b7280" stroke-width="2" stroke-dasharray="4,4"/>
  <line x1="400" y1="315" x2="400" y2="345" stroke="#10b981" stroke-width="2" marker-end="url(#arrowheadGreen)"/>
  <line x1="650" y1="315" x2="650" y2="345" stroke="#6b7280" stroke-width="2" stroke-dasharray="4,4"/>

  <!-- Outcome labels -->
  <text x="150" y="365" text-anchor="middle" fill="#9ca3af" font-family="system-ui, sans-serif" font-size="12" font-style="italic">
    No-op
  </text>

  <text x="400" y="365" text-anchor="middle" fill="#10b981" font-family="system-ui, sans-serif" font-size="12" font-weight="500">
    OTLP Export
  </text>

  <text x="650" y="365" text-anchor="middle" fill="#9ca3af" font-family="system-ui, sans-serif" font-size="12" font-style="italic">
    No-op
  </text>

  <!-- Arrow to backend -->
  <line x1="400" y1="380" x2="400" y2="410" stroke="#10b981" stroke-width="2" marker-end="url(#arrowheadGreen)"/>

  <!-- Backend box -->
  <rect x="250" y="420" width="300" height="60" rx="10" ry="10" fill="url(#backendGradient)"/>
  <text x="400" y="448" text-anchor="middle" fill="#ffffff" font-family="system-ui, sans-serif" font-size="14" font-weight="600">
    Observability Backend
  </text>
  <text x="400" y="468" text-anchor="middle" fill="#fef3c7" font-family="system-ui, sans-serif" font-size="11">
    (Jaeger, Datadog, Prometheus, etc.)
  </text>

  <!-- Legend -->
  <rect x="600" y="380" width="140" height="80" rx="6" ry="6" fill="#1e293b" fill-opacity="0.7" stroke="#475569" stroke-width="1"/>
  <text x="670" y="398" text-anchor="middle" fill="#94a3b8" font-family="system-ui, sans-serif" font-size="10" font-weight="600">
    LEGEND
  </text>
  <line x1="615" y1="410" x2="645" y2="410" stroke="#10b981" stroke-width="2"/>
  <text x="720" y="414" text-anchor="end" fill="#d1d5db" font-family="system-ui, sans-serif" font-size="10">
    Active flow
  </text>
  <line x1="615" y1="430" x2="645" y2="430" stroke="#6b7280" stroke-width="2" stroke-dasharray="4,4"/>
  <text x="720" y="434" text-anchor="end" fill="#d1d5db" font-family="system-ui, sans-serif" font-size="10">
    Disabled path
  </text>
  <circle cx="630" cy="450" r="6" fill="url(#telemetryGradient)"/>
  <text x="720" y="454" text-anchor="end" fill="#d1d5db" font-family="system-ui, sans-serif" font-size="10">
    HTM component
  </text>
</svg>
