<?xml version="1.0" encoding="UTF-8" standalone="no"?>
<!DOCTYPE svg PUBLIC "-//W3C//DTD SVG 1.1//EN"
 "http://www.w3.org/Graphics/SVG/1.1/DTD/svg11.dtd">
<!-- Generated by graphviz version 12.1.2 (20240928.0832)
 -->
<!-- Title: public.tags Pages: 1 -->
<svg width="657pt" height="510pt"
 viewBox="0.00 0.00 657.03 509.60" xmlns="http://www.w3.org/2000/svg" xmlns:xlink="http://www.w3.org/1999/xlink">
<g id="graph0" class="graph" transform="scale(1 1) rotate(0) translate(4 505.6)">
<title>public.tags</title>
<polygon fill="white" stroke="none" points="-4,4 -4,-505.6 653.03,-505.6 653.03,4 -4,4"/>
<!-- public.tags -->
<g id="node1" class="node">
<title>public.tags</title>
<polygon fill="#efefef" stroke="none" points="52.3,-138.6 52.3,-174.2 302.07,-174.2 302.07,-138.6 52.3,-138.6"/>
<polygon fill="none" stroke="black" points="52.3,-138.6 52.3,-174.2 302.07,-174.2 302.07,-138.6 52.3,-138.6"/>
<text text-anchor="start" x="75.7" y="-152" font-family="Arial Bold" font-size="18.00">public.tags</text>
<text text-anchor="start" x="154.18" y="-152" font-family="Arial" font-size="14.00">    </text>
<text text-anchor="start" x="185.3" y="-152" font-family="Arial" font-size="14.00" fill="#666666">[BASE TABLE]</text>
<polygon fill="none" stroke="black" points="52.3,-107.8 52.3,-138.6 302.07,-138.6 302.07,-107.8 52.3,-107.8"/>
<text text-anchor="start" x="59.3" y="-120" font-family="Arial" font-size="14.00">id </text>
<text text-anchor="start" x="74.09" y="-120" font-family="Arial" font-size="14.00" fill="#666666">[bigint]</text>
<polygon fill="none" stroke="black" points="52.3,-77 52.3,-107.8 302.07,-107.8 302.07,-77 52.3,-77"/>
<text text-anchor="start" x="59.3" y="-89.2" font-family="Arial" font-size="14.00">name </text>
<text text-anchor="start" x="98.21" y="-89.2" font-family="Arial" font-size="14.00" fill="#666666">[text]</text>
<polygon fill="none" stroke="black" points="52.3,-46.2 52.3,-77 302.07,-77 302.07,-46.2 52.3,-46.2"/>
<text text-anchor="start" x="59.3" y="-58.4" font-family="Arial" font-size="14.00">created_at </text>
<text text-anchor="start" x="129.35" y="-58.4" font-family="Arial" font-size="14.00" fill="#666666">[timestamp with time zone]</text>
<polygon fill="none" stroke="black" stroke-width="3" points="50.8,-44.7 50.8,-175.7 303.57,-175.7 303.57,-44.7 50.8,-44.7"/>
</g>
<!-- public.nodes_tags -->
<g id="node2" class="node">
<title>public.nodes_tags</title>
<polygon fill="#efefef" stroke="none" points="43.2,-422.8 43.2,-458.4 311.17,-458.4 311.17,-422.8 43.2,-422.8"/>
<polygon fill="none" stroke="black" points="43.2,-422.8 43.2,-458.4 311.17,-458.4 311.17,-422.8 43.2,-422.8"/>
<text text-anchor="start" x="50.2" y="-436.2" font-family="Arial Bold" font-size="18.00">public.nodes_tags</text>
<text text-anchor="start" x="179.68" y="-436.2" font-family="Arial" font-size="14.00">    </text>
<text text-anchor="start" x="210.8" y="-436.2" font-family="Arial" font-size="14.00" fill="#666666">[BASE TABLE]</text>
<polygon fill="none" stroke="black" points="43.2,-392 43.2,-422.8 311.17,-422.8 311.17,-392 43.2,-392"/>
<text text-anchor="start" x="50.2" y="-404.2" font-family="Arial" font-size="14.00">id </text>
<text text-anchor="start" x="64.99" y="-404.2" font-family="Arial" font-size="14.00" fill="#666666">[bigint]</text>
<polygon fill="none" stroke="black" points="43.2,-361.2 43.2,-392 311.17,-392 311.17,-361.2 43.2,-361.2"/>
<text text-anchor="start" x="50.2" y="-373.4" font-family="Arial" font-size="14.00">node_id </text>
<text text-anchor="start" x="103.92" y="-373.4" font-family="Arial" font-size="14.00" fill="#666666">[bigint]</text>
<polygon fill="none" stroke="black" points="43.2,-330.4 43.2,-361.2 311.17,-361.2 311.17,-330.4 43.2,-330.4"/>
<text text-anchor="start" x="50.2" y="-342.6" font-family="Arial" font-size="14.00">tag_id </text>
<text text-anchor="start" x="92.23" y="-342.6" font-family="Arial" font-size="14.00" fill="#666666">[bigint]</text>
<polygon fill="none" stroke="black" points="43.2,-299.6 43.2,-330.4 311.17,-330.4 311.17,-299.6 43.2,-299.6"/>
<text text-anchor="start" x="50.2" y="-311.8" font-family="Arial" font-size="14.00">created_at </text>
<text text-anchor="start" x="120.25" y="-311.8" font-family="Arial" font-size="14.00" fill="#666666">[timestamp with time zone]</text>
</g>
<!-- public.nodes_tags&#45;&gt;public.tags -->
<g id="edge1" class="edge">
<title>public.nodes_tags:tag_id&#45;&gt;public.tags:id</title>
<path fill="none" stroke="black" d="M322.48,-344.95C410.41,-330 398.51,-123.2 303.07,-123.2"/>
<polygon fill="black" stroke="black" points="322.47,-344.95 312.13,-341.29 317.15,-345.39 312.84,-345.74 312.84,-345.74 312.84,-345.74 317.15,-345.39 312.87,-350.26 322.47,-344.95"/>
<text text-anchor="start" x="319.17" y="-355.8" font-family="Arial" font-size="10.00">FOREIGN KEY (tag_id) REFERENCES tags(id) ON DELETE CASCADE</text>
</g>
</g>
</svg>
