<?xml version="1.0" encoding="UTF-8" standalone="no"?>
<!DOCTYPE svg PUBLIC "-//W3C//DTD SVG 1.1//EN"
 "http://www.w3.org/Graphics/SVG/1.1/DTD/svg11.dtd">
<!-- Generated by graphviz version 12.1.2 (20240928.0832)
 -->
<!-- Title: public.nodes_tags Pages: 1 -->
<svg width="968pt" height="848pt"
 viewBox="0.00 0.00 968.37 848.40" xmlns="http://www.w3.org/2000/svg" xmlns:xlink="http://www.w3.org/1999/xlink">
<g id="graph0" class="graph" transform="scale(1 1) rotate(0) translate(4 844.4)">
<title>public.nodes_tags</title>
<polygon fill="white" stroke="none" points="-4,4 -4,-844.4 964.37,-844.4 964.37,4 -4,4"/>
<!-- public.nodes_tags -->
<g id="node1" class="node">
<title>public.nodes_tags</title>
<polygon fill="#efefef" stroke="none" points="354.55,-758.6 354.55,-794.2 622.52,-794.2 622.52,-758.6 354.55,-758.6"/>
<polygon fill="none" stroke="black" points="354.55,-758.6 354.55,-794.2 622.52,-794.2 622.52,-758.6 354.55,-758.6"/>
<text text-anchor="start" x="361.55" y="-772" font-family="Arial Bold" font-size="18.00">public.nodes_tags</text>
<text text-anchor="start" x="491.03" y="-772" font-family="Arial" font-size="14.00">    </text>
<text text-anchor="start" x="522.14" y="-772" font-family="Arial" font-size="14.00" fill="#666666">[BASE TABLE]</text>
<polygon fill="none" stroke="black" points="354.55,-727.8 354.55,-758.6 622.52,-758.6 622.52,-727.8 354.55,-727.8"/>
<text text-anchor="start" x="361.55" y="-740" font-family="Arial" font-size="14.00">id </text>
<text text-anchor="start" x="376.33" y="-740" font-family="Arial" font-size="14.00" fill="#666666">[bigint]</text>
<polygon fill="none" stroke="black" points="354.55,-697 354.55,-727.8 622.52,-727.8 622.52,-697 354.55,-697"/>
<text text-anchor="start" x="361.55" y="-709.2" font-family="Arial" font-size="14.00">node_id </text>
<text text-anchor="start" x="415.26" y="-709.2" font-family="Arial" font-size="14.00" fill="#666666">[bigint]</text>
<polygon fill="none" stroke="black" points="354.55,-666.2 354.55,-697 622.52,-697 622.52,-666.2 354.55,-666.2"/>
<text text-anchor="start" x="361.55" y="-678.4" font-family="Arial" font-size="14.00">tag_id </text>
<text text-anchor="start" x="403.58" y="-678.4" font-family="Arial" font-size="14.00" fill="#666666">[bigint]</text>
<polygon fill="none" stroke="black" points="354.55,-635.4 354.55,-666.2 622.52,-666.2 622.52,-635.4 354.55,-635.4"/>
<text text-anchor="start" x="361.55" y="-647.6" font-family="Arial" font-size="14.00">created_at </text>
<text text-anchor="start" x="431.59" y="-647.6" font-family="Arial" font-size="14.00" fill="#666666">[timestamp with time zone]</text>
<polygon fill="none" stroke="black" stroke-width="3" points="353.05,-633.9 353.05,-795.7 624.02,-795.7 624.02,-633.9 353.05,-633.9"/>
</g>
<!-- public.nodes -->
<g id="node2" class="node">
<title>public.nodes</title>
<polygon fill="#efefef" stroke="none" points="170.37,-474.4 170.37,-510 442.7,-510 442.7,-474.4 170.37,-474.4"/>
<polygon fill="none" stroke="black" points="170.37,-474.4 170.37,-510 442.7,-510 442.7,-474.4 170.37,-474.4"/>
<text text-anchor="start" x="198.54" y="-487.8" font-family="Arial Bold" font-size="18.00">public.nodes</text>
<text text-anchor="start" x="290.03" y="-487.8" font-family="Arial" font-size="14.00">    </text>
<text text-anchor="start" x="321.15" y="-487.8" font-family="Arial" font-size="14.00" fill="#666666">[BASE TABLE]</text>
<polygon fill="none" stroke="black" points="170.37,-443.6 170.37,-474.4 442.7,-474.4 442.7,-443.6 170.37,-443.6"/>
<text text-anchor="start" x="177.37" y="-455.8" font-family="Arial" font-size="14.00">id </text>
<text text-anchor="start" x="192.15" y="-455.8" font-family="Arial" font-size="14.00" fill="#666666">[bigint]</text>
<polygon fill="none" stroke="black" points="170.37,-412.8 170.37,-443.6 442.7,-443.6 442.7,-412.8 170.37,-412.8"/>
<text text-anchor="start" x="177.37" y="-425" font-family="Arial" font-size="14.00">content </text>
<text text-anchor="start" x="227.18" y="-425" font-family="Arial" font-size="14.00" fill="#666666">[text]</text>
<polygon fill="none" stroke="black" points="170.37,-382 170.37,-412.8 442.7,-412.8 442.7,-382 170.37,-382"/>
<text text-anchor="start" x="177.37" y="-394.2" font-family="Arial" font-size="14.00">speaker </text>
<text text-anchor="start" x="231.06" y="-394.2" font-family="Arial" font-size="14.00" fill="#666666">[text]</text>
<polygon fill="none" stroke="black" points="170.37,-351.2 170.37,-382 442.7,-382 442.7,-351.2 170.37,-351.2"/>
<text text-anchor="start" x="177.37" y="-363.4" font-family="Arial" font-size="14.00">type </text>
<text text-anchor="start" x="207.72" y="-363.4" font-family="Arial" font-size="14.00" fill="#666666">[text]</text>
<polygon fill="none" stroke="black" points="170.37,-320.4 170.37,-351.2 442.7,-351.2 442.7,-320.4 170.37,-320.4"/>
<text text-anchor="start" x="177.37" y="-332.6" font-family="Arial" font-size="14.00">category </text>
<text text-anchor="start" x="234.95" y="-332.6" font-family="Arial" font-size="14.00" fill="#666666">[text]</text>
<polygon fill="none" stroke="black" points="170.37,-289.6 170.37,-320.4 442.7,-320.4 442.7,-289.6 170.37,-289.6"/>
<text text-anchor="start" x="177.37" y="-301.8" font-family="Arial" font-size="14.00">importance </text>
<text text-anchor="start" x="250.51" y="-301.8" font-family="Arial" font-size="14.00" fill="#666666">[double precision]</text>
<polygon fill="none" stroke="black" points="170.37,-258.8 170.37,-289.6 442.7,-289.6 442.7,-258.8 170.37,-258.8"/>
<text text-anchor="start" x="177.37" y="-271" font-family="Arial" font-size="14.00">created_at </text>
<text text-anchor="start" x="247.41" y="-271" font-family="Arial" font-size="14.00" fill="#666666">[timestamp with time zone]</text>
<polygon fill="none" stroke="black" points="170.37,-228 170.37,-258.8 442.7,-258.8 442.7,-228 170.37,-228"/>
<text text-anchor="start" x="177.37" y="-240.2" font-family="Arial" font-size="14.00">updated_at </text>
<text text-anchor="start" x="251.32" y="-240.2" font-family="Arial" font-size="14.00" fill="#666666">[timestamp with time zone]</text>
<polygon fill="none" stroke="black" points="170.37,-197.2 170.37,-228 442.7,-228 442.7,-197.2 170.37,-197.2"/>
<text text-anchor="start" x="177.37" y="-209.4" font-family="Arial" font-size="14.00">last_accessed </text>
<text text-anchor="start" x="269.97" y="-209.4" font-family="Arial" font-size="14.00" fill="#666666">[timestamp with time zone]</text>
<polygon fill="none" stroke="black" points="170.37,-166.4 170.37,-197.2 442.7,-197.2 442.7,-166.4 170.37,-166.4"/>
<text text-anchor="start" x="177.37" y="-178.6" font-family="Arial" font-size="14.00">token_count </text>
<text text-anchor="start" x="257.54" y="-178.6" font-family="Arial" font-size="14.00" fill="#666666">[integer]</text>
<polygon fill="none" stroke="black" points="170.37,-135.6 170.37,-166.4 442.7,-166.4 442.7,-135.6 170.37,-135.6"/>
<text text-anchor="start" x="177.37" y="-147.8" font-family="Arial" font-size="14.00">in_working_memory </text>
<text text-anchor="start" x="306.52" y="-147.8" font-family="Arial" font-size="14.00" fill="#666666">[boolean]</text>
<polygon fill="none" stroke="black" points="170.37,-104.8 170.37,-135.6 442.7,-135.6 442.7,-104.8 170.37,-104.8"/>
<text text-anchor="start" x="177.37" y="-117" font-family="Arial" font-size="14.00">robot_id </text>
<text text-anchor="start" x="231.85" y="-117" font-family="Arial" font-size="14.00" fill="#666666">[bigint]</text>
<polygon fill="none" stroke="black" points="170.37,-74 170.37,-104.8 442.7,-104.8 442.7,-74 170.37,-74"/>
<text text-anchor="start" x="177.37" y="-86.2" font-family="Arial" font-size="14.00">embedding </text>
<text text-anchor="start" x="250.53" y="-86.2" font-family="Arial" font-size="14.00" fill="#666666">[vector(2000)]</text>
<polygon fill="none" stroke="black" points="170.37,-43.2 170.37,-74 442.7,-74 442.7,-43.2 170.37,-43.2"/>
<text text-anchor="start" x="177.37" y="-55.4" font-family="Arial" font-size="14.00">embedding_dimension </text>
<text text-anchor="start" x="322.13" y="-55.4" font-family="Arial" font-size="14.00" fill="#666666">[integer]</text>
</g>
<!-- public.nodes_tags&#45;&gt;public.nodes -->
<g id="edge1" class="edge">
<title>public.nodes_tags:node_id&#45;&gt;public.nodes:id</title>
<path fill="none" stroke="black" d="M343.41,-711.34C302.24,-701.91 325.93,-631.43 354.55,-589.2 378.29,-554.17 418.91,-588.2 442.7,-553.2 466.23,-518.57 485.56,-459 443.7,-459"/>
<polygon fill="black" stroke="black" points="343.27,-711.33 352.75,-716.84 348.57,-711.88 352.88,-712.33 352.88,-712.33 352.88,-712.33 348.57,-711.88 353.68,-707.89 343.27,-711.33"/>
<text text-anchor="start" x="7" y="-722.4" font-family="Arial" font-size="10.00">FOREIGN KEY (node_id) REFERENCES nodes(id) ON DELETE CASCADE</text>
</g>
<!-- public.tags -->
<g id="node3" class="node">
<title>public.tags</title>
<polygon fill="#efefef" stroke="none" points="546.65,-305 546.65,-340.6 796.42,-340.6 796.42,-305 546.65,-305"/>
<polygon fill="none" stroke="black" points="546.65,-305 546.65,-340.6 796.42,-340.6 796.42,-305 546.65,-305"/>
<text text-anchor="start" x="570.04" y="-318.4" font-family="Arial Bold" font-size="18.00">public.tags</text>
<text text-anchor="start" x="648.53" y="-318.4" font-family="Arial" font-size="14.00">    </text>
<text text-anchor="start" x="679.65" y="-318.4" font-family="Arial" font-size="14.00" fill="#666666">[BASE TABLE]</text>
<polygon fill="none" stroke="black" points="546.65,-274.2 546.65,-305 796.42,-305 796.42,-274.2 546.65,-274.2"/>
<text text-anchor="start" x="553.65" y="-286.4" font-family="Arial" font-size="14.00">id </text>
<text text-anchor="start" x="568.43" y="-286.4" font-family="Arial" font-size="14.00" fill="#666666">[bigint]</text>
<polygon fill="none" stroke="black" points="546.65,-243.4 546.65,-274.2 796.42,-274.2 796.42,-243.4 546.65,-243.4"/>
<text text-anchor="start" x="553.65" y="-255.6" font-family="Arial" font-size="14.00">name </text>
<text text-anchor="start" x="592.56" y="-255.6" font-family="Arial" font-size="14.00" fill="#666666">[text]</text>
<polygon fill="none" stroke="black" points="546.65,-212.6 546.65,-243.4 796.42,-243.4 796.42,-212.6 546.65,-212.6"/>
<text text-anchor="start" x="553.65" y="-224.8" font-family="Arial" font-size="14.00">created_at </text>
<text text-anchor="start" x="623.69" y="-224.8" font-family="Arial" font-size="14.00" fill="#666666">[timestamp with time zone]</text>
</g>
<!-- public.nodes_tags&#45;&gt;public.tags -->
<g id="edge2" class="edge">
<title>public.nodes_tags:tag_id&#45;&gt;public.tags:id</title>
<path fill="none" stroke="black" d="M633.68,-681.11C783.63,-665.69 371.66,-289.6 545.65,-289.6"/>
<polygon fill="black" stroke="black" points="633.84,-681.1 623.63,-677.09 628.51,-681.36 624.18,-681.57 624.18,-681.57 624.18,-681.57 628.51,-681.36 624.07,-686.08 633.84,-681.1"/>
<text text-anchor="start" x="630.52" y="-691.6" font-family="Arial" font-size="10.00">FOREIGN KEY (tag_id) REFERENCES tags(id) ON DELETE CASCADE</text>
</g>
</g>
</svg>
