<?xml version="1.0" encoding="UTF-8" standalone="no"?>
<!DOCTYPE svg PUBLIC "-//W3C//DTD SVG 1.1//EN"
 "http://www.w3.org/Graphics/SVG/1.1/DTD/svg11.dtd">
<!-- Generated by graphviz version 12.1.2 (20240928.0832)
 -->
<!-- Title: public.nodes Pages: 1 -->
<svg width="682pt" height="1160pt"
 viewBox="0.00 0.00 682.17 1160.40" xmlns="http://www.w3.org/2000/svg" xmlns:xlink="http://www.w3.org/1999/xlink">
<g id="graph0" class="graph" transform="scale(1 1) rotate(0) translate(4 1156.4)">
<title>public.nodes</title>
<polygon fill="white" stroke="none" points="-4,4 -4,-1156.4 678.17,-1156.4 678.17,4 -4,4"/>
<!-- public.nodes -->
<g id="node1" class="node">
<title>public.nodes</title>
<polygon fill="#efefef" stroke="none" points="46.2,-789.4 46.2,-825 318.53,-825 318.53,-789.4 46.2,-789.4"/>
<polygon fill="none" stroke="black" points="46.2,-789.4 46.2,-825 318.53,-825 318.53,-789.4 46.2,-789.4"/>
<text text-anchor="start" x="74.38" y="-802.8" font-family="Arial Bold" font-size="18.00">public.nodes</text>
<text text-anchor="start" x="165.86" y="-802.8" font-family="Arial" font-size="14.00">    </text>
<text text-anchor="start" x="196.98" y="-802.8" font-family="Arial" font-size="14.00" fill="#666666">[BASE TABLE]</text>
<polygon fill="none" stroke="black" points="46.2,-758.6 46.2,-789.4 318.53,-789.4 318.53,-758.6 46.2,-758.6"/>
<text text-anchor="start" x="53.2" y="-770.8" font-family="Arial" font-size="14.00">id </text>
<text text-anchor="start" x="67.99" y="-770.8" font-family="Arial" font-size="14.00" fill="#666666">[bigint]</text>
<polygon fill="none" stroke="black" points="46.2,-727.8 46.2,-758.6 318.53,-758.6 318.53,-727.8 46.2,-727.8"/>
<text text-anchor="start" x="53.2" y="-740" font-family="Arial" font-size="14.00">content </text>
<text text-anchor="start" x="103.01" y="-740" font-family="Arial" font-size="14.00" fill="#666666">[text]</text>
<polygon fill="none" stroke="black" points="46.2,-697 46.2,-727.8 318.53,-727.8 318.53,-697 46.2,-697"/>
<text text-anchor="start" x="53.2" y="-709.2" font-family="Arial" font-size="14.00">speaker </text>
<text text-anchor="start" x="106.9" y="-709.2" font-family="Arial" font-size="14.00" fill="#666666">[text]</text>
<polygon fill="none" stroke="black" points="46.2,-666.2 46.2,-697 318.53,-697 318.53,-666.2 46.2,-666.2"/>
<text text-anchor="start" x="53.2" y="-678.4" font-family="Arial" font-size="14.00">type </text>
<text text-anchor="start" x="83.55" y="-678.4" font-family="Arial" font-size="14.00" fill="#666666">[text]</text>
<polygon fill="none" stroke="black" points="46.2,-635.4 46.2,-666.2 318.53,-666.2 318.53,-635.4 46.2,-635.4"/>
<text text-anchor="start" x="53.2" y="-647.6" font-family="Arial" font-size="14.00">category </text>
<text text-anchor="start" x="110.79" y="-647.6" font-family="Arial" font-size="14.00" fill="#666666">[text]</text>
<polygon fill="none" stroke="black" points="46.2,-604.6 46.2,-635.4 318.53,-635.4 318.53,-604.6 46.2,-604.6"/>
<text text-anchor="start" x="53.2" y="-616.8" font-family="Arial" font-size="14.00">importance </text>
<text text-anchor="start" x="126.34" y="-616.8" font-family="Arial" font-size="14.00" fill="#666666">[double precision]</text>
<polygon fill="none" stroke="black" points="46.2,-573.8 46.2,-604.6 318.53,-604.6 318.53,-573.8 46.2,-573.8"/>
<text text-anchor="start" x="53.2" y="-586" font-family="Arial" font-size="14.00">created_at </text>
<text text-anchor="start" x="123.25" y="-586" font-family="Arial" font-size="14.00" fill="#666666">[timestamp with time zone]</text>
<polygon fill="none" stroke="black" points="46.2,-543 46.2,-573.8 318.53,-573.8 318.53,-543 46.2,-543"/>
<text text-anchor="start" x="53.2" y="-555.2" font-family="Arial" font-size="14.00">updated_at </text>
<text text-anchor="start" x="127.16" y="-555.2" font-family="Arial" font-size="14.00" fill="#666666">[timestamp with time zone]</text>
<polygon fill="none" stroke="black" points="46.2,-512.2 46.2,-543 318.53,-543 318.53,-512.2 46.2,-512.2"/>
<text text-anchor="start" x="53.2" y="-524.4" font-family="Arial" font-size="14.00">last_accessed </text>
<text text-anchor="start" x="145.81" y="-524.4" font-family="Arial" font-size="14.00" fill="#666666">[timestamp with time zone]</text>
<polygon fill="none" stroke="black" points="46.2,-481.4 46.2,-512.2 318.53,-512.2 318.53,-481.4 46.2,-481.4"/>
<text text-anchor="start" x="53.2" y="-493.6" font-family="Arial" font-size="14.00">token_count </text>
<text text-anchor="start" x="133.37" y="-493.6" font-family="Arial" font-size="14.00" fill="#666666">[integer]</text>
<polygon fill="none" stroke="black" points="46.2,-450.6 46.2,-481.4 318.53,-481.4 318.53,-450.6 46.2,-450.6"/>
<text text-anchor="start" x="53.2" y="-462.8" font-family="Arial" font-size="14.00">in_working_memory </text>
<text text-anchor="start" x="182.36" y="-462.8" font-family="Arial" font-size="14.00" fill="#666666">[boolean]</text>
<polygon fill="none" stroke="black" points="46.2,-419.8 46.2,-450.6 318.53,-450.6 318.53,-419.8 46.2,-419.8"/>
<text text-anchor="start" x="53.2" y="-432" font-family="Arial" font-size="14.00">robot_id </text>
<text text-anchor="start" x="107.68" y="-432" font-family="Arial" font-size="14.00" fill="#666666">[text]</text>
<polygon fill="none" stroke="black" points="46.2,-389 46.2,-419.8 318.53,-419.8 318.53,-389 46.2,-389"/>
<text text-anchor="start" x="53.2" y="-401.2" font-family="Arial" font-size="14.00">embedding </text>
<text text-anchor="start" x="126.37" y="-401.2" font-family="Arial" font-size="14.00" fill="#666666">[vector(2000)]</text>
<polygon fill="none" stroke="black" points="46.2,-358.2 46.2,-389 318.53,-389 318.53,-358.2 46.2,-358.2"/>
<text text-anchor="start" x="53.2" y="-370.4" font-family="Arial" font-size="14.00">embedding_dimension </text>
<text text-anchor="start" x="197.96" y="-370.4" font-family="Arial" font-size="14.00" fill="#666666">[integer]</text>
<polygon fill="none" stroke="black" stroke-width="3" points="44.7,-356.7 44.7,-826.5 320.03,-826.5 320.03,-356.7 44.7,-356.7"/>
</g>
<!-- public.robots -->
<g id="node3" class="node">
<title>public.robots</title>
<polygon fill="#efefef" stroke="none" points="57.48,-197.2 57.48,-232.8 307.25,-232.8 307.25,-197.2 57.48,-197.2"/>
<polygon fill="none" stroke="black" points="57.48,-197.2 57.48,-232.8 307.25,-232.8 307.25,-197.2 57.48,-197.2"/>
<text text-anchor="start" x="72.87" y="-210.6" font-family="Arial Bold" font-size="18.00">public.robots</text>
<text text-anchor="start" x="167.37" y="-210.6" font-family="Arial" font-size="14.00">    </text>
<text text-anchor="start" x="198.48" y="-210.6" font-family="Arial" font-size="14.00" fill="#666666">[BASE TABLE]</text>
<polygon fill="none" stroke="black" points="57.48,-166.4 57.48,-197.2 307.25,-197.2 307.25,-166.4 57.48,-166.4"/>
<text text-anchor="start" x="64.48" y="-178.6" font-family="Arial" font-size="14.00">id </text>
<text text-anchor="start" x="79.27" y="-178.6" font-family="Arial" font-size="14.00" fill="#666666">[text]</text>
<polygon fill="none" stroke="black" points="57.48,-135.6 57.48,-166.4 307.25,-166.4 307.25,-135.6 57.48,-135.6"/>
<text text-anchor="start" x="64.48" y="-147.8" font-family="Arial" font-size="14.00">name </text>
<text text-anchor="start" x="103.39" y="-147.8" font-family="Arial" font-size="14.00" fill="#666666">[text]</text>
<polygon fill="none" stroke="black" points="57.48,-104.8 57.48,-135.6 307.25,-135.6 307.25,-104.8 57.48,-104.8"/>
<text text-anchor="start" x="64.48" y="-117" font-family="Arial" font-size="14.00">created_at </text>
<text text-anchor="start" x="134.53" y="-117" font-family="Arial" font-size="14.00" fill="#666666">[timestamp with time zone]</text>
<polygon fill="none" stroke="black" points="57.48,-74 57.48,-104.8 307.25,-104.8 307.25,-74 57.48,-74"/>
<text text-anchor="start" x="64.48" y="-86.2" font-family="Arial" font-size="14.00">last_active </text>
<text text-anchor="start" x="134.51" y="-86.2" font-family="Arial" font-size="14.00" fill="#666666">[timestamp with time zone]</text>
<polygon fill="none" stroke="black" points="57.48,-43.2 57.48,-74 307.25,-74 307.25,-43.2 57.48,-43.2"/>
<text text-anchor="start" x="64.48" y="-55.4" font-family="Arial" font-size="14.00">metadata </text>
<text text-anchor="start" x="126.74" y="-55.4" font-family="Arial" font-size="14.00" fill="#666666">[jsonb]</text>
</g>
<!-- public.nodes&#45;&gt;public.robots -->
<g id="edge2" class="edge">
<title>public.nodes:robot_id&#45;&gt;public.robots:id</title>
<path fill="none" stroke="black" d="M329.31,-432.35C374.31,-404.51 361.09,-181.8 308.25,-181.8"/>
<polygon fill="black" stroke="black" points="329.45,-432.31 318.59,-430.79 324.33,-433.8 320.17,-435.01 320.17,-435.01 320.17,-435.01 324.33,-433.8 321.11,-439.43 329.45,-432.31"/>
<text text-anchor="start" x="326.53" y="-445.2" font-family="Arial" font-size="10.00">FOREIGN KEY (robot_id) REFERENCES robots(id) ON DELETE CASCADE</text>
</g>
<!-- public.tags -->
<g id="node2" class="node">
<title>public.tags</title>
<polygon fill="#efefef" stroke="none" points="57.48,-1073.6 57.48,-1109.2 307.25,-1109.2 307.25,-1073.6 57.48,-1073.6"/>
<polygon fill="none" stroke="black" points="57.48,-1073.6 57.48,-1109.2 307.25,-1109.2 307.25,-1073.6 57.48,-1073.6"/>
<text text-anchor="start" x="80.88" y="-1087" font-family="Arial Bold" font-size="18.00">public.tags</text>
<text text-anchor="start" x="159.36" y="-1087" font-family="Arial" font-size="14.00">    </text>
<text text-anchor="start" x="190.48" y="-1087" font-family="Arial" font-size="14.00" fill="#666666">[BASE TABLE]</text>
<polygon fill="none" stroke="black" points="57.48,-1042.8 57.48,-1073.6 307.25,-1073.6 307.25,-1042.8 57.48,-1042.8"/>
<text text-anchor="start" x="64.48" y="-1055" font-family="Arial" font-size="14.00">id </text>
<text text-anchor="start" x="79.27" y="-1055" font-family="Arial" font-size="14.00" fill="#666666">[bigint]</text>
<polygon fill="none" stroke="black" points="57.48,-1012 57.48,-1042.8 307.25,-1042.8 307.25,-1012 57.48,-1012"/>
<text text-anchor="start" x="64.48" y="-1024.2" font-family="Arial" font-size="14.00">node_id </text>
<text text-anchor="start" x="118.2" y="-1024.2" font-family="Arial" font-size="14.00" fill="#666666">[bigint]</text>
<polygon fill="none" stroke="black" points="57.48,-981.2 57.48,-1012 307.25,-1012 307.25,-981.2 57.48,-981.2"/>
<text text-anchor="start" x="64.48" y="-993.4" font-family="Arial" font-size="14.00">tag </text>
<text text-anchor="start" x="87.83" y="-993.4" font-family="Arial" font-size="14.00" fill="#666666">[text]</text>
<polygon fill="none" stroke="black" points="57.48,-950.4 57.48,-981.2 307.25,-981.2 307.25,-950.4 57.48,-950.4"/>
<text text-anchor="start" x="64.48" y="-962.6" font-family="Arial" font-size="14.00">created_at </text>
<text text-anchor="start" x="134.53" y="-962.6" font-family="Arial" font-size="14.00" fill="#666666">[timestamp with time zone]</text>
</g>
<!-- public.tags&#45;&gt;public.nodes -->
<g id="edge1" class="edge">
<title>public.tags:node_id&#45;&gt;public.nodes:id</title>
<path fill="none" stroke="black" d="M318.29,-1024.55C365.76,-996.71 372.37,-774 319.53,-774"/>
<polygon fill="black" stroke="black" points="318.19,-1024.58 307.34,-1022.98 313.06,-1026.04 308.89,-1027.22 308.89,-1027.22 308.89,-1027.22 313.06,-1026.04 309.8,-1031.64 318.19,-1024.58"/>
<text text-anchor="start" x="315.25" y="-1037.4" font-family="Arial" font-size="10.00">FOREIGN KEY (node_id) REFERENCES nodes(id) ON DELETE CASCADE</text>
</g>
</g>
</svg>
