<?xml version="1.0" encoding="UTF-8" standalone="no"?>
<!DOCTYPE svg PUBLIC "-//W3C//DTD SVG 1.1//EN"
 "http://www.w3.org/Graphics/SVG/1.1/DTD/svg11.dtd">
<!-- Generated by graphviz version 12.1.2 (20240928.0832)
 -->
<!-- Title: public.robots Pages: 1 -->
<svg width="840pt" height="664pt"
 viewBox="0.00 0.00 839.77 663.60" xmlns="http://www.w3.org/2000/svg" xmlns:xlink="http://www.w3.org/1999/xlink">
<g id="graph0" class="graph" transform="scale(1 1) rotate(0) translate(4 659.6)">
<title>public.robots</title>
<polygon fill="white" stroke="none" points="-4,4 -4,-659.6 835.77,-659.6 835.77,4 -4,4"/>
<!-- public.robots -->
<g id="node1" class="node">
<title>public.robots</title>
<polygon fill="#efefef" stroke="none" points="286.7,-169.4 286.7,-205 536.47,-205 536.47,-169.4 286.7,-169.4"/>
<polygon fill="none" stroke="black" points="286.7,-169.4 286.7,-205 536.47,-205 536.47,-169.4 286.7,-169.4"/>
<text text-anchor="start" x="302.1" y="-182.8" font-family="Arial Bold" font-size="18.00">public.robots</text>
<text text-anchor="start" x="396.59" y="-182.8" font-family="Arial" font-size="14.00">    </text>
<text text-anchor="start" x="427.71" y="-182.8" font-family="Arial" font-size="14.00" fill="#666666">[BASE TABLE]</text>
<polygon fill="none" stroke="black" points="286.7,-138.6 286.7,-169.4 536.47,-169.4 536.47,-138.6 286.7,-138.6"/>
<text text-anchor="start" x="293.7" y="-150.8" font-family="Arial" font-size="14.00">id </text>
<text text-anchor="start" x="308.49" y="-150.8" font-family="Arial" font-size="14.00" fill="#666666">[bigint]</text>
<polygon fill="none" stroke="black" points="286.7,-107.8 286.7,-138.6 536.47,-138.6 536.47,-107.8 286.7,-107.8"/>
<text text-anchor="start" x="293.7" y="-120" font-family="Arial" font-size="14.00">name </text>
<text text-anchor="start" x="332.61" y="-120" font-family="Arial" font-size="14.00" fill="#666666">[text]</text>
<polygon fill="none" stroke="black" points="286.7,-77 286.7,-107.8 536.47,-107.8 536.47,-77 286.7,-77"/>
<text text-anchor="start" x="293.7" y="-89.2" font-family="Arial" font-size="14.00">created_at </text>
<text text-anchor="start" x="363.75" y="-89.2" font-family="Arial" font-size="14.00" fill="#666666">[timestamp with time zone]</text>
<polygon fill="none" stroke="black" points="286.7,-46.2 286.7,-77 536.47,-77 536.47,-46.2 286.7,-46.2"/>
<text text-anchor="start" x="293.7" y="-58.4" font-family="Arial" font-size="14.00">last_active </text>
<text text-anchor="start" x="363.74" y="-58.4" font-family="Arial" font-size="14.00" fill="#666666">[timestamp with time zone]</text>
<polygon fill="none" stroke="black" stroke-width="3" points="285.2,-44.7 285.2,-206.5 537.97,-206.5 537.97,-44.7 285.2,-44.7"/>
</g>
<!-- public.robot_nodes -->
<g id="node2" class="node">
<title>public.robot_nodes</title>
<polygon fill="#efefef" stroke="none" points="43.2,-576.8 43.2,-612.4 355.98,-612.4 355.98,-576.8 43.2,-576.8"/>
<polygon fill="none" stroke="black" points="43.2,-576.8 43.2,-612.4 355.98,-612.4 355.98,-576.8 43.2,-576.8"/>
<text text-anchor="start" x="68.1" y="-590.2" font-family="Arial Bold" font-size="18.00">public.robot_nodes</text>
<text text-anchor="start" x="206.58" y="-590.2" font-family="Arial" font-size="14.00">    </text>
<text text-anchor="start" x="237.7" y="-590.2" font-family="Arial" font-size="14.00" fill="#666666">[BASE TABLE]</text>
<polygon fill="none" stroke="black" points="43.2,-546 43.2,-576.8 355.98,-576.8 355.98,-546 43.2,-546"/>
<text text-anchor="start" x="50.2" y="-558.2" font-family="Arial" font-size="14.00">id </text>
<text text-anchor="start" x="64.99" y="-558.2" font-family="Arial" font-size="14.00" fill="#666666">[bigint]</text>
<polygon fill="none" stroke="black" points="43.2,-515.2 43.2,-546 355.98,-546 355.98,-515.2 43.2,-515.2"/>
<text text-anchor="start" x="50.2" y="-527.4" font-family="Arial" font-size="14.00">robot_id </text>
<text text-anchor="start" x="104.68" y="-527.4" font-family="Arial" font-size="14.00" fill="#666666">[bigint]</text>
<polygon fill="none" stroke="black" points="43.2,-484.4 43.2,-515.2 355.98,-515.2 355.98,-484.4 43.2,-484.4"/>
<text text-anchor="start" x="50.2" y="-496.6" font-family="Arial" font-size="14.00">node_id </text>
<text text-anchor="start" x="103.92" y="-496.6" font-family="Arial" font-size="14.00" fill="#666666">[bigint]</text>
<polygon fill="none" stroke="black" points="43.2,-453.6 43.2,-484.4 355.98,-484.4 355.98,-453.6 43.2,-453.6"/>
<text text-anchor="start" x="50.2" y="-465.8" font-family="Arial" font-size="14.00">first_remembered_at </text>
<text text-anchor="start" x="183.25" y="-465.8" font-family="Arial" font-size="14.00" fill="#666666">[timestamp with time zone]</text>
<polygon fill="none" stroke="black" points="43.2,-422.8 43.2,-453.6 355.98,-453.6 355.98,-422.8 43.2,-422.8"/>
<text text-anchor="start" x="50.2" y="-435" font-family="Arial" font-size="14.00">last_remembered_at </text>
<text text-anchor="start" x="182.49" y="-435" font-family="Arial" font-size="14.00" fill="#666666">[timestamp with time zone]</text>
<polygon fill="none" stroke="black" points="43.2,-392 43.2,-422.8 355.98,-422.8 355.98,-392 43.2,-392"/>
<text text-anchor="start" x="50.2" y="-404.2" font-family="Arial" font-size="14.00">remember_count </text>
<text text-anchor="start" x="159.92" y="-404.2" font-family="Arial" font-size="14.00" fill="#666666">[integer]</text>
<polygon fill="none" stroke="black" points="43.2,-361.2 43.2,-392 355.98,-392 355.98,-361.2 43.2,-361.2"/>
<text text-anchor="start" x="50.2" y="-373.4" font-family="Arial" font-size="14.00">created_at </text>
<text text-anchor="start" x="120.25" y="-373.4" font-family="Arial" font-size="14.00" fill="#666666">[timestamp with time zone]</text>
<polygon fill="none" stroke="black" points="43.2,-330.4 43.2,-361.2 355.98,-361.2 355.98,-330.4 43.2,-330.4"/>
<text text-anchor="start" x="50.2" y="-342.6" font-family="Arial" font-size="14.00">updated_at </text>
<text text-anchor="start" x="124.16" y="-342.6" font-family="Arial" font-size="14.00" fill="#666666">[timestamp with time zone]</text>
</g>
<!-- public.robot_nodes&#45;&gt;public.robots -->
<g id="edge1" class="edge">
<title>public.robot_nodes:robot_id&#45;&gt;public.robots:id</title>
<path fill="none" stroke="black" d="M366.96,-527.95C407.38,-504.34 382.22,-330.22 355.98,-287.2 337.91,-257.58 304.87,-280.76 286.7,-251.2 264.09,-214.39 242.5,-154 285.7,-154"/>
<polygon fill="black" stroke="black" points="366.97,-527.94 356.15,-526.17 361.81,-529.32 357.62,-530.43 357.62,-530.43 357.62,-530.43 361.81,-529.32 358.46,-534.86 366.97,-527.94"/>
<text text-anchor="start" x="363.98" y="-540.6" font-family="Arial" font-size="10.00">FOREIGN KEY (robot_id) REFERENCES robots(id) ON DELETE CASCADE</text>
</g>
<!-- public.working_memories -->
<g id="node3" class="node">
<title>public.working_memories</title>
<polygon fill="#efefef" stroke="none" points="460.61,-530.6 460.61,-566.2 788.57,-566.2 788.57,-530.6 460.61,-530.6"/>
<polygon fill="none" stroke="black" points="460.61,-530.6 460.61,-566.2 788.57,-566.2 788.57,-530.6 460.61,-530.6"/>
<text text-anchor="start" x="467.61" y="-544" font-family="Arial Bold" font-size="18.00">public.working_memories</text>
<text text-anchor="start" x="657.08" y="-544" font-family="Arial" font-size="14.00">    </text>
<text text-anchor="start" x="688.19" y="-544" font-family="Arial" font-size="14.00" fill="#666666">[BASE TABLE]</text>
<polygon fill="none" stroke="black" points="460.61,-499.8 460.61,-530.6 788.57,-530.6 788.57,-499.8 460.61,-499.8"/>
<text text-anchor="start" x="467.61" y="-512" font-family="Arial" font-size="14.00">id </text>
<text text-anchor="start" x="482.4" y="-512" font-family="Arial" font-size="14.00" fill="#666666">[bigint]</text>
<polygon fill="none" stroke="black" points="460.61,-469 460.61,-499.8 788.57,-499.8 788.57,-469 460.61,-469"/>
<text text-anchor="start" x="467.61" y="-481.2" font-family="Arial" font-size="14.00">robot_id </text>
<text text-anchor="start" x="522.09" y="-481.2" font-family="Arial" font-size="14.00" fill="#666666">[bigint]</text>
<polygon fill="none" stroke="black" points="460.61,-438.2 460.61,-469 788.57,-469 788.57,-438.2 460.61,-438.2"/>
<text text-anchor="start" x="467.61" y="-450.4" font-family="Arial" font-size="14.00">node_id </text>
<text text-anchor="start" x="521.33" y="-450.4" font-family="Arial" font-size="14.00" fill="#666666">[bigint]</text>
<polygon fill="none" stroke="black" points="460.61,-407.4 460.61,-438.2 788.57,-438.2 788.57,-407.4 460.61,-407.4"/>
<text text-anchor="start" x="467.61" y="-419.6" font-family="Arial" font-size="14.00">added_at </text>
<text text-anchor="start" x="529.89" y="-419.6" font-family="Arial" font-size="14.00" fill="#666666">[timestamp with time zone]</text>
<polygon fill="none" stroke="black" points="460.61,-376.6 460.61,-407.4 788.57,-407.4 788.57,-376.6 460.61,-376.6"/>
<text text-anchor="start" x="467.61" y="-388.8" font-family="Arial" font-size="14.00">token_count </text>
<text text-anchor="start" x="547.78" y="-388.8" font-family="Arial" font-size="14.00" fill="#666666">[integer]</text>
</g>
<!-- public.working_memories&#45;&gt;public.robots -->
<g id="edge2" class="edge">
<title>public.working_memories:robot_id&#45;&gt;public.robots:id</title>
<path fill="none" stroke="black" d="M449.25,-483.57C397.36,-474.45 437.36,-392.29 460.61,-333.4 478.87,-287.16 518.14,-297.41 536.47,-251.2 552.41,-211.04 580.68,-154 537.47,-154"/>
<polygon fill="black" stroke="black" points="449.31,-483.57 458.92,-488.86 454.63,-484 458.94,-484.35 458.94,-484.35 458.94,-484.35 454.63,-484 459.64,-479.89 449.31,-483.57"/>
<text text-anchor="start" x="466.61" y="-494.4" font-family="Arial" font-size="10.00">FOREIGN KEY (robot_id) REFERENCES robots(id) ON DELETE CASCADE</text>
</g>
</g>
</svg>
