<?xml version="1.0" encoding="UTF-8" standalone="no"?>
<!DOCTYPE svg PUBLIC "-//W3C//DTD SVG 1.1//EN"
 "http://www.w3.org/Graphics/SVG/1.1/DTD/svg11.dtd">
<!-- Generated by graphviz version 12.1.2 (20240928.0832)
 -->
<!-- Title: public.node_tags Pages: 1 -->
<svg width="961pt" height="725pt"
 viewBox="0.00 0.00 961.37 725.20" xmlns="http://www.w3.org/2000/svg" xmlns:xlink="http://www.w3.org/1999/xlink">
<g id="graph0" class="graph" transform="scale(1 1) rotate(0) translate(4 721.2)">
<title>public.node_tags</title>
<polygon fill="white" stroke="none" points="-4,4 -4,-721.2 957.37,-721.2 957.37,4 -4,4"/>
<!-- public.node_tags -->
<g id="node1" class="node">
<title>public.node_tags</title>
<polygon fill="#efefef" stroke="none" points="354.55,-635.4 354.55,-671 615.51,-671 615.51,-635.4 354.55,-635.4"/>
<polygon fill="none" stroke="black" points="354.55,-635.4 354.55,-671 615.51,-671 615.51,-635.4 354.55,-635.4"/>
<text text-anchor="start" x="361.55" y="-648.8" font-family="Arial Bold" font-size="18.00">public.node_tags</text>
<text text-anchor="start" x="484.02" y="-648.8" font-family="Arial" font-size="14.00">    </text>
<text text-anchor="start" x="515.14" y="-648.8" font-family="Arial" font-size="14.00" fill="#666666">[BASE TABLE]</text>
<polygon fill="none" stroke="black" points="354.55,-604.6 354.55,-635.4 615.51,-635.4 615.51,-604.6 354.55,-604.6"/>
<text text-anchor="start" x="361.55" y="-616.8" font-family="Arial" font-size="14.00">id </text>
<text text-anchor="start" x="376.33" y="-616.8" font-family="Arial" font-size="14.00" fill="#666666">[bigint]</text>
<polygon fill="none" stroke="black" points="354.55,-573.8 354.55,-604.6 615.51,-604.6 615.51,-573.8 354.55,-573.8"/>
<text text-anchor="start" x="361.55" y="-586" font-family="Arial" font-size="14.00">node_id </text>
<text text-anchor="start" x="415.26" y="-586" font-family="Arial" font-size="14.00" fill="#666666">[bigint]</text>
<polygon fill="none" stroke="black" points="354.55,-543 354.55,-573.8 615.51,-573.8 615.51,-543 354.55,-543"/>
<text text-anchor="start" x="361.55" y="-555.2" font-family="Arial" font-size="14.00">tag_id </text>
<text text-anchor="start" x="403.58" y="-555.2" font-family="Arial" font-size="14.00" fill="#666666">[bigint]</text>
<polygon fill="none" stroke="black" points="354.55,-512.2 354.55,-543 615.51,-543 615.51,-512.2 354.55,-512.2"/>
<text text-anchor="start" x="361.55" y="-524.4" font-family="Arial" font-size="14.00">created_at </text>
<text text-anchor="start" x="431.59" y="-524.4" font-family="Arial" font-size="14.00" fill="#666666">[timestamp with time zone]</text>
<polygon fill="none" stroke="black" stroke-width="3" points="353.05,-510.7 353.05,-672.5 617.01,-672.5 617.01,-510.7 353.05,-510.7"/>
</g>
<!-- public.nodes -->
<g id="node2" class="node">
<title>public.nodes</title>
<polygon fill="#efefef" stroke="none" points="166.86,-351.2 166.86,-386.8 439.19,-386.8 439.19,-351.2 166.86,-351.2"/>
<polygon fill="none" stroke="black" points="166.86,-351.2 166.86,-386.8 439.19,-386.8 439.19,-351.2 166.86,-351.2"/>
<text text-anchor="start" x="195.04" y="-364.6" font-family="Arial Bold" font-size="18.00">public.nodes</text>
<text text-anchor="start" x="286.53" y="-364.6" font-family="Arial" font-size="14.00">    </text>
<text text-anchor="start" x="317.64" y="-364.6" font-family="Arial" font-size="14.00" fill="#666666">[BASE TABLE]</text>
<polygon fill="none" stroke="black" points="166.86,-320.4 166.86,-351.2 439.19,-351.2 439.19,-320.4 166.86,-320.4"/>
<text text-anchor="start" x="173.86" y="-332.6" font-family="Arial" font-size="14.00">id </text>
<text text-anchor="start" x="188.65" y="-332.6" font-family="Arial" font-size="14.00" fill="#666666">[bigint]</text>
<polygon fill="none" stroke="black" points="166.86,-289.6 166.86,-320.4 439.19,-320.4 439.19,-289.6 166.86,-289.6"/>
<text text-anchor="start" x="173.86" y="-301.8" font-family="Arial" font-size="14.00">content </text>
<text text-anchor="start" x="223.68" y="-301.8" font-family="Arial" font-size="14.00" fill="#666666">[text]</text>
<polygon fill="none" stroke="black" points="166.86,-258.8 166.86,-289.6 439.19,-289.6 439.19,-258.8 166.86,-258.8"/>
<text text-anchor="start" x="173.86" y="-271" font-family="Arial" font-size="14.00">access_count </text>
<text text-anchor="start" x="263.36" y="-271" font-family="Arial" font-size="14.00" fill="#666666">[integer]</text>
<polygon fill="none" stroke="black" points="166.86,-228 166.86,-258.8 439.19,-258.8 439.19,-228 166.86,-228"/>
<text text-anchor="start" x="173.86" y="-240.2" font-family="Arial" font-size="14.00">created_at </text>
<text text-anchor="start" x="243.91" y="-240.2" font-family="Arial" font-size="14.00" fill="#666666">[timestamp with time zone]</text>
<polygon fill="none" stroke="black" points="166.86,-197.2 166.86,-228 439.19,-228 439.19,-197.2 166.86,-197.2"/>
<text text-anchor="start" x="173.86" y="-209.4" font-family="Arial" font-size="14.00">updated_at </text>
<text text-anchor="start" x="247.82" y="-209.4" font-family="Arial" font-size="14.00" fill="#666666">[timestamp with time zone]</text>
<polygon fill="none" stroke="black" points="166.86,-166.4 166.86,-197.2 439.19,-197.2 439.19,-166.4 166.86,-166.4"/>
<text text-anchor="start" x="173.86" y="-178.6" font-family="Arial" font-size="14.00">last_accessed </text>
<text text-anchor="start" x="266.47" y="-178.6" font-family="Arial" font-size="14.00" fill="#666666">[timestamp with time zone]</text>
<polygon fill="none" stroke="black" points="166.86,-135.6 166.86,-166.4 439.19,-166.4 439.19,-135.6 166.86,-135.6"/>
<text text-anchor="start" x="173.86" y="-147.8" font-family="Arial" font-size="14.00">token_count </text>
<text text-anchor="start" x="254.04" y="-147.8" font-family="Arial" font-size="14.00" fill="#666666">[integer]</text>
<polygon fill="none" stroke="black" points="166.86,-104.8 166.86,-135.6 439.19,-135.6 439.19,-104.8 166.86,-104.8"/>
<text text-anchor="start" x="173.86" y="-117" font-family="Arial" font-size="14.00">embedding </text>
<text text-anchor="start" x="247.03" y="-117" font-family="Arial" font-size="14.00" fill="#666666">[vector(2000)]</text>
<polygon fill="none" stroke="black" points="166.86,-74 166.86,-104.8 439.19,-104.8 439.19,-74 166.86,-74"/>
<text text-anchor="start" x="173.86" y="-86.2" font-family="Arial" font-size="14.00">embedding_dimension </text>
<text text-anchor="start" x="318.63" y="-86.2" font-family="Arial" font-size="14.00" fill="#666666">[integer]</text>
<polygon fill="none" stroke="black" points="166.86,-43.2 166.86,-74 439.19,-74 439.19,-43.2 166.86,-43.2"/>
<text text-anchor="start" x="173.86" y="-55.4" font-family="Arial" font-size="14.00">content_hash </text>
<text text-anchor="start" x="261.82" y="-55.4" font-family="Arial" font-size="14.00" fill="#666666">[varchar(64)]</text>
</g>
<!-- public.node_tags&#45;&gt;public.nodes -->
<g id="edge1" class="edge">
<title>public.node_tags:node_id&#45;&gt;public.nodes:id</title>
<path fill="none" stroke="black" d="M343.42,-588.15C302.28,-578.73 326.23,-508.44 354.55,-466 377.24,-431.99 416.46,-463.98 439.19,-430 462.48,-395.2 482.06,-335.8 440.19,-335.8"/>
<polygon fill="black" stroke="black" points="343.27,-588.13 352.75,-593.64 348.57,-588.68 352.88,-589.13 352.88,-589.13 352.88,-589.13 348.57,-588.68 353.68,-584.69 343.27,-588.13"/>
<text text-anchor="start" x="7" y="-599.2" font-family="Arial" font-size="10.00">FOREIGN KEY (node_id) REFERENCES nodes(id) ON DELETE CASCADE</text>
</g>
<!-- public.tags -->
<g id="node3" class="node">
<title>public.tags</title>
<polygon fill="#efefef" stroke="none" points="543.14,-243.4 543.14,-279 792.91,-279 792.91,-243.4 543.14,-243.4"/>
<polygon fill="none" stroke="black" points="543.14,-243.4 543.14,-279 792.91,-279 792.91,-243.4 543.14,-243.4"/>
<text text-anchor="start" x="566.54" y="-256.8" font-family="Arial Bold" font-size="18.00">public.tags</text>
<text text-anchor="start" x="645.03" y="-256.8" font-family="Arial" font-size="14.00">    </text>
<text text-anchor="start" x="676.14" y="-256.8" font-family="Arial" font-size="14.00" fill="#666666">[BASE TABLE]</text>
<polygon fill="none" stroke="black" points="543.14,-212.6 543.14,-243.4 792.91,-243.4 792.91,-212.6 543.14,-212.6"/>
<text text-anchor="start" x="550.14" y="-224.8" font-family="Arial" font-size="14.00">id </text>
<text text-anchor="start" x="564.93" y="-224.8" font-family="Arial" font-size="14.00" fill="#666666">[bigint]</text>
<polygon fill="none" stroke="black" points="543.14,-181.8 543.14,-212.6 792.91,-212.6 792.91,-181.8 543.14,-181.8"/>
<text text-anchor="start" x="550.14" y="-194" font-family="Arial" font-size="14.00">name </text>
<text text-anchor="start" x="589.05" y="-194" font-family="Arial" font-size="14.00" fill="#666666">[text]</text>
<polygon fill="none" stroke="black" points="543.14,-151 543.14,-181.8 792.91,-181.8 792.91,-151 543.14,-151"/>
<text text-anchor="start" x="550.14" y="-163.2" font-family="Arial" font-size="14.00">created_at </text>
<text text-anchor="start" x="620.19" y="-163.2" font-family="Arial" font-size="14.00" fill="#666666">[timestamp with time zone]</text>
</g>
<!-- public.node_tags&#45;&gt;public.tags -->
<g id="edge2" class="edge">
<title>public.node_tags:tag_id&#45;&gt;public.tags:id</title>
<path fill="none" stroke="black" d="M626.61,-557.82C749.01,-542.46 395.3,-228 542.14,-228"/>
<polygon fill="black" stroke="black" points="626.83,-557.81 616.59,-553.89 621.5,-558.11 617.18,-558.36 617.18,-558.36 617.18,-558.36 621.5,-558.11 617.1,-562.87 626.83,-557.81"/>
<text text-anchor="start" x="623.51" y="-568.4" font-family="Arial" font-size="10.00">FOREIGN KEY (tag_id) REFERENCES tags(id) ON DELETE CASCADE</text>
</g>
</g>
</svg>
