<?xml version="1.0" encoding="UTF-8" standalone="no"?>
<!DOCTYPE svg PUBLIC "-//W3C//DTD SVG 1.1//EN"
 "http://www.w3.org/Graphics/SVG/1.1/DTD/svg11.dtd">
<!-- Generated by graphviz version 12.1.2 (20240928.0832)
 -->
<!-- Title: public.nodes Pages: 1 -->
<svg width="1183pt" height="1222pt"
 viewBox="0.00 0.00 1182.80 1222.00" xmlns="http://www.w3.org/2000/svg" xmlns:xlink="http://www.w3.org/1999/xlink">
<g id="graph0" class="graph" transform="scale(1 1) rotate(0) translate(4 1218)">
<title>public.nodes</title>
<polygon fill="white" stroke="none" points="-4,4 -4,-1218 1178.8,-1218 1178.8,4 -4,4"/>
<!-- public.nodes -->
<g id="node1" class="node">
<title>public.nodes</title>
<polygon fill="#efefef" stroke="none" points="285.96,-789.4 285.96,-825 558.29,-825 558.29,-789.4 285.96,-789.4"/>
<polygon fill="none" stroke="black" points="285.96,-789.4 285.96,-825 558.29,-825 558.29,-789.4 285.96,-789.4"/>
<text text-anchor="start" x="314.14" y="-802.8" font-family="Arial Bold" font-size="18.00">public.nodes</text>
<text text-anchor="start" x="405.62" y="-802.8" font-family="Arial" font-size="14.00">    </text>
<text text-anchor="start" x="436.74" y="-802.8" font-family="Arial" font-size="14.00" fill="#666666">[BASE TABLE]</text>
<polygon fill="none" stroke="black" points="285.96,-758.6 285.96,-789.4 558.29,-789.4 558.29,-758.6 285.96,-758.6"/>
<text text-anchor="start" x="292.96" y="-770.8" font-family="Arial" font-size="14.00">id </text>
<text text-anchor="start" x="307.75" y="-770.8" font-family="Arial" font-size="14.00" fill="#666666">[bigint]</text>
<polygon fill="none" stroke="black" points="285.96,-727.8 285.96,-758.6 558.29,-758.6 558.29,-727.8 285.96,-727.8"/>
<text text-anchor="start" x="292.96" y="-740" font-family="Arial" font-size="14.00">content </text>
<text text-anchor="start" x="342.77" y="-740" font-family="Arial" font-size="14.00" fill="#666666">[text]</text>
<polygon fill="none" stroke="black" points="285.96,-697 285.96,-727.8 558.29,-727.8 558.29,-697 285.96,-697"/>
<text text-anchor="start" x="292.96" y="-709.2" font-family="Arial" font-size="14.00">speaker </text>
<text text-anchor="start" x="346.66" y="-709.2" font-family="Arial" font-size="14.00" fill="#666666">[text]</text>
<polygon fill="none" stroke="black" points="285.96,-666.2 285.96,-697 558.29,-697 558.29,-666.2 285.96,-666.2"/>
<text text-anchor="start" x="292.96" y="-678.4" font-family="Arial" font-size="14.00">type </text>
<text text-anchor="start" x="323.31" y="-678.4" font-family="Arial" font-size="14.00" fill="#666666">[text]</text>
<polygon fill="none" stroke="black" points="285.96,-635.4 285.96,-666.2 558.29,-666.2 558.29,-635.4 285.96,-635.4"/>
<text text-anchor="start" x="292.96" y="-647.6" font-family="Arial" font-size="14.00">category </text>
<text text-anchor="start" x="350.54" y="-647.6" font-family="Arial" font-size="14.00" fill="#666666">[text]</text>
<polygon fill="none" stroke="black" points="285.96,-604.6 285.96,-635.4 558.29,-635.4 558.29,-604.6 285.96,-604.6"/>
<text text-anchor="start" x="292.96" y="-616.8" font-family="Arial" font-size="14.00">importance </text>
<text text-anchor="start" x="366.1" y="-616.8" font-family="Arial" font-size="14.00" fill="#666666">[double precision]</text>
<polygon fill="none" stroke="black" points="285.96,-573.8 285.96,-604.6 558.29,-604.6 558.29,-573.8 285.96,-573.8"/>
<text text-anchor="start" x="292.96" y="-586" font-family="Arial" font-size="14.00">created_at </text>
<text text-anchor="start" x="363.01" y="-586" font-family="Arial" font-size="14.00" fill="#666666">[timestamp with time zone]</text>
<polygon fill="none" stroke="black" points="285.96,-543 285.96,-573.8 558.29,-573.8 558.29,-543 285.96,-543"/>
<text text-anchor="start" x="292.96" y="-555.2" font-family="Arial" font-size="14.00">updated_at </text>
<text text-anchor="start" x="366.92" y="-555.2" font-family="Arial" font-size="14.00" fill="#666666">[timestamp with time zone]</text>
<polygon fill="none" stroke="black" points="285.96,-512.2 285.96,-543 558.29,-543 558.29,-512.2 285.96,-512.2"/>
<text text-anchor="start" x="292.96" y="-524.4" font-family="Arial" font-size="14.00">last_accessed </text>
<text text-anchor="start" x="385.57" y="-524.4" font-family="Arial" font-size="14.00" fill="#666666">[timestamp with time zone]</text>
<polygon fill="none" stroke="black" points="285.96,-481.4 285.96,-512.2 558.29,-512.2 558.29,-481.4 285.96,-481.4"/>
<text text-anchor="start" x="292.96" y="-493.6" font-family="Arial" font-size="14.00">token_count </text>
<text text-anchor="start" x="373.13" y="-493.6" font-family="Arial" font-size="14.00" fill="#666666">[integer]</text>
<polygon fill="none" stroke="black" points="285.96,-450.6 285.96,-481.4 558.29,-481.4 558.29,-450.6 285.96,-450.6"/>
<text text-anchor="start" x="292.96" y="-462.8" font-family="Arial" font-size="14.00">in_working_memory </text>
<text text-anchor="start" x="422.12" y="-462.8" font-family="Arial" font-size="14.00" fill="#666666">[boolean]</text>
<polygon fill="none" stroke="black" points="285.96,-419.8 285.96,-450.6 558.29,-450.6 558.29,-419.8 285.96,-419.8"/>
<text text-anchor="start" x="292.96" y="-432" font-family="Arial" font-size="14.00">robot_id </text>
<text text-anchor="start" x="347.44" y="-432" font-family="Arial" font-size="14.00" fill="#666666">[text]</text>
<polygon fill="none" stroke="black" points="285.96,-389 285.96,-419.8 558.29,-419.8 558.29,-389 285.96,-389"/>
<text text-anchor="start" x="292.96" y="-401.2" font-family="Arial" font-size="14.00">embedding </text>
<text text-anchor="start" x="366.12" y="-401.2" font-family="Arial" font-size="14.00" fill="#666666">[vector(2000)]</text>
<polygon fill="none" stroke="black" points="285.96,-358.2 285.96,-389 558.29,-389 558.29,-358.2 285.96,-358.2"/>
<text text-anchor="start" x="292.96" y="-370.4" font-family="Arial" font-size="14.00">embedding_dimension </text>
<text text-anchor="start" x="437.72" y="-370.4" font-family="Arial" font-size="14.00" fill="#666666">[integer]</text>
<polygon fill="none" stroke="black" stroke-width="3" points="284.46,-356.7 284.46,-826.5 559.79,-826.5 559.79,-356.7 284.46,-356.7"/>
</g>
<!-- public.robots -->
<g id="node5" class="node">
<title>public.robots</title>
<polygon fill="#efefef" stroke="none" points="297.24,-197.2 297.24,-232.8 547.01,-232.8 547.01,-197.2 297.24,-197.2"/>
<polygon fill="none" stroke="black" points="297.24,-197.2 297.24,-232.8 547.01,-232.8 547.01,-197.2 297.24,-197.2"/>
<text text-anchor="start" x="312.63" y="-210.6" font-family="Arial Bold" font-size="18.00">public.robots</text>
<text text-anchor="start" x="407.12" y="-210.6" font-family="Arial" font-size="14.00">    </text>
<text text-anchor="start" x="438.24" y="-210.6" font-family="Arial" font-size="14.00" fill="#666666">[BASE TABLE]</text>
<polygon fill="none" stroke="black" points="297.24,-166.4 297.24,-197.2 547.01,-197.2 547.01,-166.4 297.24,-166.4"/>
<text text-anchor="start" x="304.24" y="-178.6" font-family="Arial" font-size="14.00">id </text>
<text text-anchor="start" x="319.02" y="-178.6" font-family="Arial" font-size="14.00" fill="#666666">[text]</text>
<polygon fill="none" stroke="black" points="297.24,-135.6 297.24,-166.4 547.01,-166.4 547.01,-135.6 297.24,-135.6"/>
<text text-anchor="start" x="304.24" y="-147.8" font-family="Arial" font-size="14.00">name </text>
<text text-anchor="start" x="343.15" y="-147.8" font-family="Arial" font-size="14.00" fill="#666666">[text]</text>
<polygon fill="none" stroke="black" points="297.24,-104.8 297.24,-135.6 547.01,-135.6 547.01,-104.8 297.24,-104.8"/>
<text text-anchor="start" x="304.24" y="-117" font-family="Arial" font-size="14.00">created_at </text>
<text text-anchor="start" x="374.29" y="-117" font-family="Arial" font-size="14.00" fill="#666666">[timestamp with time zone]</text>
<polygon fill="none" stroke="black" points="297.24,-74 297.24,-104.8 547.01,-104.8 547.01,-74 297.24,-74"/>
<text text-anchor="start" x="304.24" y="-86.2" font-family="Arial" font-size="14.00">last_active </text>
<text text-anchor="start" x="374.27" y="-86.2" font-family="Arial" font-size="14.00" fill="#666666">[timestamp with time zone]</text>
<polygon fill="none" stroke="black" points="297.24,-43.2 297.24,-74 547.01,-74 547.01,-43.2 297.24,-43.2"/>
<text text-anchor="start" x="304.24" y="-55.4" font-family="Arial" font-size="14.00">metadata </text>
<text text-anchor="start" x="366.5" y="-55.4" font-family="Arial" font-size="14.00" fill="#666666">[jsonb]</text>
</g>
<!-- public.nodes&#45;&gt;public.robots -->
<g id="edge5" class="edge">
<title>public.nodes:robot_id&#45;&gt;public.robots:id</title>
<path fill="none" stroke="black" d="M569.5,-434.47C671.22,-419.61 657.22,-181.8 548.01,-181.8"/>
<polygon fill="black" stroke="black" points="569.6,-434.47 559.3,-430.69 564.28,-434.84 559.96,-435.15 559.96,-435.15 559.96,-435.15 564.28,-434.84 559.94,-439.66 569.6,-434.47"/>
<text text-anchor="start" x="566.29" y="-445.2" font-family="Arial" font-size="10.00">FOREIGN KEY (robot_id) REFERENCES robots(id) ON DELETE CASCADE</text>
</g>
<!-- public.relationships -->
<g id="node2" class="node">
<title>public.relationships</title>
<polygon fill="#efefef" stroke="none" points="98.14,-1135.2 98.14,-1170.8 378.11,-1170.8 378.11,-1135.2 98.14,-1135.2"/>
<polygon fill="none" stroke="black" points="98.14,-1135.2 98.14,-1170.8 378.11,-1170.8 378.11,-1135.2 98.14,-1135.2"/>
<text text-anchor="start" x="105.14" y="-1148.6" font-family="Arial Bold" font-size="18.00">public.relationships</text>
<text text-anchor="start" x="246.62" y="-1148.6" font-family="Arial" font-size="14.00">    </text>
<text text-anchor="start" x="277.74" y="-1148.6" font-family="Arial" font-size="14.00" fill="#666666">[BASE TABLE]</text>
<polygon fill="none" stroke="black" points="98.14,-1104.4 98.14,-1135.2 378.11,-1135.2 378.11,-1104.4 98.14,-1104.4"/>
<text text-anchor="start" x="105.14" y="-1116.6" font-family="Arial" font-size="14.00">id </text>
<text text-anchor="start" x="119.93" y="-1116.6" font-family="Arial" font-size="14.00" fill="#666666">[bigint]</text>
<polygon fill="none" stroke="black" points="98.14,-1073.6 98.14,-1104.4 378.11,-1104.4 378.11,-1073.6 98.14,-1073.6"/>
<text text-anchor="start" x="105.14" y="-1085.8" font-family="Arial" font-size="14.00">from_node_id </text>
<text text-anchor="start" x="194.64" y="-1085.8" font-family="Arial" font-size="14.00" fill="#666666">[bigint]</text>
<polygon fill="none" stroke="black" points="98.14,-1042.8 98.14,-1073.6 378.11,-1073.6 378.11,-1042.8 98.14,-1042.8"/>
<text text-anchor="start" x="105.14" y="-1055" font-family="Arial" font-size="14.00">to_node_id </text>
<text text-anchor="start" x="178.32" y="-1055" font-family="Arial" font-size="14.00" fill="#666666">[bigint]</text>
<polygon fill="none" stroke="black" points="98.14,-1012 98.14,-1042.8 378.11,-1042.8 378.11,-1012 98.14,-1012"/>
<text text-anchor="start" x="105.14" y="-1024.2" font-family="Arial" font-size="14.00">relationship_type </text>
<text text-anchor="start" x="214.88" y="-1024.2" font-family="Arial" font-size="14.00" fill="#666666">[text]</text>
<polygon fill="none" stroke="black" points="98.14,-981.2 98.14,-1012 378.11,-1012 378.11,-981.2 98.14,-981.2"/>
<text text-anchor="start" x="105.14" y="-993.4" font-family="Arial" font-size="14.00">strength </text>
<text text-anchor="start" x="159.62" y="-993.4" font-family="Arial" font-size="14.00" fill="#666666">[double precision]</text>
<polygon fill="none" stroke="black" points="98.14,-950.4 98.14,-981.2 378.11,-981.2 378.11,-950.4 98.14,-950.4"/>
<text text-anchor="start" x="105.14" y="-962.6" font-family="Arial" font-size="14.00">created_at </text>
<text text-anchor="start" x="175.19" y="-962.6" font-family="Arial" font-size="14.00" fill="#666666">[timestamp with time zone]</text>
</g>
<!-- public.relationships&#45;&gt;public.nodes -->
<g id="edge1" class="edge">
<title>public.relationships:from_node_id&#45;&gt;public.nodes:id</title>
<path fill="none" stroke="black" d="M389.3,-1088.32C456.65,-1078.75 421.8,-970.81 378.11,-907.2 353.21,-870.96 310.94,-907.38 285.96,-871.2 261.41,-835.65 241.76,-774 284.96,-774"/>
<polygon fill="black" stroke="black" points="389.42,-1088.31 379.14,-1084.49 384.1,-1088.67 379.77,-1088.96 379.77,-1088.96 379.77,-1088.96 384.1,-1088.67 379.74,-1093.47 389.42,-1088.31"/>
<text text-anchor="start" x="7" y="-1099" font-family="Arial" font-size="10.00">FOREIGN KEY (from_node_id) REFERENCES nodes(id) ON DELETE CASCADE</text>
</g>
<!-- public.relationships&#45;&gt;public.nodes -->
<g id="edge2" class="edge">
<title>public.relationships:to_node_id&#45;&gt;public.nodes:id</title>
<path fill="none" stroke="black" d="M389.26,-1057.36C442.91,-1047.85 414.06,-959.47 378.11,-907.2 353.19,-870.97 310.94,-907.38 285.96,-871.2 261.41,-835.65 241.76,-774 284.96,-774"/>
<polygon fill="black" stroke="black" points="389.41,-1057.35 379.07,-1053.69 384.09,-1057.79 379.77,-1058.15 379.77,-1058.15 379.77,-1058.15 384.09,-1057.79 379.81,-1062.66 389.41,-1057.35"/>
<text text-anchor="start" x="18.66" y="-1068.2" font-family="Arial" font-size="10.00">FOREIGN KEY (to_node_id) REFERENCES nodes(id) ON DELETE CASCADE</text>
</g>
<!-- public.tags -->
<g id="node3" class="node">
<title>public.tags</title>
<polygon fill="#efefef" stroke="none" points="482.24,-1104.4 482.24,-1140 732.01,-1140 732.01,-1104.4 482.24,-1104.4"/>
<polygon fill="none" stroke="black" points="482.24,-1104.4 482.24,-1140 732.01,-1140 732.01,-1104.4 482.24,-1104.4"/>
<text text-anchor="start" x="505.64" y="-1117.8" font-family="Arial Bold" font-size="18.00">public.tags</text>
<text text-anchor="start" x="584.12" y="-1117.8" font-family="Arial" font-size="14.00">    </text>
<text text-anchor="start" x="615.24" y="-1117.8" font-family="Arial" font-size="14.00" fill="#666666">[BASE TABLE]</text>
<polygon fill="none" stroke="black" points="482.24,-1073.6 482.24,-1104.4 732.01,-1104.4 732.01,-1073.6 482.24,-1073.6"/>
<text text-anchor="start" x="489.24" y="-1085.8" font-family="Arial" font-size="14.00">id </text>
<text text-anchor="start" x="504.02" y="-1085.8" font-family="Arial" font-size="14.00" fill="#666666">[bigint]</text>
<polygon fill="none" stroke="black" points="482.24,-1042.8 482.24,-1073.6 732.01,-1073.6 732.01,-1042.8 482.24,-1042.8"/>
<text text-anchor="start" x="489.24" y="-1055" font-family="Arial" font-size="14.00">node_id </text>
<text text-anchor="start" x="542.96" y="-1055" font-family="Arial" font-size="14.00" fill="#666666">[bigint]</text>
<polygon fill="none" stroke="black" points="482.24,-1012 482.24,-1042.8 732.01,-1042.8 732.01,-1012 482.24,-1012"/>
<text text-anchor="start" x="489.24" y="-1024.2" font-family="Arial" font-size="14.00">tag </text>
<text text-anchor="start" x="512.59" y="-1024.2" font-family="Arial" font-size="14.00" fill="#666666">[text]</text>
<polygon fill="none" stroke="black" points="482.24,-981.2 482.24,-1012 732.01,-1012 732.01,-981.2 482.24,-981.2"/>
<text text-anchor="start" x="489.24" y="-993.4" font-family="Arial" font-size="14.00">created_at </text>
<text text-anchor="start" x="559.29" y="-993.4" font-family="Arial" font-size="14.00" fill="#666666">[timestamp with time zone]</text>
</g>
<!-- public.tags&#45;&gt;public.nodes -->
<g id="edge3" class="edge">
<title>public.tags:node_id&#45;&gt;public.nodes:id</title>
<path fill="none" stroke="black" d="M471.21,-1057.17C432.29,-1048.24 461.57,-983.16 482.24,-938 500.96,-897.09 539.53,-912.09 558.29,-871.2 576.31,-831.93 602.49,-774 559.29,-774"/>
<polygon fill="black" stroke="black" points="470.96,-1057.15 480.45,-1062.64 476.26,-1057.69 480.57,-1058.13 480.57,-1058.13 480.57,-1058.13 476.26,-1057.69 481.36,-1053.69 470.96,-1057.15"/>
<text text-anchor="start" x="488.24" y="-1068.2" font-family="Arial" font-size="10.00">FOREIGN KEY (node_id) REFERENCES nodes(id) ON DELETE CASCADE</text>
</g>
<!-- public.operations_log -->
<g id="node4" class="node">
<title>public.operations_log</title>
<polygon fill="#efefef" stroke="none" points="836.64,-1135.2 836.64,-1170.8 1131.6,-1170.8 1131.6,-1135.2 836.64,-1135.2"/>
<polygon fill="none" stroke="black" points="836.64,-1135.2 836.64,-1170.8 1131.6,-1170.8 1131.6,-1135.2 836.64,-1135.2"/>
<text text-anchor="start" x="843.64" y="-1148.6" font-family="Arial Bold" font-size="18.00">public.operations_log</text>
<text text-anchor="start" x="1000.12" y="-1148.6" font-family="Arial" font-size="14.00">    </text>
<text text-anchor="start" x="1031.23" y="-1148.6" font-family="Arial" font-size="14.00" fill="#666666">[BASE TABLE]</text>
<polygon fill="none" stroke="black" points="836.64,-1104.4 836.64,-1135.2 1131.6,-1135.2 1131.6,-1104.4 836.64,-1104.4"/>
<text text-anchor="start" x="843.64" y="-1116.6" font-family="Arial" font-size="14.00">id </text>
<text text-anchor="start" x="858.43" y="-1116.6" font-family="Arial" font-size="14.00" fill="#666666">[bigint]</text>
<polygon fill="none" stroke="black" points="836.64,-1073.6 836.64,-1104.4 1131.6,-1104.4 1131.6,-1073.6 836.64,-1073.6"/>
<text text-anchor="start" x="843.64" y="-1085.8" font-family="Arial" font-size="14.00">timestamp </text>
<text text-anchor="start" x="912.11" y="-1085.8" font-family="Arial" font-size="14.00" fill="#666666">[timestamp with time zone]</text>
<polygon fill="none" stroke="black" points="836.64,-1042.8 836.64,-1073.6 1131.6,-1073.6 1131.6,-1042.8 836.64,-1042.8"/>
<text text-anchor="start" x="843.64" y="-1055" font-family="Arial" font-size="14.00">operation </text>
<text text-anchor="start" x="905.91" y="-1055" font-family="Arial" font-size="14.00" fill="#666666">[text]</text>
<polygon fill="none" stroke="black" points="836.64,-1012 836.64,-1042.8 1131.6,-1042.8 1131.6,-1012 836.64,-1012"/>
<text text-anchor="start" x="843.64" y="-1024.2" font-family="Arial" font-size="14.00">node_id </text>
<text text-anchor="start" x="897.36" y="-1024.2" font-family="Arial" font-size="14.00" fill="#666666">[bigint]</text>
<polygon fill="none" stroke="black" points="836.64,-981.2 836.64,-1012 1131.6,-1012 1131.6,-981.2 836.64,-981.2"/>
<text text-anchor="start" x="843.64" y="-993.4" font-family="Arial" font-size="14.00">robot_id </text>
<text text-anchor="start" x="898.13" y="-993.4" font-family="Arial" font-size="14.00" fill="#666666">[text]</text>
<polygon fill="none" stroke="black" points="836.64,-950.4 836.64,-981.2 1131.6,-981.2 1131.6,-950.4 836.64,-950.4"/>
<text text-anchor="start" x="843.64" y="-962.6" font-family="Arial" font-size="14.00">details </text>
<text text-anchor="start" x="888" y="-962.6" font-family="Arial" font-size="14.00" fill="#666666">[jsonb]</text>
</g>
<!-- public.operations_log&#45;&gt;public.nodes -->
<g id="edge4" class="edge">
<title>public.operations_log:node_id&#45;&gt;public.nodes:id</title>
<path fill="none" stroke="black" d="M825.37,-1026.42C783.12,-1017.38 819.92,-947.98 784.12,-907.2 707.5,-819.91 675.44,-774 559.29,-774"/>
<polygon fill="black" stroke="black" points="825.36,-1026.42 834.88,-1031.85 830.67,-1026.92 834.98,-1027.34 834.98,-1027.34 834.98,-1027.34 830.67,-1026.92 835.74,-1022.89 825.36,-1026.42"/>
<text text-anchor="start" x="577.48" y="-1011.4" font-family="Arial" font-size="10.00">FOREIGN KEY (node_id) REFERENCES nodes(id) ON DELETE CASCADE</text>
</g>
</g>
</svg>
