<?xml version="1.0" encoding="UTF-8" standalone="no"?>
<!DOCTYPE svg PUBLIC "-//W3C//DTD SVG 1.1//EN"
 "http://www.w3.org/Graphics/SVG/1.1/DTD/svg11.dtd">
<!-- Generated by graphviz version 12.1.2 (20240928.0832)
 -->
<!-- Title: public.robots Pages: 1 -->
<svg width="679pt" height="879pt"
 viewBox="0.00 0.00 679.17 879.20" xmlns="http://www.w3.org/2000/svg" xmlns:xlink="http://www.w3.org/1999/xlink">
<g id="graph0" class="graph" transform="scale(1 1) rotate(0) translate(4 875.2)">
<title>public.robots</title>
<polygon fill="white" stroke="none" points="-4,4 -4,-875.2 675.17,-875.2 675.17,4 -4,4"/>
<!-- public.robots -->
<g id="node1" class="node">
<title>public.robots</title>
<polygon fill="#efefef" stroke="none" points="54.48,-200.2 54.48,-235.8 304.25,-235.8 304.25,-200.2 54.48,-200.2"/>
<polygon fill="none" stroke="black" points="54.48,-200.2 54.48,-235.8 304.25,-235.8 304.25,-200.2 54.48,-200.2"/>
<text text-anchor="start" x="69.87" y="-213.6" font-family="Arial Bold" font-size="18.00">public.robots</text>
<text text-anchor="start" x="164.37" y="-213.6" font-family="Arial" font-size="14.00">    </text>
<text text-anchor="start" x="195.48" y="-213.6" font-family="Arial" font-size="14.00" fill="#666666">[BASE TABLE]</text>
<polygon fill="none" stroke="black" points="54.48,-169.4 54.48,-200.2 304.25,-200.2 304.25,-169.4 54.48,-169.4"/>
<text text-anchor="start" x="61.48" y="-181.6" font-family="Arial" font-size="14.00">id </text>
<text text-anchor="start" x="76.27" y="-181.6" font-family="Arial" font-size="14.00" fill="#666666">[text]</text>
<polygon fill="none" stroke="black" points="54.48,-138.6 54.48,-169.4 304.25,-169.4 304.25,-138.6 54.48,-138.6"/>
<text text-anchor="start" x="61.48" y="-150.8" font-family="Arial" font-size="14.00">name </text>
<text text-anchor="start" x="100.39" y="-150.8" font-family="Arial" font-size="14.00" fill="#666666">[text]</text>
<polygon fill="none" stroke="black" points="54.48,-107.8 54.48,-138.6 304.25,-138.6 304.25,-107.8 54.48,-107.8"/>
<text text-anchor="start" x="61.48" y="-120" font-family="Arial" font-size="14.00">created_at </text>
<text text-anchor="start" x="131.53" y="-120" font-family="Arial" font-size="14.00" fill="#666666">[timestamp with time zone]</text>
<polygon fill="none" stroke="black" points="54.48,-77 54.48,-107.8 304.25,-107.8 304.25,-77 54.48,-77"/>
<text text-anchor="start" x="61.48" y="-89.2" font-family="Arial" font-size="14.00">last_active </text>
<text text-anchor="start" x="131.51" y="-89.2" font-family="Arial" font-size="14.00" fill="#666666">[timestamp with time zone]</text>
<polygon fill="none" stroke="black" points="54.48,-46.2 54.48,-77 304.25,-77 304.25,-46.2 54.48,-46.2"/>
<text text-anchor="start" x="61.48" y="-58.4" font-family="Arial" font-size="14.00">metadata </text>
<text text-anchor="start" x="123.74" y="-58.4" font-family="Arial" font-size="14.00" fill="#666666">[jsonb]</text>
<polygon fill="none" stroke="black" stroke-width="3" points="52.98,-44.7 52.98,-237.3 305.75,-237.3 305.75,-44.7 52.98,-44.7"/>
</g>
<!-- public.nodes -->
<g id="node2" class="node">
<title>public.nodes</title>
<polygon fill="#efefef" stroke="none" points="43.2,-792.4 43.2,-828 315.53,-828 315.53,-792.4 43.2,-792.4"/>
<polygon fill="none" stroke="black" points="43.2,-792.4 43.2,-828 315.53,-828 315.53,-792.4 43.2,-792.4"/>
<text text-anchor="start" x="71.38" y="-805.8" font-family="Arial Bold" font-size="18.00">public.nodes</text>
<text text-anchor="start" x="162.86" y="-805.8" font-family="Arial" font-size="14.00">    </text>
<text text-anchor="start" x="193.98" y="-805.8" font-family="Arial" font-size="14.00" fill="#666666">[BASE TABLE]</text>
<polygon fill="none" stroke="black" points="43.2,-761.6 43.2,-792.4 315.53,-792.4 315.53,-761.6 43.2,-761.6"/>
<text text-anchor="start" x="50.2" y="-773.8" font-family="Arial" font-size="14.00">id </text>
<text text-anchor="start" x="64.99" y="-773.8" font-family="Arial" font-size="14.00" fill="#666666">[bigint]</text>
<polygon fill="none" stroke="black" points="43.2,-730.8 43.2,-761.6 315.53,-761.6 315.53,-730.8 43.2,-730.8"/>
<text text-anchor="start" x="50.2" y="-743" font-family="Arial" font-size="14.00">content </text>
<text text-anchor="start" x="100.01" y="-743" font-family="Arial" font-size="14.00" fill="#666666">[text]</text>
<polygon fill="none" stroke="black" points="43.2,-700 43.2,-730.8 315.53,-730.8 315.53,-700 43.2,-700"/>
<text text-anchor="start" x="50.2" y="-712.2" font-family="Arial" font-size="14.00">speaker </text>
<text text-anchor="start" x="103.9" y="-712.2" font-family="Arial" font-size="14.00" fill="#666666">[text]</text>
<polygon fill="none" stroke="black" points="43.2,-669.2 43.2,-700 315.53,-700 315.53,-669.2 43.2,-669.2"/>
<text text-anchor="start" x="50.2" y="-681.4" font-family="Arial" font-size="14.00">type </text>
<text text-anchor="start" x="80.55" y="-681.4" font-family="Arial" font-size="14.00" fill="#666666">[text]</text>
<polygon fill="none" stroke="black" points="43.2,-638.4 43.2,-669.2 315.53,-669.2 315.53,-638.4 43.2,-638.4"/>
<text text-anchor="start" x="50.2" y="-650.6" font-family="Arial" font-size="14.00">category </text>
<text text-anchor="start" x="107.79" y="-650.6" font-family="Arial" font-size="14.00" fill="#666666">[text]</text>
<polygon fill="none" stroke="black" points="43.2,-607.6 43.2,-638.4 315.53,-638.4 315.53,-607.6 43.2,-607.6"/>
<text text-anchor="start" x="50.2" y="-619.8" font-family="Arial" font-size="14.00">importance </text>
<text text-anchor="start" x="123.34" y="-619.8" font-family="Arial" font-size="14.00" fill="#666666">[double precision]</text>
<polygon fill="none" stroke="black" points="43.2,-576.8 43.2,-607.6 315.53,-607.6 315.53,-576.8 43.2,-576.8"/>
<text text-anchor="start" x="50.2" y="-589" font-family="Arial" font-size="14.00">created_at </text>
<text text-anchor="start" x="120.25" y="-589" font-family="Arial" font-size="14.00" fill="#666666">[timestamp with time zone]</text>
<polygon fill="none" stroke="black" points="43.2,-546 43.2,-576.8 315.53,-576.8 315.53,-546 43.2,-546"/>
<text text-anchor="start" x="50.2" y="-558.2" font-family="Arial" font-size="14.00">updated_at </text>
<text text-anchor="start" x="124.16" y="-558.2" font-family="Arial" font-size="14.00" fill="#666666">[timestamp with time zone]</text>
<polygon fill="none" stroke="black" points="43.2,-515.2 43.2,-546 315.53,-546 315.53,-515.2 43.2,-515.2"/>
<text text-anchor="start" x="50.2" y="-527.4" font-family="Arial" font-size="14.00">last_accessed </text>
<text text-anchor="start" x="142.81" y="-527.4" font-family="Arial" font-size="14.00" fill="#666666">[timestamp with time zone]</text>
<polygon fill="none" stroke="black" points="43.2,-484.4 43.2,-515.2 315.53,-515.2 315.53,-484.4 43.2,-484.4"/>
<text text-anchor="start" x="50.2" y="-496.6" font-family="Arial" font-size="14.00">token_count </text>
<text text-anchor="start" x="130.37" y="-496.6" font-family="Arial" font-size="14.00" fill="#666666">[integer]</text>
<polygon fill="none" stroke="black" points="43.2,-453.6 43.2,-484.4 315.53,-484.4 315.53,-453.6 43.2,-453.6"/>
<text text-anchor="start" x="50.2" y="-465.8" font-family="Arial" font-size="14.00">in_working_memory </text>
<text text-anchor="start" x="179.36" y="-465.8" font-family="Arial" font-size="14.00" fill="#666666">[boolean]</text>
<polygon fill="none" stroke="black" points="43.2,-422.8 43.2,-453.6 315.53,-453.6 315.53,-422.8 43.2,-422.8"/>
<text text-anchor="start" x="50.2" y="-435" font-family="Arial" font-size="14.00">robot_id </text>
<text text-anchor="start" x="104.68" y="-435" font-family="Arial" font-size="14.00" fill="#666666">[text]</text>
<polygon fill="none" stroke="black" points="43.2,-392 43.2,-422.8 315.53,-422.8 315.53,-392 43.2,-392"/>
<text text-anchor="start" x="50.2" y="-404.2" font-family="Arial" font-size="14.00">embedding </text>
<text text-anchor="start" x="123.37" y="-404.2" font-family="Arial" font-size="14.00" fill="#666666">[vector(2000)]</text>
<polygon fill="none" stroke="black" points="43.2,-361.2 43.2,-392 315.53,-392 315.53,-361.2 43.2,-361.2"/>
<text text-anchor="start" x="50.2" y="-373.4" font-family="Arial" font-size="14.00">embedding_dimension </text>
<text text-anchor="start" x="194.96" y="-373.4" font-family="Arial" font-size="14.00" fill="#666666">[integer]</text>
</g>
<!-- public.nodes&#45;&gt;public.robots -->
<g id="edge1" class="edge">
<title>public.nodes:robot_id&#45;&gt;public.robots:id</title>
<path fill="none" stroke="black" d="M326.31,-435.35C371.31,-407.51 358.09,-184.8 305.25,-184.8"/>
<polygon fill="black" stroke="black" points="326.45,-435.31 315.59,-433.79 321.33,-436.8 317.17,-438.01 317.17,-438.01 317.17,-438.01 321.33,-436.8 318.11,-442.43 326.45,-435.31"/>
<text text-anchor="start" x="323.53" y="-448.2" font-family="Arial" font-size="10.00">FOREIGN KEY (robot_id) REFERENCES robots(id) ON DELETE CASCADE</text>
</g>
</g>
</svg>
