<?xml version="1.0" encoding="UTF-8" standalone="no"?>
<!DOCTYPE svg PUBLIC "-//W3C//DTD SVG 1.1//EN"
 "http://www.w3.org/Graphics/SVG/1.1/DTD/svg11.dtd">
<!-- Generated by graphviz version 12.1.2 (20240928.0832)
 -->
<!-- Title: public.relationships Pages: 1 -->
<svg width="714pt" height="910pt"
 viewBox="0.00 0.00 714.27 910.00" xmlns="http://www.w3.org/2000/svg" xmlns:xlink="http://www.w3.org/1999/xlink">
<g id="graph0" class="graph" transform="scale(1 1) rotate(0) translate(4 906)">
<title>public.relationships</title>
<polygon fill="white" stroke="none" points="-4,4 -4,-906 710.27,-906 710.27,4 -4,4"/>
<!-- public.relationships -->
<g id="node1" class="node">
<title>public.relationships</title>
<polygon fill="#efefef" stroke="none" points="46.2,-820.2 46.2,-855.8 326.17,-855.8 326.17,-820.2 46.2,-820.2"/>
<polygon fill="none" stroke="black" points="46.2,-820.2 46.2,-855.8 326.17,-855.8 326.17,-820.2 46.2,-820.2"/>
<text text-anchor="start" x="53.2" y="-833.6" font-family="Arial Bold" font-size="18.00">public.relationships</text>
<text text-anchor="start" x="194.68" y="-833.6" font-family="Arial" font-size="14.00">    </text>
<text text-anchor="start" x="225.79" y="-833.6" font-family="Arial" font-size="14.00" fill="#666666">[BASE TABLE]</text>
<polygon fill="none" stroke="black" points="46.2,-789.4 46.2,-820.2 326.17,-820.2 326.17,-789.4 46.2,-789.4"/>
<text text-anchor="start" x="53.2" y="-801.6" font-family="Arial" font-size="14.00">id </text>
<text text-anchor="start" x="67.99" y="-801.6" font-family="Arial" font-size="14.00" fill="#666666">[bigint]</text>
<polygon fill="none" stroke="black" points="46.2,-758.6 46.2,-789.4 326.17,-789.4 326.17,-758.6 46.2,-758.6"/>
<text text-anchor="start" x="53.2" y="-770.8" font-family="Arial" font-size="14.00">from_node_id </text>
<text text-anchor="start" x="142.7" y="-770.8" font-family="Arial" font-size="14.00" fill="#666666">[bigint]</text>
<polygon fill="none" stroke="black" points="46.2,-727.8 46.2,-758.6 326.17,-758.6 326.17,-727.8 46.2,-727.8"/>
<text text-anchor="start" x="53.2" y="-740" font-family="Arial" font-size="14.00">to_node_id </text>
<text text-anchor="start" x="126.38" y="-740" font-family="Arial" font-size="14.00" fill="#666666">[bigint]</text>
<polygon fill="none" stroke="black" points="46.2,-697 46.2,-727.8 326.17,-727.8 326.17,-697 46.2,-697"/>
<text text-anchor="start" x="53.2" y="-709.2" font-family="Arial" font-size="14.00">relationship_type </text>
<text text-anchor="start" x="162.94" y="-709.2" font-family="Arial" font-size="14.00" fill="#666666">[text]</text>
<polygon fill="none" stroke="black" points="46.2,-666.2 46.2,-697 326.17,-697 326.17,-666.2 46.2,-666.2"/>
<text text-anchor="start" x="53.2" y="-678.4" font-family="Arial" font-size="14.00">strength </text>
<text text-anchor="start" x="107.68" y="-678.4" font-family="Arial" font-size="14.00" fill="#666666">[double precision]</text>
<polygon fill="none" stroke="black" points="46.2,-635.4 46.2,-666.2 326.17,-666.2 326.17,-635.4 46.2,-635.4"/>
<text text-anchor="start" x="53.2" y="-647.6" font-family="Arial" font-size="14.00">created_at </text>
<text text-anchor="start" x="123.25" y="-647.6" font-family="Arial" font-size="14.00" fill="#666666">[timestamp with time zone]</text>
<polygon fill="none" stroke="black" stroke-width="3" points="44.7,-633.9 44.7,-857.3 327.67,-857.3 327.67,-633.9 44.7,-633.9"/>
</g>
<!-- public.nodes -->
<g id="node2" class="node">
<title>public.nodes</title>
<polygon fill="#efefef" stroke="none" points="50.02,-474.4 50.02,-510 322.35,-510 322.35,-474.4 50.02,-474.4"/>
<polygon fill="none" stroke="black" points="50.02,-474.4 50.02,-510 322.35,-510 322.35,-474.4 50.02,-474.4"/>
<text text-anchor="start" x="78.2" y="-487.8" font-family="Arial Bold" font-size="18.00">public.nodes</text>
<text text-anchor="start" x="169.68" y="-487.8" font-family="Arial" font-size="14.00">    </text>
<text text-anchor="start" x="200.8" y="-487.8" font-family="Arial" font-size="14.00" fill="#666666">[BASE TABLE]</text>
<polygon fill="none" stroke="black" points="50.02,-443.6 50.02,-474.4 322.35,-474.4 322.35,-443.6 50.02,-443.6"/>
<text text-anchor="start" x="57.02" y="-455.8" font-family="Arial" font-size="14.00">id </text>
<text text-anchor="start" x="71.8" y="-455.8" font-family="Arial" font-size="14.00" fill="#666666">[bigint]</text>
<polygon fill="none" stroke="black" points="50.02,-412.8 50.02,-443.6 322.35,-443.6 322.35,-412.8 50.02,-412.8"/>
<text text-anchor="start" x="57.02" y="-425" font-family="Arial" font-size="14.00">content </text>
<text text-anchor="start" x="106.83" y="-425" font-family="Arial" font-size="14.00" fill="#666666">[text]</text>
<polygon fill="none" stroke="black" points="50.02,-382 50.02,-412.8 322.35,-412.8 322.35,-382 50.02,-382"/>
<text text-anchor="start" x="57.02" y="-394.2" font-family="Arial" font-size="14.00">speaker </text>
<text text-anchor="start" x="110.71" y="-394.2" font-family="Arial" font-size="14.00" fill="#666666">[text]</text>
<polygon fill="none" stroke="black" points="50.02,-351.2 50.02,-382 322.35,-382 322.35,-351.2 50.02,-351.2"/>
<text text-anchor="start" x="57.02" y="-363.4" font-family="Arial" font-size="14.00">type </text>
<text text-anchor="start" x="87.37" y="-363.4" font-family="Arial" font-size="14.00" fill="#666666">[text]</text>
<polygon fill="none" stroke="black" points="50.02,-320.4 50.02,-351.2 322.35,-351.2 322.35,-320.4 50.02,-320.4"/>
<text text-anchor="start" x="57.02" y="-332.6" font-family="Arial" font-size="14.00">category </text>
<text text-anchor="start" x="114.6" y="-332.6" font-family="Arial" font-size="14.00" fill="#666666">[text]</text>
<polygon fill="none" stroke="black" points="50.02,-289.6 50.02,-320.4 322.35,-320.4 322.35,-289.6 50.02,-289.6"/>
<text text-anchor="start" x="57.02" y="-301.8" font-family="Arial" font-size="14.00">importance </text>
<text text-anchor="start" x="130.16" y="-301.8" font-family="Arial" font-size="14.00" fill="#666666">[double precision]</text>
<polygon fill="none" stroke="black" points="50.02,-258.8 50.02,-289.6 322.35,-289.6 322.35,-258.8 50.02,-258.8"/>
<text text-anchor="start" x="57.02" y="-271" font-family="Arial" font-size="14.00">created_at </text>
<text text-anchor="start" x="127.07" y="-271" font-family="Arial" font-size="14.00" fill="#666666">[timestamp with time zone]</text>
<polygon fill="none" stroke="black" points="50.02,-228 50.02,-258.8 322.35,-258.8 322.35,-228 50.02,-228"/>
<text text-anchor="start" x="57.02" y="-240.2" font-family="Arial" font-size="14.00">updated_at </text>
<text text-anchor="start" x="130.98" y="-240.2" font-family="Arial" font-size="14.00" fill="#666666">[timestamp with time zone]</text>
<polygon fill="none" stroke="black" points="50.02,-197.2 50.02,-228 322.35,-228 322.35,-197.2 50.02,-197.2"/>
<text text-anchor="start" x="57.02" y="-209.4" font-family="Arial" font-size="14.00">last_accessed </text>
<text text-anchor="start" x="149.62" y="-209.4" font-family="Arial" font-size="14.00" fill="#666666">[timestamp with time zone]</text>
<polygon fill="none" stroke="black" points="50.02,-166.4 50.02,-197.2 322.35,-197.2 322.35,-166.4 50.02,-166.4"/>
<text text-anchor="start" x="57.02" y="-178.6" font-family="Arial" font-size="14.00">token_count </text>
<text text-anchor="start" x="137.19" y="-178.6" font-family="Arial" font-size="14.00" fill="#666666">[integer]</text>
<polygon fill="none" stroke="black" points="50.02,-135.6 50.02,-166.4 322.35,-166.4 322.35,-135.6 50.02,-135.6"/>
<text text-anchor="start" x="57.02" y="-147.8" font-family="Arial" font-size="14.00">in_working_memory </text>
<text text-anchor="start" x="186.18" y="-147.8" font-family="Arial" font-size="14.00" fill="#666666">[boolean]</text>
<polygon fill="none" stroke="black" points="50.02,-104.8 50.02,-135.6 322.35,-135.6 322.35,-104.8 50.02,-104.8"/>
<text text-anchor="start" x="57.02" y="-117" font-family="Arial" font-size="14.00">robot_id </text>
<text text-anchor="start" x="111.5" y="-117" font-family="Arial" font-size="14.00" fill="#666666">[text]</text>
<polygon fill="none" stroke="black" points="50.02,-74 50.02,-104.8 322.35,-104.8 322.35,-74 50.02,-74"/>
<text text-anchor="start" x="57.02" y="-86.2" font-family="Arial" font-size="14.00">embedding </text>
<text text-anchor="start" x="130.18" y="-86.2" font-family="Arial" font-size="14.00" fill="#666666">[vector(2000)]</text>
<polygon fill="none" stroke="black" points="50.02,-43.2 50.02,-74 322.35,-74 322.35,-43.2 50.02,-43.2"/>
<text text-anchor="start" x="57.02" y="-55.4" font-family="Arial" font-size="14.00">embedding_dimension </text>
<text text-anchor="start" x="201.78" y="-55.4" font-family="Arial" font-size="14.00" fill="#666666">[integer]</text>
</g>
<!-- public.relationships&#45;&gt;public.nodes -->
<g id="edge1" class="edge">
<title>public.relationships:from_node_id&#45;&gt;public.nodes:id</title>
<path fill="none" stroke="black" d="M337.26,-771.65C396.61,-742.82 389.8,-459 323.35,-459"/>
<polygon fill="black" stroke="black" points="337.23,-771.65 326.47,-769.54 332.04,-772.86 327.82,-773.85 327.82,-773.85 327.82,-773.85 332.04,-772.86 328.51,-778.31 337.23,-771.65"/>
<text text-anchor="start" x="334.17" y="-784" font-family="Arial" font-size="10.00">FOREIGN KEY (from_node_id) REFERENCES nodes(id) ON DELETE CASCADE</text>
</g>
<!-- public.relationships&#45;&gt;public.nodes -->
<g id="edge2" class="edge">
<title>public.relationships:to_node_id&#45;&gt;public.nodes:id</title>
<path fill="none" stroke="black" d="M337.26,-740.57C389.71,-711.92 382.93,-459 323.35,-459"/>
<polygon fill="black" stroke="black" points="337.17,-740.59 326.35,-738.76 332,-741.94 327.81,-743.03 327.81,-743.03 327.81,-743.03 332,-741.94 328.63,-747.47 337.17,-740.59"/>
<text text-anchor="start" x="334.17" y="-753.2" font-family="Arial" font-size="10.00">FOREIGN KEY (to_node_id) REFERENCES nodes(id) ON DELETE CASCADE</text>
</g>
</g>
</svg>
