<?xml version="1.0" encoding="UTF-8" standalone="no"?>
<!DOCTYPE svg PUBLIC "-//W3C//DTD SVG 1.1//EN"
 "http://www.w3.org/Graphics/SVG/1.1/DTD/svg11.dtd">
<!-- Generated by graphviz version 12.1.2 (20240928.0832)
 -->
<!-- Title: public.node_tags Pages: 1 -->
<svg width="961pt" height="848pt"
 viewBox="0.00 0.00 961.37 848.40" xmlns="http://www.w3.org/2000/svg" xmlns:xlink="http://www.w3.org/1999/xlink">
<g id="graph0" class="graph" transform="scale(1 1) rotate(0) translate(4 844.4)">
<title>public.node_tags</title>
<polygon fill="white" stroke="none" points="-4,4 -4,-844.4 957.37,-844.4 957.37,4 -4,4"/>
<!-- public.node_tags -->
<g id="node1" class="node">
<title>public.node_tags</title>
<polygon fill="#efefef" stroke="none" points="354.55,-758.6 354.55,-794.2 615.51,-794.2 615.51,-758.6 354.55,-758.6"/>
<polygon fill="none" stroke="black" points="354.55,-758.6 354.55,-794.2 615.51,-794.2 615.51,-758.6 354.55,-758.6"/>
<text text-anchor="start" x="361.55" y="-772" font-family="Arial Bold" font-size="18.00">public.node_tags</text>
<text text-anchor="start" x="484.02" y="-772" font-family="Arial" font-size="14.00">    </text>
<text text-anchor="start" x="515.14" y="-772" font-family="Arial" font-size="14.00" fill="#666666">[BASE TABLE]</text>
<polygon fill="none" stroke="black" points="354.55,-727.8 354.55,-758.6 615.51,-758.6 615.51,-727.8 354.55,-727.8"/>
<text text-anchor="start" x="361.55" y="-740" font-family="Arial" font-size="14.00">id </text>
<text text-anchor="start" x="376.33" y="-740" font-family="Arial" font-size="14.00" fill="#666666">[bigint]</text>
<polygon fill="none" stroke="black" points="354.55,-697 354.55,-727.8 615.51,-727.8 615.51,-697 354.55,-697"/>
<text text-anchor="start" x="361.55" y="-709.2" font-family="Arial" font-size="14.00">node_id </text>
<text text-anchor="start" x="415.26" y="-709.2" font-family="Arial" font-size="14.00" fill="#666666">[bigint]</text>
<polygon fill="none" stroke="black" points="354.55,-666.2 354.55,-697 615.51,-697 615.51,-666.2 354.55,-666.2"/>
<text text-anchor="start" x="361.55" y="-678.4" font-family="Arial" font-size="14.00">tag_id </text>
<text text-anchor="start" x="403.58" y="-678.4" font-family="Arial" font-size="14.00" fill="#666666">[bigint]</text>
<polygon fill="none" stroke="black" points="354.55,-635.4 354.55,-666.2 615.51,-666.2 615.51,-635.4 354.55,-635.4"/>
<text text-anchor="start" x="361.55" y="-647.6" font-family="Arial" font-size="14.00">created_at </text>
<text text-anchor="start" x="431.59" y="-647.6" font-family="Arial" font-size="14.00" fill="#666666">[timestamp with time zone]</text>
<polygon fill="none" stroke="black" stroke-width="3" points="353.05,-633.9 353.05,-795.7 617.01,-795.7 617.01,-633.9 353.05,-633.9"/>
</g>
<!-- public.nodes -->
<g id="node2" class="node">
<title>public.nodes</title>
<polygon fill="#efefef" stroke="none" points="166.86,-474.4 166.86,-510 439.19,-510 439.19,-474.4 166.86,-474.4"/>
<polygon fill="none" stroke="black" points="166.86,-474.4 166.86,-510 439.19,-510 439.19,-474.4 166.86,-474.4"/>
<text text-anchor="start" x="195.04" y="-487.8" font-family="Arial Bold" font-size="18.00">public.nodes</text>
<text text-anchor="start" x="286.53" y="-487.8" font-family="Arial" font-size="14.00">    </text>
<text text-anchor="start" x="317.64" y="-487.8" font-family="Arial" font-size="14.00" fill="#666666">[BASE TABLE]</text>
<polygon fill="none" stroke="black" points="166.86,-443.6 166.86,-474.4 439.19,-474.4 439.19,-443.6 166.86,-443.6"/>
<text text-anchor="start" x="173.86" y="-455.8" font-family="Arial" font-size="14.00">id </text>
<text text-anchor="start" x="188.65" y="-455.8" font-family="Arial" font-size="14.00" fill="#666666">[bigint]</text>
<polygon fill="none" stroke="black" points="166.86,-412.8 166.86,-443.6 439.19,-443.6 439.19,-412.8 166.86,-412.8"/>
<text text-anchor="start" x="173.86" y="-425" font-family="Arial" font-size="14.00">content </text>
<text text-anchor="start" x="223.68" y="-425" font-family="Arial" font-size="14.00" fill="#666666">[text]</text>
<polygon fill="none" stroke="black" points="166.86,-382 166.86,-412.8 439.19,-412.8 439.19,-382 166.86,-382"/>
<text text-anchor="start" x="173.86" y="-394.2" font-family="Arial" font-size="14.00">speaker </text>
<text text-anchor="start" x="227.56" y="-394.2" font-family="Arial" font-size="14.00" fill="#666666">[text]</text>
<polygon fill="none" stroke="black" points="166.86,-351.2 166.86,-382 439.19,-382 439.19,-351.2 166.86,-351.2"/>
<text text-anchor="start" x="173.86" y="-363.4" font-family="Arial" font-size="14.00">type </text>
<text text-anchor="start" x="204.21" y="-363.4" font-family="Arial" font-size="14.00" fill="#666666">[text]</text>
<polygon fill="none" stroke="black" points="166.86,-320.4 166.86,-351.2 439.19,-351.2 439.19,-320.4 166.86,-320.4"/>
<text text-anchor="start" x="173.86" y="-332.6" font-family="Arial" font-size="14.00">category </text>
<text text-anchor="start" x="231.45" y="-332.6" font-family="Arial" font-size="14.00" fill="#666666">[text]</text>
<polygon fill="none" stroke="black" points="166.86,-289.6 166.86,-320.4 439.19,-320.4 439.19,-289.6 166.86,-289.6"/>
<text text-anchor="start" x="173.86" y="-301.8" font-family="Arial" font-size="14.00">importance </text>
<text text-anchor="start" x="247.01" y="-301.8" font-family="Arial" font-size="14.00" fill="#666666">[double precision]</text>
<polygon fill="none" stroke="black" points="166.86,-258.8 166.86,-289.6 439.19,-289.6 439.19,-258.8 166.86,-258.8"/>
<text text-anchor="start" x="173.86" y="-271" font-family="Arial" font-size="14.00">created_at </text>
<text text-anchor="start" x="243.91" y="-271" font-family="Arial" font-size="14.00" fill="#666666">[timestamp with time zone]</text>
<polygon fill="none" stroke="black" points="166.86,-228 166.86,-258.8 439.19,-258.8 439.19,-228 166.86,-228"/>
<text text-anchor="start" x="173.86" y="-240.2" font-family="Arial" font-size="14.00">updated_at </text>
<text text-anchor="start" x="247.82" y="-240.2" font-family="Arial" font-size="14.00" fill="#666666">[timestamp with time zone]</text>
<polygon fill="none" stroke="black" points="166.86,-197.2 166.86,-228 439.19,-228 439.19,-197.2 166.86,-197.2"/>
<text text-anchor="start" x="173.86" y="-209.4" font-family="Arial" font-size="14.00">last_accessed </text>
<text text-anchor="start" x="266.47" y="-209.4" font-family="Arial" font-size="14.00" fill="#666666">[timestamp with time zone]</text>
<polygon fill="none" stroke="black" points="166.86,-166.4 166.86,-197.2 439.19,-197.2 439.19,-166.4 166.86,-166.4"/>
<text text-anchor="start" x="173.86" y="-178.6" font-family="Arial" font-size="14.00">token_count </text>
<text text-anchor="start" x="254.04" y="-178.6" font-family="Arial" font-size="14.00" fill="#666666">[integer]</text>
<polygon fill="none" stroke="black" points="166.86,-135.6 166.86,-166.4 439.19,-166.4 439.19,-135.6 166.86,-135.6"/>
<text text-anchor="start" x="173.86" y="-147.8" font-family="Arial" font-size="14.00">in_working_memory </text>
<text text-anchor="start" x="303.02" y="-147.8" font-family="Arial" font-size="14.00" fill="#666666">[boolean]</text>
<polygon fill="none" stroke="black" points="166.86,-104.8 166.86,-135.6 439.19,-135.6 439.19,-104.8 166.86,-104.8"/>
<text text-anchor="start" x="173.86" y="-117" font-family="Arial" font-size="14.00">robot_id </text>
<text text-anchor="start" x="228.35" y="-117" font-family="Arial" font-size="14.00" fill="#666666">[bigint]</text>
<polygon fill="none" stroke="black" points="166.86,-74 166.86,-104.8 439.19,-104.8 439.19,-74 166.86,-74"/>
<text text-anchor="start" x="173.86" y="-86.2" font-family="Arial" font-size="14.00">embedding </text>
<text text-anchor="start" x="247.03" y="-86.2" font-family="Arial" font-size="14.00" fill="#666666">[vector(2000)]</text>
<polygon fill="none" stroke="black" points="166.86,-43.2 166.86,-74 439.19,-74 439.19,-43.2 166.86,-43.2"/>
<text text-anchor="start" x="173.86" y="-55.4" font-family="Arial" font-size="14.00">embedding_dimension </text>
<text text-anchor="start" x="318.63" y="-55.4" font-family="Arial" font-size="14.00" fill="#666666">[integer]</text>
</g>
<!-- public.node_tags&#45;&gt;public.nodes -->
<g id="edge1" class="edge">
<title>public.node_tags:node_id&#45;&gt;public.nodes:id</title>
<path fill="none" stroke="black" d="M343.42,-711.35C302.28,-701.93 326.23,-631.64 354.55,-589.2 377.24,-555.19 416.46,-587.18 439.19,-553.2 462.48,-518.4 482.06,-459 440.19,-459"/>
<polygon fill="black" stroke="black" points="343.27,-711.33 352.75,-716.84 348.57,-711.88 352.88,-712.33 352.88,-712.33 352.88,-712.33 348.57,-711.88 353.68,-707.89 343.27,-711.33"/>
<text text-anchor="start" x="7" y="-722.4" font-family="Arial" font-size="10.00">FOREIGN KEY (node_id) REFERENCES nodes(id) ON DELETE CASCADE</text>
</g>
<!-- public.tags -->
<g id="node3" class="node">
<title>public.tags</title>
<polygon fill="#efefef" stroke="none" points="543.14,-305 543.14,-340.6 792.91,-340.6 792.91,-305 543.14,-305"/>
<polygon fill="none" stroke="black" points="543.14,-305 543.14,-340.6 792.91,-340.6 792.91,-305 543.14,-305"/>
<text text-anchor="start" x="566.54" y="-318.4" font-family="Arial Bold" font-size="18.00">public.tags</text>
<text text-anchor="start" x="645.03" y="-318.4" font-family="Arial" font-size="14.00">    </text>
<text text-anchor="start" x="676.14" y="-318.4" font-family="Arial" font-size="14.00" fill="#666666">[BASE TABLE]</text>
<polygon fill="none" stroke="black" points="543.14,-274.2 543.14,-305 792.91,-305 792.91,-274.2 543.14,-274.2"/>
<text text-anchor="start" x="550.14" y="-286.4" font-family="Arial" font-size="14.00">id </text>
<text text-anchor="start" x="564.93" y="-286.4" font-family="Arial" font-size="14.00" fill="#666666">[bigint]</text>
<polygon fill="none" stroke="black" points="543.14,-243.4 543.14,-274.2 792.91,-274.2 792.91,-243.4 543.14,-243.4"/>
<text text-anchor="start" x="550.14" y="-255.6" font-family="Arial" font-size="14.00">name </text>
<text text-anchor="start" x="589.05" y="-255.6" font-family="Arial" font-size="14.00" fill="#666666">[text]</text>
<polygon fill="none" stroke="black" points="543.14,-212.6 543.14,-243.4 792.91,-243.4 792.91,-212.6 543.14,-212.6"/>
<text text-anchor="start" x="550.14" y="-224.8" font-family="Arial" font-size="14.00">created_at </text>
<text text-anchor="start" x="620.19" y="-224.8" font-family="Arial" font-size="14.00" fill="#666666">[timestamp with time zone]</text>
</g>
<!-- public.node_tags&#45;&gt;public.tags -->
<g id="edge2" class="edge">
<title>public.node_tags:tag_id&#45;&gt;public.tags:id</title>
<path fill="none" stroke="black" d="M626.67,-681.11C776.5,-665.69 368.45,-289.6 542.14,-289.6"/>
<polygon fill="black" stroke="black" points="626.83,-681.1 616.63,-677.09 621.5,-681.36 617.18,-681.57 617.18,-681.57 617.18,-681.57 621.5,-681.36 617.06,-686.08 626.83,-681.1"/>
<text text-anchor="start" x="623.51" y="-691.6" font-family="Arial" font-size="10.00">FOREIGN KEY (tag_id) REFERENCES tags(id) ON DELETE CASCADE</text>
</g>
</g>
</svg>
