<?xml version="1.0" encoding="UTF-8" standalone="no"?>
<!DOCTYPE svg PUBLIC "-//W3C//DTD SVG 1.1//EN"
 "http://www.w3.org/Graphics/SVG/1.1/DTD/svg11.dtd">
<!-- Generated by graphviz version 12.1.2 (20240928.0832)
 -->
<!-- Title: public.node_tags Pages: 1 -->
<svg width="961pt" height="787pt"
 viewBox="0.00 0.00 961.37 786.80" xmlns="http://www.w3.org/2000/svg" xmlns:xlink="http://www.w3.org/1999/xlink">
<g id="graph0" class="graph" transform="scale(1 1) rotate(0) translate(4 782.8)">
<title>public.node_tags</title>
<polygon fill="white" stroke="none" points="-4,4 -4,-782.8 957.37,-782.8 957.37,4 -4,4"/>
<!-- public.node_tags -->
<g id="node1" class="node">
<title>public.node_tags</title>
<polygon fill="#efefef" stroke="none" points="354.55,-697 354.55,-732.6 615.51,-732.6 615.51,-697 354.55,-697"/>
<polygon fill="none" stroke="black" points="354.55,-697 354.55,-732.6 615.51,-732.6 615.51,-697 354.55,-697"/>
<text text-anchor="start" x="361.55" y="-710.4" font-family="Arial Bold" font-size="18.00">public.node_tags</text>
<text text-anchor="start" x="484.02" y="-710.4" font-family="Arial" font-size="14.00">    </text>
<text text-anchor="start" x="515.14" y="-710.4" font-family="Arial" font-size="14.00" fill="#666666">[BASE TABLE]</text>
<polygon fill="none" stroke="black" points="354.55,-666.2 354.55,-697 615.51,-697 615.51,-666.2 354.55,-666.2"/>
<text text-anchor="start" x="361.55" y="-678.4" font-family="Arial" font-size="14.00">id </text>
<text text-anchor="start" x="376.33" y="-678.4" font-family="Arial" font-size="14.00" fill="#666666">[bigint]</text>
<polygon fill="none" stroke="black" points="354.55,-635.4 354.55,-666.2 615.51,-666.2 615.51,-635.4 354.55,-635.4"/>
<text text-anchor="start" x="361.55" y="-647.6" font-family="Arial" font-size="14.00">node_id </text>
<text text-anchor="start" x="415.26" y="-647.6" font-family="Arial" font-size="14.00" fill="#666666">[bigint]</text>
<polygon fill="none" stroke="black" points="354.55,-604.6 354.55,-635.4 615.51,-635.4 615.51,-604.6 354.55,-604.6"/>
<text text-anchor="start" x="361.55" y="-616.8" font-family="Arial" font-size="14.00">tag_id </text>
<text text-anchor="start" x="403.58" y="-616.8" font-family="Arial" font-size="14.00" fill="#666666">[bigint]</text>
<polygon fill="none" stroke="black" points="354.55,-573.8 354.55,-604.6 615.51,-604.6 615.51,-573.8 354.55,-573.8"/>
<text text-anchor="start" x="361.55" y="-586" font-family="Arial" font-size="14.00">created_at </text>
<text text-anchor="start" x="431.59" y="-586" font-family="Arial" font-size="14.00" fill="#666666">[timestamp with time zone]</text>
<polygon fill="none" stroke="black" stroke-width="3" points="353.05,-572.3 353.05,-734.1 617.01,-734.1 617.01,-572.3 353.05,-572.3"/>
</g>
<!-- public.nodes -->
<g id="node2" class="node">
<title>public.nodes</title>
<polygon fill="#efefef" stroke="none" points="166.86,-412.8 166.86,-448.4 439.19,-448.4 439.19,-412.8 166.86,-412.8"/>
<polygon fill="none" stroke="black" points="166.86,-412.8 166.86,-448.4 439.19,-448.4 439.19,-412.8 166.86,-412.8"/>
<text text-anchor="start" x="195.04" y="-426.2" font-family="Arial Bold" font-size="18.00">public.nodes</text>
<text text-anchor="start" x="286.53" y="-426.2" font-family="Arial" font-size="14.00">    </text>
<text text-anchor="start" x="317.64" y="-426.2" font-family="Arial" font-size="14.00" fill="#666666">[BASE TABLE]</text>
<polygon fill="none" stroke="black" points="166.86,-382 166.86,-412.8 439.19,-412.8 439.19,-382 166.86,-382"/>
<text text-anchor="start" x="173.86" y="-394.2" font-family="Arial" font-size="14.00">id </text>
<text text-anchor="start" x="188.65" y="-394.2" font-family="Arial" font-size="14.00" fill="#666666">[bigint]</text>
<polygon fill="none" stroke="black" points="166.86,-351.2 166.86,-382 439.19,-382 439.19,-351.2 166.86,-351.2"/>
<text text-anchor="start" x="173.86" y="-363.4" font-family="Arial" font-size="14.00">content </text>
<text text-anchor="start" x="223.68" y="-363.4" font-family="Arial" font-size="14.00" fill="#666666">[text]</text>
<polygon fill="none" stroke="black" points="166.86,-320.4 166.86,-351.2 439.19,-351.2 439.19,-320.4 166.86,-320.4"/>
<text text-anchor="start" x="173.86" y="-332.6" font-family="Arial" font-size="14.00">source </text>
<text text-anchor="start" x="219.77" y="-332.6" font-family="Arial" font-size="14.00" fill="#666666">[text]</text>
<polygon fill="none" stroke="black" points="166.86,-289.6 166.86,-320.4 439.19,-320.4 439.19,-289.6 166.86,-289.6"/>
<text text-anchor="start" x="173.86" y="-301.8" font-family="Arial" font-size="14.00">access_count </text>
<text text-anchor="start" x="263.36" y="-301.8" font-family="Arial" font-size="14.00" fill="#666666">[integer]</text>
<polygon fill="none" stroke="black" points="166.86,-258.8 166.86,-289.6 439.19,-289.6 439.19,-258.8 166.86,-258.8"/>
<text text-anchor="start" x="173.86" y="-271" font-family="Arial" font-size="14.00">created_at </text>
<text text-anchor="start" x="243.91" y="-271" font-family="Arial" font-size="14.00" fill="#666666">[timestamp with time zone]</text>
<polygon fill="none" stroke="black" points="166.86,-228 166.86,-258.8 439.19,-258.8 439.19,-228 166.86,-228"/>
<text text-anchor="start" x="173.86" y="-240.2" font-family="Arial" font-size="14.00">updated_at </text>
<text text-anchor="start" x="247.82" y="-240.2" font-family="Arial" font-size="14.00" fill="#666666">[timestamp with time zone]</text>
<polygon fill="none" stroke="black" points="166.86,-197.2 166.86,-228 439.19,-228 439.19,-197.2 166.86,-197.2"/>
<text text-anchor="start" x="173.86" y="-209.4" font-family="Arial" font-size="14.00">last_accessed </text>
<text text-anchor="start" x="266.47" y="-209.4" font-family="Arial" font-size="14.00" fill="#666666">[timestamp with time zone]</text>
<polygon fill="none" stroke="black" points="166.86,-166.4 166.86,-197.2 439.19,-197.2 439.19,-166.4 166.86,-166.4"/>
<text text-anchor="start" x="173.86" y="-178.6" font-family="Arial" font-size="14.00">token_count </text>
<text text-anchor="start" x="254.04" y="-178.6" font-family="Arial" font-size="14.00" fill="#666666">[integer]</text>
<polygon fill="none" stroke="black" points="166.86,-135.6 166.86,-166.4 439.19,-166.4 439.19,-135.6 166.86,-135.6"/>
<text text-anchor="start" x="173.86" y="-147.8" font-family="Arial" font-size="14.00">in_working_memory </text>
<text text-anchor="start" x="303.02" y="-147.8" font-family="Arial" font-size="14.00" fill="#666666">[boolean]</text>
<polygon fill="none" stroke="black" points="166.86,-104.8 166.86,-135.6 439.19,-135.6 439.19,-104.8 166.86,-104.8"/>
<text text-anchor="start" x="173.86" y="-117" font-family="Arial" font-size="14.00">robot_id </text>
<text text-anchor="start" x="228.35" y="-117" font-family="Arial" font-size="14.00" fill="#666666">[bigint]</text>
<polygon fill="none" stroke="black" points="166.86,-74 166.86,-104.8 439.19,-104.8 439.19,-74 166.86,-74"/>
<text text-anchor="start" x="173.86" y="-86.2" font-family="Arial" font-size="14.00">embedding </text>
<text text-anchor="start" x="247.03" y="-86.2" font-family="Arial" font-size="14.00" fill="#666666">[vector(2000)]</text>
<polygon fill="none" stroke="black" points="166.86,-43.2 166.86,-74 439.19,-74 439.19,-43.2 166.86,-43.2"/>
<text text-anchor="start" x="173.86" y="-55.4" font-family="Arial" font-size="14.00">embedding_dimension </text>
<text text-anchor="start" x="318.63" y="-55.4" font-family="Arial" font-size="14.00" fill="#666666">[integer]</text>
</g>
<!-- public.node_tags&#45;&gt;public.nodes -->
<g id="edge1" class="edge">
<title>public.node_tags:node_id&#45;&gt;public.nodes:id</title>
<path fill="none" stroke="black" d="M343.42,-649.75C302.28,-640.33 326.23,-570.04 354.55,-527.6 377.24,-493.59 416.46,-525.58 439.19,-491.6 462.48,-456.8 482.06,-397.4 440.19,-397.4"/>
<polygon fill="black" stroke="black" points="343.27,-649.73 352.75,-655.24 348.57,-650.28 352.88,-650.73 352.88,-650.73 352.88,-650.73 348.57,-650.28 353.68,-646.29 343.27,-649.73"/>
<text text-anchor="start" x="7" y="-660.8" font-family="Arial" font-size="10.00">FOREIGN KEY (node_id) REFERENCES nodes(id) ON DELETE CASCADE</text>
</g>
<!-- public.tags -->
<g id="node3" class="node">
<title>public.tags</title>
<polygon fill="#efefef" stroke="none" points="543.14,-274.2 543.14,-309.8 792.91,-309.8 792.91,-274.2 543.14,-274.2"/>
<polygon fill="none" stroke="black" points="543.14,-274.2 543.14,-309.8 792.91,-309.8 792.91,-274.2 543.14,-274.2"/>
<text text-anchor="start" x="566.54" y="-287.6" font-family="Arial Bold" font-size="18.00">public.tags</text>
<text text-anchor="start" x="645.03" y="-287.6" font-family="Arial" font-size="14.00">    </text>
<text text-anchor="start" x="676.14" y="-287.6" font-family="Arial" font-size="14.00" fill="#666666">[BASE TABLE]</text>
<polygon fill="none" stroke="black" points="543.14,-243.4 543.14,-274.2 792.91,-274.2 792.91,-243.4 543.14,-243.4"/>
<text text-anchor="start" x="550.14" y="-255.6" font-family="Arial" font-size="14.00">id </text>
<text text-anchor="start" x="564.93" y="-255.6" font-family="Arial" font-size="14.00" fill="#666666">[bigint]</text>
<polygon fill="none" stroke="black" points="543.14,-212.6 543.14,-243.4 792.91,-243.4 792.91,-212.6 543.14,-212.6"/>
<text text-anchor="start" x="550.14" y="-224.8" font-family="Arial" font-size="14.00">name </text>
<text text-anchor="start" x="589.05" y="-224.8" font-family="Arial" font-size="14.00" fill="#666666">[text]</text>
<polygon fill="none" stroke="black" points="543.14,-181.8 543.14,-212.6 792.91,-212.6 792.91,-181.8 543.14,-181.8"/>
<text text-anchor="start" x="550.14" y="-194" font-family="Arial" font-size="14.00">created_at </text>
<text text-anchor="start" x="620.19" y="-194" font-family="Arial" font-size="14.00" fill="#666666">[timestamp with time zone]</text>
</g>
<!-- public.node_tags&#45;&gt;public.tags -->
<g id="edge2" class="edge">
<title>public.node_tags:tag_id&#45;&gt;public.tags:id</title>
<path fill="none" stroke="black" d="M626.71,-619.46C762.63,-603.96 381.92,-258.8 542.14,-258.8"/>
<polygon fill="black" stroke="black" points="626.83,-619.46 616.61,-615.49 621.5,-619.74 617.18,-619.96 617.18,-619.96 617.18,-619.96 621.5,-619.74 617.08,-624.48 626.83,-619.46"/>
<text text-anchor="start" x="623.51" y="-630" font-family="Arial" font-size="10.00">FOREIGN KEY (tag_id) REFERENCES tags(id) ON DELETE CASCADE</text>
</g>
</g>
</svg>
