<?xml version="1.0" encoding="UTF-8" standalone="no"?>
<!DOCTYPE svg PUBLIC "-//W3C//DTD SVG 1.1//EN"
 "http://www.w3.org/Graphics/SVG/1.1/DTD/svg11.dtd">
<!-- Generated by graphviz version 12.1.2 (20240928.0832)
 -->
<!-- Title: public.tags Pages: 1 -->
<svg width="667pt" height="848pt"
 viewBox="0.00 0.00 666.80 848.40" xmlns="http://www.w3.org/2000/svg" xmlns:xlink="http://www.w3.org/1999/xlink">
<g id="graph0" class="graph" transform="scale(1 1) rotate(0) translate(4 844.4)">
<title>public.tags</title>
<polygon fill="white" stroke="none" points="-4,4 -4,-844.4 662.8,-844.4 662.8,4 -4,4"/>
<!-- public.tags -->
<g id="node1" class="node">
<title>public.tags</title>
<polygon fill="#efefef" stroke="none" points="54.48,-758.6 54.48,-794.2 304.25,-794.2 304.25,-758.6 54.48,-758.6"/>
<polygon fill="none" stroke="black" points="54.48,-758.6 54.48,-794.2 304.25,-794.2 304.25,-758.6 54.48,-758.6"/>
<text text-anchor="start" x="77.88" y="-772" font-family="Arial Bold" font-size="18.00">public.tags</text>
<text text-anchor="start" x="156.36" y="-772" font-family="Arial" font-size="14.00">    </text>
<text text-anchor="start" x="187.48" y="-772" font-family="Arial" font-size="14.00" fill="#666666">[BASE TABLE]</text>
<polygon fill="none" stroke="black" points="54.48,-727.8 54.48,-758.6 304.25,-758.6 304.25,-727.8 54.48,-727.8"/>
<text text-anchor="start" x="61.48" y="-740" font-family="Arial" font-size="14.00">id </text>
<text text-anchor="start" x="76.27" y="-740" font-family="Arial" font-size="14.00" fill="#666666">[bigint]</text>
<polygon fill="none" stroke="black" points="54.48,-697 54.48,-727.8 304.25,-727.8 304.25,-697 54.48,-697"/>
<text text-anchor="start" x="61.48" y="-709.2" font-family="Arial" font-size="14.00">node_id </text>
<text text-anchor="start" x="115.2" y="-709.2" font-family="Arial" font-size="14.00" fill="#666666">[bigint]</text>
<polygon fill="none" stroke="black" points="54.48,-666.2 54.48,-697 304.25,-697 304.25,-666.2 54.48,-666.2"/>
<text text-anchor="start" x="61.48" y="-678.4" font-family="Arial" font-size="14.00">tag </text>
<text text-anchor="start" x="84.83" y="-678.4" font-family="Arial" font-size="14.00" fill="#666666">[text]</text>
<polygon fill="none" stroke="black" points="54.48,-635.4 54.48,-666.2 304.25,-666.2 304.25,-635.4 54.48,-635.4"/>
<text text-anchor="start" x="61.48" y="-647.6" font-family="Arial" font-size="14.00">created_at </text>
<text text-anchor="start" x="131.53" y="-647.6" font-family="Arial" font-size="14.00" fill="#666666">[timestamp with time zone]</text>
<polygon fill="none" stroke="black" stroke-width="3" points="52.98,-633.9 52.98,-795.7 305.75,-795.7 305.75,-633.9 52.98,-633.9"/>
</g>
<!-- public.nodes -->
<g id="node2" class="node">
<title>public.nodes</title>
<polygon fill="#efefef" stroke="none" points="43.2,-474.4 43.2,-510 315.53,-510 315.53,-474.4 43.2,-474.4"/>
<polygon fill="none" stroke="black" points="43.2,-474.4 43.2,-510 315.53,-510 315.53,-474.4 43.2,-474.4"/>
<text text-anchor="start" x="71.38" y="-487.8" font-family="Arial Bold" font-size="18.00">public.nodes</text>
<text text-anchor="start" x="162.86" y="-487.8" font-family="Arial" font-size="14.00">    </text>
<text text-anchor="start" x="193.98" y="-487.8" font-family="Arial" font-size="14.00" fill="#666666">[BASE TABLE]</text>
<polygon fill="none" stroke="black" points="43.2,-443.6 43.2,-474.4 315.53,-474.4 315.53,-443.6 43.2,-443.6"/>
<text text-anchor="start" x="50.2" y="-455.8" font-family="Arial" font-size="14.00">id </text>
<text text-anchor="start" x="64.99" y="-455.8" font-family="Arial" font-size="14.00" fill="#666666">[bigint]</text>
<polygon fill="none" stroke="black" points="43.2,-412.8 43.2,-443.6 315.53,-443.6 315.53,-412.8 43.2,-412.8"/>
<text text-anchor="start" x="50.2" y="-425" font-family="Arial" font-size="14.00">content </text>
<text text-anchor="start" x="100.01" y="-425" font-family="Arial" font-size="14.00" fill="#666666">[text]</text>
<polygon fill="none" stroke="black" points="43.2,-382 43.2,-412.8 315.53,-412.8 315.53,-382 43.2,-382"/>
<text text-anchor="start" x="50.2" y="-394.2" font-family="Arial" font-size="14.00">speaker </text>
<text text-anchor="start" x="103.9" y="-394.2" font-family="Arial" font-size="14.00" fill="#666666">[text]</text>
<polygon fill="none" stroke="black" points="43.2,-351.2 43.2,-382 315.53,-382 315.53,-351.2 43.2,-351.2"/>
<text text-anchor="start" x="50.2" y="-363.4" font-family="Arial" font-size="14.00">type </text>
<text text-anchor="start" x="80.55" y="-363.4" font-family="Arial" font-size="14.00" fill="#666666">[text]</text>
<polygon fill="none" stroke="black" points="43.2,-320.4 43.2,-351.2 315.53,-351.2 315.53,-320.4 43.2,-320.4"/>
<text text-anchor="start" x="50.2" y="-332.6" font-family="Arial" font-size="14.00">category </text>
<text text-anchor="start" x="107.79" y="-332.6" font-family="Arial" font-size="14.00" fill="#666666">[text]</text>
<polygon fill="none" stroke="black" points="43.2,-289.6 43.2,-320.4 315.53,-320.4 315.53,-289.6 43.2,-289.6"/>
<text text-anchor="start" x="50.2" y="-301.8" font-family="Arial" font-size="14.00">importance </text>
<text text-anchor="start" x="123.34" y="-301.8" font-family="Arial" font-size="14.00" fill="#666666">[double precision]</text>
<polygon fill="none" stroke="black" points="43.2,-258.8 43.2,-289.6 315.53,-289.6 315.53,-258.8 43.2,-258.8"/>
<text text-anchor="start" x="50.2" y="-271" font-family="Arial" font-size="14.00">created_at </text>
<text text-anchor="start" x="120.25" y="-271" font-family="Arial" font-size="14.00" fill="#666666">[timestamp with time zone]</text>
<polygon fill="none" stroke="black" points="43.2,-228 43.2,-258.8 315.53,-258.8 315.53,-228 43.2,-228"/>
<text text-anchor="start" x="50.2" y="-240.2" font-family="Arial" font-size="14.00">updated_at </text>
<text text-anchor="start" x="124.16" y="-240.2" font-family="Arial" font-size="14.00" fill="#666666">[timestamp with time zone]</text>
<polygon fill="none" stroke="black" points="43.2,-197.2 43.2,-228 315.53,-228 315.53,-197.2 43.2,-197.2"/>
<text text-anchor="start" x="50.2" y="-209.4" font-family="Arial" font-size="14.00">last_accessed </text>
<text text-anchor="start" x="142.81" y="-209.4" font-family="Arial" font-size="14.00" fill="#666666">[timestamp with time zone]</text>
<polygon fill="none" stroke="black" points="43.2,-166.4 43.2,-197.2 315.53,-197.2 315.53,-166.4 43.2,-166.4"/>
<text text-anchor="start" x="50.2" y="-178.6" font-family="Arial" font-size="14.00">token_count </text>
<text text-anchor="start" x="130.37" y="-178.6" font-family="Arial" font-size="14.00" fill="#666666">[integer]</text>
<polygon fill="none" stroke="black" points="43.2,-135.6 43.2,-166.4 315.53,-166.4 315.53,-135.6 43.2,-135.6"/>
<text text-anchor="start" x="50.2" y="-147.8" font-family="Arial" font-size="14.00">in_working_memory </text>
<text text-anchor="start" x="179.36" y="-147.8" font-family="Arial" font-size="14.00" fill="#666666">[boolean]</text>
<polygon fill="none" stroke="black" points="43.2,-104.8 43.2,-135.6 315.53,-135.6 315.53,-104.8 43.2,-104.8"/>
<text text-anchor="start" x="50.2" y="-117" font-family="Arial" font-size="14.00">robot_id </text>
<text text-anchor="start" x="104.68" y="-117" font-family="Arial" font-size="14.00" fill="#666666">[text]</text>
<polygon fill="none" stroke="black" points="43.2,-74 43.2,-104.8 315.53,-104.8 315.53,-74 43.2,-74"/>
<text text-anchor="start" x="50.2" y="-86.2" font-family="Arial" font-size="14.00">embedding </text>
<text text-anchor="start" x="123.37" y="-86.2" font-family="Arial" font-size="14.00" fill="#666666">[vector(2000)]</text>
<polygon fill="none" stroke="black" points="43.2,-43.2 43.2,-74 315.53,-74 315.53,-43.2 43.2,-43.2"/>
<text text-anchor="start" x="50.2" y="-55.4" font-family="Arial" font-size="14.00">embedding_dimension </text>
<text text-anchor="start" x="194.96" y="-55.4" font-family="Arial" font-size="14.00" fill="#666666">[integer]</text>
</g>
<!-- public.tags&#45;&gt;public.nodes -->
<g id="edge1" class="edge">
<title>public.tags:node_id&#45;&gt;public.nodes:id</title>
<path fill="none" stroke="black" d="M315.29,-709.55C362.76,-681.71 369.37,-459 316.53,-459"/>
<polygon fill="black" stroke="black" points="315.19,-709.58 304.34,-707.98 310.06,-711.04 305.89,-712.22 305.89,-712.22 305.89,-712.22 310.06,-711.04 306.8,-716.64 315.19,-709.58"/>
<text text-anchor="start" x="312.25" y="-722.4" font-family="Arial" font-size="10.00">FOREIGN KEY (node_id) REFERENCES nodes(id) ON DELETE CASCADE</text>
</g>
</g>
</svg>
