<?xml version="1.0" encoding="UTF-8" standalone="no"?>
<!DOCTYPE svg PUBLIC "-//W3C//DTD SVG 1.1//EN"
 "http://www.w3.org/Graphics/SVG/1.1/DTD/svg11.dtd">
<!-- Generated by graphviz version 12.1.2 (20240928.0832)
 -->
<!-- Title: public.robot_nodes Pages: 1 -->
<svg width="1031pt" height="848pt"
 viewBox="0.00 0.00 1030.96 848.40" xmlns="http://www.w3.org/2000/svg" xmlns:xlink="http://www.w3.org/1999/xlink">
<g id="graph0" class="graph" transform="scale(1 1) rotate(0) translate(4 844.4)">
<title>public.robot_nodes</title>
<polygon fill="white" stroke="none" points="-4,4 -4,-844.4 1026.96,-844.4 1026.96,4 -4,4"/>
<!-- public.robot_nodes -->
<g id="node1" class="node">
<title>public.robot_nodes</title>
<polygon fill="#efefef" stroke="none" points="355.64,-758.6 355.64,-794.2 668.42,-794.2 668.42,-758.6 355.64,-758.6"/>
<polygon fill="none" stroke="black" points="355.64,-758.6 355.64,-794.2 668.42,-794.2 668.42,-758.6 355.64,-758.6"/>
<text text-anchor="start" x="380.54" y="-772" font-family="Arial Bold" font-size="18.00">public.robot_nodes</text>
<text text-anchor="start" x="519.02" y="-772" font-family="Arial" font-size="14.00">    </text>
<text text-anchor="start" x="550.14" y="-772" font-family="Arial" font-size="14.00" fill="#666666">[BASE TABLE]</text>
<polygon fill="none" stroke="black" points="355.64,-727.8 355.64,-758.6 668.42,-758.6 668.42,-727.8 355.64,-727.8"/>
<text text-anchor="start" x="362.64" y="-740" font-family="Arial" font-size="14.00">id </text>
<text text-anchor="start" x="377.43" y="-740" font-family="Arial" font-size="14.00" fill="#666666">[bigint]</text>
<polygon fill="none" stroke="black" points="355.64,-697 355.64,-727.8 668.42,-727.8 668.42,-697 355.64,-697"/>
<text text-anchor="start" x="362.64" y="-709.2" font-family="Arial" font-size="14.00">robot_id </text>
<text text-anchor="start" x="417.12" y="-709.2" font-family="Arial" font-size="14.00" fill="#666666">[bigint]</text>
<polygon fill="none" stroke="black" points="355.64,-666.2 355.64,-697 668.42,-697 668.42,-666.2 355.64,-666.2"/>
<text text-anchor="start" x="362.64" y="-678.4" font-family="Arial" font-size="14.00">node_id </text>
<text text-anchor="start" x="416.36" y="-678.4" font-family="Arial" font-size="14.00" fill="#666666">[bigint]</text>
<polygon fill="none" stroke="black" points="355.64,-635.4 355.64,-666.2 668.42,-666.2 668.42,-635.4 355.64,-635.4"/>
<text text-anchor="start" x="362.64" y="-647.6" font-family="Arial" font-size="14.00">first_remembered_at </text>
<text text-anchor="start" x="495.69" y="-647.6" font-family="Arial" font-size="14.00" fill="#666666">[timestamp with time zone]</text>
<polygon fill="none" stroke="black" points="355.64,-604.6 355.64,-635.4 668.42,-635.4 668.42,-604.6 355.64,-604.6"/>
<text text-anchor="start" x="362.64" y="-616.8" font-family="Arial" font-size="14.00">last_remembered_at </text>
<text text-anchor="start" x="494.93" y="-616.8" font-family="Arial" font-size="14.00" fill="#666666">[timestamp with time zone]</text>
<polygon fill="none" stroke="black" points="355.64,-573.8 355.64,-604.6 668.42,-604.6 668.42,-573.8 355.64,-573.8"/>
<text text-anchor="start" x="362.64" y="-586" font-family="Arial" font-size="14.00">remember_count </text>
<text text-anchor="start" x="472.36" y="-586" font-family="Arial" font-size="14.00" fill="#666666">[integer]</text>
<polygon fill="none" stroke="black" points="355.64,-543 355.64,-573.8 668.42,-573.8 668.42,-543 355.64,-543"/>
<text text-anchor="start" x="362.64" y="-555.2" font-family="Arial" font-size="14.00">created_at </text>
<text text-anchor="start" x="432.69" y="-555.2" font-family="Arial" font-size="14.00" fill="#666666">[timestamp with time zone]</text>
<polygon fill="none" stroke="black" points="355.64,-512.2 355.64,-543 668.42,-543 668.42,-512.2 355.64,-512.2"/>
<text text-anchor="start" x="362.64" y="-524.4" font-family="Arial" font-size="14.00">updated_at </text>
<text text-anchor="start" x="436.6" y="-524.4" font-family="Arial" font-size="14.00" fill="#666666">[timestamp with time zone]</text>
<polygon fill="none" stroke="black" stroke-width="3" points="354.14,-510.7 354.14,-795.7 669.92,-795.7 669.92,-510.7 354.14,-510.7"/>
</g>
<!-- public.robots -->
<g id="node2" class="node">
<title>public.robots</title>
<polygon fill="#efefef" stroke="none" points="205.14,-258.8 205.14,-294.4 454.91,-294.4 454.91,-258.8 205.14,-258.8"/>
<polygon fill="none" stroke="black" points="205.14,-258.8 205.14,-294.4 454.91,-294.4 454.91,-258.8 205.14,-258.8"/>
<text text-anchor="start" x="220.54" y="-272.2" font-family="Arial Bold" font-size="18.00">public.robots</text>
<text text-anchor="start" x="315.03" y="-272.2" font-family="Arial" font-size="14.00">    </text>
<text text-anchor="start" x="346.15" y="-272.2" font-family="Arial" font-size="14.00" fill="#666666">[BASE TABLE]</text>
<polygon fill="none" stroke="black" points="205.14,-228 205.14,-258.8 454.91,-258.8 454.91,-228 205.14,-228"/>
<text text-anchor="start" x="212.14" y="-240.2" font-family="Arial" font-size="14.00">id </text>
<text text-anchor="start" x="226.93" y="-240.2" font-family="Arial" font-size="14.00" fill="#666666">[bigint]</text>
<polygon fill="none" stroke="black" points="205.14,-197.2 205.14,-228 454.91,-228 454.91,-197.2 205.14,-197.2"/>
<text text-anchor="start" x="212.14" y="-209.4" font-family="Arial" font-size="14.00">name </text>
<text text-anchor="start" x="251.05" y="-209.4" font-family="Arial" font-size="14.00" fill="#666666">[text]</text>
<polygon fill="none" stroke="black" points="205.14,-166.4 205.14,-197.2 454.91,-197.2 454.91,-166.4 205.14,-166.4"/>
<text text-anchor="start" x="212.14" y="-178.6" font-family="Arial" font-size="14.00">created_at </text>
<text text-anchor="start" x="282.19" y="-178.6" font-family="Arial" font-size="14.00" fill="#666666">[timestamp with time zone]</text>
<polygon fill="none" stroke="black" points="205.14,-135.6 205.14,-166.4 454.91,-166.4 454.91,-135.6 205.14,-135.6"/>
<text text-anchor="start" x="212.14" y="-147.8" font-family="Arial" font-size="14.00">last_active </text>
<text text-anchor="start" x="282.18" y="-147.8" font-family="Arial" font-size="14.00" fill="#666666">[timestamp with time zone]</text>
</g>
<!-- public.robot_nodes&#45;&gt;public.robots -->
<g id="edge1" class="edge">
<title>public.robot_nodes:robot_id&#45;&gt;public.robots:id</title>
<path fill="none" stroke="black" d="M344.23,-712.25C59.79,-703.81 452.83,-343.61 454.91,-337.6 468.66,-298.05 497.78,-243.4 455.91,-243.4"/>
<polygon fill="black" stroke="black" points="344.31,-712.25 354.24,-716.89 349.64,-712.33 353.97,-712.39 353.97,-712.39 353.97,-712.39 349.64,-712.33 354.37,-707.9 344.31,-712.25"/>
<text text-anchor="start" x="7" y="-722.4" font-family="Arial" font-size="10.00">FOREIGN KEY (robot_id) REFERENCES robots(id) ON DELETE CASCADE</text>
</g>
<!-- public.nodes -->
<g id="node3" class="node">
<title>public.nodes</title>
<polygon fill="#efefef" stroke="none" points="558.86,-351.2 558.86,-386.8 831.19,-386.8 831.19,-351.2 558.86,-351.2"/>
<polygon fill="none" stroke="black" points="558.86,-351.2 558.86,-386.8 831.19,-386.8 831.19,-351.2 558.86,-351.2"/>
<text text-anchor="start" x="587.04" y="-364.6" font-family="Arial Bold" font-size="18.00">public.nodes</text>
<text text-anchor="start" x="678.53" y="-364.6" font-family="Arial" font-size="14.00">    </text>
<text text-anchor="start" x="709.64" y="-364.6" font-family="Arial" font-size="14.00" fill="#666666">[BASE TABLE]</text>
<polygon fill="none" stroke="black" points="558.86,-320.4 558.86,-351.2 831.19,-351.2 831.19,-320.4 558.86,-320.4"/>
<text text-anchor="start" x="565.86" y="-332.6" font-family="Arial" font-size="14.00">id </text>
<text text-anchor="start" x="580.65" y="-332.6" font-family="Arial" font-size="14.00" fill="#666666">[bigint]</text>
<polygon fill="none" stroke="black" points="558.86,-289.6 558.86,-320.4 831.19,-320.4 831.19,-289.6 558.86,-289.6"/>
<text text-anchor="start" x="565.86" y="-301.8" font-family="Arial" font-size="14.00">content </text>
<text text-anchor="start" x="615.68" y="-301.8" font-family="Arial" font-size="14.00" fill="#666666">[text]</text>
<polygon fill="none" stroke="black" points="558.86,-258.8 558.86,-289.6 831.19,-289.6 831.19,-258.8 558.86,-258.8"/>
<text text-anchor="start" x="565.86" y="-271" font-family="Arial" font-size="14.00">access_count </text>
<text text-anchor="start" x="655.36" y="-271" font-family="Arial" font-size="14.00" fill="#666666">[integer]</text>
<polygon fill="none" stroke="black" points="558.86,-228 558.86,-258.8 831.19,-258.8 831.19,-228 558.86,-228"/>
<text text-anchor="start" x="565.86" y="-240.2" font-family="Arial" font-size="14.00">created_at </text>
<text text-anchor="start" x="635.91" y="-240.2" font-family="Arial" font-size="14.00" fill="#666666">[timestamp with time zone]</text>
<polygon fill="none" stroke="black" points="558.86,-197.2 558.86,-228 831.19,-228 831.19,-197.2 558.86,-197.2"/>
<text text-anchor="start" x="565.86" y="-209.4" font-family="Arial" font-size="14.00">updated_at </text>
<text text-anchor="start" x="639.82" y="-209.4" font-family="Arial" font-size="14.00" fill="#666666">[timestamp with time zone]</text>
<polygon fill="none" stroke="black" points="558.86,-166.4 558.86,-197.2 831.19,-197.2 831.19,-166.4 558.86,-166.4"/>
<text text-anchor="start" x="565.86" y="-178.6" font-family="Arial" font-size="14.00">last_accessed </text>
<text text-anchor="start" x="658.47" y="-178.6" font-family="Arial" font-size="14.00" fill="#666666">[timestamp with time zone]</text>
<polygon fill="none" stroke="black" points="558.86,-135.6 558.86,-166.4 831.19,-166.4 831.19,-135.6 558.86,-135.6"/>
<text text-anchor="start" x="565.86" y="-147.8" font-family="Arial" font-size="14.00">token_count </text>
<text text-anchor="start" x="646.04" y="-147.8" font-family="Arial" font-size="14.00" fill="#666666">[integer]</text>
<polygon fill="none" stroke="black" points="558.86,-104.8 558.86,-135.6 831.19,-135.6 831.19,-104.8 558.86,-104.8"/>
<text text-anchor="start" x="565.86" y="-117" font-family="Arial" font-size="14.00">embedding </text>
<text text-anchor="start" x="639.03" y="-117" font-family="Arial" font-size="14.00" fill="#666666">[vector(2000)]</text>
<polygon fill="none" stroke="black" points="558.86,-74 558.86,-104.8 831.19,-104.8 831.19,-74 558.86,-74"/>
<text text-anchor="start" x="565.86" y="-86.2" font-family="Arial" font-size="14.00">embedding_dimension </text>
<text text-anchor="start" x="710.63" y="-86.2" font-family="Arial" font-size="14.00" fill="#666666">[integer]</text>
<polygon fill="none" stroke="black" points="558.86,-43.2 558.86,-74 831.19,-74 831.19,-43.2 558.86,-43.2"/>
<text text-anchor="start" x="565.86" y="-55.4" font-family="Arial" font-size="14.00">content_hash </text>
<text text-anchor="start" x="653.82" y="-55.4" font-family="Arial" font-size="14.00" fill="#666666">[varchar(64)]</text>
</g>
<!-- public.robot_nodes&#45;&gt;public.nodes -->
<g id="edge2" class="edge">
<title>public.robot_nodes:node_id&#45;&gt;public.nodes:id</title>
<path fill="none" stroke="black" d="M679.78,-681.01C762.14,-671.17 722.65,-540.53 668.42,-466 638.27,-424.56 589.14,-471.35 558.86,-430 534.13,-396.22 515.99,-335.8 557.86,-335.8"/>
<polygon fill="black" stroke="black" points="679.74,-681.01 669.5,-677.09 674.41,-681.32 670.09,-681.56 670.09,-681.56 670.09,-681.56 674.41,-681.32 670.01,-686.07 679.74,-681.01"/>
<text text-anchor="start" x="676.42" y="-691.6" font-family="Arial" font-size="10.00">FOREIGN KEY (node_id) REFERENCES nodes(id) ON DELETE CASCADE</text>
</g>
</g>
</svg>
