<?xml version="1.0" encoding="UTF-8" standalone="no"?>
<!DOCTYPE svg PUBLIC "-//W3C//DTD SVG 1.1//EN"
 "http://www.w3.org/Graphics/SVG/1.1/DTD/svg11.dtd">
<!-- Generated by graphviz version 12.1.2 (20240928.0832)
 -->
<!-- Title: htm_development Pages: 1 -->
<svg width="1106pt" height="1154pt"
 viewBox="0.00 0.00 1105.70 1154.40" xmlns="http://www.w3.org/2000/svg" xmlns:xlink="http://www.w3.org/1999/xlink">
<g id="graph0" class="graph" transform="scale(1 1) rotate(0) translate(4 1150.4)">
<title>htm_development</title>
<polygon fill="white" stroke="none" points="-4,4 -4,-1150.4 1101.7,-1150.4 1101.7,4 -4,4"/>
<!-- public.nodes_tags -->
<g id="node1" class="node">
<title>public.nodes_tags</title>
<polygon fill="#efefef" stroke="none" points="354.55,-1067.6 354.55,-1103.2 622.52,-1103.2 622.52,-1067.6 354.55,-1067.6"/>
<polygon fill="none" stroke="black" points="354.55,-1067.6 354.55,-1103.2 622.52,-1103.2 622.52,-1067.6 354.55,-1067.6"/>
<text text-anchor="start" x="361.55" y="-1081" font-family="Arial Bold" font-size="18.00">public.nodes_tags</text>
<text text-anchor="start" x="491.03" y="-1081" font-family="Arial" font-size="14.00">    </text>
<text text-anchor="start" x="522.14" y="-1081" font-family="Arial" font-size="14.00" fill="#666666">[BASE TABLE]</text>
<polygon fill="none" stroke="black" points="354.55,-1036.8 354.55,-1067.6 622.52,-1067.6 622.52,-1036.8 354.55,-1036.8"/>
<text text-anchor="start" x="361.55" y="-1049" font-family="Arial" font-size="14.00">id </text>
<text text-anchor="start" x="376.33" y="-1049" font-family="Arial" font-size="14.00" fill="#666666">[bigint]</text>
<polygon fill="none" stroke="black" points="354.55,-1006 354.55,-1036.8 622.52,-1036.8 622.52,-1006 354.55,-1006"/>
<text text-anchor="start" x="361.55" y="-1018.2" font-family="Arial" font-size="14.00">node_id </text>
<text text-anchor="start" x="415.26" y="-1018.2" font-family="Arial" font-size="14.00" fill="#666666">[bigint]</text>
<polygon fill="none" stroke="black" points="354.55,-975.2 354.55,-1006 622.52,-1006 622.52,-975.2 354.55,-975.2"/>
<text text-anchor="start" x="361.55" y="-987.4" font-family="Arial" font-size="14.00">tag_id </text>
<text text-anchor="start" x="403.58" y="-987.4" font-family="Arial" font-size="14.00" fill="#666666">[bigint]</text>
<polygon fill="none" stroke="black" points="354.55,-944.4 354.55,-975.2 622.52,-975.2 622.52,-944.4 354.55,-944.4"/>
<text text-anchor="start" x="361.55" y="-956.6" font-family="Arial" font-size="14.00">created_at </text>
<text text-anchor="start" x="431.59" y="-956.6" font-family="Arial" font-size="14.00" fill="#666666">[timestamp with time zone]</text>
</g>
<!-- public.nodes -->
<g id="node4" class="node">
<title>public.nodes</title>
<polygon fill="#efefef" stroke="none" points="170.37,-786.4 170.37,-822 442.7,-822 442.7,-786.4 170.37,-786.4"/>
<polygon fill="none" stroke="black" points="170.37,-786.4 170.37,-822 442.7,-822 442.7,-786.4 170.37,-786.4"/>
<text text-anchor="start" x="198.54" y="-799.8" font-family="Arial Bold" font-size="18.00">public.nodes</text>
<text text-anchor="start" x="290.03" y="-799.8" font-family="Arial" font-size="14.00">    </text>
<text text-anchor="start" x="321.15" y="-799.8" font-family="Arial" font-size="14.00" fill="#666666">[BASE TABLE]</text>
<polygon fill="none" stroke="black" points="170.37,-755.6 170.37,-786.4 442.7,-786.4 442.7,-755.6 170.37,-755.6"/>
<text text-anchor="start" x="177.37" y="-767.8" font-family="Arial" font-size="14.00">id </text>
<text text-anchor="start" x="192.15" y="-767.8" font-family="Arial" font-size="14.00" fill="#666666">[bigint]</text>
<polygon fill="none" stroke="black" points="170.37,-724.8 170.37,-755.6 442.7,-755.6 442.7,-724.8 170.37,-724.8"/>
<text text-anchor="start" x="177.37" y="-737" font-family="Arial" font-size="14.00">content </text>
<text text-anchor="start" x="227.18" y="-737" font-family="Arial" font-size="14.00" fill="#666666">[text]</text>
<polygon fill="none" stroke="black" points="170.37,-694 170.37,-724.8 442.7,-724.8 442.7,-694 170.37,-694"/>
<text text-anchor="start" x="177.37" y="-706.2" font-family="Arial" font-size="14.00">speaker </text>
<text text-anchor="start" x="231.06" y="-706.2" font-family="Arial" font-size="14.00" fill="#666666">[text]</text>
<polygon fill="none" stroke="black" points="170.37,-663.2 170.37,-694 442.7,-694 442.7,-663.2 170.37,-663.2"/>
<text text-anchor="start" x="177.37" y="-675.4" font-family="Arial" font-size="14.00">type </text>
<text text-anchor="start" x="207.72" y="-675.4" font-family="Arial" font-size="14.00" fill="#666666">[text]</text>
<polygon fill="none" stroke="black" points="170.37,-632.4 170.37,-663.2 442.7,-663.2 442.7,-632.4 170.37,-632.4"/>
<text text-anchor="start" x="177.37" y="-644.6" font-family="Arial" font-size="14.00">category </text>
<text text-anchor="start" x="234.95" y="-644.6" font-family="Arial" font-size="14.00" fill="#666666">[text]</text>
<polygon fill="none" stroke="black" points="170.37,-601.6 170.37,-632.4 442.7,-632.4 442.7,-601.6 170.37,-601.6"/>
<text text-anchor="start" x="177.37" y="-613.8" font-family="Arial" font-size="14.00">importance </text>
<text text-anchor="start" x="250.51" y="-613.8" font-family="Arial" font-size="14.00" fill="#666666">[double precision]</text>
<polygon fill="none" stroke="black" points="170.37,-570.8 170.37,-601.6 442.7,-601.6 442.7,-570.8 170.37,-570.8"/>
<text text-anchor="start" x="177.37" y="-583" font-family="Arial" font-size="14.00">created_at </text>
<text text-anchor="start" x="247.41" y="-583" font-family="Arial" font-size="14.00" fill="#666666">[timestamp with time zone]</text>
<polygon fill="none" stroke="black" points="170.37,-540 170.37,-570.8 442.7,-570.8 442.7,-540 170.37,-540"/>
<text text-anchor="start" x="177.37" y="-552.2" font-family="Arial" font-size="14.00">updated_at </text>
<text text-anchor="start" x="251.32" y="-552.2" font-family="Arial" font-size="14.00" fill="#666666">[timestamp with time zone]</text>
<polygon fill="none" stroke="black" points="170.37,-509.2 170.37,-540 442.7,-540 442.7,-509.2 170.37,-509.2"/>
<text text-anchor="start" x="177.37" y="-521.4" font-family="Arial" font-size="14.00">last_accessed </text>
<text text-anchor="start" x="269.97" y="-521.4" font-family="Arial" font-size="14.00" fill="#666666">[timestamp with time zone]</text>
<polygon fill="none" stroke="black" points="170.37,-478.4 170.37,-509.2 442.7,-509.2 442.7,-478.4 170.37,-478.4"/>
<text text-anchor="start" x="177.37" y="-490.6" font-family="Arial" font-size="14.00">token_count </text>
<text text-anchor="start" x="257.54" y="-490.6" font-family="Arial" font-size="14.00" fill="#666666">[integer]</text>
<polygon fill="none" stroke="black" points="170.37,-447.6 170.37,-478.4 442.7,-478.4 442.7,-447.6 170.37,-447.6"/>
<text text-anchor="start" x="177.37" y="-459.8" font-family="Arial" font-size="14.00">in_working_memory </text>
<text text-anchor="start" x="306.52" y="-459.8" font-family="Arial" font-size="14.00" fill="#666666">[boolean]</text>
<polygon fill="none" stroke="black" points="170.37,-416.8 170.37,-447.6 442.7,-447.6 442.7,-416.8 170.37,-416.8"/>
<text text-anchor="start" x="177.37" y="-429" font-family="Arial" font-size="14.00">robot_id </text>
<text text-anchor="start" x="231.85" y="-429" font-family="Arial" font-size="14.00" fill="#666666">[bigint]</text>
<polygon fill="none" stroke="black" points="170.37,-386 170.37,-416.8 442.7,-416.8 442.7,-386 170.37,-386"/>
<text text-anchor="start" x="177.37" y="-398.2" font-family="Arial" font-size="14.00">embedding </text>
<text text-anchor="start" x="250.53" y="-398.2" font-family="Arial" font-size="14.00" fill="#666666">[vector(2000)]</text>
<polygon fill="none" stroke="black" points="170.37,-355.2 170.37,-386 442.7,-386 442.7,-355.2 170.37,-355.2"/>
<text text-anchor="start" x="177.37" y="-367.4" font-family="Arial" font-size="14.00">embedding_dimension </text>
<text text-anchor="start" x="322.13" y="-367.4" font-family="Arial" font-size="14.00" fill="#666666">[integer]</text>
</g>
<!-- public.nodes_tags&#45;&gt;public.nodes -->
<g id="edge1" class="edge">
<title>public.nodes_tags:node_id&#45;&gt;public.nodes:id</title>
<path fill="none" stroke="black" d="M343.41,-1020.31C303.59,-1010.87 326.68,-942.31 354.55,-901.2 378.29,-866.17 418.91,-900.2 442.7,-865.2 466.23,-830.57 485.56,-771 443.7,-771"/>
<polygon fill="black" stroke="black" points="343.27,-1020.3 352.73,-1025.84 348.57,-1020.87 352.88,-1021.33 352.88,-1021.33 352.88,-1021.33 348.57,-1020.87 353.69,-1016.89 343.27,-1020.3"/>
<text text-anchor="start" x="7" y="-1031.4" font-family="Arial" font-size="10.00">FOREIGN KEY (node_id) REFERENCES nodes(id) ON DELETE CASCADE</text>
</g>
<!-- public.tags -->
<g id="node5" class="node">
<title>public.tags</title>
<polygon fill="#efefef" stroke="none" points="546.65,-617 546.65,-652.6 796.42,-652.6 796.42,-617 546.65,-617"/>
<polygon fill="none" stroke="black" points="546.65,-617 546.65,-652.6 796.42,-652.6 796.42,-617 546.65,-617"/>
<text text-anchor="start" x="570.04" y="-630.4" font-family="Arial Bold" font-size="18.00">public.tags</text>
<text text-anchor="start" x="648.53" y="-630.4" font-family="Arial" font-size="14.00">    </text>
<text text-anchor="start" x="679.65" y="-630.4" font-family="Arial" font-size="14.00" fill="#666666">[BASE TABLE]</text>
<polygon fill="none" stroke="black" points="546.65,-586.2 546.65,-617 796.42,-617 796.42,-586.2 546.65,-586.2"/>
<text text-anchor="start" x="553.65" y="-598.4" font-family="Arial" font-size="14.00">id </text>
<text text-anchor="start" x="568.43" y="-598.4" font-family="Arial" font-size="14.00" fill="#666666">[bigint]</text>
<polygon fill="none" stroke="black" points="546.65,-555.4 546.65,-586.2 796.42,-586.2 796.42,-555.4 546.65,-555.4"/>
<text text-anchor="start" x="553.65" y="-567.6" font-family="Arial" font-size="14.00">name </text>
<text text-anchor="start" x="592.56" y="-567.6" font-family="Arial" font-size="14.00" fill="#666666">[text]</text>
<polygon fill="none" stroke="black" points="546.65,-524.6 546.65,-555.4 796.42,-555.4 796.42,-524.6 546.65,-524.6"/>
<text text-anchor="start" x="553.65" y="-536.8" font-family="Arial" font-size="14.00">created_at </text>
<text text-anchor="start" x="623.69" y="-536.8" font-family="Arial" font-size="14.00" fill="#666666">[timestamp with time zone]</text>
</g>
<!-- public.nodes_tags&#45;&gt;public.tags -->
<g id="edge2" class="edge">
<title>public.nodes_tags:tag_id&#45;&gt;public.tags:id</title>
<path fill="none" stroke="black" d="M633.61,-990.12C782.43,-974.81 372.94,-601.6 545.65,-601.6"/>
<polygon fill="black" stroke="black" points="633.84,-990.1 623.63,-986.09 628.51,-990.36 624.18,-990.57 624.18,-990.57 624.18,-990.57 628.51,-990.36 624.07,-995.08 633.84,-990.1"/>
<text text-anchor="start" x="293.66" y="-1000.6" font-family="Arial" font-size="10.00">FOREIGN KEY (tag_id) REFERENCES tags(id) ON DELETE CASCADE</text>
</g>
<!-- public.schema_migrations -->
<g id="node2" class="node">
<title>public.schema_migrations</title>
<polygon fill="#efefef" stroke="none" points="726.56,-1021.4 726.56,-1057 1054.5,-1057 1054.5,-1021.4 726.56,-1021.4"/>
<polygon fill="none" stroke="black" points="726.56,-1021.4 726.56,-1057 1054.5,-1057 1054.5,-1021.4 726.56,-1021.4"/>
<text text-anchor="start" x="733.56" y="-1034.8" font-family="Arial Bold" font-size="18.00">public.schema_migrations</text>
<text text-anchor="start" x="923.01" y="-1034.8" font-family="Arial" font-size="14.00">    </text>
<text text-anchor="start" x="954.13" y="-1034.8" font-family="Arial" font-size="14.00" fill="#666666">[BASE TABLE]</text>
<polygon fill="none" stroke="black" points="726.56,-990.6 726.56,-1021.4 1054.5,-1021.4 1054.5,-990.6 726.56,-990.6"/>
<text text-anchor="start" x="733.56" y="-1002.8" font-family="Arial" font-size="14.00">version </text>
<text text-anchor="start" x="782.58" y="-1002.8" font-family="Arial" font-size="14.00" fill="#666666">[varchar]</text>
</g>
<!-- public.robots -->
<g id="node3" class="node">
<title>public.robots</title>
<polygon fill="#efefef" stroke="none" points="181.65,-197.2 181.65,-232.8 431.42,-232.8 431.42,-197.2 181.65,-197.2"/>
<polygon fill="none" stroke="black" points="181.65,-197.2 181.65,-232.8 431.42,-232.8 431.42,-197.2 181.65,-197.2"/>
<text text-anchor="start" x="197.04" y="-210.6" font-family="Arial Bold" font-size="18.00">public.robots</text>
<text text-anchor="start" x="291.53" y="-210.6" font-family="Arial" font-size="14.00">    </text>
<text text-anchor="start" x="322.65" y="-210.6" font-family="Arial" font-size="14.00" fill="#666666">[BASE TABLE]</text>
<polygon fill="none" stroke="black" points="181.65,-166.4 181.65,-197.2 431.42,-197.2 431.42,-166.4 181.65,-166.4"/>
<text text-anchor="start" x="188.65" y="-178.6" font-family="Arial" font-size="14.00">id </text>
<text text-anchor="start" x="203.43" y="-178.6" font-family="Arial" font-size="14.00" fill="#666666">[bigint]</text>
<polygon fill="none" stroke="black" points="181.65,-135.6 181.65,-166.4 431.42,-166.4 431.42,-135.6 181.65,-135.6"/>
<text text-anchor="start" x="188.65" y="-147.8" font-family="Arial" font-size="14.00">name </text>
<text text-anchor="start" x="227.56" y="-147.8" font-family="Arial" font-size="14.00" fill="#666666">[text]</text>
<polygon fill="none" stroke="black" points="181.65,-104.8 181.65,-135.6 431.42,-135.6 431.42,-104.8 181.65,-104.8"/>
<text text-anchor="start" x="188.65" y="-117" font-family="Arial" font-size="14.00">created_at </text>
<text text-anchor="start" x="258.69" y="-117" font-family="Arial" font-size="14.00" fill="#666666">[timestamp with time zone]</text>
<polygon fill="none" stroke="black" points="181.65,-74 181.65,-104.8 431.42,-104.8 431.42,-74 181.65,-74"/>
<text text-anchor="start" x="188.65" y="-86.2" font-family="Arial" font-size="14.00">last_active </text>
<text text-anchor="start" x="258.68" y="-86.2" font-family="Arial" font-size="14.00" fill="#666666">[timestamp with time zone]</text>
<polygon fill="none" stroke="black" points="181.65,-43.2 181.65,-74 431.42,-74 431.42,-43.2 181.65,-43.2"/>
<text text-anchor="start" x="188.65" y="-55.4" font-family="Arial" font-size="14.00">metadata </text>
<text text-anchor="start" x="250.91" y="-55.4" font-family="Arial" font-size="14.00" fill="#666666">[jsonb]</text>
</g>
<!-- public.nodes&#45;&gt;public.robots -->
<g id="edge3" class="edge">
<title>public.nodes:robot_id&#45;&gt;public.robots:id</title>
<path fill="none" stroke="black" d="M453.64,-429.21C497.76,-400.96 484.53,-181.8 432.42,-181.8"/>
<polygon fill="black" stroke="black" points="453.59,-429.23 442.72,-427.79 448.48,-430.76 444.34,-432.01 444.34,-432.01 444.34,-432.01 448.48,-430.76 445.31,-436.41 453.59,-429.23"/>
<text text-anchor="start" x="450.7" y="-442.2" font-family="Arial" font-size="10.00">FOREIGN KEY (robot_id) REFERENCES robots(id) ON DELETE CASCADE</text>
</g>
</g>
</svg>
