<?xml version="1.0" encoding="UTF-8" standalone="no"?>
<!DOCTYPE svg PUBLIC "-//W3C//DTD SVG 1.1//EN"
 "http://www.w3.org/Graphics/SVG/1.1/DTD/svg11.dtd">
<!-- Generated by graphviz version 12.1.2 (20240928.0832)
 -->
<!-- Title: htm_development Pages: 1 -->
<svg width="1099pt" height="1093pt"
 viewBox="0.00 0.00 1099.20 1092.80" xmlns="http://www.w3.org/2000/svg" xmlns:xlink="http://www.w3.org/1999/xlink">
<g id="graph0" class="graph" transform="scale(1 1) rotate(0) translate(4 1088.8)">
<title>htm_development</title>
<polygon fill="white" stroke="none" points="-4,4 -4,-1088.8 1095.2,-1088.8 1095.2,4 -4,4"/>
<!-- public.node_tags -->
<g id="node1" class="node">
<title>public.node_tags</title>
<polygon fill="#efefef" stroke="none" points="354.55,-1006 354.55,-1041.6 615.51,-1041.6 615.51,-1006 354.55,-1006"/>
<polygon fill="none" stroke="black" points="354.55,-1006 354.55,-1041.6 615.51,-1041.6 615.51,-1006 354.55,-1006"/>
<text text-anchor="start" x="361.55" y="-1019.4" font-family="Arial Bold" font-size="18.00">public.node_tags</text>
<text text-anchor="start" x="484.02" y="-1019.4" font-family="Arial" font-size="14.00">    </text>
<text text-anchor="start" x="515.14" y="-1019.4" font-family="Arial" font-size="14.00" fill="#666666">[BASE TABLE]</text>
<polygon fill="none" stroke="black" points="354.55,-975.2 354.55,-1006 615.51,-1006 615.51,-975.2 354.55,-975.2"/>
<text text-anchor="start" x="361.55" y="-987.4" font-family="Arial" font-size="14.00">id </text>
<text text-anchor="start" x="376.33" y="-987.4" font-family="Arial" font-size="14.00" fill="#666666">[bigint]</text>
<polygon fill="none" stroke="black" points="354.55,-944.4 354.55,-975.2 615.51,-975.2 615.51,-944.4 354.55,-944.4"/>
<text text-anchor="start" x="361.55" y="-956.6" font-family="Arial" font-size="14.00">node_id </text>
<text text-anchor="start" x="415.26" y="-956.6" font-family="Arial" font-size="14.00" fill="#666666">[bigint]</text>
<polygon fill="none" stroke="black" points="354.55,-913.6 354.55,-944.4 615.51,-944.4 615.51,-913.6 354.55,-913.6"/>
<text text-anchor="start" x="361.55" y="-925.8" font-family="Arial" font-size="14.00">tag_id </text>
<text text-anchor="start" x="403.58" y="-925.8" font-family="Arial" font-size="14.00" fill="#666666">[bigint]</text>
<polygon fill="none" stroke="black" points="354.55,-882.8 354.55,-913.6 615.51,-913.6 615.51,-882.8 354.55,-882.8"/>
<text text-anchor="start" x="361.55" y="-895" font-family="Arial" font-size="14.00">created_at </text>
<text text-anchor="start" x="431.59" y="-895" font-family="Arial" font-size="14.00" fill="#666666">[timestamp with time zone]</text>
</g>
<!-- public.nodes -->
<g id="node4" class="node">
<title>public.nodes</title>
<polygon fill="#efefef" stroke="none" points="166.86,-724.8 166.86,-760.4 439.19,-760.4 439.19,-724.8 166.86,-724.8"/>
<polygon fill="none" stroke="black" points="166.86,-724.8 166.86,-760.4 439.19,-760.4 439.19,-724.8 166.86,-724.8"/>
<text text-anchor="start" x="195.04" y="-738.2" font-family="Arial Bold" font-size="18.00">public.nodes</text>
<text text-anchor="start" x="286.53" y="-738.2" font-family="Arial" font-size="14.00">    </text>
<text text-anchor="start" x="317.64" y="-738.2" font-family="Arial" font-size="14.00" fill="#666666">[BASE TABLE]</text>
<polygon fill="none" stroke="black" points="166.86,-694 166.86,-724.8 439.19,-724.8 439.19,-694 166.86,-694"/>
<text text-anchor="start" x="173.86" y="-706.2" font-family="Arial" font-size="14.00">id </text>
<text text-anchor="start" x="188.65" y="-706.2" font-family="Arial" font-size="14.00" fill="#666666">[bigint]</text>
<polygon fill="none" stroke="black" points="166.86,-663.2 166.86,-694 439.19,-694 439.19,-663.2 166.86,-663.2"/>
<text text-anchor="start" x="173.86" y="-675.4" font-family="Arial" font-size="14.00">content </text>
<text text-anchor="start" x="223.68" y="-675.4" font-family="Arial" font-size="14.00" fill="#666666">[text]</text>
<polygon fill="none" stroke="black" points="166.86,-632.4 166.86,-663.2 439.19,-663.2 439.19,-632.4 166.86,-632.4"/>
<text text-anchor="start" x="173.86" y="-644.6" font-family="Arial" font-size="14.00">source </text>
<text text-anchor="start" x="219.77" y="-644.6" font-family="Arial" font-size="14.00" fill="#666666">[text]</text>
<polygon fill="none" stroke="black" points="166.86,-601.6 166.86,-632.4 439.19,-632.4 439.19,-601.6 166.86,-601.6"/>
<text text-anchor="start" x="173.86" y="-613.8" font-family="Arial" font-size="14.00">access_count </text>
<text text-anchor="start" x="263.36" y="-613.8" font-family="Arial" font-size="14.00" fill="#666666">[integer]</text>
<polygon fill="none" stroke="black" points="166.86,-570.8 166.86,-601.6 439.19,-601.6 439.19,-570.8 166.86,-570.8"/>
<text text-anchor="start" x="173.86" y="-583" font-family="Arial" font-size="14.00">created_at </text>
<text text-anchor="start" x="243.91" y="-583" font-family="Arial" font-size="14.00" fill="#666666">[timestamp with time zone]</text>
<polygon fill="none" stroke="black" points="166.86,-540 166.86,-570.8 439.19,-570.8 439.19,-540 166.86,-540"/>
<text text-anchor="start" x="173.86" y="-552.2" font-family="Arial" font-size="14.00">updated_at </text>
<text text-anchor="start" x="247.82" y="-552.2" font-family="Arial" font-size="14.00" fill="#666666">[timestamp with time zone]</text>
<polygon fill="none" stroke="black" points="166.86,-509.2 166.86,-540 439.19,-540 439.19,-509.2 166.86,-509.2"/>
<text text-anchor="start" x="173.86" y="-521.4" font-family="Arial" font-size="14.00">last_accessed </text>
<text text-anchor="start" x="266.47" y="-521.4" font-family="Arial" font-size="14.00" fill="#666666">[timestamp with time zone]</text>
<polygon fill="none" stroke="black" points="166.86,-478.4 166.86,-509.2 439.19,-509.2 439.19,-478.4 166.86,-478.4"/>
<text text-anchor="start" x="173.86" y="-490.6" font-family="Arial" font-size="14.00">token_count </text>
<text text-anchor="start" x="254.04" y="-490.6" font-family="Arial" font-size="14.00" fill="#666666">[integer]</text>
<polygon fill="none" stroke="black" points="166.86,-447.6 166.86,-478.4 439.19,-478.4 439.19,-447.6 166.86,-447.6"/>
<text text-anchor="start" x="173.86" y="-459.8" font-family="Arial" font-size="14.00">in_working_memory </text>
<text text-anchor="start" x="303.02" y="-459.8" font-family="Arial" font-size="14.00" fill="#666666">[boolean]</text>
<polygon fill="none" stroke="black" points="166.86,-416.8 166.86,-447.6 439.19,-447.6 439.19,-416.8 166.86,-416.8"/>
<text text-anchor="start" x="173.86" y="-429" font-family="Arial" font-size="14.00">robot_id </text>
<text text-anchor="start" x="228.35" y="-429" font-family="Arial" font-size="14.00" fill="#666666">[bigint]</text>
<polygon fill="none" stroke="black" points="166.86,-386 166.86,-416.8 439.19,-416.8 439.19,-386 166.86,-386"/>
<text text-anchor="start" x="173.86" y="-398.2" font-family="Arial" font-size="14.00">embedding </text>
<text text-anchor="start" x="247.03" y="-398.2" font-family="Arial" font-size="14.00" fill="#666666">[vector(2000)]</text>
<polygon fill="none" stroke="black" points="166.86,-355.2 166.86,-386 439.19,-386 439.19,-355.2 166.86,-355.2"/>
<text text-anchor="start" x="173.86" y="-367.4" font-family="Arial" font-size="14.00">embedding_dimension </text>
<text text-anchor="start" x="318.63" y="-367.4" font-family="Arial" font-size="14.00" fill="#666666">[integer]</text>
</g>
<!-- public.node_tags&#45;&gt;public.nodes -->
<g id="edge1" class="edge">
<title>public.node_tags:node_id&#45;&gt;public.nodes:id</title>
<path fill="none" stroke="black" d="M343.41,-958.71C303.63,-949.3 326.97,-880.91 354.55,-839.6 377.24,-805.6 416.46,-837.58 439.19,-803.6 462.48,-768.8 482.06,-709.4 440.19,-709.4"/>
<polygon fill="black" stroke="black" points="343.27,-958.7 352.73,-964.24 348.57,-959.27 352.88,-959.73 352.88,-959.73 352.88,-959.73 348.57,-959.27 353.69,-955.29 343.27,-958.7"/>
<text text-anchor="start" x="7" y="-969.8" font-family="Arial" font-size="10.00">FOREIGN KEY (node_id) REFERENCES nodes(id) ON DELETE CASCADE</text>
</g>
<!-- public.tags -->
<g id="node5" class="node">
<title>public.tags</title>
<polygon fill="#efefef" stroke="none" points="543.14,-586.2 543.14,-621.8 792.91,-621.8 792.91,-586.2 543.14,-586.2"/>
<polygon fill="none" stroke="black" points="543.14,-586.2 543.14,-621.8 792.91,-621.8 792.91,-586.2 543.14,-586.2"/>
<text text-anchor="start" x="566.54" y="-599.6" font-family="Arial Bold" font-size="18.00">public.tags</text>
<text text-anchor="start" x="645.03" y="-599.6" font-family="Arial" font-size="14.00">    </text>
<text text-anchor="start" x="676.14" y="-599.6" font-family="Arial" font-size="14.00" fill="#666666">[BASE TABLE]</text>
<polygon fill="none" stroke="black" points="543.14,-555.4 543.14,-586.2 792.91,-586.2 792.91,-555.4 543.14,-555.4"/>
<text text-anchor="start" x="550.14" y="-567.6" font-family="Arial" font-size="14.00">id </text>
<text text-anchor="start" x="564.93" y="-567.6" font-family="Arial" font-size="14.00" fill="#666666">[bigint]</text>
<polygon fill="none" stroke="black" points="543.14,-524.6 543.14,-555.4 792.91,-555.4 792.91,-524.6 543.14,-524.6"/>
<text text-anchor="start" x="550.14" y="-536.8" font-family="Arial" font-size="14.00">name </text>
<text text-anchor="start" x="589.05" y="-536.8" font-family="Arial" font-size="14.00" fill="#666666">[text]</text>
<polygon fill="none" stroke="black" points="543.14,-493.8 543.14,-524.6 792.91,-524.6 792.91,-493.8 543.14,-493.8"/>
<text text-anchor="start" x="550.14" y="-506" font-family="Arial" font-size="14.00">created_at </text>
<text text-anchor="start" x="620.19" y="-506" font-family="Arial" font-size="14.00" fill="#666666">[timestamp with time zone]</text>
</g>
<!-- public.node_tags&#45;&gt;public.tags -->
<g id="edge2" class="edge">
<title>public.node_tags:tag_id&#45;&gt;public.tags:id</title>
<path fill="none" stroke="black" d="M626.63,-928.47C761.44,-913.09 383.2,-570.8 542.14,-570.8"/>
<polygon fill="black" stroke="black" points="626.83,-928.46 616.61,-924.49 621.5,-928.74 617.18,-928.96 617.18,-928.96 617.18,-928.96 621.5,-928.74 617.08,-933.48 626.83,-928.46"/>
<text text-anchor="start" x="286.65" y="-939" font-family="Arial" font-size="10.00">FOREIGN KEY (tag_id) REFERENCES tags(id) ON DELETE CASCADE</text>
</g>
<!-- public.schema_migrations -->
<g id="node2" class="node">
<title>public.schema_migrations</title>
<polygon fill="#efefef" stroke="none" points="720.06,-959.8 720.06,-995.4 1048,-995.4 1048,-959.8 720.06,-959.8"/>
<polygon fill="none" stroke="black" points="720.06,-959.8 720.06,-995.4 1048,-995.4 1048,-959.8 720.06,-959.8"/>
<text text-anchor="start" x="727.06" y="-973.2" font-family="Arial Bold" font-size="18.00">public.schema_migrations</text>
<text text-anchor="start" x="916.51" y="-973.2" font-family="Arial" font-size="14.00">    </text>
<text text-anchor="start" x="947.63" y="-973.2" font-family="Arial" font-size="14.00" fill="#666666">[BASE TABLE]</text>
<polygon fill="none" stroke="black" points="720.06,-929 720.06,-959.8 1048,-959.8 1048,-929 720.06,-929"/>
<text text-anchor="start" x="727.06" y="-941.2" font-family="Arial" font-size="14.00">version </text>
<text text-anchor="start" x="776.08" y="-941.2" font-family="Arial" font-size="14.00" fill="#666666">[varchar]</text>
</g>
<!-- public.robots -->
<g id="node3" class="node">
<title>public.robots</title>
<polygon fill="#efefef" stroke="none" points="178.14,-197.2 178.14,-232.8 427.91,-232.8 427.91,-197.2 178.14,-197.2"/>
<polygon fill="none" stroke="black" points="178.14,-197.2 178.14,-232.8 427.91,-232.8 427.91,-197.2 178.14,-197.2"/>
<text text-anchor="start" x="193.54" y="-210.6" font-family="Arial Bold" font-size="18.00">public.robots</text>
<text text-anchor="start" x="288.03" y="-210.6" font-family="Arial" font-size="14.00">    </text>
<text text-anchor="start" x="319.15" y="-210.6" font-family="Arial" font-size="14.00" fill="#666666">[BASE TABLE]</text>
<polygon fill="none" stroke="black" points="178.14,-166.4 178.14,-197.2 427.91,-197.2 427.91,-166.4 178.14,-166.4"/>
<text text-anchor="start" x="185.14" y="-178.6" font-family="Arial" font-size="14.00">id </text>
<text text-anchor="start" x="199.93" y="-178.6" font-family="Arial" font-size="14.00" fill="#666666">[bigint]</text>
<polygon fill="none" stroke="black" points="178.14,-135.6 178.14,-166.4 427.91,-166.4 427.91,-135.6 178.14,-135.6"/>
<text text-anchor="start" x="185.14" y="-147.8" font-family="Arial" font-size="14.00">name </text>
<text text-anchor="start" x="224.05" y="-147.8" font-family="Arial" font-size="14.00" fill="#666666">[text]</text>
<polygon fill="none" stroke="black" points="178.14,-104.8 178.14,-135.6 427.91,-135.6 427.91,-104.8 178.14,-104.8"/>
<text text-anchor="start" x="185.14" y="-117" font-family="Arial" font-size="14.00">created_at </text>
<text text-anchor="start" x="255.19" y="-117" font-family="Arial" font-size="14.00" fill="#666666">[timestamp with time zone]</text>
<polygon fill="none" stroke="black" points="178.14,-74 178.14,-104.8 427.91,-104.8 427.91,-74 178.14,-74"/>
<text text-anchor="start" x="185.14" y="-86.2" font-family="Arial" font-size="14.00">last_active </text>
<text text-anchor="start" x="255.18" y="-86.2" font-family="Arial" font-size="14.00" fill="#666666">[timestamp with time zone]</text>
<polygon fill="none" stroke="black" points="178.14,-43.2 178.14,-74 427.91,-74 427.91,-43.2 178.14,-43.2"/>
<text text-anchor="start" x="185.14" y="-55.4" font-family="Arial" font-size="14.00">metadata </text>
<text text-anchor="start" x="247.4" y="-55.4" font-family="Arial" font-size="14.00" fill="#666666">[jsonb]</text>
</g>
<!-- public.nodes&#45;&gt;public.robots -->
<g id="edge3" class="edge">
<title>public.nodes:robot_id&#45;&gt;public.robots:id</title>
<path fill="none" stroke="black" d="M450.13,-429.21C494.26,-400.96 481.02,-181.8 428.91,-181.8"/>
<polygon fill="black" stroke="black" points="450.09,-429.23 439.22,-427.79 444.98,-430.76 440.83,-432.01 440.83,-432.01 440.83,-432.01 444.98,-430.76 441.81,-436.41 450.09,-429.23"/>
<text text-anchor="start" x="447.19" y="-416.2" font-family="Arial" font-size="10.00">FOREIGN KEY (robot_id) REFERENCES robots(id) ON DELETE CASCADE</text>
</g>
</g>
</svg>
