<?xml version="1.0" encoding="UTF-8" standalone="no"?>
<!DOCTYPE svg PUBLIC "-//W3C//DTD SVG 1.1//EN"
 "http://www.w3.org/Graphics/SVG/1.1/DTD/svg11.dtd">
<!-- Generated by graphviz version 12.1.2 (20240928.0832)
 -->
<!-- Title: htm_development Pages: 1 -->
<svg width="2270pt" height="1216pt"
 viewBox="0.00 0.00 2269.95 1216.00" xmlns="http://www.w3.org/2000/svg" xmlns:xlink="http://www.w3.org/1999/xlink">
<g id="graph0" class="graph" transform="scale(1 1) rotate(0) translate(4 1212)">
<title>htm_development</title>
<polygon fill="white" stroke="none" points="-4,4 -4,-1212 2265.95,-1212 2265.95,4 -4,4"/>
<!-- public.schema_migrations -->
<g id="node1" class="node">
<title>public.schema_migrations</title>
<polygon fill="#efefef" stroke="none" points="43.2,-1052.2 43.2,-1087.8 371.15,-1087.8 371.15,-1052.2 43.2,-1052.2"/>
<polygon fill="none" stroke="black" points="43.2,-1052.2 43.2,-1087.8 371.15,-1087.8 371.15,-1052.2 43.2,-1052.2"/>
<text text-anchor="start" x="50.2" y="-1065.6" font-family="Arial Bold" font-size="18.00">public.schema_migrations</text>
<text text-anchor="start" x="239.66" y="-1065.6" font-family="Arial" font-size="14.00">    </text>
<text text-anchor="start" x="270.77" y="-1065.6" font-family="Arial" font-size="14.00" fill="#666666">[BASE TABLE]</text>
<polygon fill="none" stroke="black" points="43.2,-1021.4 43.2,-1052.2 371.15,-1052.2 371.15,-1021.4 43.2,-1021.4"/>
<text text-anchor="start" x="50.2" y="-1033.6" font-family="Arial" font-size="14.00">version </text>
<text text-anchor="start" x="99.22" y="-1033.6" font-family="Arial" font-size="14.00" fill="#666666">[varchar]</text>
</g>
<!-- public.robots -->
<g id="node2" class="node">
<title>public.robots</title>
<polygon fill="#efefef" stroke="none" points="475.29,-197.2 475.29,-232.8 725.06,-232.8 725.06,-197.2 475.29,-197.2"/>
<polygon fill="none" stroke="black" points="475.29,-197.2 475.29,-232.8 725.06,-232.8 725.06,-197.2 475.29,-197.2"/>
<text text-anchor="start" x="490.68" y="-210.6" font-family="Arial Bold" font-size="18.00">public.robots</text>
<text text-anchor="start" x="585.17" y="-210.6" font-family="Arial" font-size="14.00">    </text>
<text text-anchor="start" x="616.29" y="-210.6" font-family="Arial" font-size="14.00" fill="#666666">[BASE TABLE]</text>
<polygon fill="none" stroke="black" points="475.29,-166.4 475.29,-197.2 725.06,-197.2 725.06,-166.4 475.29,-166.4"/>
<text text-anchor="start" x="482.29" y="-178.6" font-family="Arial" font-size="14.00">id </text>
<text text-anchor="start" x="497.07" y="-178.6" font-family="Arial" font-size="14.00" fill="#666666">[text]</text>
<polygon fill="none" stroke="black" points="475.29,-135.6 475.29,-166.4 725.06,-166.4 725.06,-135.6 475.29,-135.6"/>
<text text-anchor="start" x="482.29" y="-147.8" font-family="Arial" font-size="14.00">name </text>
<text text-anchor="start" x="521.2" y="-147.8" font-family="Arial" font-size="14.00" fill="#666666">[text]</text>
<polygon fill="none" stroke="black" points="475.29,-104.8 475.29,-135.6 725.06,-135.6 725.06,-104.8 475.29,-104.8"/>
<text text-anchor="start" x="482.29" y="-117" font-family="Arial" font-size="14.00">created_at </text>
<text text-anchor="start" x="552.34" y="-117" font-family="Arial" font-size="14.00" fill="#666666">[timestamp with time zone]</text>
<polygon fill="none" stroke="black" points="475.29,-74 475.29,-104.8 725.06,-104.8 725.06,-74 475.29,-74"/>
<text text-anchor="start" x="482.29" y="-86.2" font-family="Arial" font-size="14.00">last_active </text>
<text text-anchor="start" x="552.32" y="-86.2" font-family="Arial" font-size="14.00" fill="#666666">[timestamp with time zone]</text>
<polygon fill="none" stroke="black" points="475.29,-43.2 475.29,-74 725.06,-74 725.06,-43.2 475.29,-43.2"/>
<text text-anchor="start" x="482.29" y="-55.4" font-family="Arial" font-size="14.00">metadata </text>
<text text-anchor="start" x="544.55" y="-55.4" font-family="Arial" font-size="14.00" fill="#666666">[jsonb]</text>
</g>
<!-- public.nodes -->
<g id="node3" class="node">
<title>public.nodes</title>
<polygon fill="#efefef" stroke="none" points="464.01,-786.4 464.01,-822 736.34,-822 736.34,-786.4 464.01,-786.4"/>
<polygon fill="none" stroke="black" points="464.01,-786.4 464.01,-822 736.34,-822 736.34,-786.4 464.01,-786.4"/>
<text text-anchor="start" x="492.19" y="-799.8" font-family="Arial Bold" font-size="18.00">public.nodes</text>
<text text-anchor="start" x="583.67" y="-799.8" font-family="Arial" font-size="14.00">    </text>
<text text-anchor="start" x="614.79" y="-799.8" font-family="Arial" font-size="14.00" fill="#666666">[BASE TABLE]</text>
<polygon fill="none" stroke="black" points="464.01,-755.6 464.01,-786.4 736.34,-786.4 736.34,-755.6 464.01,-755.6"/>
<text text-anchor="start" x="471.01" y="-767.8" font-family="Arial" font-size="14.00">id </text>
<text text-anchor="start" x="485.79" y="-767.8" font-family="Arial" font-size="14.00" fill="#666666">[bigint]</text>
<polygon fill="none" stroke="black" points="464.01,-724.8 464.01,-755.6 736.34,-755.6 736.34,-724.8 464.01,-724.8"/>
<text text-anchor="start" x="471.01" y="-737" font-family="Arial" font-size="14.00">content </text>
<text text-anchor="start" x="520.82" y="-737" font-family="Arial" font-size="14.00" fill="#666666">[text]</text>
<polygon fill="none" stroke="black" points="464.01,-694 464.01,-724.8 736.34,-724.8 736.34,-694 464.01,-694"/>
<text text-anchor="start" x="471.01" y="-706.2" font-family="Arial" font-size="14.00">speaker </text>
<text text-anchor="start" x="524.7" y="-706.2" font-family="Arial" font-size="14.00" fill="#666666">[text]</text>
<polygon fill="none" stroke="black" points="464.01,-663.2 464.01,-694 736.34,-694 736.34,-663.2 464.01,-663.2"/>
<text text-anchor="start" x="471.01" y="-675.4" font-family="Arial" font-size="14.00">type </text>
<text text-anchor="start" x="501.36" y="-675.4" font-family="Arial" font-size="14.00" fill="#666666">[text]</text>
<polygon fill="none" stroke="black" points="464.01,-632.4 464.01,-663.2 736.34,-663.2 736.34,-632.4 464.01,-632.4"/>
<text text-anchor="start" x="471.01" y="-644.6" font-family="Arial" font-size="14.00">category </text>
<text text-anchor="start" x="528.59" y="-644.6" font-family="Arial" font-size="14.00" fill="#666666">[text]</text>
<polygon fill="none" stroke="black" points="464.01,-601.6 464.01,-632.4 736.34,-632.4 736.34,-601.6 464.01,-601.6"/>
<text text-anchor="start" x="471.01" y="-613.8" font-family="Arial" font-size="14.00">importance </text>
<text text-anchor="start" x="544.15" y="-613.8" font-family="Arial" font-size="14.00" fill="#666666">[double precision]</text>
<polygon fill="none" stroke="black" points="464.01,-570.8 464.01,-601.6 736.34,-601.6 736.34,-570.8 464.01,-570.8"/>
<text text-anchor="start" x="471.01" y="-583" font-family="Arial" font-size="14.00">created_at </text>
<text text-anchor="start" x="541.06" y="-583" font-family="Arial" font-size="14.00" fill="#666666">[timestamp with time zone]</text>
<polygon fill="none" stroke="black" points="464.01,-540 464.01,-570.8 736.34,-570.8 736.34,-540 464.01,-540"/>
<text text-anchor="start" x="471.01" y="-552.2" font-family="Arial" font-size="14.00">updated_at </text>
<text text-anchor="start" x="544.97" y="-552.2" font-family="Arial" font-size="14.00" fill="#666666">[timestamp with time zone]</text>
<polygon fill="none" stroke="black" points="464.01,-509.2 464.01,-540 736.34,-540 736.34,-509.2 464.01,-509.2"/>
<text text-anchor="start" x="471.01" y="-521.4" font-family="Arial" font-size="14.00">last_accessed </text>
<text text-anchor="start" x="563.61" y="-521.4" font-family="Arial" font-size="14.00" fill="#666666">[timestamp with time zone]</text>
<polygon fill="none" stroke="black" points="464.01,-478.4 464.01,-509.2 736.34,-509.2 736.34,-478.4 464.01,-478.4"/>
<text text-anchor="start" x="471.01" y="-490.6" font-family="Arial" font-size="14.00">token_count </text>
<text text-anchor="start" x="551.18" y="-490.6" font-family="Arial" font-size="14.00" fill="#666666">[integer]</text>
<polygon fill="none" stroke="black" points="464.01,-447.6 464.01,-478.4 736.34,-478.4 736.34,-447.6 464.01,-447.6"/>
<text text-anchor="start" x="471.01" y="-459.8" font-family="Arial" font-size="14.00">in_working_memory </text>
<text text-anchor="start" x="600.17" y="-459.8" font-family="Arial" font-size="14.00" fill="#666666">[boolean]</text>
<polygon fill="none" stroke="black" points="464.01,-416.8 464.01,-447.6 736.34,-447.6 736.34,-416.8 464.01,-416.8"/>
<text text-anchor="start" x="471.01" y="-429" font-family="Arial" font-size="14.00">robot_id </text>
<text text-anchor="start" x="525.49" y="-429" font-family="Arial" font-size="14.00" fill="#666666">[text]</text>
<polygon fill="none" stroke="black" points="464.01,-386 464.01,-416.8 736.34,-416.8 736.34,-386 464.01,-386"/>
<text text-anchor="start" x="471.01" y="-398.2" font-family="Arial" font-size="14.00">embedding </text>
<text text-anchor="start" x="544.17" y="-398.2" font-family="Arial" font-size="14.00" fill="#666666">[vector(2000)]</text>
<polygon fill="none" stroke="black" points="464.01,-355.2 464.01,-386 736.34,-386 736.34,-355.2 464.01,-355.2"/>
<text text-anchor="start" x="471.01" y="-367.4" font-family="Arial" font-size="14.00">embedding_dimension </text>
<text text-anchor="start" x="615.77" y="-367.4" font-family="Arial" font-size="14.00" fill="#666666">[integer]</text>
</g>
<!-- public.nodes&#45;&gt;public.robots -->
<g id="edge1" class="edge">
<title>public.nodes:robot_id&#45;&gt;public.robots:id</title>
<path fill="none" stroke="black" d="M747.73,-431.44C847.91,-416.32 833.87,-181.8 726.06,-181.8"/>
<polygon fill="black" stroke="black" points="747.64,-431.44 737.34,-427.69 742.32,-431.83 738.01,-432.15 738.01,-432.15 738.01,-432.15 742.32,-431.83 738,-436.66 747.64,-431.44"/>
<text text-anchor="start" x="744.34" y="-442.2" font-family="Arial" font-size="10.00">FOREIGN KEY (robot_id) REFERENCES robots(id) ON DELETE CASCADE</text>
</g>
<!-- public.tags -->
<g id="node4" class="node">
<title>public.tags</title>
<polygon fill="#efefef" stroke="none" points="475.29,-1098.4 475.29,-1134 725.06,-1134 725.06,-1098.4 475.29,-1098.4"/>
<polygon fill="none" stroke="black" points="475.29,-1098.4 475.29,-1134 725.06,-1134 725.06,-1098.4 475.29,-1098.4"/>
<text text-anchor="start" x="498.69" y="-1111.8" font-family="Arial Bold" font-size="18.00">public.tags</text>
<text text-anchor="start" x="577.17" y="-1111.8" font-family="Arial" font-size="14.00">    </text>
<text text-anchor="start" x="608.29" y="-1111.8" font-family="Arial" font-size="14.00" fill="#666666">[BASE TABLE]</text>
<polygon fill="none" stroke="black" points="475.29,-1067.6 475.29,-1098.4 725.06,-1098.4 725.06,-1067.6 475.29,-1067.6"/>
<text text-anchor="start" x="482.29" y="-1079.8" font-family="Arial" font-size="14.00">id </text>
<text text-anchor="start" x="497.07" y="-1079.8" font-family="Arial" font-size="14.00" fill="#666666">[bigint]</text>
<polygon fill="none" stroke="black" points="475.29,-1036.8 475.29,-1067.6 725.06,-1067.6 725.06,-1036.8 475.29,-1036.8"/>
<text text-anchor="start" x="482.29" y="-1049" font-family="Arial" font-size="14.00">node_id </text>
<text text-anchor="start" x="536" y="-1049" font-family="Arial" font-size="14.00" fill="#666666">[bigint]</text>
<polygon fill="none" stroke="black" points="475.29,-1006 475.29,-1036.8 725.06,-1036.8 725.06,-1006 475.29,-1006"/>
<text text-anchor="start" x="482.29" y="-1018.2" font-family="Arial" font-size="14.00">tag </text>
<text text-anchor="start" x="505.64" y="-1018.2" font-family="Arial" font-size="14.00" fill="#666666">[text]</text>
<polygon fill="none" stroke="black" points="475.29,-975.2 475.29,-1006 725.06,-1006 725.06,-975.2 475.29,-975.2"/>
<text text-anchor="start" x="482.29" y="-987.4" font-family="Arial" font-size="14.00">created_at </text>
<text text-anchor="start" x="552.34" y="-987.4" font-family="Arial" font-size="14.00" fill="#666666">[timestamp with time zone]</text>
</g>
<!-- public.tags&#45;&gt;public.nodes -->
<g id="edge2" class="edge">
<title>public.tags:node_id&#45;&gt;public.nodes:id</title>
<path fill="none" stroke="black" d="M733.99,-1045.8C759.01,-1003.94 765.8,-771 737.34,-771"/>
<polygon fill="black" stroke="black" points="734.1,-1045.71 723.49,-1048.49 729.95,-1049.06 726.58,-1051.78 726.58,-1051.78 726.58,-1051.78 729.95,-1049.06 729.15,-1055.49 734.1,-1045.71"/>
<text text-anchor="start" x="379.51" y="-1062.2" font-family="Arial" font-size="10.00">FOREIGN KEY (node_id) REFERENCES nodes(id) ON DELETE CASCADE</text>
</g>
<!-- public.node_stats -->
<g id="node5" class="node">
<title>public.node_stats</title>
<polygon fill="#efefef" stroke="none" points="829.19,-1129.2 829.19,-1164.8 1057.16,-1164.8 1057.16,-1129.2 829.19,-1129.2"/>
<polygon fill="none" stroke="black" points="829.19,-1129.2 829.19,-1164.8 1057.16,-1164.8 1057.16,-1129.2 829.19,-1129.2"/>
<text text-anchor="start" x="843.09" y="-1142.6" font-family="Arial Bold" font-size="18.00">public.node_stats</text>
<text text-anchor="start" x="968.58" y="-1142.6" font-family="Arial" font-size="14.00">    </text>
<text text-anchor="start" x="999.69" y="-1142.6" font-family="Arial" font-size="14.00" fill="#666666">[VIEW]</text>
<polygon fill="none" stroke="black" points="829.19,-1098.4 829.19,-1129.2 1057.16,-1129.2 1057.16,-1098.4 829.19,-1098.4"/>
<text text-anchor="start" x="836.19" y="-1110.6" font-family="Arial" font-size="14.00">type </text>
<text text-anchor="start" x="866.54" y="-1110.6" font-family="Arial" font-size="14.00" fill="#666666">[text]</text>
<polygon fill="none" stroke="black" points="829.19,-1067.6 829.19,-1098.4 1057.16,-1098.4 1057.16,-1067.6 829.19,-1067.6"/>
<text text-anchor="start" x="836.19" y="-1079.8" font-family="Arial" font-size="14.00">count </text>
<text text-anchor="start" x="874.33" y="-1079.8" font-family="Arial" font-size="14.00" fill="#666666">[bigint]</text>
<polygon fill="none" stroke="black" points="829.19,-1036.8 829.19,-1067.6 1057.16,-1067.6 1057.16,-1036.8 829.19,-1036.8"/>
<text text-anchor="start" x="836.19" y="-1049" font-family="Arial" font-size="14.00">avg_importance </text>
<text text-anchor="start" x="939.69" y="-1049" font-family="Arial" font-size="14.00" fill="#666666">[double precision]</text>
<polygon fill="none" stroke="black" points="829.19,-1006 829.19,-1036.8 1057.16,-1036.8 1057.16,-1006 829.19,-1006"/>
<text text-anchor="start" x="836.19" y="-1018.2" font-family="Arial" font-size="14.00">total_tokens </text>
<text text-anchor="start" x="915.57" y="-1018.2" font-family="Arial" font-size="14.00" fill="#666666">[bigint]</text>
<polygon fill="none" stroke="black" points="829.19,-975.2 829.19,-1006 1057.16,-1006 1057.16,-975.2 829.19,-975.2"/>
<text text-anchor="start" x="836.19" y="-987.4" font-family="Arial" font-size="14.00">oldest </text>
<text text-anchor="start" x="877.44" y="-987.4" font-family="Arial" font-size="14.00" fill="#666666">[timestamp with time zone]</text>
<polygon fill="none" stroke="black" points="829.19,-944.4 829.19,-975.2 1057.16,-975.2 1057.16,-944.4 829.19,-944.4"/>
<text text-anchor="start" x="836.19" y="-956.6" font-family="Arial" font-size="14.00">newest </text>
<text text-anchor="start" x="884.44" y="-956.6" font-family="Arial" font-size="14.00" fill="#666666">[timestamp with time zone]</text>
</g>
<!-- public.robot_activity -->
<g id="node6" class="node">
<title>public.robot_activity</title>
<polygon fill="#efefef" stroke="none" points="1161.77,-1098.4 1161.77,-1134 1460.58,-1134 1460.58,-1098.4 1161.77,-1098.4"/>
<polygon fill="none" stroke="black" points="1161.77,-1098.4 1161.77,-1134 1460.58,-1134 1460.58,-1098.4 1161.77,-1098.4"/>
<text text-anchor="start" x="1198.6" y="-1111.8" font-family="Arial Bold" font-size="18.00">public.robot_activity</text>
<text text-anchor="start" x="1349.07" y="-1111.8" font-family="Arial" font-size="14.00">    </text>
<text text-anchor="start" x="1380.19" y="-1111.8" font-family="Arial" font-size="14.00" fill="#666666">[VIEW]</text>
<polygon fill="none" stroke="black" points="1161.77,-1067.6 1161.77,-1098.4 1460.58,-1098.4 1460.58,-1067.6 1161.77,-1067.6"/>
<text text-anchor="start" x="1168.77" y="-1079.8" font-family="Arial" font-size="14.00">id </text>
<text text-anchor="start" x="1183.55" y="-1079.8" font-family="Arial" font-size="14.00" fill="#666666">[text]</text>
<polygon fill="none" stroke="black" points="1161.77,-1036.8 1161.77,-1067.6 1460.58,-1067.6 1460.58,-1036.8 1161.77,-1036.8"/>
<text text-anchor="start" x="1168.77" y="-1049" font-family="Arial" font-size="14.00">name </text>
<text text-anchor="start" x="1207.68" y="-1049" font-family="Arial" font-size="14.00" fill="#666666">[text]</text>
<polygon fill="none" stroke="black" points="1161.77,-1006 1161.77,-1036.8 1460.58,-1036.8 1460.58,-1006 1161.77,-1006"/>
<text text-anchor="start" x="1168.77" y="-1018.2" font-family="Arial" font-size="14.00">total_nodes </text>
<text text-anchor="start" x="1245.05" y="-1018.2" font-family="Arial" font-size="14.00" fill="#666666">[bigint]</text>
<polygon fill="none" stroke="black" points="1161.77,-975.2 1161.77,-1006 1460.58,-1006 1460.58,-975.2 1161.77,-975.2"/>
<text text-anchor="start" x="1168.77" y="-987.4" font-family="Arial" font-size="14.00">last_node_created </text>
<text text-anchor="start" x="1287.86" y="-987.4" font-family="Arial" font-size="14.00" fill="#666666">[timestamp with time zone]</text>
</g>
<!-- public.ontology_structure -->
<g id="node7" class="node">
<title>public.ontology_structure</title>
<polygon fill="#efefef" stroke="none" points="1565.1,-1113.8 1565.1,-1149.4 1839.24,-1149.4 1839.24,-1113.8 1565.1,-1113.8"/>
<polygon fill="none" stroke="black" points="1565.1,-1113.8 1565.1,-1149.4 1839.24,-1149.4 1839.24,-1113.8 1565.1,-1113.8"/>
<text text-anchor="start" x="1572.1" y="-1127.2" font-family="Arial Bold" font-size="18.00">public.ontology_structure</text>
<text text-anchor="start" x="1757.57" y="-1127.2" font-family="Arial" font-size="14.00">    </text>
<text text-anchor="start" x="1788.69" y="-1127.2" font-family="Arial" font-size="14.00" fill="#666666">[VIEW]</text>
<polygon fill="none" stroke="black" points="1565.1,-1083 1565.1,-1113.8 1839.24,-1113.8 1839.24,-1083 1565.1,-1083"/>
<text text-anchor="start" x="1572.1" y="-1095.2" font-family="Arial" font-size="14.00">root_topic </text>
<text text-anchor="start" x="1637.47" y="-1095.2" font-family="Arial" font-size="14.00" fill="#666666">[text]</text>
<polygon fill="none" stroke="black" points="1565.1,-1052.2 1565.1,-1083 1839.24,-1083 1839.24,-1052.2 1565.1,-1052.2"/>
<text text-anchor="start" x="1572.1" y="-1064.4" font-family="Arial" font-size="14.00">level1_topic </text>
<text text-anchor="start" x="1649.93" y="-1064.4" font-family="Arial" font-size="14.00" fill="#666666">[text]</text>
<polygon fill="none" stroke="black" points="1565.1,-1021.4 1565.1,-1052.2 1839.24,-1052.2 1839.24,-1021.4 1565.1,-1021.4"/>
<text text-anchor="start" x="1572.1" y="-1033.6" font-family="Arial" font-size="14.00">level2_topic </text>
<text text-anchor="start" x="1649.93" y="-1033.6" font-family="Arial" font-size="14.00" fill="#666666">[text]</text>
<polygon fill="none" stroke="black" points="1565.1,-990.6 1565.1,-1021.4 1839.24,-1021.4 1839.24,-990.6 1565.1,-990.6"/>
<text text-anchor="start" x="1572.1" y="-1002.8" font-family="Arial" font-size="14.00">full_path </text>
<text text-anchor="start" x="1628.92" y="-1002.8" font-family="Arial" font-size="14.00" fill="#666666">[text]</text>
<polygon fill="none" stroke="black" points="1565.1,-959.8 1565.1,-990.6 1839.24,-990.6 1839.24,-959.8 1565.1,-959.8"/>
<text text-anchor="start" x="1572.1" y="-972" font-family="Arial" font-size="14.00">node_count </text>
<text text-anchor="start" x="1649.17" y="-972" font-family="Arial" font-size="14.00" fill="#666666">[bigint]</text>
</g>
<!-- public.topic_relationships -->
<g id="node8" class="node">
<title>public.topic_relationships</title>
<polygon fill="#efefef" stroke="none" points="1943.6,-1083 1943.6,-1118.6 2218.75,-1118.6 2218.75,-1083 1943.6,-1083"/>
<polygon fill="none" stroke="black" points="1943.6,-1083 1943.6,-1118.6 2218.75,-1118.6 2218.75,-1083 1943.6,-1083"/>
<text text-anchor="start" x="1950.6" y="-1096.4" font-family="Arial Bold" font-size="18.00">public.topic_relationships</text>
<text text-anchor="start" x="2137.07" y="-1096.4" font-family="Arial" font-size="14.00">    </text>
<text text-anchor="start" x="2168.19" y="-1096.4" font-family="Arial" font-size="14.00" fill="#666666">[VIEW]</text>
<polygon fill="none" stroke="black" points="1943.6,-1052.2 1943.6,-1083 2218.75,-1083 2218.75,-1052.2 1943.6,-1052.2"/>
<text text-anchor="start" x="1950.6" y="-1064.4" font-family="Arial" font-size="14.00">topic1 </text>
<text text-anchor="start" x="1991.85" y="-1064.4" font-family="Arial" font-size="14.00" fill="#666666">[text]</text>
<polygon fill="none" stroke="black" points="1943.6,-1021.4 1943.6,-1052.2 2218.75,-1052.2 2218.75,-1021.4 1943.6,-1021.4"/>
<text text-anchor="start" x="1950.6" y="-1033.6" font-family="Arial" font-size="14.00">topic2 </text>
<text text-anchor="start" x="1991.85" y="-1033.6" font-family="Arial" font-size="14.00" fill="#666666">[text]</text>
<polygon fill="none" stroke="black" points="1943.6,-990.6 1943.6,-1021.4 2218.75,-1021.4 2218.75,-990.6 1943.6,-990.6"/>
<text text-anchor="start" x="1950.6" y="-1002.8" font-family="Arial" font-size="14.00">shared_nodes </text>
<text text-anchor="start" x="2043.23" y="-1002.8" font-family="Arial" font-size="14.00" fill="#666666">[bigint]</text>
</g>
</g>
</svg>
