<?xml version="1.0" encoding="UTF-8" standalone="no"?>
<!DOCTYPE svg PUBLIC "-//W3C//DTD SVG 1.1//EN"
 "http://www.w3.org/Graphics/SVG/1.1/DTD/svg11.dtd">
<!-- Generated by graphviz version 12.1.2 (20240928.0832)
 -->
<!-- Title: htm_development Pages: 1 -->
<svg width="1106pt" height="1093pt"
 viewBox="0.00 0.00 1105.70 1092.80" xmlns="http://www.w3.org/2000/svg" xmlns:xlink="http://www.w3.org/1999/xlink">
<g id="graph0" class="graph" transform="scale(1 1) rotate(0) translate(4 1088.8)">
<title>htm_development</title>
<polygon fill="white" stroke="none" points="-4,4 -4,-1088.8 1101.7,-1088.8 1101.7,4 -4,4"/>
<!-- public.nodes_tags -->
<g id="node1" class="node">
<title>public.nodes_tags</title>
<polygon fill="#efefef" stroke="none" points="354.55,-1006 354.55,-1041.6 622.52,-1041.6 622.52,-1006 354.55,-1006"/>
<polygon fill="none" stroke="black" points="354.55,-1006 354.55,-1041.6 622.52,-1041.6 622.52,-1006 354.55,-1006"/>
<text text-anchor="start" x="361.55" y="-1019.4" font-family="Arial Bold" font-size="18.00">public.nodes_tags</text>
<text text-anchor="start" x="491.03" y="-1019.4" font-family="Arial" font-size="14.00">    </text>
<text text-anchor="start" x="522.14" y="-1019.4" font-family="Arial" font-size="14.00" fill="#666666">[BASE TABLE]</text>
<polygon fill="none" stroke="black" points="354.55,-975.2 354.55,-1006 622.52,-1006 622.52,-975.2 354.55,-975.2"/>
<text text-anchor="start" x="361.55" y="-987.4" font-family="Arial" font-size="14.00">id </text>
<text text-anchor="start" x="376.33" y="-987.4" font-family="Arial" font-size="14.00" fill="#666666">[bigint]</text>
<polygon fill="none" stroke="black" points="354.55,-944.4 354.55,-975.2 622.52,-975.2 622.52,-944.4 354.55,-944.4"/>
<text text-anchor="start" x="361.55" y="-956.6" font-family="Arial" font-size="14.00">node_id </text>
<text text-anchor="start" x="415.26" y="-956.6" font-family="Arial" font-size="14.00" fill="#666666">[bigint]</text>
<polygon fill="none" stroke="black" points="354.55,-913.6 354.55,-944.4 622.52,-944.4 622.52,-913.6 354.55,-913.6"/>
<text text-anchor="start" x="361.55" y="-925.8" font-family="Arial" font-size="14.00">tag_id </text>
<text text-anchor="start" x="403.58" y="-925.8" font-family="Arial" font-size="14.00" fill="#666666">[bigint]</text>
<polygon fill="none" stroke="black" points="354.55,-882.8 354.55,-913.6 622.52,-913.6 622.52,-882.8 354.55,-882.8"/>
<text text-anchor="start" x="361.55" y="-895" font-family="Arial" font-size="14.00">created_at </text>
<text text-anchor="start" x="431.59" y="-895" font-family="Arial" font-size="14.00" fill="#666666">[timestamp with time zone]</text>
</g>
<!-- public.nodes -->
<g id="node4" class="node">
<title>public.nodes</title>
<polygon fill="#efefef" stroke="none" points="170.37,-724.8 170.37,-760.4 442.7,-760.4 442.7,-724.8 170.37,-724.8"/>
<polygon fill="none" stroke="black" points="170.37,-724.8 170.37,-760.4 442.7,-760.4 442.7,-724.8 170.37,-724.8"/>
<text text-anchor="start" x="198.54" y="-738.2" font-family="Arial Bold" font-size="18.00">public.nodes</text>
<text text-anchor="start" x="290.03" y="-738.2" font-family="Arial" font-size="14.00">    </text>
<text text-anchor="start" x="321.15" y="-738.2" font-family="Arial" font-size="14.00" fill="#666666">[BASE TABLE]</text>
<polygon fill="none" stroke="black" points="170.37,-694 170.37,-724.8 442.7,-724.8 442.7,-694 170.37,-694"/>
<text text-anchor="start" x="177.37" y="-706.2" font-family="Arial" font-size="14.00">id </text>
<text text-anchor="start" x="192.15" y="-706.2" font-family="Arial" font-size="14.00" fill="#666666">[bigint]</text>
<polygon fill="none" stroke="black" points="170.37,-663.2 170.37,-694 442.7,-694 442.7,-663.2 170.37,-663.2"/>
<text text-anchor="start" x="177.37" y="-675.4" font-family="Arial" font-size="14.00">content </text>
<text text-anchor="start" x="227.18" y="-675.4" font-family="Arial" font-size="14.00" fill="#666666">[text]</text>
<polygon fill="none" stroke="black" points="170.37,-632.4 170.37,-663.2 442.7,-663.2 442.7,-632.4 170.37,-632.4"/>
<text text-anchor="start" x="177.37" y="-644.6" font-family="Arial" font-size="14.00">source </text>
<text text-anchor="start" x="223.28" y="-644.6" font-family="Arial" font-size="14.00" fill="#666666">[text]</text>
<polygon fill="none" stroke="black" points="170.37,-601.6 170.37,-632.4 442.7,-632.4 442.7,-601.6 170.37,-601.6"/>
<text text-anchor="start" x="177.37" y="-613.8" font-family="Arial" font-size="14.00">access_count </text>
<text text-anchor="start" x="266.86" y="-613.8" font-family="Arial" font-size="14.00" fill="#666666">[integer]</text>
<polygon fill="none" stroke="black" points="170.37,-570.8 170.37,-601.6 442.7,-601.6 442.7,-570.8 170.37,-570.8"/>
<text text-anchor="start" x="177.37" y="-583" font-family="Arial" font-size="14.00">created_at </text>
<text text-anchor="start" x="247.41" y="-583" font-family="Arial" font-size="14.00" fill="#666666">[timestamp with time zone]</text>
<polygon fill="none" stroke="black" points="170.37,-540 170.37,-570.8 442.7,-570.8 442.7,-540 170.37,-540"/>
<text text-anchor="start" x="177.37" y="-552.2" font-family="Arial" font-size="14.00">updated_at </text>
<text text-anchor="start" x="251.32" y="-552.2" font-family="Arial" font-size="14.00" fill="#666666">[timestamp with time zone]</text>
<polygon fill="none" stroke="black" points="170.37,-509.2 170.37,-540 442.7,-540 442.7,-509.2 170.37,-509.2"/>
<text text-anchor="start" x="177.37" y="-521.4" font-family="Arial" font-size="14.00">last_accessed </text>
<text text-anchor="start" x="269.97" y="-521.4" font-family="Arial" font-size="14.00" fill="#666666">[timestamp with time zone]</text>
<polygon fill="none" stroke="black" points="170.37,-478.4 170.37,-509.2 442.7,-509.2 442.7,-478.4 170.37,-478.4"/>
<text text-anchor="start" x="177.37" y="-490.6" font-family="Arial" font-size="14.00">token_count </text>
<text text-anchor="start" x="257.54" y="-490.6" font-family="Arial" font-size="14.00" fill="#666666">[integer]</text>
<polygon fill="none" stroke="black" points="170.37,-447.6 170.37,-478.4 442.7,-478.4 442.7,-447.6 170.37,-447.6"/>
<text text-anchor="start" x="177.37" y="-459.8" font-family="Arial" font-size="14.00">in_working_memory </text>
<text text-anchor="start" x="306.52" y="-459.8" font-family="Arial" font-size="14.00" fill="#666666">[boolean]</text>
<polygon fill="none" stroke="black" points="170.37,-416.8 170.37,-447.6 442.7,-447.6 442.7,-416.8 170.37,-416.8"/>
<text text-anchor="start" x="177.37" y="-429" font-family="Arial" font-size="14.00">robot_id </text>
<text text-anchor="start" x="231.85" y="-429" font-family="Arial" font-size="14.00" fill="#666666">[bigint]</text>
<polygon fill="none" stroke="black" points="170.37,-386 170.37,-416.8 442.7,-416.8 442.7,-386 170.37,-386"/>
<text text-anchor="start" x="177.37" y="-398.2" font-family="Arial" font-size="14.00">embedding </text>
<text text-anchor="start" x="250.53" y="-398.2" font-family="Arial" font-size="14.00" fill="#666666">[vector(2000)]</text>
<polygon fill="none" stroke="black" points="170.37,-355.2 170.37,-386 442.7,-386 442.7,-355.2 170.37,-355.2"/>
<text text-anchor="start" x="177.37" y="-367.4" font-family="Arial" font-size="14.00">embedding_dimension </text>
<text text-anchor="start" x="322.13" y="-367.4" font-family="Arial" font-size="14.00" fill="#666666">[integer]</text>
</g>
<!-- public.nodes_tags&#45;&gt;public.nodes -->
<g id="edge1" class="edge">
<title>public.nodes_tags:node_id&#45;&gt;public.nodes:id</title>
<path fill="none" stroke="black" d="M343.41,-958.71C303.59,-949.27 326.68,-880.71 354.55,-839.6 378.29,-804.57 418.91,-838.6 442.7,-803.6 466.23,-768.97 485.56,-709.4 443.7,-709.4"/>
<polygon fill="black" stroke="black" points="343.27,-958.7 352.73,-964.24 348.57,-959.27 352.88,-959.73 352.88,-959.73 352.88,-959.73 348.57,-959.27 353.69,-955.29 343.27,-958.7"/>
<text text-anchor="start" x="7" y="-969.8" font-family="Arial" font-size="10.00">FOREIGN KEY (node_id) REFERENCES nodes(id) ON DELETE CASCADE</text>
</g>
<!-- public.tags -->
<g id="node5" class="node">
<title>public.tags</title>
<polygon fill="#efefef" stroke="none" points="546.65,-586.2 546.65,-621.8 796.42,-621.8 796.42,-586.2 546.65,-586.2"/>
<polygon fill="none" stroke="black" points="546.65,-586.2 546.65,-621.8 796.42,-621.8 796.42,-586.2 546.65,-586.2"/>
<text text-anchor="start" x="570.04" y="-599.6" font-family="Arial Bold" font-size="18.00">public.tags</text>
<text text-anchor="start" x="648.53" y="-599.6" font-family="Arial" font-size="14.00">    </text>
<text text-anchor="start" x="679.65" y="-599.6" font-family="Arial" font-size="14.00" fill="#666666">[BASE TABLE]</text>
<polygon fill="none" stroke="black" points="546.65,-555.4 546.65,-586.2 796.42,-586.2 796.42,-555.4 546.65,-555.4"/>
<text text-anchor="start" x="553.65" y="-567.6" font-family="Arial" font-size="14.00">id </text>
<text text-anchor="start" x="568.43" y="-567.6" font-family="Arial" font-size="14.00" fill="#666666">[bigint]</text>
<polygon fill="none" stroke="black" points="546.65,-524.6 546.65,-555.4 796.42,-555.4 796.42,-524.6 546.65,-524.6"/>
<text text-anchor="start" x="553.65" y="-536.8" font-family="Arial" font-size="14.00">name </text>
<text text-anchor="start" x="592.56" y="-536.8" font-family="Arial" font-size="14.00" fill="#666666">[text]</text>
<polygon fill="none" stroke="black" points="546.65,-493.8 546.65,-524.6 796.42,-524.6 796.42,-493.8 546.65,-493.8"/>
<text text-anchor="start" x="553.65" y="-506" font-family="Arial" font-size="14.00">created_at </text>
<text text-anchor="start" x="623.69" y="-506" font-family="Arial" font-size="14.00" fill="#666666">[timestamp with time zone]</text>
</g>
<!-- public.nodes_tags&#45;&gt;public.tags -->
<g id="edge2" class="edge">
<title>public.nodes_tags:tag_id&#45;&gt;public.tags:id</title>
<path fill="none" stroke="black" d="M633.65,-928.47C768.58,-913.09 386.39,-570.8 545.65,-570.8"/>
<polygon fill="black" stroke="black" points="633.84,-928.46 623.61,-924.49 628.51,-928.74 624.18,-928.96 624.18,-928.96 624.18,-928.96 628.51,-928.74 624.09,-933.48 633.84,-928.46"/>
<text text-anchor="start" x="293.66" y="-939" font-family="Arial" font-size="10.00">FOREIGN KEY (tag_id) REFERENCES tags(id) ON DELETE CASCADE</text>
</g>
<!-- public.schema_migrations -->
<g id="node2" class="node">
<title>public.schema_migrations</title>
<polygon fill="#efefef" stroke="none" points="726.56,-959.8 726.56,-995.4 1054.5,-995.4 1054.5,-959.8 726.56,-959.8"/>
<polygon fill="none" stroke="black" points="726.56,-959.8 726.56,-995.4 1054.5,-995.4 1054.5,-959.8 726.56,-959.8"/>
<text text-anchor="start" x="733.56" y="-973.2" font-family="Arial Bold" font-size="18.00">public.schema_migrations</text>
<text text-anchor="start" x="923.01" y="-973.2" font-family="Arial" font-size="14.00">    </text>
<text text-anchor="start" x="954.13" y="-973.2" font-family="Arial" font-size="14.00" fill="#666666">[BASE TABLE]</text>
<polygon fill="none" stroke="black" points="726.56,-929 726.56,-959.8 1054.5,-959.8 1054.5,-929 726.56,-929"/>
<text text-anchor="start" x="733.56" y="-941.2" font-family="Arial" font-size="14.00">version </text>
<text text-anchor="start" x="782.58" y="-941.2" font-family="Arial" font-size="14.00" fill="#666666">[varchar]</text>
</g>
<!-- public.robots -->
<g id="node3" class="node">
<title>public.robots</title>
<polygon fill="#efefef" stroke="none" points="181.65,-197.2 181.65,-232.8 431.42,-232.8 431.42,-197.2 181.65,-197.2"/>
<polygon fill="none" stroke="black" points="181.65,-197.2 181.65,-232.8 431.42,-232.8 431.42,-197.2 181.65,-197.2"/>
<text text-anchor="start" x="197.04" y="-210.6" font-family="Arial Bold" font-size="18.00">public.robots</text>
<text text-anchor="start" x="291.53" y="-210.6" font-family="Arial" font-size="14.00">    </text>
<text text-anchor="start" x="322.65" y="-210.6" font-family="Arial" font-size="14.00" fill="#666666">[BASE TABLE]</text>
<polygon fill="none" stroke="black" points="181.65,-166.4 181.65,-197.2 431.42,-197.2 431.42,-166.4 181.65,-166.4"/>
<text text-anchor="start" x="188.65" y="-178.6" font-family="Arial" font-size="14.00">id </text>
<text text-anchor="start" x="203.43" y="-178.6" font-family="Arial" font-size="14.00" fill="#666666">[bigint]</text>
<polygon fill="none" stroke="black" points="181.65,-135.6 181.65,-166.4 431.42,-166.4 431.42,-135.6 181.65,-135.6"/>
<text text-anchor="start" x="188.65" y="-147.8" font-family="Arial" font-size="14.00">name </text>
<text text-anchor="start" x="227.56" y="-147.8" font-family="Arial" font-size="14.00" fill="#666666">[text]</text>
<polygon fill="none" stroke="black" points="181.65,-104.8 181.65,-135.6 431.42,-135.6 431.42,-104.8 181.65,-104.8"/>
<text text-anchor="start" x="188.65" y="-117" font-family="Arial" font-size="14.00">created_at </text>
<text text-anchor="start" x="258.69" y="-117" font-family="Arial" font-size="14.00" fill="#666666">[timestamp with time zone]</text>
<polygon fill="none" stroke="black" points="181.65,-74 181.65,-104.8 431.42,-104.8 431.42,-74 181.65,-74"/>
<text text-anchor="start" x="188.65" y="-86.2" font-family="Arial" font-size="14.00">last_active </text>
<text text-anchor="start" x="258.68" y="-86.2" font-family="Arial" font-size="14.00" fill="#666666">[timestamp with time zone]</text>
<polygon fill="none" stroke="black" points="181.65,-43.2 181.65,-74 431.42,-74 431.42,-43.2 181.65,-43.2"/>
<text text-anchor="start" x="188.65" y="-55.4" font-family="Arial" font-size="14.00">metadata </text>
<text text-anchor="start" x="250.91" y="-55.4" font-family="Arial" font-size="14.00" fill="#666666">[jsonb]</text>
</g>
<!-- public.nodes&#45;&gt;public.robots -->
<g id="edge3" class="edge">
<title>public.nodes:robot_id&#45;&gt;public.robots:id</title>
<path fill="none" stroke="black" d="M453.64,-429.21C497.76,-400.96 484.53,-181.8 432.42,-181.8"/>
<polygon fill="black" stroke="black" points="453.59,-429.23 442.72,-427.79 448.48,-430.76 444.34,-432.01 444.34,-432.01 444.34,-432.01 448.48,-430.76 445.31,-436.41 453.59,-429.23"/>
<text text-anchor="start" x="450.7" y="-416.2" font-family="Arial" font-size="10.00">FOREIGN KEY (robot_id) REFERENCES robots(id) ON DELETE CASCADE</text>
</g>
</g>
</svg>
