<?xml version="1.0" encoding="UTF-8" standalone="no"?>
<!DOCTYPE svg PUBLIC "-//W3C//DTD SVG 1.1//EN"
 "http://www.w3.org/Graphics/SVG/1.1/DTD/svg11.dtd">
<!-- Generated by graphviz version 12.1.2 (20240928.0832)
 -->
<!-- Title: htm_development Pages: 1 -->
<svg width="3109pt" height="1216pt"
 viewBox="0.00 0.00 3108.90 1216.00" xmlns="http://www.w3.org/2000/svg" xmlns:xlink="http://www.w3.org/1999/xlink">
<g id="graph0" class="graph" transform="scale(1 1) rotate(0) translate(4 1212)">
<title>htm_development</title>
<polygon fill="white" stroke="none" points="-4,4 -4,-1212 3104.9,-1212 3104.9,4 -4,4"/>
<!-- public.relationships -->
<g id="node1" class="node">
<title>public.relationships</title>
<polygon fill="#efefef" stroke="none" points="98.14,-1129.2 98.14,-1164.8 378.11,-1164.8 378.11,-1129.2 98.14,-1129.2"/>
<polygon fill="none" stroke="black" points="98.14,-1129.2 98.14,-1164.8 378.11,-1164.8 378.11,-1129.2 98.14,-1129.2"/>
<text text-anchor="start" x="105.14" y="-1142.6" font-family="Arial Bold" font-size="18.00">public.relationships</text>
<text text-anchor="start" x="246.62" y="-1142.6" font-family="Arial" font-size="14.00">    </text>
<text text-anchor="start" x="277.74" y="-1142.6" font-family="Arial" font-size="14.00" fill="#666666">[BASE TABLE]</text>
<polygon fill="none" stroke="black" points="98.14,-1098.4 98.14,-1129.2 378.11,-1129.2 378.11,-1098.4 98.14,-1098.4"/>
<text text-anchor="start" x="105.14" y="-1110.6" font-family="Arial" font-size="14.00">id </text>
<text text-anchor="start" x="119.93" y="-1110.6" font-family="Arial" font-size="14.00" fill="#666666">[bigint]</text>
<polygon fill="none" stroke="black" points="98.14,-1067.6 98.14,-1098.4 378.11,-1098.4 378.11,-1067.6 98.14,-1067.6"/>
<text text-anchor="start" x="105.14" y="-1079.8" font-family="Arial" font-size="14.00">from_node_id </text>
<text text-anchor="start" x="194.64" y="-1079.8" font-family="Arial" font-size="14.00" fill="#666666">[bigint]</text>
<polygon fill="none" stroke="black" points="98.14,-1036.8 98.14,-1067.6 378.11,-1067.6 378.11,-1036.8 98.14,-1036.8"/>
<text text-anchor="start" x="105.14" y="-1049" font-family="Arial" font-size="14.00">to_node_id </text>
<text text-anchor="start" x="178.32" y="-1049" font-family="Arial" font-size="14.00" fill="#666666">[bigint]</text>
<polygon fill="none" stroke="black" points="98.14,-1006 98.14,-1036.8 378.11,-1036.8 378.11,-1006 98.14,-1006"/>
<text text-anchor="start" x="105.14" y="-1018.2" font-family="Arial" font-size="14.00">relationship_type </text>
<text text-anchor="start" x="214.88" y="-1018.2" font-family="Arial" font-size="14.00" fill="#666666">[text]</text>
<polygon fill="none" stroke="black" points="98.14,-975.2 98.14,-1006 378.11,-1006 378.11,-975.2 98.14,-975.2"/>
<text text-anchor="start" x="105.14" y="-987.4" font-family="Arial" font-size="14.00">strength </text>
<text text-anchor="start" x="159.62" y="-987.4" font-family="Arial" font-size="14.00" fill="#666666">[double precision]</text>
<polygon fill="none" stroke="black" points="98.14,-944.4 98.14,-975.2 378.11,-975.2 378.11,-944.4 98.14,-944.4"/>
<text text-anchor="start" x="105.14" y="-956.6" font-family="Arial" font-size="14.00">created_at </text>
<text text-anchor="start" x="175.19" y="-956.6" font-family="Arial" font-size="14.00" fill="#666666">[timestamp with time zone]</text>
</g>
<!-- public.nodes -->
<g id="node4" class="node">
<title>public.nodes</title>
<polygon fill="#efefef" stroke="none" points="470.96,-786.4 470.96,-822 743.29,-822 743.29,-786.4 470.96,-786.4"/>
<polygon fill="none" stroke="black" points="470.96,-786.4 470.96,-822 743.29,-822 743.29,-786.4 470.96,-786.4"/>
<text text-anchor="start" x="499.14" y="-799.8" font-family="Arial Bold" font-size="18.00">public.nodes</text>
<text text-anchor="start" x="590.62" y="-799.8" font-family="Arial" font-size="14.00">    </text>
<text text-anchor="start" x="621.74" y="-799.8" font-family="Arial" font-size="14.00" fill="#666666">[BASE TABLE]</text>
<polygon fill="none" stroke="black" points="470.96,-755.6 470.96,-786.4 743.29,-786.4 743.29,-755.6 470.96,-755.6"/>
<text text-anchor="start" x="477.96" y="-767.8" font-family="Arial" font-size="14.00">id </text>
<text text-anchor="start" x="492.75" y="-767.8" font-family="Arial" font-size="14.00" fill="#666666">[bigint]</text>
<polygon fill="none" stroke="black" points="470.96,-724.8 470.96,-755.6 743.29,-755.6 743.29,-724.8 470.96,-724.8"/>
<text text-anchor="start" x="477.96" y="-737" font-family="Arial" font-size="14.00">content </text>
<text text-anchor="start" x="527.77" y="-737" font-family="Arial" font-size="14.00" fill="#666666">[text]</text>
<polygon fill="none" stroke="black" points="470.96,-694 470.96,-724.8 743.29,-724.8 743.29,-694 470.96,-694"/>
<text text-anchor="start" x="477.96" y="-706.2" font-family="Arial" font-size="14.00">speaker </text>
<text text-anchor="start" x="531.66" y="-706.2" font-family="Arial" font-size="14.00" fill="#666666">[text]</text>
<polygon fill="none" stroke="black" points="470.96,-663.2 470.96,-694 743.29,-694 743.29,-663.2 470.96,-663.2"/>
<text text-anchor="start" x="477.96" y="-675.4" font-family="Arial" font-size="14.00">type </text>
<text text-anchor="start" x="508.31" y="-675.4" font-family="Arial" font-size="14.00" fill="#666666">[text]</text>
<polygon fill="none" stroke="black" points="470.96,-632.4 470.96,-663.2 743.29,-663.2 743.29,-632.4 470.96,-632.4"/>
<text text-anchor="start" x="477.96" y="-644.6" font-family="Arial" font-size="14.00">category </text>
<text text-anchor="start" x="535.54" y="-644.6" font-family="Arial" font-size="14.00" fill="#666666">[text]</text>
<polygon fill="none" stroke="black" points="470.96,-601.6 470.96,-632.4 743.29,-632.4 743.29,-601.6 470.96,-601.6"/>
<text text-anchor="start" x="477.96" y="-613.8" font-family="Arial" font-size="14.00">importance </text>
<text text-anchor="start" x="551.1" y="-613.8" font-family="Arial" font-size="14.00" fill="#666666">[double precision]</text>
<polygon fill="none" stroke="black" points="470.96,-570.8 470.96,-601.6 743.29,-601.6 743.29,-570.8 470.96,-570.8"/>
<text text-anchor="start" x="477.96" y="-583" font-family="Arial" font-size="14.00">created_at </text>
<text text-anchor="start" x="548.01" y="-583" font-family="Arial" font-size="14.00" fill="#666666">[timestamp with time zone]</text>
<polygon fill="none" stroke="black" points="470.96,-540 470.96,-570.8 743.29,-570.8 743.29,-540 470.96,-540"/>
<text text-anchor="start" x="477.96" y="-552.2" font-family="Arial" font-size="14.00">updated_at </text>
<text text-anchor="start" x="551.92" y="-552.2" font-family="Arial" font-size="14.00" fill="#666666">[timestamp with time zone]</text>
<polygon fill="none" stroke="black" points="470.96,-509.2 470.96,-540 743.29,-540 743.29,-509.2 470.96,-509.2"/>
<text text-anchor="start" x="477.96" y="-521.4" font-family="Arial" font-size="14.00">last_accessed </text>
<text text-anchor="start" x="570.57" y="-521.4" font-family="Arial" font-size="14.00" fill="#666666">[timestamp with time zone]</text>
<polygon fill="none" stroke="black" points="470.96,-478.4 470.96,-509.2 743.29,-509.2 743.29,-478.4 470.96,-478.4"/>
<text text-anchor="start" x="477.96" y="-490.6" font-family="Arial" font-size="14.00">token_count </text>
<text text-anchor="start" x="558.13" y="-490.6" font-family="Arial" font-size="14.00" fill="#666666">[integer]</text>
<polygon fill="none" stroke="black" points="470.96,-447.6 470.96,-478.4 743.29,-478.4 743.29,-447.6 470.96,-447.6"/>
<text text-anchor="start" x="477.96" y="-459.8" font-family="Arial" font-size="14.00">in_working_memory </text>
<text text-anchor="start" x="607.12" y="-459.8" font-family="Arial" font-size="14.00" fill="#666666">[boolean]</text>
<polygon fill="none" stroke="black" points="470.96,-416.8 470.96,-447.6 743.29,-447.6 743.29,-416.8 470.96,-416.8"/>
<text text-anchor="start" x="477.96" y="-429" font-family="Arial" font-size="14.00">robot_id </text>
<text text-anchor="start" x="532.44" y="-429" font-family="Arial" font-size="14.00" fill="#666666">[text]</text>
<polygon fill="none" stroke="black" points="470.96,-386 470.96,-416.8 743.29,-416.8 743.29,-386 470.96,-386"/>
<text text-anchor="start" x="477.96" y="-398.2" font-family="Arial" font-size="14.00">embedding </text>
<text text-anchor="start" x="551.12" y="-398.2" font-family="Arial" font-size="14.00" fill="#666666">[vector(2000)]</text>
<polygon fill="none" stroke="black" points="470.96,-355.2 470.96,-386 743.29,-386 743.29,-355.2 470.96,-355.2"/>
<text text-anchor="start" x="477.96" y="-367.4" font-family="Arial" font-size="14.00">embedding_dimension </text>
<text text-anchor="start" x="622.72" y="-367.4" font-family="Arial" font-size="14.00" fill="#666666">[integer]</text>
</g>
<!-- public.relationships&#45;&gt;public.nodes -->
<g id="edge1" class="edge">
<title>public.relationships:from_node_id&#45;&gt;public.nodes:id</title>
<path fill="none" stroke="black" d="M389.17,-1080.67C446.2,-1052.12 401.41,-771 469.96,-771"/>
<polygon fill="black" stroke="black" points="389.18,-1080.67 378.42,-1078.54 383.98,-1081.87 379.76,-1082.85 379.76,-1082.85 379.76,-1082.85 383.98,-1081.87 380.45,-1087.31 389.18,-1080.67"/>
<text text-anchor="start" x="7" y="-1093" font-family="Arial" font-size="10.00">FOREIGN KEY (from_node_id) REFERENCES nodes(id) ON DELETE CASCADE</text>
</g>
<!-- public.relationships&#45;&gt;public.nodes -->
<g id="edge2" class="edge">
<title>public.relationships:to_node_id&#45;&gt;public.nodes:id</title>
<path fill="none" stroke="black" d="M388.96,-1049.77C440.67,-1022.28 407.88,-771 469.96,-771"/>
<polygon fill="black" stroke="black" points="389.14,-1049.73 378.35,-1047.75 383.96,-1051 379.76,-1052.04 379.76,-1052.04 379.76,-1052.04 383.96,-1051 380.51,-1056.49 389.14,-1049.73"/>
<text text-anchor="start" x="18.66" y="-1062.2" font-family="Arial" font-size="10.00">FOREIGN KEY (to_node_id) REFERENCES nodes(id) ON DELETE CASCADE</text>
</g>
<!-- public.schema_migrations -->
<g id="node2" class="node">
<title>public.schema_migrations</title>
<polygon fill="#efefef" stroke="none" points="1236.15,-1052.2 1236.15,-1087.8 1564.1,-1087.8 1564.1,-1052.2 1236.15,-1052.2"/>
<polygon fill="none" stroke="black" points="1236.15,-1052.2 1236.15,-1087.8 1564.1,-1087.8 1564.1,-1052.2 1236.15,-1052.2"/>
<text text-anchor="start" x="1243.15" y="-1065.6" font-family="Arial Bold" font-size="18.00">public.schema_migrations</text>
<text text-anchor="start" x="1432.61" y="-1065.6" font-family="Arial" font-size="14.00">    </text>
<text text-anchor="start" x="1463.73" y="-1065.6" font-family="Arial" font-size="14.00" fill="#666666">[BASE TABLE]</text>
<polygon fill="none" stroke="black" points="1236.15,-1021.4 1236.15,-1052.2 1564.1,-1052.2 1564.1,-1021.4 1236.15,-1021.4"/>
<text text-anchor="start" x="1243.15" y="-1033.6" font-family="Arial" font-size="14.00">version </text>
<text text-anchor="start" x="1292.17" y="-1033.6" font-family="Arial" font-size="14.00" fill="#666666">[varchar]</text>
</g>
<!-- public.robots -->
<g id="node3" class="node">
<title>public.robots</title>
<polygon fill="#efefef" stroke="none" points="585.24,-197.2 585.24,-232.8 835.01,-232.8 835.01,-197.2 585.24,-197.2"/>
<polygon fill="none" stroke="black" points="585.24,-197.2 585.24,-232.8 835.01,-232.8 835.01,-197.2 585.24,-197.2"/>
<text text-anchor="start" x="600.63" y="-210.6" font-family="Arial Bold" font-size="18.00">public.robots</text>
<text text-anchor="start" x="695.12" y="-210.6" font-family="Arial" font-size="14.00">    </text>
<text text-anchor="start" x="726.24" y="-210.6" font-family="Arial" font-size="14.00" fill="#666666">[BASE TABLE]</text>
<polygon fill="none" stroke="black" points="585.24,-166.4 585.24,-197.2 835.01,-197.2 835.01,-166.4 585.24,-166.4"/>
<text text-anchor="start" x="592.24" y="-178.6" font-family="Arial" font-size="14.00">id </text>
<text text-anchor="start" x="607.02" y="-178.6" font-family="Arial" font-size="14.00" fill="#666666">[text]</text>
<polygon fill="none" stroke="black" points="585.24,-135.6 585.24,-166.4 835.01,-166.4 835.01,-135.6 585.24,-135.6"/>
<text text-anchor="start" x="592.24" y="-147.8" font-family="Arial" font-size="14.00">name </text>
<text text-anchor="start" x="631.15" y="-147.8" font-family="Arial" font-size="14.00" fill="#666666">[text]</text>
<polygon fill="none" stroke="black" points="585.24,-104.8 585.24,-135.6 835.01,-135.6 835.01,-104.8 585.24,-104.8"/>
<text text-anchor="start" x="592.24" y="-117" font-family="Arial" font-size="14.00">created_at </text>
<text text-anchor="start" x="662.29" y="-117" font-family="Arial" font-size="14.00" fill="#666666">[timestamp with time zone]</text>
<polygon fill="none" stroke="black" points="585.24,-74 585.24,-104.8 835.01,-104.8 835.01,-74 585.24,-74"/>
<text text-anchor="start" x="592.24" y="-86.2" font-family="Arial" font-size="14.00">last_active </text>
<text text-anchor="start" x="662.27" y="-86.2" font-family="Arial" font-size="14.00" fill="#666666">[timestamp with time zone]</text>
<polygon fill="none" stroke="black" points="585.24,-43.2 585.24,-74 835.01,-74 835.01,-43.2 585.24,-43.2"/>
<text text-anchor="start" x="592.24" y="-55.4" font-family="Arial" font-size="14.00">metadata </text>
<text text-anchor="start" x="654.5" y="-55.4" font-family="Arial" font-size="14.00" fill="#666666">[jsonb]</text>
</g>
<!-- public.nodes&#45;&gt;public.robots -->
<g id="edge3" class="edge">
<title>public.nodes:robot_id&#45;&gt;public.robots:id</title>
<path fill="none" stroke="black" d="M754.48,-431.07C794.71,-421.33 774.43,-350.7 743.29,-312 698.12,-255.87 630.47,-332.08 585.24,-276 558.95,-243.41 542.37,-181.8 584.24,-181.8"/>
<polygon fill="black" stroke="black" points="754.56,-431.07 744.13,-427.69 749.26,-431.65 744.95,-432.13 744.95,-432.13 744.95,-432.13 749.26,-431.65 745.12,-436.64 754.56,-431.07"/>
<text text-anchor="start" x="751.29" y="-442.2" font-family="Arial" font-size="10.00">FOREIGN KEY (robot_id) REFERENCES robots(id) ON DELETE CASCADE</text>
</g>
<!-- public.tags -->
<g id="node5" class="node">
<title>public.tags</title>
<polygon fill="#efefef" stroke="none" points="482.24,-1098.4 482.24,-1134 732.01,-1134 732.01,-1098.4 482.24,-1098.4"/>
<polygon fill="none" stroke="black" points="482.24,-1098.4 482.24,-1134 732.01,-1134 732.01,-1098.4 482.24,-1098.4"/>
<text text-anchor="start" x="505.64" y="-1111.8" font-family="Arial Bold" font-size="18.00">public.tags</text>
<text text-anchor="start" x="584.12" y="-1111.8" font-family="Arial" font-size="14.00">    </text>
<text text-anchor="start" x="615.24" y="-1111.8" font-family="Arial" font-size="14.00" fill="#666666">[BASE TABLE]</text>
<polygon fill="none" stroke="black" points="482.24,-1067.6 482.24,-1098.4 732.01,-1098.4 732.01,-1067.6 482.24,-1067.6"/>
<text text-anchor="start" x="489.24" y="-1079.8" font-family="Arial" font-size="14.00">id </text>
<text text-anchor="start" x="504.02" y="-1079.8" font-family="Arial" font-size="14.00" fill="#666666">[bigint]</text>
<polygon fill="none" stroke="black" points="482.24,-1036.8 482.24,-1067.6 732.01,-1067.6 732.01,-1036.8 482.24,-1036.8"/>
<text text-anchor="start" x="489.24" y="-1049" font-family="Arial" font-size="14.00">node_id </text>
<text text-anchor="start" x="542.96" y="-1049" font-family="Arial" font-size="14.00" fill="#666666">[bigint]</text>
<polygon fill="none" stroke="black" points="482.24,-1006 482.24,-1036.8 732.01,-1036.8 732.01,-1006 482.24,-1006"/>
<text text-anchor="start" x="489.24" y="-1018.2" font-family="Arial" font-size="14.00">tag </text>
<text text-anchor="start" x="512.59" y="-1018.2" font-family="Arial" font-size="14.00" fill="#666666">[text]</text>
<polygon fill="none" stroke="black" points="482.24,-975.2 482.24,-1006 732.01,-1006 732.01,-975.2 482.24,-975.2"/>
<text text-anchor="start" x="489.24" y="-987.4" font-family="Arial" font-size="14.00">created_at </text>
<text text-anchor="start" x="559.29" y="-987.4" font-family="Arial" font-size="14.00" fill="#666666">[timestamp with time zone]</text>
</g>
<!-- public.tags&#45;&gt;public.nodes -->
<g id="edge4" class="edge">
<title>public.tags:node_id&#45;&gt;public.nodes:id</title>
<path fill="none" stroke="black" d="M740.94,-1045.8C765.96,-1003.94 772.75,-771 744.29,-771"/>
<polygon fill="black" stroke="black" points="741.05,-1045.71 730.44,-1048.49 736.9,-1049.06 733.53,-1051.78 733.53,-1051.78 733.53,-1051.78 736.9,-1049.06 736.1,-1055.49 741.05,-1045.71"/>
<text text-anchor="start" x="386.46" y="-1062.2" font-family="Arial" font-size="10.00">FOREIGN KEY (node_id) REFERENCES nodes(id) ON DELETE CASCADE</text>
</g>
<!-- public.operations_log -->
<g id="node6" class="node">
<title>public.operations_log</title>
<polygon fill="#efefef" stroke="none" points="836.64,-1129.2 836.64,-1164.8 1131.6,-1164.8 1131.6,-1129.2 836.64,-1129.2"/>
<polygon fill="none" stroke="black" points="836.64,-1129.2 836.64,-1164.8 1131.6,-1164.8 1131.6,-1129.2 836.64,-1129.2"/>
<text text-anchor="start" x="843.64" y="-1142.6" font-family="Arial Bold" font-size="18.00">public.operations_log</text>
<text text-anchor="start" x="1000.12" y="-1142.6" font-family="Arial" font-size="14.00">    </text>
<text text-anchor="start" x="1031.23" y="-1142.6" font-family="Arial" font-size="14.00" fill="#666666">[BASE TABLE]</text>
<polygon fill="none" stroke="black" points="836.64,-1098.4 836.64,-1129.2 1131.6,-1129.2 1131.6,-1098.4 836.64,-1098.4"/>
<text text-anchor="start" x="843.64" y="-1110.6" font-family="Arial" font-size="14.00">id </text>
<text text-anchor="start" x="858.43" y="-1110.6" font-family="Arial" font-size="14.00" fill="#666666">[bigint]</text>
<polygon fill="none" stroke="black" points="836.64,-1067.6 836.64,-1098.4 1131.6,-1098.4 1131.6,-1067.6 836.64,-1067.6"/>
<text text-anchor="start" x="843.64" y="-1079.8" font-family="Arial" font-size="14.00">timestamp </text>
<text text-anchor="start" x="912.11" y="-1079.8" font-family="Arial" font-size="14.00" fill="#666666">[timestamp with time zone]</text>
<polygon fill="none" stroke="black" points="836.64,-1036.8 836.64,-1067.6 1131.6,-1067.6 1131.6,-1036.8 836.64,-1036.8"/>
<text text-anchor="start" x="843.64" y="-1049" font-family="Arial" font-size="14.00">operation </text>
<text text-anchor="start" x="905.91" y="-1049" font-family="Arial" font-size="14.00" fill="#666666">[text]</text>
<polygon fill="none" stroke="black" points="836.64,-1006 836.64,-1036.8 1131.6,-1036.8 1131.6,-1006 836.64,-1006"/>
<text text-anchor="start" x="843.64" y="-1018.2" font-family="Arial" font-size="14.00">node_id </text>
<text text-anchor="start" x="897.36" y="-1018.2" font-family="Arial" font-size="14.00" fill="#666666">[bigint]</text>
<polygon fill="none" stroke="black" points="836.64,-975.2 836.64,-1006 1131.6,-1006 1131.6,-975.2 836.64,-975.2"/>
<text text-anchor="start" x="843.64" y="-987.4" font-family="Arial" font-size="14.00">robot_id </text>
<text text-anchor="start" x="898.13" y="-987.4" font-family="Arial" font-size="14.00" fill="#666666">[text]</text>
<polygon fill="none" stroke="black" points="836.64,-944.4 836.64,-975.2 1131.6,-975.2 1131.6,-944.4 836.64,-944.4"/>
<text text-anchor="start" x="843.64" y="-956.6" font-family="Arial" font-size="14.00">details </text>
<text text-anchor="start" x="888" y="-956.6" font-family="Arial" font-size="14.00" fill="#666666">[jsonb]</text>
</g>
<!-- public.operations_log&#45;&gt;public.robots -->
<g id="edge5" class="edge">
<title>public.operations_log:robot_id&#45;&gt;public.robots:id</title>
<path fill="none" stroke="black" d="M826.32,-986.99C759.44,-928.65 922.37,-181.8 836.01,-181.8"/>
<polygon fill="black" stroke="black" points="826,-986.87 833.71,-994.68 830.98,-988.8 835.02,-990.36 835.02,-990.36 835.02,-990.36 830.98,-988.8 836.95,-986.28 826,-986.87"/>
<text text-anchor="start" x="842.64" y="-1000.6" font-family="Arial" font-size="10.00">FOREIGN KEY (robot_id) REFERENCES robots(id) ON DELETE CASCADE</text>
</g>
<!-- public.operations_log&#45;&gt;public.nodes -->
<g id="edge6" class="edge">
<title>public.operations_log:node_id&#45;&gt;public.nodes:id</title>
<path fill="none" stroke="black" d="M825.29,-1020.68C726.02,-1005.99 859.05,-771 744.29,-771"/>
<polygon fill="black" stroke="black" points="825.33,-1020.68 835,-1025.87 830.66,-1021.05 834.98,-1021.35 834.98,-1021.35 834.98,-1021.35 830.66,-1021.05 835.62,-1016.89 825.33,-1020.68"/>
<text text-anchor="start" x="842.64" y="-1031.4" font-family="Arial" font-size="10.00">FOREIGN KEY (node_id) REFERENCES nodes(id) ON DELETE CASCADE</text>
</g>
<!-- public.node_stats -->
<g id="node7" class="node">
<title>public.node_stats</title>
<polygon fill="#efefef" stroke="none" points="1668.14,-1129.2 1668.14,-1164.8 1896.11,-1164.8 1896.11,-1129.2 1668.14,-1129.2"/>
<polygon fill="none" stroke="black" points="1668.14,-1129.2 1668.14,-1164.8 1896.11,-1164.8 1896.11,-1129.2 1668.14,-1129.2"/>
<text text-anchor="start" x="1682.05" y="-1142.6" font-family="Arial Bold" font-size="18.00">public.node_stats</text>
<text text-anchor="start" x="1807.53" y="-1142.6" font-family="Arial" font-size="14.00">    </text>
<text text-anchor="start" x="1838.64" y="-1142.6" font-family="Arial" font-size="14.00" fill="#666666">[VIEW]</text>
<polygon fill="none" stroke="black" points="1668.14,-1098.4 1668.14,-1129.2 1896.11,-1129.2 1896.11,-1098.4 1668.14,-1098.4"/>
<text text-anchor="start" x="1675.14" y="-1110.6" font-family="Arial" font-size="14.00">type </text>
<text text-anchor="start" x="1705.49" y="-1110.6" font-family="Arial" font-size="14.00" fill="#666666">[text]</text>
<polygon fill="none" stroke="black" points="1668.14,-1067.6 1668.14,-1098.4 1896.11,-1098.4 1896.11,-1067.6 1668.14,-1067.6"/>
<text text-anchor="start" x="1675.14" y="-1079.8" font-family="Arial" font-size="14.00">count </text>
<text text-anchor="start" x="1713.28" y="-1079.8" font-family="Arial" font-size="14.00" fill="#666666">[bigint]</text>
<polygon fill="none" stroke="black" points="1668.14,-1036.8 1668.14,-1067.6 1896.11,-1067.6 1896.11,-1036.8 1668.14,-1036.8"/>
<text text-anchor="start" x="1675.14" y="-1049" font-family="Arial" font-size="14.00">avg_importance </text>
<text text-anchor="start" x="1778.64" y="-1049" font-family="Arial" font-size="14.00" fill="#666666">[double precision]</text>
<polygon fill="none" stroke="black" points="1668.14,-1006 1668.14,-1036.8 1896.11,-1036.8 1896.11,-1006 1668.14,-1006"/>
<text text-anchor="start" x="1675.14" y="-1018.2" font-family="Arial" font-size="14.00">total_tokens </text>
<text text-anchor="start" x="1754.52" y="-1018.2" font-family="Arial" font-size="14.00" fill="#666666">[bigint]</text>
<polygon fill="none" stroke="black" points="1668.14,-975.2 1668.14,-1006 1896.11,-1006 1896.11,-975.2 1668.14,-975.2"/>
<text text-anchor="start" x="1675.14" y="-987.4" font-family="Arial" font-size="14.00">oldest </text>
<text text-anchor="start" x="1716.39" y="-987.4" font-family="Arial" font-size="14.00" fill="#666666">[timestamp with time zone]</text>
<polygon fill="none" stroke="black" points="1668.14,-944.4 1668.14,-975.2 1896.11,-975.2 1896.11,-944.4 1668.14,-944.4"/>
<text text-anchor="start" x="1675.14" y="-956.6" font-family="Arial" font-size="14.00">newest </text>
<text text-anchor="start" x="1723.39" y="-956.6" font-family="Arial" font-size="14.00" fill="#666666">[timestamp with time zone]</text>
</g>
<!-- public.robot_activity -->
<g id="node8" class="node">
<title>public.robot_activity</title>
<polygon fill="#efefef" stroke="none" points="2000.72,-1098.4 2000.72,-1134 2299.53,-1134 2299.53,-1098.4 2000.72,-1098.4"/>
<polygon fill="none" stroke="black" points="2000.72,-1098.4 2000.72,-1134 2299.53,-1134 2299.53,-1098.4 2000.72,-1098.4"/>
<text text-anchor="start" x="2037.55" y="-1111.8" font-family="Arial Bold" font-size="18.00">public.robot_activity</text>
<text text-anchor="start" x="2188.02" y="-1111.8" font-family="Arial" font-size="14.00">    </text>
<text text-anchor="start" x="2219.14" y="-1111.8" font-family="Arial" font-size="14.00" fill="#666666">[VIEW]</text>
<polygon fill="none" stroke="black" points="2000.72,-1067.6 2000.72,-1098.4 2299.53,-1098.4 2299.53,-1067.6 2000.72,-1067.6"/>
<text text-anchor="start" x="2007.72" y="-1079.8" font-family="Arial" font-size="14.00">id </text>
<text text-anchor="start" x="2022.5" y="-1079.8" font-family="Arial" font-size="14.00" fill="#666666">[text]</text>
<polygon fill="none" stroke="black" points="2000.72,-1036.8 2000.72,-1067.6 2299.53,-1067.6 2299.53,-1036.8 2000.72,-1036.8"/>
<text text-anchor="start" x="2007.72" y="-1049" font-family="Arial" font-size="14.00">name </text>
<text text-anchor="start" x="2046.63" y="-1049" font-family="Arial" font-size="14.00" fill="#666666">[text]</text>
<polygon fill="none" stroke="black" points="2000.72,-1006 2000.72,-1036.8 2299.53,-1036.8 2299.53,-1006 2000.72,-1006"/>
<text text-anchor="start" x="2007.72" y="-1018.2" font-family="Arial" font-size="14.00">total_nodes </text>
<text text-anchor="start" x="2084" y="-1018.2" font-family="Arial" font-size="14.00" fill="#666666">[bigint]</text>
<polygon fill="none" stroke="black" points="2000.72,-975.2 2000.72,-1006 2299.53,-1006 2299.53,-975.2 2000.72,-975.2"/>
<text text-anchor="start" x="2007.72" y="-987.4" font-family="Arial" font-size="14.00">last_node_created </text>
<text text-anchor="start" x="2126.81" y="-987.4" font-family="Arial" font-size="14.00" fill="#666666">[timestamp with time zone]</text>
</g>
<!-- public.ontology_structure -->
<g id="node9" class="node">
<title>public.ontology_structure</title>
<polygon fill="#efefef" stroke="none" points="2404.05,-1113.8 2404.05,-1149.4 2678.2,-1149.4 2678.2,-1113.8 2404.05,-1113.8"/>
<polygon fill="none" stroke="black" points="2404.05,-1113.8 2404.05,-1149.4 2678.2,-1149.4 2678.2,-1113.8 2404.05,-1113.8"/>
<text text-anchor="start" x="2411.05" y="-1127.2" font-family="Arial Bold" font-size="18.00">public.ontology_structure</text>
<text text-anchor="start" x="2596.52" y="-1127.2" font-family="Arial" font-size="14.00">    </text>
<text text-anchor="start" x="2627.64" y="-1127.2" font-family="Arial" font-size="14.00" fill="#666666">[VIEW]</text>
<polygon fill="none" stroke="black" points="2404.05,-1083 2404.05,-1113.8 2678.2,-1113.8 2678.2,-1083 2404.05,-1083"/>
<text text-anchor="start" x="2411.05" y="-1095.2" font-family="Arial" font-size="14.00">root_topic </text>
<text text-anchor="start" x="2476.42" y="-1095.2" font-family="Arial" font-size="14.00" fill="#666666">[text]</text>
<polygon fill="none" stroke="black" points="2404.05,-1052.2 2404.05,-1083 2678.2,-1083 2678.2,-1052.2 2404.05,-1052.2"/>
<text text-anchor="start" x="2411.05" y="-1064.4" font-family="Arial" font-size="14.00">level1_topic </text>
<text text-anchor="start" x="2488.88" y="-1064.4" font-family="Arial" font-size="14.00" fill="#666666">[text]</text>
<polygon fill="none" stroke="black" points="2404.05,-1021.4 2404.05,-1052.2 2678.2,-1052.2 2678.2,-1021.4 2404.05,-1021.4"/>
<text text-anchor="start" x="2411.05" y="-1033.6" font-family="Arial" font-size="14.00">level2_topic </text>
<text text-anchor="start" x="2488.88" y="-1033.6" font-family="Arial" font-size="14.00" fill="#666666">[text]</text>
<polygon fill="none" stroke="black" points="2404.05,-990.6 2404.05,-1021.4 2678.2,-1021.4 2678.2,-990.6 2404.05,-990.6"/>
<text text-anchor="start" x="2411.05" y="-1002.8" font-family="Arial" font-size="14.00">full_path </text>
<text text-anchor="start" x="2467.87" y="-1002.8" font-family="Arial" font-size="14.00" fill="#666666">[text]</text>
<polygon fill="none" stroke="black" points="2404.05,-959.8 2404.05,-990.6 2678.2,-990.6 2678.2,-959.8 2404.05,-959.8"/>
<text text-anchor="start" x="2411.05" y="-972" font-family="Arial" font-size="14.00">node_count </text>
<text text-anchor="start" x="2488.12" y="-972" font-family="Arial" font-size="14.00" fill="#666666">[bigint]</text>
</g>
<!-- public.topic_relationships -->
<g id="node10" class="node">
<title>public.topic_relationships</title>
<polygon fill="#efefef" stroke="none" points="2782.55,-1083 2782.55,-1118.6 3057.7,-1118.6 3057.7,-1083 2782.55,-1083"/>
<polygon fill="none" stroke="black" points="2782.55,-1083 2782.55,-1118.6 3057.7,-1118.6 3057.7,-1083 2782.55,-1083"/>
<text text-anchor="start" x="2789.55" y="-1096.4" font-family="Arial Bold" font-size="18.00">public.topic_relationships</text>
<text text-anchor="start" x="2976.02" y="-1096.4" font-family="Arial" font-size="14.00">    </text>
<text text-anchor="start" x="3007.14" y="-1096.4" font-family="Arial" font-size="14.00" fill="#666666">[VIEW]</text>
<polygon fill="none" stroke="black" points="2782.55,-1052.2 2782.55,-1083 3057.7,-1083 3057.7,-1052.2 2782.55,-1052.2"/>
<text text-anchor="start" x="2789.55" y="-1064.4" font-family="Arial" font-size="14.00">topic1 </text>
<text text-anchor="start" x="2830.8" y="-1064.4" font-family="Arial" font-size="14.00" fill="#666666">[text]</text>
<polygon fill="none" stroke="black" points="2782.55,-1021.4 2782.55,-1052.2 3057.7,-1052.2 3057.7,-1021.4 2782.55,-1021.4"/>
<text text-anchor="start" x="2789.55" y="-1033.6" font-family="Arial" font-size="14.00">topic2 </text>
<text text-anchor="start" x="2830.8" y="-1033.6" font-family="Arial" font-size="14.00" fill="#666666">[text]</text>
<polygon fill="none" stroke="black" points="2782.55,-990.6 2782.55,-1021.4 3057.7,-1021.4 3057.7,-990.6 2782.55,-990.6"/>
<text text-anchor="start" x="2789.55" y="-1002.8" font-family="Arial" font-size="14.00">shared_nodes </text>
<text text-anchor="start" x="2882.18" y="-1002.8" font-family="Arial" font-size="14.00" fill="#666666">[bigint]</text>
</g>
</g>
</svg>
